P3
# Created by PPMWriter
80 40
255
255 255 255  255 255 255  255 255 255  255 255 255  255 255 255  255 255 255  255 255 255  255 255 255  255 255 255  255 255 255  255 255 255  255 255 255  255 255 255  255 255 255  255 255 255  255 255 255  255 255 255  255 255 255  255 255 255  255 255 255  255 255 255  255 255 255  255 255 255  255 255 255  255 255 255  255 255 255  255 255 255  255 255 255  255 255 255  255 255 255  255 255 255  255 255 255  255 255 255  255 255 255  255 255 255  255 255 255  255 255 255  255 255 255  255 255 255  255 255 255  255 255 255  255 255 255  255 255 255  255 255 255  255 255 255  255 255 255  255 255 255  255 255 255  255 255 255  255 255 255  255 255 255  255 255 255  255 255 255  255 255 255  255 255 255  255 255 255  255 255 255  255 255 255  255 255 255  255 255 255  255 255 255  255 255 255  255 255 255  255 255 255  255 255 255  255 255 255  255 255 255  255 255 255  255 255 255  255 255 255  255 255 255  255 255 255  255 255 255  255 255 255  255 255 255  255 255 255  255 255 255  255 255 255  255 255 255  255 255 255  
255 255 255  255 255 255  255 255 255  255 255 255  255 255 255  255 255 255  255 255 255  255 255 255  255 255 255  255 255 255  255 255 255  255 255 255  255 255 255  255 255 255  255 255 255  255 255 255  255 255 255  255 255 255  255 255 255  255 255 255  255 255 255  255 255 255  255 255 255  255 255 255  255 255 255  255 255 255  255 255 255  255 255 255  255 255 255  255 255 255  255 255 255  255 255 255  255 255 255  255 255 255  255 255 255  255 255 255  255 255 255  255 255 255  255 255 255  255 255 255  255 255 255  255 255 255  255 255 255  255 255 255  255 255 255  255 255 255  255 255 255  255 255 255  255 255 255  255 255 255  255 255 255  255 255 255  255 255 255  255 255 255  255 255 255  255 255 255  255 255 255  255 255 255  255 255 255  255 255 255  255 255 255  255 255 255  255 255 255  255 255 255  255 255 255  255 255 255  255 255 255  255 255 255  255 255 255  255 255 255  255 255 255  255 255 255  255 255 255  255 255 255  255 255 255  255 255 255  255 255 255  255 255 255  255 255 255  255 255 255  
0 0 0  0 0 0  0 0 0  0 0 0  176 176 176  255 255 255  150 150 150  116 116 116  142 142 142  137 137 137  80 80 80  110 110 110  241 241 241  119 119 119  103 103 103  158 158 158  188 188 188  164 164 164  186 186 186  159 159 159  168 168 168  168 168 168  196 196 196  201 201 201  200 200 200  165 165 165  175 175 175  232 232 232  227 227 227  226 226 226  213 213 213  214 214 214  255 255 255  255 255 255  254 254 254  228 228 228  223 223 223  226 226 226  226 226 226  226 226 226  226 226 226  226 226 226  226 226 226  223 223 223  228 228 228  254 254 254  255 255 255  255 255 255  214 214 214  213 213 213  226 226 226  226 226 226  235 235 235  191 191 191  166 166 166  200 200 200  201 201 201  181 181 181  155 155 155  174 174 174  160 160 160  187 187 187  170 170 170  129 129 129  152 152 152  161 161 161  157 157 157  87 87 87  95 95 95  145 145 145  172 172 172  60 60 60  0 0 0  0 0 0  19 19 19  127 127 127  6 6 6  0 0 0  0 0 0  0 0 0  
0 0 0  0 0 0  0 0 0  0 0 0  176 176 176  255 255 255  139 139 139  104 104 104  135 135 135  138 138 138  130 130 130  157 157 157  175 175 175  189 189 189  202 202 202  192 192 192  176 176 176  186 186 186  176 176 176  189 189 189  187 187 187  187 187 187  174 174 174  172 172 172  172 172 172  183 183 183  212 212 212  216 216 216  212 212 212  211 211 211  217 217 217  222 222 222  212 212 212  213 213 213  213 213 213  213 213 213  212 212 212  213 213 213  213 213 213  213 213 213  213 213 213  213 213 213  213 213 213  212 212 212  213 213 213  213 213 213  213 213 213  212 212 212  223 223 223  217 217 217  211 211 211  213 213 213  215 215 215  213 213 213  184 184 184  171 171 171  172 172 172  181 181 181  193 193 193  184 184 184  189 189 189  176 176 176  184 184 184  203 203 203  194 194 194  181 181 181  180 180 180  173 173 173  148 148 148  154 154 154  173 173 173  42 42 42  0 0 0  0 0 0  0 0 0  119 119 119  7 7 7  0 0 0  0 0 0  0 0 0  
0 0 0  0 0 0  0 0 0  0 0 0  175 175 175  255 255 255  168 168 168  125 125 125  150 150 150  170 170 170  193 193 193  199 199 199  194 194 194  206 206 206  209 209 209  208 208 208  208 208 208  208 208 208  208 208 208  208 208 208  208 208 208  208 208 208  208 208 208  208 208 208  208 208 208  209 209 209  203 203 203  197 197 197  199 199 199  199 199 199  198 198 198  196 196 196  196 196 196  196 196 196  196 196 196  198 198 198  199 199 199  199 199 199  199 199 199  199 199 199  199 199 199  199 199 199  199 199 199  199 199 199  198 198 198  196 196 196  196 196 196  196 196 196  196 196 196  198 198 198  199 199 199  199 199 199  197 197 197  201 201 201  209 209 209  208 208 208  208 208 208  208 208 208  208 208 208  212 212 212  216 216 216  218 218 218  219 219 219  219 219 219  218 218 218  216 216 216  210 210 210  205 205 205  199 199 199  186 186 186  173 173 173  121 121 121  108 108 108  120 120 120  130 130 130  148 148 148  3 3 3  0 0 0  0 0 0  0 0 0  
0 0 0  0 0 0  0 0 0  0 0 0  173 173 173  255 255 255  237 237 237  224 224 224  200 200 200  193 193 193  207 207 207  209 209 209  205 205 205  202 202 202  202 202 202  202 202 202  202 202 202  202 202 202  202 202 202  202 202 202  202 202 202  202 202 202  202 202 202  202 202 202  202 202 202  202 202 202  202 202 202  202 202 202  202 202 202  202 202 202  202 202 202  202 202 202  202 202 202  202 202 202  202 202 202  202 202 202  202 202 202  202 202 202  202 202 202  202 202 202  202 202 202  202 202 202  202 202 202  202 202 202  202 202 202  202 202 202  202 202 202  202 202 202  202 202 202  202 202 202  202 202 202  202 202 202  202 202 202  202 202 202  202 202 202  201 201 201  205 205 205  214 214 214  213 213 213  202 202 202  191 191 191  183 183 183  179 179 179  179 179 179  183 183 183  192 192 192  204 204 204  216 216 216  220 220 220  210 210 210  188 188 188  206 206 206  248 248 248  255 255 255  255 255 255  181 181 181  0 0 0  0 0 0  0 0 0  0 0 0  
0 0 0  0 0 0  0 0 0  0 0 0  173 173 173  255 255 255  231 231 231  210 210 210  207 207 207  205 205 205  202 202 202  202 202 202  202 202 202  202 202 202  202 202 202  202 202 202  202 202 202  202 202 202  202 202 202  202 202 202  202 202 202  202 202 202  202 202 202  202 202 202  202 202 202  202 202 202  202 202 202  202 202 202  202 202 202  202 202 202  202 202 202  202 202 202  202 202 202  202 202 202  202 202 202  202 202 202  202 202 202  202 202 202  202 202 202  202 202 202  202 202 202  202 202 202  202 202 202  202 202 202  202 202 202  202 202 202  202 202 202  202 202 202  202 202 202  202 202 202  202 202 202  202 202 202  202 202 202  201 201 201  203 203 203  215 215 215  208 208 208  182 182 182  158 158 158  141 141 141  132 132 132  127 127 127  125 125 125  125 125 125  127 127 127  132 132 132  142 142 142  159 159 159  184 184 184  210 210 210  218 218 218  208 208 208  204 204 204  222 222 222  255 255 255  173 173 173  0 0 0  0 0 0  0 0 0  0 0 0  
0 0 0  0 0 0  0 0 0  0 0 0  173 173 173  255 255 255  204 204 204  197 197 197  202 202 202  202 202 202  202 202 202  202 202 202  202 202 202  202 202 202  202 202 202  202 202 202  202 202 202  202 202 202  202 202 202  202 202 202  202 202 202  202 202 202  202 202 202  202 202 202  202 202 202  202 202 202  202 202 202  202 202 202  202 202 202  202 202 202  202 202 202  202 202 202  202 202 202  202 202 202  202 202 202  202 202 202  202 202 202  202 202 202  202 202 202  202 202 202  202 202 202  202 202 202  202 202 202  202 202 202  202 202 202  202 202 202  202 202 202  202 202 202  202 202 202  202 202 202  202 202 202  202 202 202  201 201 201  209 209 209  214 214 214  181 181 181  143 143 143  123 123 123  121 121 121  127 127 127  131 131 131  133 133 133  133 133 133  133 133 133  133 133 133  131 131 131  126 126 126  121 121 121  124 124 124  146 146 146  186 186 186  215 215 215  203 203 203  204 204 204  255 255 255  172 172 172  0 0 0  0 0 0  0 0 0  0 0 0  
103 103 103  103 103 103  99 99 99  64 64 64  174 174 174  229 229 229  197 197 197  203 203 203  202 202 202  202 202 202  202 202 202  202 202 202  202 202 202  202 202 202  202 202 202  202 202 202  202 202 202  202 202 202  202 202 202  202 202 202  202 202 202  202 202 202  202 202 202  202 202 202  202 202 202  202 202 202  202 202 202  202 202 202  202 202 202  202 202 202  202 202 202  202 202 202  202 202 202  202 202 202  202 202 202  202 202 202  202 202 202  202 202 202  202 202 202  202 202 202  202 202 202  202 202 202  202 202 202  202 202 202  202 202 202  202 202 202  202 202 202  202 202 202  202 202 202  202 202 202  202 202 202  201 201 201  213 213 213  206 206 206  155 155 155  120 120 120  123 123 123  133 133 133  134 134 134  134 134 134  134 134 134  134 134 134  134 134 134  134 134 134  134 134 134  134 134 134  134 134 134  135 135 135  133 133 133  122 122 122  121 121 121  160 160 160  210 210 210  207 207 207  227 227 227  176 176 176  64 64 64  99 99 99  103 103 103  103 103 103  
172 172 172  172 172 172  164 164 164  249 249 249  211 211 211  195 195 195  202 202 202  202 202 202  202 202 202  202 202 202  202 202 202  202 202 202  202 202 202  202 202 202  202 202 202  202 202 202  202 202 202  202 202 202  202 202 202  202 202 202  202 202 202  202 202 202  202 202 202  202 202 202  202 202 202  202 202 202  202 202 202  202 202 202  202 202 202  202 202 202  202 202 202  202 202 202  202 202 202  202 202 202  202 202 202  202 202 202  202 202 202  202 202 202  202 202 202  202 202 202  202 202 202  202 202 202  202 202 202  202 202 202  202 202 202  202 202 202  202 202 202  202 202 202  202 202 202  202 202 202  201 201 201  214 214 214  201 201 201  138 138 138  118 118 118  132 132 132  135 135 135  134 134 134  134 134 134  134 134 134  134 134 134  131 131 131  127 127 127  128 128 128  132 132 132  135 135 135  134 134 134  134 134 134  134 134 134  135 135 135  131 131 131  117 117 117  143 143 143  205 205 205  204 204 204  211 211 211  249 249 249  164 164 164  172 172 172  172 172 172  
0 0 0  0 0 0  10 10 10  225 225 225  211 211 211  202 202 202  202 202 202  202 202 202  202 202 202  202 202 202  202 202 202  202 202 202  202 202 202  204 204 204  207 207 207  206 206 206  204 204 204  204 204 204  206 206 206  207 207 207  204 204 204  202 202 202  202 202 202  202 202 202  202 202 202  202 202 202  202 202 202  202 202 202  202 202 202  202 202 202  202 202 202  202 202 202  202 202 202  202 202 202  202 202 202  202 202 202  202 202 202  202 202 202  202 202 202  202 202 202  202 202 202  202 202 202  202 202 202  202 202 202  202 202 202  202 202 202  202 202 202  202 202 202  202 202 202  201 201 201  212 212 212  202 202 202  135 135 135  120 120 120  135 135 135  134 134 134  134 134 134  134 134 134  135 135 135  133 133 133  123 123 123  138 138 138  163 163 163  160 160 160  133 133 133  125 125 125  135 135 135  134 134 134  134 134 134  134 134 134  134 134 134  134 134 134  119 119 119  140 140 140  206 206 206  219 219 219  223 223 223  12 12 12  0 0 0  0 0 0  
135 135 135  138 138 138  186 186 186  221 221 221  200 200 200  202 202 202  202 202 202  202 202 202  202 202 202  202 202 202  202 202 202  204 204 204  207 207 207  201 201 201  192 192 192  187 187 187  184 184 184  184 184 184  186 186 186  192 192 192  200 200 200  207 207 207  204 204 204  202 202 202  202 202 202  202 202 202  202 202 202  202 202 202  202 202 202  202 202 202  202 202 202  202 202 202  202 202 202  202 202 202  202 202 202  202 202 202  202 202 202  202 202 202  202 202 202  202 202 202  202 202 202  202 202 202  202 202 202  202 202 202  202 202 202  202 202 202  202 202 202  202 202 202  201 201 201  207 207 207  209 209 209  143 143 143  120 120 120  135 135 135  134 134 134  134 134 134  134 134 134  135 135 135  130 130 130  121 121 121  164 164 164  185 185 185  156 156 156  158 158 158  184 184 184  151 151 151  123 123 123  135 135 135  134 134 134  134 134 134  134 134 134  134 134 134  135 135 135  119 119 119  150 150 150  210 210 210  226 226 226  180 180 180  133 133 133  135 135 135  
255 255 255  255 255 255  215 215 215  192 192 192  202 202 202  202 202 202  202 202 202  202 202 202  202 202 202  202 202 202  205 205 205  204 204 204  188 188 188  176 176 176  176 176 176  186 186 186  188 188 188  188 188 188  185 185 185  174 174 174  176 176 176  188 188 188  203 203 203  206 206 206  202 202 202  202 202 202  202 202 202  202 202 202  202 202 202  202 202 202  202 202 202  202 202 202  202 202 202  202 202 202  202 202 202  202 202 202  202 202 202  202 202 202  202 202 202  202 202 202  202 202 202  202 202 202  202 202 202  202 202 202  202 202 202  202 202 202  202 202 202  202 202 202  202 202 202  216 216 216  165 165 165  118 118 118  134 134 134  134 134 134  134 134 134  134 134 134  135 135 135  127 127 127  124 124 124  175 175 175  186 186 186  98 98 98  66 66 66  66 66 66  113 113 113  184 184 184  145 145 145  129 129 129  134 134 134  134 134 134  134 134 134  134 134 134  134 134 134  133 133 133  118 118 118  172 172 172  208 208 208  211 211 211  255 255 255  255 255 255  
235 235 235  212 212 212  195 195 195  203 203 203  202 202 202  202 202 202  202 202 202  202 202 202  202 202 202  206 206 206  201 201 201  180 180 180  172 172 172  178 178 178  178 178 178  157 157 157  154 154 154  153 153 153  160 160 160  180 180 180  177 177 177  172 172 172  179 179 179  200 200 200  206 206 206  201 201 201  202 202 202  202 202 202  202 202 202  202 202 202  202 202 202  202 202 202  202 202 202  202 202 202  202 202 202  202 202 202  202 202 202  202 202 202  202 202 202  202 202 202  202 202 202  202 202 202  202 202 202  202 202 202  202 202 202  202 202 202  202 202 202  202 202 202  211 211 211  193 193 193  128 128 128  129 129 129  134 134 134  134 134 134  134 134 134  134 134 134  124 124 124  132 132 132  179 179 179  208 208 208  101 101 101  56 56 56  84 84 84  83 83 83  55 55 55  125 125 125  177 177 177  127 127 127  134 134 134  134 134 134  134 134 134  134 134 134  134 134 134  135 135 135  127 127 127  131 131 131  199 199 199  203 203 203  212 212 212  235 235 235  
234 234 234  196 196 196  201 201 201  202 202 202  202 202 202  202 202 202  202 202 202  202 202 202  205 205 205  202 202 202  178 178 178  173 173 173  178 178 178  193 193 193  141 141 141  72 72 72  82 82 82  80 80 80  78 78 78  155 155 155  191 191 191  178 178 178  173 173 173  177 177 177  202 202 202  205 205 205  202 202 202  202 202 202  202 202 202  202 202 202  202 202 202  202 202 202  202 202 202  202 202 202  202 202 202  202 202 202  202 202 202  202 202 202  202 202 202  202 202 202  202 202 202  202 202 202  202 202 202  202 202 202  202 202 202  202 202 202  202 202 202  202 202 202  214 214 214  159 159 159  120 120 120  135 135 135  134 134 134  135 135 135  132 132 132  122 122 122  142 142 142  186 186 186  209 209 209  172 172 172  75 75 75  80 80 80  84 84 84  84 84 84  74 74 74  95 95 95  170 170 170  136 136 136  133 133 133  134 134 134  134 134 134  134 134 134  134 134 134  134 134 134  135 135 135  119 119 119  164 164 164  214 214 214  197 197 197  234 234 234  
211 211 211  202 202 202  201 201 201  202 202 202  202 202 202  202 202 202  202 202 202  203 203 203  206 206 206  184 184 184  173 173 173  178 178 178  178 178 178  194 194 194  130 130 130  72 72 72  89 89 89  89 89 89  74 74 74  144 144 144  193 193 193  178 178 178  179 179 179  173 173 173  183 183 183  205 205 205  203 203 203  202 202 202  202 202 202  202 202 202  202 202 202  202 202 202  202 202 202  202 202 202  202 202 202  202 202 202  202 202 202  202 202 202  202 202 202  202 202 202  202 202 202  202 202 202  202 202 202  202 202 202  202 202 202  202 202 202  202 202 202  208 208 208  198 198 198  134 134 134  128 128 128  134 134 134  135 135 135  129 129 129  123 123 123  154 154 154  194 194 194  195 195 195  194 194 194  184 184 184  82 82 82  70 70 70  85 85 85  86 86 86  64 64 64  107 107 107  177 177 177  131 131 131  133 133 133  128 128 128  125 125 125  128 128 128  133 133 133  135 135 135  134 134 134  127 127 127  139 139 139  202 202 202  207 207 207  212 212 212  
195 195 195  207 207 207  202 202 202  202 202 202  202 202 202  202 202 202  202 202 202  206 206 206  195 195 195  173 173 173  178 178 178  180 180 180  180 180 180  195 195 195  135 135 135  76 76 76  91 91 91  90 90 90  79 79 79  148 148 148  194 194 194  180 180 180  180 180 180  179 179 179  173 173 173  194 194 194  206 206 206  202 202 202  202 202 202  202 202 202  202 202 202  202 202 202  202 202 202  202 202 202  202 202 202  202 202 202  202 202 202  202 202 202  202 202 202  202 202 202  202 202 202  202 202 202  202 202 202  202 202 202  202 202 202  202 202 202  202 202 202  214 214 214  178 178 178  122 122 122  134 134 134  135 135 135  126 126 126  129 129 129  174 174 174  207 207 207  196 196 196  185 185 185  187 187 187  203 203 203  144 144 144  60 60 60  64 64 64  62 62 62  70 70 70  167 167 167  164 164 164  119 119 119  128 128 128  164 164 164  181 181 181  169 169 169  132 132 132  126 126 126  135 135 135  133 133 133  125 125 125  182 182 182  217 217 217  196 196 196  
210 210 210  198 198 198  202 202 202  202 202 202  202 202 202  202 202 202  202 202 202  206 206 206  184 184 184  175 175 175  188 188 188  187 187 187  186 186 186  203 203 203  138 138 138  75 75 75  91 91 91  90 90 90  78 78 78  152 152 152  202 202 202  186 186 186  188 188 188  187 187 187  174 174 174  184 184 184  205 205 205  203 203 203  202 202 202  202 202 202  202 202 202  202 202 202  202 202 202  202 202 202  202 202 202  202 202 202  202 202 202  202 202 202  202 202 202  202 202 202  202 202 202  202 202 202  202 202 202  202 202 202  202 202 202  202 202 202  202 202 202  214 214 214  161 161 161  121 121 121  135 135 135  127 127 127  138 138 138  183 183 183  184 184 184  168 168 168  183 183 183  194 194 194  186 186 186  189 189 189  200 200 200  153 153 153  108 108 108  118 118 118  173 173 173  172 172 172  115 115 115  137 137 137  191 191 191  154 154 154  114 114 114  140 140 140  187 187 187  146 146 146  125 125 125  135 135 135  122 122 122  166 166 166  208 208 208  213 213 213  
205 205 205  201 201 201  202 202 202  202 202 202  202 202 202  202 202 202  204 204 204  201 201 201  181 181 181  180 180 180  133 133 133  107 107 107  114 114 114  118 118 118  103 103 103  87 87 87  91 91 91  91 91 91  88 88 88  106 106 106  118 118 118  114 114 114  105 105 105  141 141 141  185 185 185  179 179 179  200 200 200  204 204 204  202 202 202  202 202 202  202 202 202  202 202 202  202 202 202  202 202 202  202 202 202  202 202 202  202 202 202  202 202 202  202 202 202  202 202 202  202 202 202  202 202 202  202 202 202  202 202 202  202 202 202  202 202 202  204 204 204  209 209 209  150 150 150  124 124 124  131 131 131  134 134 134  182 182 182  161 161 161  126 126 126  125 125 125  133 133 133  175 175 175  194 194 194  185 185 185  188 188 188  202 202 202  210 210 210  207 207 207  163 163 163  112 112 112  138 138 138  207 207 207  121 121 121  0 0 0  0 0 0  0 0 0  92 92 92  187 187 187  136 136 136  132 132 132  123 123 123  156 156 156  209 209 209  205 205 205  
203 203 203  202 202 202  202 202 202  202 202 202  202 202 202  202 202 202  205 205 205  198 198 198  184 184 184  173 173 173  86 86 86  70 70 70  78 78 78  76 76 76  85 85 85  93 93 93  91 91 91  91 91 91  93 93 93  83 83 83  76 76 76  78 78 78  64 64 64  100 100 100  185 185 185  179 179 179  197 197 197  205 205 205  202 202 202  202 202 202  202 202 202  201 201 201  200 200 200  216 216 216  224 224 224  205 205 205  200 200 200  202 202 202  202 202 202  202 202 202  201 201 201  203 203 203  220 220 220  220 220 220  202 202 202  201 201 201  205 205 205  204 204 204  144 144 144  126 126 126  124 124 124  165 165 165  170 170 170  120 120 120  133 133 133  135 135 135  125 125 125  135 135 135  185 185 185  190 190 190  188 188 188  199 199 199  186 186 186  136 136 136  111 111 111  150 150 150  215 215 215  160 160 160  0 0 0  10 10 10  27 27 27  19 19 19  0 0 0  125 125 125  176 176 176  127 127 127  125 125 125  149 149 149  206 206 206  204 204 204  
202 202 202  202 202 202  202 202 202  202 202 202  202 202 202  202 202 202  205 205 205  196 196 196  183 183 183  173 173 173  96 96 96  84 84 84  91 91 91  91 91 91  91 91 91  91 91 91  91 91 91  91 91 91  91 91 91  91 91 91  91 91 91  91 91 91  79 79 79  108 108 108  183 183 183  179 179 179  196 196 196  205 205 205  202 202 202  202 202 202  201 201 201  205 205 205  225 225 225  182 182 182  156 156 156  202 202 202  205 205 205  202 202 202  202 202 202  200 200 200  210 210 210  222 222 222  166 166 166  167 167 167  209 209 209  202 202 202  206 206 206  202 202 202  142 142 142  127 127 127  126 126 126  171 171 171  154 154 154  126 126 126  135 135 135  135 135 135  135 135 135  127 127 127  170 170 170  199 199 199  199 199 199  173 173 173  122 122 122  116 116 116  164 164 164  197 197 197  225 225 225  106 106 106  0 0 0  28 28 28  25 25 25  27 27 27  0 0 0  85 85 85  183 183 183  126 126 126  125 125 125  147 147 147  206 206 206  204 204 204  
203 203 203  202 202 202  202 202 202  202 202 202  202 202 202  202 202 202  205 205 205  198 198 198  184 184 184  171 171 171  89 89 89  79 79 79  86 86 86  85 85 85  89 89 89  92 92 92  91 91 91  91 91 91  92 92 92  88 88 88  85 85 85  86 86 86  73 73 73  102 102 102  183 183 183  180 180 180  197 197 197  205 205 205  202 202 202  200 200 200  212 212 212  228 228 228  163 163 163  71 71 71  32 32 32  148 148 148  225 225 225  202 202 202  200 200 200  219 219 219  221 221 221  138 138 138  55 55 55  50 50 50  179 179 179  219 219 219  206 206 206  203 203 203  144 144 144  126 126 126  124 124 124  170 170 170  161 161 161  122 122 122  136 136 136  136 136 136  131 131 131  128 128 128  185 185 185  202 202 202  160 160 160  114 114 114  126 126 126  177 177 177  199 199 199  189 189 189  212 212 212  139 139 139  0 0 0  18 18 18  27 27 27  24 24 24  0 0 0  113 113 113  179 179 179  126 126 126  125 125 125  149 149 149  206 206 206  205 205 205  
205 205 205  201 201 201  202 202 202  202 202 202  202 202 202  202 202 202  204 204 204  202 202 202  184 184 184  178 178 178  108 108 108  81 81 81  90 90 90  90 90 90  91 91 91  91 91 91  91 91 91  91 91 91  91 91 91  91 91 91  90 90 90  90 90 90  78 78 78  121 121 121  186 186 186  180 180 180  200 200 200  204 204 204  199 199 199  214 214 214  218 218 218  133 133 133  59 59 59  46 46 46  65 65 65  173 173 173  218 218 218  199 199 199  221 221 221  206 206 206  108 108 108  52 52 52  46 46 46  87 87 87  195 195 195  213 213 213  204 204 204  208 208 208  150 150 150  124 124 124  128 128 128  146 146 146  184 184 184  139 139 139  122 122 122  124 124 124  121 121 121  168 168 168  197 197 197  146 146 146  111 111 111  141 141 141  190 190 190  200 200 200  188 188 188  186 186 186  191 191 191  205 205 205  84 84 84  0 0 0  0 0 0  0 0 0  63 63 63  185 185 185  142 142 142  131 131 131  123 123 123  155 155 155  208 208 208  206 206 206  
207 207 207  200 200 200  202 202 202  202 202 202  202 202 202  202 202 202  202 202 202  206 206 206  185 185 185  177 177 177  176 176 176  164 164 164  166 166 166  179 179 179  128 128 128  78 78 78  91 91 91  90 90 90  81 81 81  139 139 139  178 178 178  166 166 166  165 165 165  178 178 178  176 176 176  184 184 184  205 205 205  202 202 202  210 210 210  200 200 200  106 106 106  51 51 51  48 48 48  89 89 89  190 190 190  219 219 219  200 200 200  214 214 214  183 183 183  83 83 83  48 48 48  52 52 52  111 111 111  207 207 207  215 215 215  200 200 200  202 202 202  214 214 214  160 160 160  121 121 121  135 135 135  125 125 125  156 156 156  185 185 185  164 164 164  159 159 159  177 177 177  183 183 183  139 139 139  113 113 113  153 153 153  193 193 193  188 188 188  180 180 180  187 187 187  189 189 189  184 184 184  198 198 198  202 202 202  123 123 123  87 87 87  119 119 119  189 189 189  154 154 154  124 124 124  135 135 135  122 122 122  165 165 165  211 211 211  207 207 207  
212 212 212  198 198 198  202 202 202  202 202 202  202 202 202  202 202 202  202 202 202  206 206 206  196 196 196  173 173 173  183 183 183  188 188 188  187 187 187  204 204 204  138 138 138  74 74 74  91 91 91  90 90 90  78 78 78  153 153 153  202 202 202  187 187 187  188 188 188  182 182 182  172 172 172  195 195 195  206 206 206  202 202 202  223 223 223  164 164 164  33 33 33  48 48 48  116 116 116  211 211 211  224 224 224  201 201 201  201 201 201  228 228 228  129 129 129  20 20 20  63 63 63  141 141 141  223 223 223  218 218 218  199 199 199  202 202 202  202 202 202  215 215 215  175 175 175  122 122 122  134 134 134  134 134 134  125 125 125  145 145 145  170 170 170  173 173 173  163 163 163  131 131 131  117 117 117  150 150 150  195 195 195  177 177 177  169 169 169  170 170 170  174 174 174  186 186 186  188 188 188  184 184 184  192 192 192  218 218 218  226 226 226  204 204 204  141 141 141  122 122 122  135 135 135  133 133 133  125 125 125  181 181 181  209 209 209  211 211 211  
224 224 224  197 197 197  201 201 201  202 202 202  202 202 202  202 202 202  202 202 202  202 202 202  206 206 206  186 186 186  172 172 172  178 178 178  178 178 178  193 193 193  132 132 132  76 76 76  91 91 91  90 90 90  78 78 78  145 145 145  192 192 192  178 178 178  178 178 178  173 173 173  184 184 184  206 206 206  202 202 202  202 202 202  206 206 206  201 201 201  134 134 134  142 142 142  220 220 220  217 217 217  199 199 199  202 202 202  202 202 202  210 210 210  188 188 188  122 122 122  163 163 163  227 227 227  209 209 209  200 200 200  202 202 202  202 202 202  202 202 202  209 209 209  196 196 196  133 133 133  129 129 129  134 134 134  135 135 135  128 128 128  124 124 124  125 125 125  125 125 125  130 130 130  130 130 130  177 177 177  184 184 184  170 170 170  173 173 173  173 173 173  170 170 170  176 176 176  189 189 189  186 186 186  193 193 193  196 196 196  163 163 163  125 125 125  127 127 127  135 135 135  134 134 134  128 128 128  137 137 137  200 200 200  202 202 202  224 224 224  
255 255 255  208 208 208  195 195 195  202 202 202  202 202 202  202 202 202  202 202 202  202 202 202  205 205 205  203 203 203  180 180 180  173 173 173  178 178 178  195 195 195  131 131 131  60 60 60  75 75 75  74 74 74  64 64 64  146 146 146  194 194 194  178 178 178  173 173 173  178 178 178  203 203 203  205 205 205  202 202 202  202 202 202  200 200 200  205 205 205  222 222 222  222 222 222  206 206 206  200 200 200  202 202 202  202 202 202  202 202 202  199 199 199  209 209 209  225 225 225  218 218 218  202 202 202  201 201 201  202 202 202  202 202 202  202 202 202  202 202 202  202 202 202  213 213 213  156 156 156  120 120 120  135 135 135  134 134 134  134 134 134  134 134 134  134 134 134  134 134 134  131 131 131  137 137 137  180 180 180  176 176 176  172 172 172  173 173 173  173 173 173  172 172 172  174 174 174  186 186 186  198 198 198  191 191 191  149 149 149  123 123 123  131 131 131  135 135 135  134 134 134  135 135 135  119 119 119  161 161 161  209 209 209  208 208 208  255 255 255  
172 172 172  196 196 196  207 207 207  202 202 202  202 202 202  202 202 202  202 202 202  202 202 202  201 201 201  206 206 206  202 202 202  182 182 182  172 172 172  182 182 182  166 166 166  126 126 126  126 126 126  125 125 125  131 131 131  173 173 173  180 180 180  172 172 172  181 181 181  202 202 202  206 206 206  201 201 201  202 202 202  202 202 202  202 202 202  202 202 202  203 203 203  203 203 203  202 202 202  202 202 202  202 202 202  202 202 202  202 202 202  202 202 202  202 202 202  203 203 203  202 202 202  202 202 202  202 202 202  202 202 202  202 202 202  202 202 202  202 202 202  201 201 201  212 212 212  189 189 189  125 125 125  131 131 131  134 134 134  134 134 134  134 134 134  134 134 134  134 134 134  132 132 132  130 130 130  178 178 178  182 182 182  170 170 170  173 173 173  173 173 173  169 169 169  176 176 176  200 200 200  183 183 183  137 137 137  123 123 123  133 133 133  135 135 135  134 134 134  135 135 135  129 129 129  128 128 128  195 195 195  216 216 216  196 196 196  172 172 172  
166 166 166  205 205 205  212 212 212  200 200 200  202 202 202  202 202 202  202 202 202  202 202 202  202 202 202  201 201 201  205 205 205  205 205 205  190 190 190  176 176 176  180 180 180  190 190 190  188 188 188  189 189 189  189 189 189  178 178 178  176 176 176  189 189 189  204 204 204  206 206 206  201 201 201  202 202 202  202 202 202  202 202 202  202 202 202  202 202 202  202 202 202  202 202 202  202 202 202  202 202 202  202 202 202  202 202 202  202 202 202  202 202 202  202 202 202  202 202 202  202 202 202  202 202 202  202 202 202  202 202 202  202 202 202  202 202 202  202 202 202  202 202 202  202 202 202  215 215 215  160 160 160  118 118 118  135 135 135  134 134 134  134 134 134  134 134 134  134 134 134  134 134 134  125 125 125  155 155 155  195 195 195  175 175 175  170 170 170  170 170 170  177 177 177  196 196 196  173 173 173  129 129 129  125 125 125  135 135 135  134 134 134  134 134 134  134 134 134  134 134 134  117 117 117  168 168 168  215 215 215  211 211 211  204 204 204  166 166 166  
221 221 221  211 211 211  202 202 202  199 199 199  202 202 202  202 202 202  202 202 202  202 202 202  202 202 202  202 202 202  202 202 202  203 203 203  207 207 207  201 201 201  194 194 194  189 189 189  186 186 186  186 186 186  188 188 188  193 193 193  201 201 201  207 207 207  204 204 204  201 201 201  202 202 202  202 202 202  202 202 202  202 202 202  202 202 202  202 202 202  202 202 202  202 202 202  202 202 202  202 202 202  202 202 202  202 202 202  202 202 202  202 202 202  202 202 202  202 202 202  202 202 202  202 202 202  202 202 202  202 202 202  202 202 202  202 202 202  202 202 202  202 202 202  201 201 201  209 209 209  207 207 207  138 138 138  121 121 121  135 135 135  134 134 134  134 134 134  134 134 134  134 134 134  133 133 133  127 127 127  160 160 160  189 189 189  188 188 188  188 188 188  189 189 189  160 160 160  124 124 124  128 128 128  135 135 135  134 134 134  134 134 134  134 134 134  135 135 135  120 120 120  145 145 145  210 210 210  203 203 203  202 202 202  211 211 211  221 221 221  
202 202 202  201 201 201  205 205 205  209 209 209  199 199 199  202 202 202  202 202 202  202 202 202  202 202 202  202 202 202  202 202 202  202 202 202  202 202 202  204 204 204  206 206 206  206 206 206  205 205 205  205 205 205  206 206 206  206 206 206  204 204 204  202 202 202  202 202 202  202 202 202  202 202 202  202 202 202  202 202 202  202 202 202  202 202 202  202 202 202  202 202 202  202 202 202  202 202 202  202 202 202  202 202 202  202 202 202  202 202 202  202 202 202  202 202 202  202 202 202  202 202 202  202 202 202  202 202 202  202 202 202  202 202 202  202 202 202  202 202 202  202 202 202  202 202 202  201 201 201  213 213 213  198 198 198  130 130 130  122 122 122  135 135 135  134 134 134  134 134 134  134 134 134  135 135 135  132 132 132  126 126 126  144 144 144  160 160 160  160 160 160  141 141 141  125 125 125  131 131 131  135 135 135  134 134 134  134 134 134  134 134 134  135 135 135  121 121 121  135 135 135  202 202 202  209 209 209  207 207 207  205 205 205  201 201 201  202 202 202  
252 252 252  252 252 252  253 253 253  236 236 236  198 198 198  198 198 198  202 202 202  202 202 202  202 202 202  202 202 202  202 202 202  202 202 202  202 202 202  202 202 202  202 202 202  202 202 202  202 202 202  202 202 202  202 202 202  202 202 202  202 202 202  202 202 202  202 202 202  202 202 202  202 202 202  202 202 202  202 202 202  202 202 202  202 202 202  202 202 202  202 202 202  202 202 202  202 202 202  202 202 202  202 202 202  202 202 202  202 202 202  202 202 202  202 202 202  202 202 202  202 202 202  202 202 202  202 202 202  202 202 202  202 202 202  202 202 202  202 202 202  202 202 202  202 202 202  202 202 202  200 200 200  215 215 215  196 196 196  132 132 132  119 119 119  133 133 133  135 135 135  134 134 134  134 134 134  134 134 134  134 134 134  128 128 128  125 125 125  125 125 125  129 129 129  134 134 134  134 134 134  134 134 134  134 134 134  135 135 135  133 133 133  118 118 118  137 137 137  201 201 201  210 210 210  197 197 197  236 236 236  253 253 253  252 252 252  252 252 252  
255 255 255  255 255 255  255 255 255  240 240 240  213 213 213  204 204 204  200 200 200  202 202 202  202 202 202  202 202 202  202 202 202  202 202 202  202 202 202  202 202 202  202 202 202  202 202 202  202 202 202  202 202 202  202 202 202  202 202 202  202 202 202  202 202 202  202 202 202  202 202 202  202 202 202  202 202 202  201 201 201  199 199 199  200 200 200  200 200 200  200 200 200  200 200 200  200 200 200  200 200 200  200 200 200  200 200 200  200 200 200  200 200 200  200 200 200  200 200 200  200 200 200  200 200 200  200 200 200  200 200 200  200 200 200  200 200 200  200 200 200  200 200 200  200 200 200  200 200 200  200 200 200  199 199 199  212 212 212  201 201 201  148 148 148  119 119 119  125 125 125  134 134 134  134 134 134  134 134 134  134 134 134  134 134 134  134 134 134  134 134 134  134 134 134  134 134 134  134 134 134  135 135 135  134 134 134  124 124 124  120 120 120  152 152 152  205 205 205  210 210 210  203 203 203  208 208 208  237 237 237  255 255 255  255 255 255  255 255 255  
255 255 255  255 255 255  255 255 255  236 236 236  216 216 216  218 218 218  203 203 203  199 199 199  201 201 201  202 202 202  202 202 202  202 202 202  202 202 202  202 202 202  202 202 202  202 202 202  202 202 202  202 202 202  202 202 202  202 202 202  202 202 202  202 202 202  202 202 202  202 202 202  202 202 202  200 200 200  203 203 203  212 212 212  215 215 215  214 214 214  214 214 214  214 214 214  214 214 214  214 214 214  214 214 214  214 214 214  214 214 214  214 214 214  214 214 214  214 214 214  214 214 214  214 214 214  214 214 214  214 214 214  214 214 214  214 214 214  214 214 214  214 214 214  214 214 214  214 214 214  214 214 214  214 214 214  212 212 212  219 219 219  208 208 208  175 175 175  138 138 138  121 121 121  122 122 122  129 129 129  132 132 132  134 134 134  134 134 134  134 134 134  133 133 133  132 132 132  128 128 128  121 121 121  122 122 122  141 141 141  178 178 178  212 212 212  208 208 208  204 204 204  217 217 217  210 210 210  233 233 233  255 255 255  255 255 255  255 255 255  
255 255 255  255 255 255  255 255 255  236 236 236  214 214 214  215 215 215  209 209 209  208 208 208  207 207 207  212 212 212  200 200 200  201 201 201  202 202 202  202 202 202  202 202 202  202 202 202  202 202 202  202 202 202  202 202 202  202 202 202  202 202 202  202 202 202  200 200 200  206 206 206  211 211 211  205 205 205  202 202 202  218 218 218  224 224 224  220 220 220  220 220 220  220 220 220  220 220 220  220 220 220  220 220 220  220 220 220  220 220 220  220 220 220  220 220 220  220 220 220  220 220 220  220 220 220  220 220 220  220 220 220  220 220 220  220 220 220  220 220 220  220 220 220  220 220 220  220 220 220  220 220 220  221 221 221  217 217 217  194 194 194  205 205 205  210 210 210  203 203 203  175 175 175  152 152 152  136 136 136  127 127 127  124 124 124  123 123 123  123 123 123  124 124 124  128 128 128  137 137 137  154 154 154  178 178 178  203 203 203  224 224 224  209 209 209  203 203 203  211 211 211  216 216 216  208 208 208  234 234 234  255 255 255  255 255 255  255 255 255  
255 255 255  255 255 255  255 255 255  236 236 236  214 214 214  213 213 213  207 207 207  226 226 226  203 203 203  187 187 187  212 212 212  210 210 210  202 202 202  201 201 201  201 201 201  202 202 202  202 202 202  202 202 202  202 202 202  200 200 200  202 202 202  211 211 211  204 204 204  203 203 203  201 201 201  217 217 217  192 192 192  212 212 212  222 222 222  218 218 218  218 218 218  218 218 218  218 218 218  218 218 218  218 218 218  218 218 218  218 218 218  218 218 218  218 218 218  218 218 218  218 218 218  218 218 218  218 218 218  218 218 218  218 218 218  218 218 218  218 218 218  218 218 218  218 218 218  218 218 218  218 218 218  220 220 220  202 202 202  159 159 159  231 231 231  214 214 214  201 201 201  215 215 215  220 220 220  200 200 200  183 183 183  177 177 177  173 173 173  173 173 173  178 178 178  186 186 186  198 198 198  211 211 211  207 207 207  205 205 205  191 191 191  205 205 205  216 216 216  207 207 207  215 215 215  208 208 208  234 234 234  255 255 255  255 255 255  255 255 255  
255 255 255  255 255 255  255 255 255  236 236 236  214 214 214  213 213 213  207 207 207  241 241 241  178 178 178  118 118 118  197 197 197  195 195 195  213 213 213  214 214 214  199 199 199  205 205 205  193 193 193  193 193 193  196 196 196  200 200 200  206 206 206  198 198 198  226 226 226  118 118 118  107 107 107  230 230 230  194 194 194  213 213 213  222 222 222  218 218 218  218 218 218  218 218 218  218 218 218  218 218 218  218 218 218  218 218 218  218 218 218  218 218 218  218 218 218  218 218 218  218 218 218  218 218 218  218 218 218  218 218 218  218 218 218  218 218 218  218 218 218  218 218 218  218 218 218  218 218 218  218 218 218  220 220 220  204 204 204  161 161 161  244 244 244  228 228 228  212 212 212  212 212 212  200 200 200  206 206 206  210 210 210  208 208 208  205 205 205  205 205 205  217 217 217  210 210 210  202 202 202  204 204 204  227 227 227  225 225 225  111 111 111  179 179 179  232 232 232  207 207 207  215 215 215  208 208 208  234 234 234  255 255 255  255 255 255  255 255 255  
255 255 255  255 255 255  255 255 255  236 236 236  214 214 214  213 213 213  207 207 207  239 239 239  181 181 181  124 124 124  172 172 172  156 156 156  153 153 153  167 167 167  228 228 228  196 196 196  229 229 229  228 228 228  219 219 219  246 246 246  175 175 175  83 83 83  232 232 232  104 104 104  97 97 97  234 234 234  195 195 195  213 213 213  222 222 222  218 218 218  218 218 218  218 218 218  218 218 218  218 218 218  218 218 218  218 218 218  218 218 218  218 218 218  218 218 218  218 218 218  218 218 218  218 218 218  218 218 218  218 218 218  218 218 218  218 218 218  218 218 218  218 218 218  218 218 218  218 218 218  218 218 218  220 220 220  204 204 204  162 162 162  240 240 240  220 220 220  229 229 229  215 215 215  57 57 57  164 164 164  246 246 246  217 217 217  227 227 227  229 229 229  196 196 196  217 217 217  241 241 241  187 187 187  249 249 249  239 239 239  104 104 104  182 182 182  230 230 230  207 207 207  215 215 215  208 208 208  234 234 234  255 255 255  255 255 255  255 255 255  
255 255 255  255 255 255  255 255 255  255 255 255  255 255 255  255 255 255  255 255 255  255 255 255  255 255 255  255 255 255  255 255 255  255 255 255  255 255 255  255 255 255  255 255 255  255 255 255  255 255 255  255 255 255  255 255 255  255 255 255  255 255 255  255 255 255  255 255 255  255 255 255  255 255 255  255 255 255  255 255 255  255 255 255  255 255 255  255 255 255  255 255 255  255 255 255  255 255 255  255 255 255  255 255 255  255 255 255  255 255 255  255 255 255  255 255 255  255 255 255  255 255 255  255 255 255  255 255 255  255 255 255  255 255 255  255 255 255  255 255 255  255 255 255  255 255 255  255 255 255  255 255 255  255 255 255  255 255 255  255 255 255  255 255 255  255 255 255  255 255 255  255 255 255  255 255 255  255 255 255  255 255 255  255 255 255  255 255 255  255 255 255  255 255 255  255 255 255  255 255 255  255 255 255  255 255 255  255 255 255  255 255 255  255 255 255  255 255 255  255 255 255  255 255 255  255 255 255  255 255 255  255 255 255  255 255 255  255 255 255  
255 255 255  255 255 255  255 255 255  255 255 255  255 255 255  255 255 255  255 255 255  255 255 255  255 255 255  255 255 255  255 255 255  255 255 255  255 255 255  255 255 255  255 255 255  255 255 255  255 255 255  255 255 255  255 255 255  255 255 255  255 255 255  255 255 255  255 255 255  255 255 255  255 255 255  255 255 255  255 255 255  255 255 255  255 255 255  255 255 255  255 255 255  255 255 255  255 255 255  255 255 255  255 255 255  255 255 255  255 255 255  255 255 255  255 255 255  255 255 255  255 255 255  255 255 255  255 255 255  255 255 255  255 255 255  255 255 255  255 255 255  255 255 255  255 255 255  255 255 255  255 255 255  255 255 255  255 255 255  255 255 255  255 255 255  255 255 255  255 255 255  255 255 255  255 255 255  255 255 255  255 255 255  255 255 255  255 255 255  255 255 255  255 255 255  255 255 255  255 255 255  255 255 255  255 255 255  255 255 255  255 255 255  255 255 255  255 255 255  255 255 255  255 255 255  255 255 255  255 255 255  255 255 255  255 255 255  255 255 255  
