P3
# Created by PPMWriter
80 40
255
255 255 255  255 255 255  255 255 255  255 255 255  255 255 255  255 255 255  255 255 255  255 255 255  255 255 255  255 255 255  255 255 255  255 255 255  255 255 255  255 255 255  255 255 255  255 255 255  255 255 255  255 255 255  255 255 255  255 255 255  255 255 255  255 255 255  255 255 255  255 255 255  255 255 255  255 255 255  255 255 255  255 255 255  255 255 255  255 255 255  255 255 255  255 255 255  255 255 255  255 255 255  255 255 255  255 255 255  255 255 255  255 255 255  255 255 255  255 255 255  255 255 255  255 255 255  255 255 255  255 255 255  255 255 255  255 255 255  255 255 255  255 255 255  255 255 255  255 255 255  255 255 255  255 255 255  255 255 255  255 255 255  255 255 255  255 255 255  255 255 255  255 255 255  255 255 255  255 255 255  255 255 255  255 255 255  255 255 255  255 255 255  255 255 255  255 255 255  255 255 255  255 255 255  255 255 255  255 255 255  255 255 255  255 255 255  255 255 255  255 255 255  255 255 255  255 255 255  255 255 255  255 255 255  255 255 255  255 255 255  
255 255 255  255 255 255  255 255 255  255 255 255  255 255 255  255 255 255  255 255 255  255 255 255  255 255 255  255 255 255  255 255 255  255 255 255  255 255 255  255 255 255  255 255 255  255 255 255  255 255 255  255 255 255  255 255 255  255 255 255  255 255 255  255 255 255  255 255 255  255 255 255  255 255 255  255 255 255  255 255 255  255 255 255  255 255 255  255 255 255  255 255 255  255 255 255  255 255 255  255 255 255  255 255 255  255 255 255  255 255 255  255 255 255  255 255 255  255 255 255  255 255 255  255 255 255  255 255 255  255 255 255  255 255 255  255 255 255  255 255 255  255 255 255  255 255 255  255 255 255  255 255 255  255 255 255  255 255 255  255 255 255  255 255 255  255 255 255  255 255 255  255 255 255  255 255 255  255 255 255  255 255 255  255 255 255  255 255 255  255 255 255  255 255 255  255 255 255  255 255 255  255 255 255  255 255 255  255 255 255  255 255 255  255 255 255  255 255 255  255 255 255  255 255 255  255 255 255  255 255 255  255 255 255  255 255 255  255 255 255  
0 0 0  0 0 0  0 0 0  6 6 6  127 127 127  19 19 19  0 0 0  0 0 0  60 60 62  172 172 178  145 145 147  95 95 94  87 87 87  157 157 163  161 161 168  152 152 158  129 129 133  170 170 174  187 187 191  159 160 166  174 174 182  154 155 161  181 181 186  201 201 206  200 200 205  166 166 171  190 191 195  236 235 241  226 226 232  226 226 233  213 213 218  214 214 215  255 255 255  255 255 255  254 254 254  228 228 232  223 223 230  226 226 232  226 226 232  226 226 232  226 226 232  226 226 232  226 226 232  223 223 230  228 228 232  254 254 254  255 255 255  255 255 255  214 214 215  213 213 218  226 226 233  227 227 234  232 232 238  175 175 179  165 165 170  201 200 206  201 201 206  196 196 202  169 168 176  168 168 175  160 159 166  186 186 190  164 164 169  188 188 194  158 158 165  103 103 107  119 119 122  241 241 244  110 110 109  80 80 81  137 137 117  142 142 209  116 116 255  151 150 255  255 255 255  174 176 171  0 0 0  0 0 0  0 0 0  0 0 0  
0 0 0  0 0 0  0 0 0  7 7 7  119 119 119  0 0 0  0 0 0  0 0 0  42 42 44  173 173 178  154 154 158  148 148 153  173 173 179  180 180 187  180 181 187  193 194 200  203 203 210  183 184 190  175 176 183  189 189 195  184 184 190  193 193 199  181 181 188  172 172 179  171 171 178  184 184 191  211 213 218  215 215 220  212 213 218  211 211 216  216 217 221  222 223 227  211 212 216  212 213 217  212 213 217  212 213 217  212 212 218  212 213 218  212 213 218  212 213 218  212 213 218  212 213 218  212 213 218  212 212 218  212 213 217  212 213 217  212 213 217  211 212 216  221 222 226  216 217 221  211 211 216  212 212 217  216 216 221  211 212 217  182 183 189  171 172 178  172 172 179  174 174 181  186 187 192  187 187 192  189 189 195  176 176 183  185 186 192  176 176 182  191 192 198  201 202 209  188 189 195  175 175 181  157 157 164  130 130 135  138 138 114  135 135 210  105 104 255  140 139 255  255 255 255  175 176 171  0 0 0  0 0 0  0 0 0  0 0 0  
0 0 0  0 0 0  0 0 0  3 3 3  148 148 148  130 130 130  120 120 120  109 108 108  121 121 126  173 173 181  186 186 192  198 199 205  204 205 210  209 210 213  215 216 219  218 218 222  218 219 222  218 219 222  218 218 222  215 216 219  211 212 215  207 208 212  206 208 211  207 208 211  207 208 212  207 209 212  200 201 205  196 197 201  197 199 202  198 199 203  197 198 202  195 196 200  195 196 200  195 196 200  195 196 200  197 198 202  198 199 202  197 199 202  197 199 202  197 199 202  197 199 202  197 199 202  197 199 202  198 199 202  197 198 202  195 196 200  195 196 200  195 196 200  195 196 200  197 198 202  198 199 203  197 199 202  196 197 201  201 203 206  208 209 213  207 208 211  207 208 211  207 208 211  207 208 211  207 208 211  207 208 212  207 208 212  207 208 212  207 208 211  207 208 212  207 209 212  205 206 209  193 194 199  199 199 205  193 193 200  169 170 158  150 150 207  125 125 242  168 168 250  255 255 255  173 175 171  0 0 0  0 0 0  0 0 0  0 0 0  
0 0 0  0 0 0  0 0 0  0 0 0  181 181 181  255 255 255  255 255 255  246 248 250  205 206 212  187 188 193  209 210 213  219 220 223  215 216 219  203 204 208  191 192 196  182 183 187  177 179 183  177 179 183  181 183 187  189 191 195  202 202 206  212 213 217  213 214 218  204 205 209  200 201 205  201 202 206  201 202 206  201 202 206  201 202 206  201 202 206  201 202 206  201 202 206  201 202 206  201 202 206  201 202 206  201 202 206  201 202 206  201 202 206  201 202 206  201 202 206  201 202 206  201 202 206  201 202 206  201 202 206  201 202 206  201 202 206  201 202 206  201 202 206  201 202 206  201 202 206  201 202 206  201 202 206  201 202 206  201 202 206  201 202 206  201 202 206  201 202 206  201 202 206  201 202 206  201 202 206  201 202 206  201 202 206  201 202 206  201 202 206  201 202 206  201 202 206  201 202 206  203 205 208  207 209 212  206 207 210  192 193 200  199 200 200  220 224 217  233 237 230  255 255 255  170 173 173  0 0 0  0 0 0  0 0 0  0 0 0  
0 0 0  0 0 0  0 0 0  0 0 0  173 173 173  255 255 255  221 222 227  202 204 209  207 208 212  218 218 222  210 210 214  182 184 188  156 159 163  138 142 146  128 132 136  122 127 131  120 125 129  120 125 129  122 127 131  127 132 136  137 141 145  154 158 162  179 182 186  208 208 212  215 215 219  202 203 207  200 201 205  201 202 206  201 202 206  201 202 206  201 202 206  201 202 206  201 202 206  201 202 206  201 202 206  201 202 206  201 202 206  201 202 206  201 202 206  201 202 206  201 202 206  201 202 206  201 202 206  201 202 206  201 202 206  201 202 206  201 202 206  201 202 206  201 202 206  201 202 206  201 202 206  201 202 206  201 202 206  201 202 206  201 202 206  201 202 206  201 202 206  201 202 206  201 202 206  201 202 206  201 202 206  201 202 206  201 202 206  201 202 206  201 202 206  201 202 206  201 202 206  201 202 206  201 202 206  201 202 206  205 205 210  206 207 209  207 210 209  229 231 231  255 255 255  170 173 173  0 0 0  0 0 0  0 0 0  0 0 0  
0 0 0  0 0 0  0 0 0  0 0 0  173 172 171  255 255 255  202 204 207  203 203 208  215 215 219  183 186 189  142 146 150  119 124 128  115 121 125  121 126 130  125 131 135  127 133 137  128 133 137  128 133 137  128 133 137  126 131 135  121 127 131  115 121 125  118 123 128  139 143 148  179 181 185  214 214 218  209 209 213  200 201 205  201 202 206  201 202 206  201 202 206  201 202 206  201 202 206  201 202 206  201 202 206  201 202 206  201 202 206  201 202 206  201 202 206  201 202 206  201 202 206  201 202 206  201 202 206  201 202 206  201 202 206  201 202 206  201 202 206  201 202 206  201 202 206  201 202 206  201 202 206  201 202 206  201 202 206  201 202 206  201 202 206  201 202 206  201 202 206  201 202 206  201 202 206  201 202 206  201 202 206  201 202 206  201 202 206  201 202 206  201 202 206  201 202 206  201 202 206  201 202 206  201 202 206  201 202 206  201 202 206  201 202 206  197 197 202  205 204 209  255 255 255  170 173 172  0 0 0  0 0 0  0 0 0  0 0 0  
103 103 103  103 103 103  99 99 98  65 64 63  175 176 179  226 227 232  207 207 211  209 210 213  156 160 164  116 121 125  116 122 126  128 133 137  130 135 139  129 134 138  129 134 138  129 134 138  129 134 138  129 134 138  129 134 138  129 134 138  129 134 138  129 134 138  128 133 137  117 123 127  115 120 124  152 155 159  205 206 210  212 213 217  200 201 205  201 202 206  201 202 206  201 202 206  201 202 206  201 202 206  201 202 206  201 202 206  201 202 206  201 202 206  201 202 206  201 202 206  201 202 206  201 202 206  201 202 206  201 202 206  201 202 206  201 202 206  201 202 206  201 202 206  201 202 206  201 202 206  201 202 206  201 202 206  201 202 206  201 202 206  201 202 206  201 202 206  201 202 206  201 202 206  201 202 206  201 202 206  201 202 206  201 202 206  201 202 206  201 202 206  201 202 206  201 202 206  201 202 206  201 202 206  201 202 206  201 202 206  201 202 206  201 202 206  202 203 207  196 197 201  227 229 234  173 174 176  64 64 63  99 99 98  103 103 103  103 103 103  
172 172 172  172 172 172  164 164 166  249 249 253  210 211 215  204 204 208  204 205 209  139 143 147  111 117 121  126 131 135  130 135 139  129 134 138  129 134 138  129 134 138  130 135 139  127 132 136  122 128 132  122 127 131  126 131 135  129 134 138  129 134 138  129 134 138  129 134 138  130 135 139  127 132 136  112 118 122  134 138 142  200 201 205  213 214 218  199 201 205  201 202 206  201 202 206  201 202 206  201 202 206  201 202 206  201 202 206  201 202 206  201 202 206  201 202 206  201 202 206  201 202 206  201 202 206  201 202 206  201 202 206  201 202 206  201 202 206  201 202 206  201 202 206  201 202 206  201 202 206  201 202 206  201 202 206  201 202 206  201 202 206  201 202 206  201 202 206  201 202 206  201 202 206  201 202 206  201 202 206  201 202 206  201 202 206  201 202 206  201 202 206  201 202 206  201 202 206  201 202 206  201 202 206  201 202 206  201 202 206  201 202 206  201 202 206  201 202 206  201 202 206  194 195 199  211 211 215  248 249 252  165 164 166  172 172 172  172 172 172  
0 0 0  0 0 0  12 12 14  222 223 230  218 219 222  205 206 209  136 140 144  113 119 123  129 134 138  129 134 138  129 134 138  129 134 138  129 134 138  130 135 139  119 125 131  130 133 133  166 160 149  170 163 152  137 138 137  117 123 129  128 133 137  130 135 139  129 134 138  129 134 138  129 134 138  130 135 139  115 120 124  130 135 139  201 202 206  211 212 216  199 201 205  201 202 206  201 202 206  201 202 206  201 202 206  201 202 206  201 202 206  201 202 206  201 202 206  201 202 206  201 202 206  201 202 206  201 202 206  201 202 206  201 202 206  201 202 206  201 202 206  201 202 206  201 202 206  201 202 206  201 202 206  201 202 206  201 202 206  201 202 206  201 202 206  201 202 206  201 202 206  201 202 206  201 202 206  203 204 208  206 207 210  205 206 209  203 204 208  203 204 208  205 206 210  206 207 210  203 204 208  201 202 206  201 202 206  201 202 206  201 202 206  201 202 206  201 202 206  201 202 206  201 202 206  210 211 214  224 225 232  11 10 13  0 0 0  0 0 0  
135 135 135  133 133 133  179 180 182  225 226 231  210 210 214  146 150 154  113 119 123  130 135 139  129 134 138  129 134 138  129 134 138  129 134 138  130 135 139  117 123 130  153 151 144  186 184 182  139 158 192  135 156 192  184 185 188  168 164 156  113 121 126  125 130 134  130 135 139  129 134 138  129 134 138  129 134 138  130 135 139  114 120 124  139 143 148  209 209 214  206 207 211  200 201 205  201 202 206  201 202 206  201 202 206  201 202 206  201 202 206  201 202 206  201 202 206  201 202 206  201 202 206  201 202 206  201 202 206  201 202 206  201 202 206  201 202 206  201 202 206  201 202 206  201 202 206  201 202 206  201 202 206  201 202 206  201 202 206  201 202 206  201 202 206  201 202 206  201 202 206  203 204 208  206 207 211  199 200 204  191 192 196  185 186 191  183 184 189  183 184 189  186 187 191  191 192 196  200 201 205  206 207 211  203 204 208  201 202 206  201 202 206  201 202 206  201 202 206  201 202 206  201 202 206  199 200 204  219 221 225  185 186 188  138 138 137  135 135 135  
255 255 255  255 255 255  210 211 216  207 208 211  170 172 176  112 118 122  128 133 137  129 134 138  129 134 138  129 134 138  129 134 138  129 134 138  123 129 133  147 145 140  181 184 191  61 113 195  0 66 180  0 66 179  42 98 189  179 186 201  180 175 168  118 124 130  121 127 131  130 135 139  129 134 138  129 134 138  129 134 138  129 134 138  112 118 122  162 165 169  215 216 220  201 202 206  201 202 206  201 202 206  201 202 206  201 202 206  201 202 206  201 202 206  201 202 206  201 202 206  201 202 206  201 202 206  201 202 206  201 202 206  201 202 206  201 202 206  201 202 206  201 202 206  201 202 206  201 202 206  201 202 206  201 202 206  201 202 206  201 202 206  201 202 206  201 202 206  205 206 209  202 203 207  187 188 193  175 176 181  173 174 180  184 185 190  187 188 193  186 188 193  185 186 192  175 176 181  175 176 181  187 188 194  203 204 208  204 205 209  201 202 206  201 202 206  201 202 206  201 202 206  201 202 206  201 202 206  191 192 196  214 215 220  255 255 255  255 255 255  
235 235 234  211 212 215  203 203 208  198 199 203  126 131 135  122 127 131  130 135 139  129 134 138  129 134 138  129 134 138  129 134 138  129 134 138  122 127 129  184 177 170  80 125 196  0 55 176  18 83 180  20 84 180  0 56 176  47 101 184  214 208 205  179 179 180  127 132 136  118 124 128  129 134 138  129 134 138  129 134 138  129 134 138  124 129 133  123 128 132  192 193 197  210 211 215  201 202 206  201 202 206  201 202 206  201 202 206  201 202 206  201 202 206  201 202 206  201 202 206  201 202 206  201 202 206  201 202 206  201 202 206  201 202 206  201 202 206  201 202 206  201 202 206  201 202 206  201 202 206  201 202 206  201 202 206  201 202 206  201 202 206  200 201 205  205 206 210  199 200 204  178 179 184  171 172 178  176 177 182  179 180 185  160 160 166  152 153 158  153 154 159  156 157 162  176 178 182  177 178 183  171 172 177  179 180 185  200 201 205  205 206 210  201 202 206  201 202 206  201 202 206  201 202 206  201 202 206  202 203 207  194 195 200  211 212 215  235 235 235  
233 234 233  195 197 201  214 214 219  161 164 168  113 119 123  130 135 139  129 134 138  129 134 138  129 134 138  129 134 138  129 134 138  128 133 137  135 136 133  166 170 179  34 95 189  3 74 179  20 84 180  20 84 180  11 80 179  6 75 178  162 172 190  216 209 204  184 186 191  137 142 146  116 122 126  127 132 136  130 135 139  129 134 138  130 135 139  114 120 124  155 159 163  213 214 218  201 202 206  201 202 206  201 202 206  201 202 206  201 202 206  201 202 206  201 202 206  201 202 206  201 202 206  201 202 206  201 202 206  201 202 206  201 202 206  201 202 206  201 202 206  201 202 206  201 202 206  201 202 206  201 202 206  201 202 206  201 202 206  201 202 206  204 205 209  201 202 205  176 177 182  172 173 179  177 178 183  190 191 196  153 155 159  76 78 82  79 80 85  81 82 87  71 72 77  140 141 146  192 193 198  177 178 183  172 173 178  177 178 184  201 202 206  204 205 209  201 202 206  201 202 206  201 202 206  201 202 206  201 202 206  199 201 205  195 196 201  234 234 234  
211 212 216  205 207 211  201 202 206  134 139 143  121 127 131  129 134 138  130 135 139  128 133 137  122 128 131  119 125 129  122 128 132  128 133 137  128 131 131  178 177 175  51 107 192  0 64 177  22 86 180  22 85 180  0 70 178  18 82 180  181 184 191  197 194 192  194 195 200  193 194 199  150 154 158  117 123 126  124 129 133  130 135 139  129 134 138  123 128 132  129 134 138  197 198 202  207 208 212  201 202 206  201 202 206  201 202 206  201 202 206  201 202 206  201 202 206  201 202 206  201 202 206  201 202 206  201 202 206  201 202 206  201 202 206  201 202 206  201 202 206  201 202 206  201 202 206  201 202 206  201 202 206  201 202 206  201 202 206  202 203 207  204 205 209  182 183 188  172 173 178  178 179 184  177 178 183  192 193 198  142 144 148  73 74 79  88 89 94  88 89 94  71 72 77  129 130 135  193 194 199  177 178 183  177 178 183  172 173 178  183 184 189  205 206 209  202 203 207  201 202 206  201 202 206  201 202 206  201 202 206  201 201 205  200 202 206  211 211 215  
191 196 201  219 217 221  180 182 186  120 125 129  128 133 137  130 135 139  123 126 130  122 132 136  140 169 172  148 181 184  139 164 167  121 128 132  115 119 123  170 164 155  149 167 199  0 70 182  0 62 177  0 64 178  0 60 177  117 144 187  212 203 194  185 187 191  183 185 190  205 196 206  226 207 221  188 174 186  127 129 134  119 126 129  130 135 139  129 134 138  117 122 126  175 178 182  214 214 218  201 202 206  201 202 206  201 202 206  201 202 206  201 202 206  201 202 206  201 202 206  201 202 206  201 202 206  201 202 206  201 202 206  201 202 206  201 202 206  201 202 206  201 202 206  201 202 206  201 202 206  201 202 206  201 202 206  201 202 206  205 206 210  193 194 198  172 173 178  178 179 184  179 180 185  179 180 185  193 194 199  147 148 153  78 79 84  89 90 95  90 91 96  75 76 81  134 135 140  194 195 200  179 180 185  179 180 185  178 178 183  173 173 179  194 195 199  205 206 210  201 202 206  201 202 206  201 202 206  201 202 206  201 202 206  208 207 211  189 195 199  
210 213 215  209 208 213  163 166 170  116 122 126  130 135 139  123 125 130  128 146 149  170 187 191  192 140 149  195 114 126  191 154 162  167 191 194  125 137 141  111 115 119  178 172 164  157 173 200  73 118 189  61 108 182  131 153 188  207 200 193  190 189 192  185 186 192  210 194 207  175 183 185  128 168 154  153 184 175  191 183 192  143 138 146  118 127 129  130 135 139  115 121 125  157 161 165  213 214 218  201 202 206  201 202 206  201 202 206  201 202 206  201 202 206  201 202 206  201 202 206  201 202 206  201 202 206  201 202 206  201 202 206  201 202 206  201 202 206  201 202 206  201 202 206  201 202 206  201 202 206  201 202 206  201 202 206  202 203 207  204 205 209  183 184 188  173 174 179  186 187 192  187 188 193  185 186 191  201 202 207  151 152 157  77 78 83  89 90 95  90 91 96  74 75 80  137 138 143  202 203 208  185 186 191  186 187 192  187 188 193  174 175 180  183 184 189  205 206 210  201 202 206  201 202 206  201 202 206  201 202 206  201 202 206  198 198 202  207 210 213  
205 205 209  209 209 213  151 156 160  117 123 127  127 132 136  123 136 139  172 187 190  203 92 105  190 0 15  187 0 12  190 0 21  200 121 133  183 207 210  131 138 142  105 112 116  168 163 154  215 207 199  217 210 203  211 202 193  189 188 192  182 185 191  210 194 207  146 175 168  16 133 86  0 125 71  0 126 73  79 161 131  185 182 188  136 134 141  126 131 135  118 124 128  146 150 154  208 209 213  203 204 208  201 202 206  201 202 206  201 202 206  201 202 206  201 202 206  201 202 206  201 202 206  201 202 206  201 202 206  201 202 206  201 202 206  201 202 206  201 202 206  201 202 206  201 202 206  201 202 206  201 202 206  201 202 206  203 204 208  199 200 204  178 179 184  184 185 190  140 141 146  104 105 110  113 114 119  117 118 123  105 106 111  87 88 93  90 91 96  90 91 96  86 87 92  102 103 108  117 118 123  113 114 119  105 107 112  131 133 137  179 180 185  181 181 186  200 201 205  203 204 207  201 202 206  201 202 206  201 202 206  201 202 206  199 201 204  204 205 209  
204 204 208  206 206 210  145 149 153  119 125 129  121 127 130  145 176 178  195 125 135  189 0 7  187 19 37  187 27 45  187 10 29  186 0 16  196 160 168  192 215 218  146 150 154  104 111 114  132 136 139  186 186 189  198 199 204  187 188 193  198 190 199  182 185 189  21 135 90  0 125 71  19 135 91  14 133 87  0 120 61  107 170 148  182 165 178  120 124 128  121 126 130  140 144 148  203 204 208  204 205 209  200 201 205  201 202 206  219 220 224  220 220 224  202 203 207  200 201 205  201 202 206  201 202 206  201 202 206  199 200 204  204 205 209  223 224 228  215 216 220  199 200 205  200 201 205  201 202 206  201 202 206  201 202 206  204 205 209  196 197 201  178 179 184  184 185 190  99 100 105  63 64 69  77 78 83  75 76 81  82 83 88  92 93 98  90 91 96  90 91 96  92 93 98  84 85 90  75 76 81  77 78 83  69 70 75  85 86 91  172 173 178  183 184 189  197 198 202  204 205 209  201 202 206  201 202 206  201 202 206  201 202 206  201 202 206  202 203 206  
204 204 208  205 206 210  143 147 151  119 125 129  119 126 130  155 183 185  197 85 99  187 0 13  187 27 45  187 25 43  187 28 45  187 0 11  185 106 118  192 225 227  197 197 203  162 164 169  110 116 120  117 122 126  171 173 178  199 199 204  217 199 212  134 170 160  0 127 74  18 135 89  20 135 90  21 135 91  0 126 73  57 154 117  180 171 181  123 126 131  122 127 131  137 142 146  201 202 206  205 206 210  201 202 206  208 209 213  165 167 171  165 166 170  221 222 226  209 210 214  199 200 204  201 202 206  201 202 206  203 205 209  201 202 206  155 156 161  181 182 186  224 225 229  204 205 209  200 201 205  201 202 206  201 202 206  204 205 209  195 196 200  178 179 184  182 183 188  107 108 113  78 79 84  90 91 96  90 91 96  90 91 96  90 91 96  90 91 96  90 91 96  90 91 96  90 91 96  90 91 96  90 91 96  83 84 89  95 96 101  172 173 178  182 183 188  195 196 200  204 205 209  201 202 206  201 202 206  201 202 206  201 202 206  201 202 206  201 202 205  
204 205 209  206 206 210  145 149 153  119 125 129  120 126 130  148 179 182  196 113 125  188 0 6  187 24 42  187 27 45  187 18 36  187 0 13  186 139 148  185 212 215  189 189 195  199 199 204  175 177 182  121 126 130  107 114 118  156 160 164  215 202 214  166 185 182  1 128 78  7 131 82  21 136 91  23 136 92  0 122 65  78 161 130  185 170 183  120 124 129  121 126 130  139 144 148  203 203 207  205 206 210  218 219 222  178 179 183  48 50 55  54 55 60  137 138 142  220 221 225  218 219 223  199 200 204  201 202 206  225 225 229  147 148 152  31 32 37  70 71 76  162 163 167  227 228 232  211 212 216  199 200 204  201 202 206  204 205 209  196 197 201  179 180 185  181 183 188  101 102 107  73 73 78  85 86 91  84 85 90  87 88 93  91 92 97  90 91 96  90 91 96  91 92 97  88 89 94  84 85 90  85 86 91  78 79 84  88 89 94  170 171 176  183 184 189  197 198 202  204 205 209  201 202 206  201 202 206  201 202 206  201 202 206  201 202 206  201 203 207  
206 206 209  208 208 213  151 155 159  118 123 128  126 131 135  126 142 145  179 185 189  199 63 80  186 0 3  187 0 11  187 0 5  186 84 98  186 205 209  186 191 195  186 186 189  184 188 203  193 200 230  181 190 221  132 141 158  104 111 113  144 146 150  212 197 209  105 168 145  0 121 63  0 124 70  0 122 64  18 139 90  168 184 182  155 146 156  123 128 132  118 124 128  145 150 154  208 208 212  203 204 208  212 213 216  194 195 199  85 87 91  45 46 51  51 52 57  106 108 113  205 206 210  220 221 225  198 199 203  217 218 222  172 173 177  64 65 70  45 46 52  57 59 64  132 133 137  217 218 222  213 214 218  198 199 203  203 204 208  199 200 205  179 180 185  185 186 191  119 121 126  77 78 83  89 90 95  89 90 95  90 91 96  90 91 96  90 91 96  90 91 96  90 91 96  90 91 96  89 90 95  89 90 95  80 81 86  107 108 113  177 178 183  183 184 189  201 202 206  203 204 207  201 202 206  201 202 206  201 202 206  201 202 206  200 201 205  204 205 208  
205 207 213  212 211 214  162 165 169  116 122 126  130 135 139  122 124 128  132 154 157  184 189 194  198 119 130  187 87 95  186 123 132  186 202 206  186 198 202  187 184 187  183 189 211  185 187 192  196 180 127  207 188 129  197 193 186  144 153 176  106 113 116  141 139 145  193 183 193  131 177 162  76 159 126  89 164 136  169 185 184  168 156 167  117 125 128  130 135 139  115 121 125  156 160 164  213 214 217  201 202 206  199 200 204  214 215 219  206 207 211  110 111 116  51 52 57  47 48 53  81 83 88  182 183 187  213 214 218  199 200 205  218 219 223  188 190 194  88 89 94  47 48 53  50 51 56  105 106 111  198 200 204  209 210 214  201 202 206  204 205 209  183 184 188  175 176 182  177 178 183  164 165 170  165 166 171  177 178 183  138 139 144  80 81 86  89 90 95  90 91 96  77 78 83  127 128 133  178 179 184  165 166 171  163 164 169  175 176 181  176 177 182  184 185 190  205 206 210  201 202 206  201 202 206  201 202 206  201 202 206  201 202 206  199 200 203  206 207 213  
210 211 218  209 209 212  179 181 185  119 125 129  128 133 137  130 135 139  120 122 126  125 141 144  172 204 207  198 226 230  189 218 221  185 192 196  186 184 189  183 188 208  188 186 181  209 174 57  217 170 16  216 169 15  219 177 42  204 195 170  141 150 174  109 117 119  129 131 136  178 163 176  186 173 185  186 170 183  154 145 155  118 125 128  128 134 137  129 134 138  116 122 126  173 175 180  214 215 218  201 202 206  201 202 206  198 199 203  217 218 221  222 223 227  140 141 146  61 63 67  18 20 25  128 129 133  227 228 232  200 201 205  200 201 205  223 224 228  210 211 215  115 116 121  48 48 54  32 33 39  163 164 169  222 223 227  201 202 206  205 206 210  194 195 199  171 172 177  181 182 186  187 188 193  186 187 192  201 202 207  152 153 158  77 78 83  89 90 95  90 91 96  73 74 79  137 138 143  203 204 209  186 187 192  187 188 193  182 183 188  172 173 178  195 196 200  205 206 210  201 202 206  201 202 206  201 202 206  201 202 206  201 202 206  197 198 201  211 212 218  
224 224 230  201 202 206  199 200 204  132 137 141  122 128 132  129 134 138  130 135 139  121 127 131  119 125 129  159 163 167  196 196 202  192 193 198  184 186 194  183 189 210  205 176 85  218 170 12  211 173 50  211 173 51  215 170 20  221 184 66  174 177 185  122 130 141  125 130 134  119 125 129  120 125 129  119 124 128  123 128 132  130 135 139  129 134 138  124 129 133  128 133 137  195 196 200  208 209 213  201 202 206  201 202 206  201 202 206  199 200 204  208 209 213  226 227 231  162 163 168  121 122 127  188 188 193  209 210 214  201 202 206  201 202 206  198 199 203  216 217 221  219 220 224  141 142 147  133 134 139  200 201 205  205 206 210  201 202 206  201 202 207  205 206 209  183 184 189  172 173 178  177 178 183  177 178 183  191 192 197  145 145 151  77 78 83  89 90 95  90 91 96  75 76 81  132 132 137  192 193 198  177 178 183  177 178 183  171 172 177  185 186 190  205 206 210  201 202 206  201 202 206  201 202 206  201 202 206  201 202 206  200 201 205  196 197 201  223 224 229  
255 255 255  207 208 213  208 209 213  158 161 165  113 119 123  130 135 139  129 134 138  130 135 139  125 131 134  117 123 127  145 149 153  191 191 196  195 198 211  186 186 188  209 174 57  214 172 34  211 173 49  211 173 49  212 172 46  219 176 38  186 180 159  127 137 158  125 131 135  129 134 138  129 134 138  129 134 138  129 134 138  129 134 138  130 135 139  114 120 124  152 156 160  213 213 217  201 202 206  201 202 206  201 202 206  201 202 206  201 202 206  200 201 205  201 202 206  217 218 222  224 225 229  208 209 213  198 199 203  201 202 206  201 202 206  201 202 206  199 200 204  205 206 210  221 222 226  221 222 226  204 205 209  199 200 204  201 202 206  201 202 206  204 205 209  202 203 206  177 178 184  172 173 178  177 178 183  193 194 199  145 146 151  63 64 69  73 74 79  74 75 80  59 60 65  130 131 136  194 195 200  177 178 183  172 173 178  179 180 185  202 203 207  203 205 208  201 202 206  201 202 206  201 202 206  201 202 206  201 202 206  194 195 199  207 208 213  255 255 255  
172 172 169  195 196 196  216 216 221  194 195 199  123 128 132  123 129 133  130 135 139  129 134 138  130 135 139  128 133 137  117 123 127  133 137 141  180 183 191  196 200 219  207 176 77  216 169 16  211 173 51  211 173 51  215 170 26  220 182 58  176 178 181  122 130 143  127 132 136  129 134 138  129 134 138  129 134 138  129 134 138  129 134 138  125 131 134  120 125 130  188 189 193  212 212 216  200 201 205  201 202 206  201 202 206  201 202 206  201 202 206  201 202 206  201 202 206  201 202 206  202 203 207  201 202 206  201 202 206  201 202 206  201 202 206  201 202 206  201 202 206  201 202 206  202 203 207  202 203 207  201 202 206  201 202 206  201 202 206  201 202 206  200 201 205  205 206 210  201 202 206  180 181 185  171 172 177  179 180 185  172 173 178  130 131 136  123 125 130  125 126 131  125 126 131  165 166 171  181 182 187  171 172 177  181 182 187  201 202 206  205 206 209  200 201 206  201 202 206  201 202 206  201 202 206  201 202 206  201 202 206  206 207 212  196 196 196  172 172 169  
166 166 170  204 204 209  210 211 215  214 215 218  165 168 172  111 117 121  129 134 138  129 134 138  129 134 138  129 134 138  130 135 139  119 125 129  124 129 132  166 173 195  202 196 180  218 177 45  217 170 15  216 170 18  221 175 28  208 195 157  145 155 179  119 125 128  129 134 138  129 134 138  129 134 138  129 134 138  129 134 138  130 135 139  112 118 122  157 160 164  215 215 219  201 202 206  201 202 206  201 202 206  201 202 206  201 202 206  201 202 206  201 202 206  201 202 206  201 202 206  201 202 206  201 202 206  201 202 206  201 202 206  201 202 206  201 202 206  201 202 206  201 202 206  201 202 206  201 202 206  201 202 206  201 202 206  201 202 206  201 202 206  201 202 206  200 201 205  205 206 210  203 204 208  188 189 194  175 176 182  177 178 183  188 189 195  188 189 194  187 188 194  189 190 195  179 180 185  175 176 181  189 190 195  204 205 209  204 205 209  200 201 206  201 202 206  201 202 206  201 202 206  201 202 206  201 202 206  199 200 204  210 212 216  204 205 210  167 166 170  
221 221 230  211 211 220  200 202 208  202 203 207  210 210 214  141 145 149  114 120 124  130 135 139  129 134 138  129 134 138  129 134 138  130 135 139  123 128 132  119 124 126  151 160 183  192 189 181  211 188 118  212 188 112  197 189 166  152 160 183  120 127 132  128 133 136  129 134 138  129 134 138  129 134 138  129 134 138  131 135 139  115 121 125  134 138 142  206 207 211  208 209 213  200 201 205  201 202 206  201 202 206  201 202 206  201 202 206  201 202 206  201 202 206  201 202 206  201 202 206  201 202 206  201 202 206  201 202 206  201 202 206  201 202 206  201 202 206  201 202 206  201 202 206  201 202 206  201 202 206  201 202 206  201 202 206  201 202 206  201 202 206  201 202 206  201 202 206  200 201 205  203 204 208  206 207 211  200 201 205  192 193 197  187 188 193  185 186 191  185 186 191  188 189 194  193 194 198  201 201 206  206 207 211  202 203 207  201 202 206  201 202 206  201 202 206  201 202 206  201 202 206  201 202 206  201 202 206  197 199 203  201 202 208  211 211 220  221 221 230  
202 202 223  201 201 223  204 205 226  206 207 212  208 209 212  202 202 206  130 135 139  114 121 125  130 135 139  129 134 138  129 134 138  129 134 138  130 135 139  126 131 135  119 125 127  133 141 159  149 160 187  150 160 187  135 144 166  120 126 130  127 132 135  130 135 139  129 134 138  129 134 138  129 134 138  130 135 139  116 122 126  124 130 134  197 198 202  213 213 217  200 201 205  201 202 206  201 202 206  201 202 206  201 202 206  201 202 206  201 202 206  201 202 206  201 202 206  201 202 206  201 202 206  201 202 206  201 202 206  201 202 206  201 202 206  201 202 206  201 202 206  201 202 206  201 202 206  201 202 206  201 202 206  201 202 206  201 202 206  201 202 206  201 202 206  201 202 206  201 202 206  201 202 206  201 202 206  203 204 208  205 206 210  205 206 210  204 205 209  204 205 209  205 206 210  205 206 210  203 204 208  201 202 206  201 202 206  201 202 206  201 202 206  201 202 206  201 202 206  201 202 206  201 202 206  197 199 202  207 209 213  204 205 226  201 201 224  202 202 223  
252 252 255  252 252 255  253 253 255  236 236 237  196 197 201  209 210 214  200 201 205  132 137 141  112 118 122  128 133 137  130 135 139  129 134 138  129 134 138  129 134 138  129 134 138  123 129 132  119 125 129  119 125 129  122 128 132  129 134 138  130 134 138  129 134 138  129 134 138  130 135 139  129 133 137  114 119 123  128 132 136  194 196 200  214 215 219  199 200 204  201 202 206  201 202 206  201 202 206  201 202 206  201 202 206  201 202 206  201 202 206  201 202 206  201 202 206  201 202 206  201 202 206  201 202 206  201 202 206  201 202 206  201 202 206  201 202 206  201 202 206  201 202 206  201 202 206  201 202 206  201 202 206  201 202 206  201 202 206  201 202 206  201 202 206  201 202 206  201 202 206  201 202 206  201 202 206  201 202 206  201 202 206  201 202 206  201 202 206  201 202 206  201 202 206  201 202 206  201 202 206  201 202 206  201 202 206  201 202 206  201 202 206  201 202 206  201 202 206  201 202 206  197 198 202  197 198 202  236 236 236  253 253 255  252 252 255  252 252 255  
255 255 255  255 255 255  255 255 255  237 237 237  208 208 213  201 203 206  210 210 215  205 205 209  148 152 156  114 120 124  119 124 128  129 134 138  130 135 139  129 134 138  129 134 138  129 134 138  129 134 138  129 134 138  129 134 138  129 134 138  129 134 138  129 134 138  129 134 138  120 125 129  113 119 123  144 148 152  200 201 205  212 212 216  198 199 203  199 200 204  199 200 204  199 200 204  199 200 204  199 200 204  199 200 204  199 200 204  199 200 204  199 200 204  199 200 204  199 200 204  199 200 204  199 200 204  199 200 204  199 200 204  199 200 204  199 200 204  199 200 204  199 200 204  199 200 204  199 200 204  199 200 204  199 200 204  198 199 203  200 201 205  201 202 206  201 202 206  201 202 206  201 202 206  201 202 206  201 202 206  201 202 206  201 202 206  201 202 206  201 202 206  201 202 206  201 202 206  201 202 206  201 202 206  201 202 206  201 202 206  201 202 206  201 202 206  201 202 206  199 200 204  202 204 208  212 213 215  240 240 239  255 255 255  255 255 255  255 255 255  
255 255 255  255 255 255  255 255 255  233 233 235  210 210 213  216 217 219  203 204 208  208 208 211  212 212 216  176 178 182  137 141 145  116 122 126  116 121 126  123 128 132  127 132 136  128 133 137  129 134 138  129 134 138  128 134 138  127 132 136  123 129 133  116 122 126  116 121 125  134 138 142  172 175 179  208 208 213  218 219 224  210 212 215  213 214 219  212 214 218  212 214 218  212 214 218  212 214 218  212 214 218  212 214 218  212 214 218  212 214 218  212 214 218  212 214 218  212 214 218  212 214 218  212 214 218  212 214 218  212 214 218  212 214 218  212 214 218  212 214 218  212 214 218  212 214 218  212 214 218  212 214 218  213 215 219  212 212 216  202 203 207  199 200 204  201 202 206  201 202 206  201 202 206  201 202 206  201 202 206  201 202 206  201 202 206  201 202 206  201 202 206  201 202 206  201 202 206  201 202 206  201 202 206  201 202 206  201 202 206  201 202 206  200 201 205  198 199 203  203 203 209  216 218 221  214 216 217  237 236 236  255 255 255  255 255 255  255 255 255  
255 255 255  255 255 255  255 255 255  234 234 235  208 208 212  216 216 218  211 211 215  202 203 211  208 209 214  224 224 228  203 203 207  175 178 182  150 154 158  132 137 141  123 128 132  119 124 128  118 123 127  118 123 127  119 124 128  122 127 131  132 136 140  148 152 156  173 175 179  202 203 207  209 210 215  203 205 210  193 194 196  217 217 218  219 221 227  218 220 226  218 220 226  218 220 226  218 220 226  218 220 226  218 220 226  218 220 226  218 220 226  218 220 226  218 220 226  218 220 226  218 220 226  218 220 226  218 220 226  218 220 226  218 220 226  218 220 226  218 220 226  218 220 226  218 220 226  218 220 226  218 220 226  222 224 230  218 218 219  201 202 206  204 205 210  210 211 216  205 206 210  199 200 204  201 202 206  201 202 206  201 202 206  201 202 206  201 202 206  201 202 206  201 202 206  201 202 206  201 202 206  201 202 206  201 201 206  199 200 204  210 212 215  206 207 212  207 208 212  208 209 213  213 215 220  213 214 215  237 236 236  255 255 255  255 255 255  255 255 255  
255 255 255  255 255 255  255 255 255  234 234 235  208 208 212  215 215 215  207 207 213  217 216 231  204 205 206  190 191 194  204 205 210  207 207 212  211 211 216  196 198 201  184 186 190  176 178 182  171 173 177  171 173 177  175 177 181  181 183 187  199 200 204  219 220 224  214 215 217  200 201 205  214 214 217  231 231 231  159 159 157  202 202 203  218 220 226  216 218 223  216 218 223  216 218 223  216 218 223  216 218 223  216 218 223  216 218 223  216 218 223  216 218 223  216 218 223  216 218 223  216 218 223  216 218 223  216 218 223  216 218 223  216 218 223  216 218 223  216 218 223  216 218 223  216 218 223  216 218 223  216 218 223  222 222 229  212 212 212  193 192 198  216 217 219  199 201 203  202 203 208  203 204 209  210 211 215  201 202 206  199 200 204  201 202 206  201 202 206  201 202 206  201 202 206  200 201 205  200 201 205  201 202 206  208 210 214  211 212 217  186 187 191  203 203 206  226 226 231  207 207 212  212 213 218  213 214 215  237 236 236  255 255 255  255 255 255  255 255 255  
255 255 255  255 255 255  255 255 255  234 234 235  208 208 212  215 215 216  207 207 213  232 232 246  179 179 178  111 111 114  224 225 232  225 227 229  204 204 209  201 202 207  210 210 214  216 217 222  205 205 210  204 205 210  207 208 212  209 210 215  206 206 211  200 200 205  212 212 221  212 212 216  229 228 228  244 244 243  161 161 160  204 204 205  218 220 226  216 218 223  216 218 223  216 218 223  216 218 223  216 218 223  216 218 223  216 218 223  216 218 223  216 218 223  216 218 223  216 218 223  216 218 223  216 218 223  216 218 223  216 218 223  216 218 223  216 218 223  216 218 223  216 218 223  216 218 223  216 218 223  216 218 223  221 222 228  213 213 214  194 194 201  230 230 231  107 107 106  118 118 121  225 226 228  196 198 202  204 206 210  199 200 204  195 196 201  192 193 198  192 193 198  205 205 210  198 199 203  213 214 219  212 213 217  194 195 198  197 197 200  118 118 121  178 178 178  240 241 245  207 207 212  212 213 218  213 214 215  237 236 236  255 255 255  255 255 255  255 255 255  
255 255 255  255 255 255  255 255 255  234 234 235  208 208 212  215 215 216  207 207 213  230 230 244  182 182 182  104 104 108  239 239 247  249 249 250  187 187 187  241 241 243  216 217 223  195 196 198  229 229 231  227 227 230  216 217 220  246 246 248  164 164 164  57 57 57  215 215 229  229 229 234  220 220 220  240 240 240  162 162 161  204 204 205  218 220 226  216 218 223  216 218 223  216 218 223  216 218 223  216 218 223  216 218 223  216 218 223  216 218 223  216 218 223  216 218 223  216 218 223  216 218 223  216 218 223  216 218 223  216 218 223  216 218 223  216 218 223  216 218 223  216 218 223  216 218 223  216 218 223  216 218 223  221 222 228  213 213 214  195 195 201  234 234 236  98 97 97  104 104 106  231 232 231  83 83 87  174 175 180  245 246 247  218 219 223  227 228 230  229 229 231  195 196 199  227 228 230  167 167 169  153 153 154  156 156 155  172 172 174  124 124 128  181 181 182  238 239 243  207 207 212  212 213 218  213 214 215  237 236 236  255 255 255  255 255 255  255 255 255  
255 255 255  255 255 255  255 255 255  255 255 255  255 255 255  255 255 255  255 255 255  255 255 255  255 255 255  255 255 255  255 255 255  255 255 255  255 255 255  255 255 255  255 255 255  255 255 255  255 255 255  255 255 255  255 255 255  255 255 255  255 255 255  255 255 255  255 255 255  255 255 255  255 255 255  255 255 255  255 255 255  255 255 255  255 255 255  255 255 255  255 255 255  255 255 255  255 255 255  255 255 255  255 255 255  255 255 255  255 255 255  255 255 255  255 255 255  255 255 255  255 255 255  255 255 255  255 255 255  255 255 255  255 255 255  255 255 255  255 255 255  255 255 255  255 255 255  255 255 255  255 255 255  255 255 255  255 255 255  255 255 255  255 255 255  255 255 255  255 255 255  255 255 255  255 255 255  255 255 255  255 255 255  255 255 255  255 255 255  255 255 255  255 255 255  255 255 255  255 255 255  255 255 255  255 255 255  255 255 255  255 255 255  255 255 255  255 255 255  255 255 255  255 255 255  255 255 255  255 255 255  255 255 255  255 255 255  255 255 255  
255 255 255  255 255 255  255 255 255  255 255 255  255 255 255  255 255 255  255 255 255  255 255 255  255 255 255  255 255 255  255 255 255  255 255 255  255 255 255  255 255 255  255 255 255  255 255 255  255 255 255  255 255 255  255 255 255  255 255 255  255 255 255  255 255 255  255 255 255  255 255 255  255 255 255  255 255 255  255 255 255  255 255 255  255 255 255  255 255 255  255 255 255  255 255 255  255 255 255  255 255 255  255 255 255  255 255 255  255 255 255  255 255 255  255 255 255  255 255 255  255 255 255  255 255 255  255 255 255  255 255 255  255 255 255  255 255 255  255 255 255  255 255 255  255 255 255  255 255 255  255 255 255  255 255 255  255 255 255  255 255 255  255 255 255  255 255 255  255 255 255  255 255 255  255 255 255  255 255 255  255 255 255  255 255 255  255 255 255  255 255 255  255 255 255  255 255 255  255 255 255  255 255 255  255 255 255  255 255 255  255 255 255  255 255 255  255 255 255  255 255 255  255 255 255  255 255 255  255 255 255  255 255 255  255 255 255  255 255 255  
