P3
# Created by PPMWriter
80 40
255
255 255 255  255 255 255  255 255 255  255 255 255  255 255 255  255 255 255  255 255 255  255 255 255  255 255 255  255 255 255  255 255 255  255 255 255  255 255 255  255 255 255  255 255 255  255 255 255  255 255 255  255 255 255  255 255 255  255 255 255  255 255 255  255 255 255  255 255 255  255 255 255  255 255 255  255 255 255  255 255 255  255 255 255  255 255 255  255 255 255  255 255 255  255 255 255  255 255 255  255 255 255  255 255 255  255 255 255  255 255 255  255 255 255  255 255 255  255 255 255  255 255 255  255 255 255  255 255 255  255 255 255  255 255 255  255 255 255  255 255 255  255 255 255  255 255 255  255 255 255  255 255 255  255 255 255  255 255 255  255 255 255  255 255 255  255 255 255  255 255 255  255 255 255  255 255 255  255 255 255  255 255 255  255 255 255  255 255 255  255 255 255  255 255 255  255 255 255  255 255 255  255 255 255  255 255 255  255 255 255  255 255 255  255 255 255  255 255 255  255 255 255  255 255 255  255 255 255  255 255 255  255 255 255  255 255 255  255 255 255  
255 255 255  255 255 255  255 255 255  255 255 255  255 255 255  255 255 255  255 255 255  255 255 255  255 255 255  255 255 255  255 255 255  255 255 255  255 255 255  255 255 255  255 255 255  255 255 255  255 255 255  255 255 255  255 255 255  255 255 255  255 255 255  255 255 255  255 255 255  255 255 255  255 255 255  255 255 255  255 255 255  255 255 255  255 255 255  255 255 255  255 255 255  255 255 255  255 255 255  255 255 255  255 255 255  255 255 255  255 255 255  255 255 255  255 255 255  255 255 255  255 255 255  255 255 255  255 255 255  255 255 255  255 255 255  255 255 255  255 255 255  255 255 255  255 255 255  255 255 255  255 255 255  255 255 255  255 255 255  255 255 255  255 255 255  255 255 255  255 255 255  255 255 255  255 255 255  255 255 255  255 255 255  255 255 255  255 255 255  255 255 255  255 255 255  255 255 255  255 255 255  255 255 255  255 255 255  255 255 255  255 255 255  255 255 255  255 255 255  255 255 255  255 255 255  255 255 255  255 255 255  255 255 255  255 255 255  255 255 255  
0 0 0  0 0 0  0 0 0  0 0 0  176 176 176  255 255 255  255 255 255  255 255 255  209 209 209  137 137 137  81 81 81  110 110 110  244 244 244  122 122 122  107 107 107  165 165 165  194 194 194  169 169 169  190 190 190  166 166 166  175 175 175  176 176 176  202 202 202  206 206 206  206 206 206  170 170 170  179 179 179  238 238 238  234 234 234  233 233 233  218 218 218  215 215 215  255 255 255  255 255 255  254 254 254  232 232 232  230 230 230  232 232 232  232 232 232  232 232 232  232 232 232  232 232 232  232 232 232  230 230 230  232 232 232  254 254 254  255 255 255  255 255 255  215 215 215  218 218 218  233 233 233  232 232 232  241 241 241  195 195 195  171 171 171  205 205 205  206 206 206  186 186 186  161 161 161  182 182 182  166 166 166  191 191 191  174 174 174  133 133 133  158 158 158  168 168 168  163 163 163  87 87 87  95 95 95  147 147 147  178 178 178  62 62 62  0 0 0  0 0 0  19 19 19  127 127 127  6 6 6  0 0 0  0 0 0  0 0 0  
0 0 0  0 0 0  0 0 0  0 0 0  176 176 176  255 255 255  255 255 255  255 255 255  210 210 210  138 138 138  135 135 135  164 164 164  181 181 181  195 195 195  209 209 209  198 198 198  182 182 182  192 192 192  183 183 183  195 195 195  192 192 192  192 192 192  181 181 181  179 179 179  178 178 178  189 189 189  217 217 217  221 221 221  217 217 217  216 216 216  221 221 221  226 226 226  216 216 216  217 217 217  217 217 217  217 217 217  218 218 218  218 218 218  218 218 218  218 218 218  218 218 218  218 218 218  218 218 218  218 218 218  217 217 217  217 217 217  217 217 217  216 216 216  227 227 227  221 221 221  216 216 216  218 218 218  220 220 220  218 218 218  191 191 191  178 178 178  179 179 179  188 188 188  199 199 199  190 190 190  195 195 195  183 183 183  190 190 190  210 210 210  200 200 200  187 187 187  187 187 187  179 179 179  153 153 153  158 158 158  178 178 178  44 44 44  0 0 0  0 0 0  0 0 0  119 119 119  7 7 7  0 0 0  0 0 0  0 0 0  
0 0 0  0 0 0  0 0 0  0 0 0  175 175 175  255 255 255  250 250 250  242 242 242  207 207 207  170 170 170  200 200 200  205 205 205  199 199 199  209 209 209  212 212 212  212 212 212  211 211 211  212 212 212  212 212 212  212 212 212  211 211 211  211 211 211  211 211 211  211 211 211  211 211 211  213 213 213  206 206 206  201 201 201  202 202 202  203 203 203  202 202 202  200 200 200  200 200 200  200 200 200  200 200 200  202 202 202  202 202 202  202 202 202  202 202 202  202 202 202  202 202 202  202 202 202  202 202 202  202 202 202  202 202 202  200 200 200  200 200 200  200 200 200  200 200 200  202 202 202  203 203 203  202 202 202  201 201 201  205 205 205  212 212 212  212 212 212  211 211 211  211 211 211  212 212 212  215 215 215  219 219 219  222 222 222  222 222 222  222 222 222  222 222 222  219 219 219  213 213 213  210 210 210  205 205 205  192 192 192  181 181 181  126 126 126  109 109 109  120 120 120  130 130 130  148 148 148  3 3 3  0 0 0  0 0 0  0 0 0  
0 0 0  0 0 0  0 0 0  0 0 0  173 173 173  255 255 255  237 237 237  224 224 224  200 200 200  200 200 200  210 210 210  212 212 212  208 208 208  206 206 206  206 206 206  206 206 206  206 206 206  206 206 206  206 206 206  206 206 206  206 206 206  206 206 206  206 206 206  206 206 206  206 206 206  206 206 206  206 206 206  206 206 206  206 206 206  206 206 206  206 206 206  206 206 206  206 206 206  206 206 206  206 206 206  206 206 206  206 206 206  206 206 206  206 206 206  206 206 206  206 206 206  206 206 206  206 206 206  206 206 206  206 206 206  206 206 206  206 206 206  206 206 206  206 206 206  206 206 206  206 206 206  206 206 206  206 206 206  206 206 206  206 206 206  205 205 205  209 209 209  218 218 218  217 217 217  206 206 206  195 195 195  187 187 187  183 183 183  183 183 183  187 187 187  196 196 196  208 208 208  219 219 219  223 223 223  213 213 213  193 193 193  212 212 212  250 250 250  255 255 255  255 255 255  181 181 181  0 0 0  0 0 0  0 0 0  0 0 0  
0 0 0  0 0 0  0 0 0  0 0 0  173 173 173  255 255 255  231 231 231  210 210 210  209 209 209  210 210 210  206 206 206  206 206 206  206 206 206  206 206 206  206 206 206  206 206 206  206 206 206  206 206 206  206 206 206  206 206 206  206 206 206  206 206 206  206 206 206  206 206 206  206 206 206  206 206 206  206 206 206  206 206 206  206 206 206  206 206 206  206 206 206  206 206 206  206 206 206  206 206 206  206 206 206  206 206 206  206 206 206  206 206 206  206 206 206  206 206 206  206 206 206  206 206 206  206 206 206  206 206 206  206 206 206  206 206 206  206 206 206  206 206 206  206 206 206  206 206 206  206 206 206  206 206 206  206 206 206  205 205 205  207 207 207  219 219 219  212 212 212  186 186 186  162 162 162  145 145 145  136 136 136  131 131 131  129 129 129  129 129 129  131 131 131  136 136 136  146 146 146  163 163 163  188 188 188  214 214 214  222 222 222  212 212 212  209 209 209  227 227 227  255 255 255  173 173 173  0 0 0  0 0 0  0 0 0  0 0 0  
0 0 0  0 0 0  0 0 0  0 0 0  173 173 173  255 255 255  209 209 209  202 202 202  206 206 206  206 206 206  206 206 206  206 206 206  206 206 206  206 206 206  206 206 206  206 206 206  206 206 206  206 206 206  206 206 206  206 206 206  206 206 206  206 206 206  206 206 206  206 206 206  206 206 206  206 206 206  206 206 206  206 206 206  206 206 206  206 206 206  206 206 206  206 206 206  206 206 206  206 206 206  206 206 206  206 206 206  206 206 206  206 206 206  206 206 206  206 206 206  206 206 206  206 206 206  206 206 206  206 206 206  206 206 206  206 206 206  206 206 206  206 206 206  206 206 206  206 206 206  206 206 206  206 206 206  205 205 205  213 213 213  218 218 218  185 185 185  148 148 148  128 128 128  125 125 125  131 131 131  135 135 135  137 137 137  137 137 137  137 137 137  137 137 137  135 135 135  130 130 130  125 125 125  128 128 128  150 150 150  189 189 189  219 219 219  208 208 208  207 207 207  255 255 255  173 173 173  0 0 0  0 0 0  0 0 0  0 0 0  
103 103 103  103 103 103  99 99 99  64 64 64  176 176 176  234 234 234  201 201 201  207 207 207  206 206 206  206 206 206  206 206 206  206 206 206  206 206 206  206 206 206  206 206 206  206 206 206  206 206 206  206 206 206  206 206 206  206 206 206  206 206 206  206 206 206  206 206 206  206 206 206  206 206 206  206 206 206  206 206 206  206 206 206  206 206 206  206 206 206  206 206 206  206 206 206  206 206 206  206 206 206  206 206 206  206 206 206  206 206 206  206 206 206  206 206 206  206 206 206  206 206 206  206 206 206  206 206 206  206 206 206  206 206 206  206 206 206  206 206 206  206 206 206  206 206 206  206 206 206  206 206 206  205 205 205  217 217 217  210 210 210  159 159 159  124 124 124  127 127 127  137 137 137  138 138 138  138 138 138  138 138 138  138 138 138  138 138 138  138 138 138  138 138 138  138 138 138  138 138 138  139 139 139  137 137 137  126 126 126  125 125 125  164 164 164  213 213 213  211 211 211  232 232 232  179 179 179  65 65 65  99 99 99  103 103 103  103 103 103  
172 172 172  172 172 172  166 166 166  252 252 252  215 215 215  199 199 199  206 206 206  206 206 206  206 206 206  206 206 206  206 206 206  206 206 206  206 206 206  206 206 206  206 206 206  206 206 206  206 206 206  206 206 206  206 206 206  206 206 206  206 206 206  206 206 206  206 206 206  206 206 206  206 206 206  206 206 206  206 206 206  206 206 206  206 206 206  206 206 206  206 206 206  206 206 206  206 206 206  206 206 206  206 206 206  206 206 206  206 206 206  206 206 206  206 206 206  206 206 206  206 206 206  206 206 206  206 206 206  206 206 206  206 206 206  206 206 206  206 206 206  206 206 206  206 206 206  206 206 206  205 205 205  218 218 218  205 205 205  142 142 142  122 122 122  136 136 136  139 139 139  138 138 138  138 138 138  138 138 138  138 138 138  135 135 135  131 131 131  132 132 132  136 136 136  139 139 139  138 138 138  138 138 138  138 138 138  139 139 139  135 135 135  121 121 121  147 147 147  209 209 209  208 208 208  215 215 215  253 253 253  166 166 166  172 172 172  172 172 172  
0 0 0  0 0 0  13 13 13  232 232 232  214 214 214  206 206 206  206 206 206  206 206 206  206 206 206  206 206 206  206 206 206  206 206 206  206 206 206  208 208 208  210 210 210  210 210 210  208 208 208  208 208 208  209 209 209  210 210 210  208 208 208  206 206 206  206 206 206  206 206 206  206 206 206  206 206 206  206 206 206  206 206 206  206 206 206  206 206 206  206 206 206  206 206 206  206 206 206  206 206 206  206 206 206  206 206 206  206 206 206  206 206 206  206 206 206  206 206 206  206 206 206  206 206 206  206 206 206  206 206 206  206 206 206  206 206 206  206 206 206  206 206 206  206 206 206  205 205 205  216 216 216  206 206 206  139 139 139  124 124 124  139 139 139  138 138 138  138 138 138  138 138 138  139 139 139  137 137 137  129 129 129  138 138 138  170 170 170  166 166 166  133 133 133  131 131 131  139 139 139  138 138 138  138 138 138  138 138 138  138 138 138  138 138 138  123 123 123  144 144 144  209 209 209  222 222 222  230 230 230  14 14 14  0 0 0  0 0 0  
135 135 135  138 138 138  188 188 188  225 225 225  204 204 204  206 206 206  206 206 206  206 206 206  206 206 206  206 206 206  206 206 206  208 208 208  211 211 211  205 205 205  196 196 196  191 191 191  189 189 189  189 189 189  191 191 191  196 196 196  204 204 204  211 211 211  208 208 208  206 206 206  206 206 206  206 206 206  206 206 206  206 206 206  206 206 206  206 206 206  206 206 206  206 206 206  206 206 206  206 206 206  206 206 206  206 206 206  206 206 206  206 206 206  206 206 206  206 206 206  206 206 206  206 206 206  206 206 206  206 206 206  206 206 206  206 206 206  206 206 206  206 206 206  205 205 205  211 211 211  214 214 214  148 148 148  124 124 124  139 139 139  138 138 138  138 138 138  138 138 138  139 139 139  134 134 134  126 126 126  168 168 168  188 188 188  192 192 192  192 192 192  186 186 186  153 153 153  130 130 130  139 139 139  138 138 138  138 138 138  138 138 138  138 138 138  139 139 139  123 123 123  154 154 154  214 214 214  231 231 231  182 182 182  133 133 133  135 135 135  
255 255 255  255 255 255  220 220 220  196 196 196  206 206 206  206 206 206  206 206 206  206 206 206  206 206 206  206 206 206  209 209 209  208 208 208  194 194 194  181 181 181  181 181 181  192 192 192  193 193 193  193 193 193  190 190 190  180 180 180  181 181 181  193 193 193  207 207 207  209 209 209  206 206 206  206 206 206  206 206 206  206 206 206  206 206 206  206 206 206  206 206 206  206 206 206  206 206 206  206 206 206  206 206 206  206 206 206  206 206 206  206 206 206  206 206 206  206 206 206  206 206 206  206 206 206  206 206 206  206 206 206  206 206 206  206 206 206  206 206 206  206 206 206  206 206 206  220 220 220  169 169 169  122 122 122  138 138 138  138 138 138  138 138 138  138 138 138  139 139 139  131 131 131  130 130 130  180 180 180  201 201 201  189 189 189  179 179 179  180 180 180  195 195 195  191 191 191  147 147 147  133 133 133  138 138 138  138 138 138  138 138 138  138 138 138  138 138 138  137 137 137  122 122 122  176 176 176  211 211 211  216 216 216  255 255 255  255 255 255  
235 235 235  215 215 215  200 200 200  207 207 207  206 206 206  206 206 206  206 206 206  206 206 206  206 206 206  210 210 210  205 205 205  185 185 185  177 177 177  183 183 183  182 182 182  162 162 162  159 159 159  158 158 158  166 166 166  185 185 185  182 182 182  178 178 178  184 184 184  204 204 204  210 210 210  205 205 205  206 206 206  206 206 206  206 206 206  206 206 206  206 206 206  206 206 206  206 206 206  206 206 206  206 206 206  206 206 206  206 206 206  206 206 206  206 206 206  206 206 206  206 206 206  206 206 206  206 206 206  206 206 206  206 206 206  206 206 206  206 206 206  206 206 206  215 215 215  197 197 197  132 132 132  133 133 133  138 138 138  138 138 138  138 138 138  138 138 138  128 128 128  136 136 136  180 180 180  214 214 214  184 184 184  176 176 176  180 180 180  180 180 180  176 176 176  196 196 196  184 184 184  129 129 129  138 138 138  138 138 138  138 138 138  138 138 138  138 138 138  139 139 139  131 131 131  135 135 135  203 203 203  208 208 208  215 215 215  235 235 235  
234 234 234  201 201 201  205 205 205  206 206 206  206 206 206  206 206 206  206 206 206  206 206 206  209 209 209  206 206 206  184 184 184  178 178 178  183 183 183  198 198 198  146 146 146  77 77 77  87 87 87  85 85 85  82 82 82  159 159 159  196 196 196  183 183 183  179 179 179  182 182 182  205 205 205  209 209 209  206 206 206  206 206 206  206 206 206  206 206 206  206 206 206  206 206 206  206 206 206  206 206 206  206 206 206  206 206 206  206 206 206  206 206 206  206 206 206  206 206 206  206 206 206  206 206 206  206 206 206  206 206 206  206 206 206  206 206 206  206 206 206  206 206 206  218 218 218  163 163 163  124 124 124  139 139 139  138 138 138  139 139 139  136 136 136  126 126 126  146 146 146  191 191 191  216 216 216  190 190 190  178 178 178  179 179 179  180 180 180  180 180 180  179 179 179  189 189 189  179 179 179  136 136 136  137 137 137  138 138 138  138 138 138  138 138 138  138 138 138  138 138 138  139 139 139  123 123 123  168 168 168  219 219 219  201 201 201  234 234 234  
215 215 215  206 206 206  205 205 205  206 206 206  206 206 206  206 206 206  206 206 206  207 207 207  209 209 209  189 189 189  178 178 178  183 183 183  183 183 183  199 199 199  135 135 135  77 77 77  94 94 94  94 94 94  79 79 79  148 148 148  198 198 198  183 183 183  184 184 184  178 178 178  188 188 188  209 209 209  207 207 207  206 206 206  206 206 206  206 206 206  206 206 206  206 206 206  206 206 206  206 206 206  206 206 206  206 206 206  206 206 206  206 206 206  206 206 206  206 206 206  206 206 206  206 206 206  206 206 206  206 206 206  206 206 206  206 206 206  206 206 206  212 212 212  202 202 202  138 138 138  132 132 132  138 138 138  139 139 139  133 133 133  126 126 126  158 158 158  199 199 199  200 200 200  197 197 197  191 191 191  180 180 180  178 178 178  180 180 180  180 180 180  177 177 177  192 192 192  178 178 178  131 131 131  137 137 137  132 132 132  129 129 129  131 131 131  137 137 137  139 139 139  138 138 138  131 131 131  143 143 143  206 206 206  211 211 211  216 216 216  
199 199 199  211 211 211  206 206 206  206 206 206  206 206 206  206 206 206  206 206 206  210 210 210  199 199 199  179 179 179  183 183 183  185 185 185  185 185 185  200 200 200  140 140 140  81 81 81  96 96 96  95 95 95  84 84 84  153 153 153  199 199 199  185 185 185  185 185 185  184 184 184  178 178 178  198 198 198  210 210 210  206 206 206  206 206 206  206 206 206  206 206 206  206 206 206  206 206 206  206 206 206  206 206 206  206 206 206  206 206 206  206 206 206  206 206 206  206 206 206  206 206 206  206 206 206  206 206 206  206 206 206  206 206 206  206 206 206  206 206 206  218 218 218  182 182 182  126 126 126  138 138 138  139 139 139  129 129 129  134 134 134  188 188 188  226 226 226  206 206 206  190 190 190  191 191 191  212 212 212  187 187 187  177 177 177  178 178 178  177 177 177  182 182 182  199 199 199  170 170 170  123 123 123  132 132 132  167 167 167  184 184 184  172 172 172  136 136 136  130 130 130  139 139 139  137 137 137  129 129 129  186 186 186  221 221 221  201 201 201  
213 213 213  202 202 202  206 206 206  206 206 206  206 206 206  206 206 206  206 206 206  210 210 210  189 189 189  180 180 180  193 193 193  192 192 192  191 191 191  208 208 208  143 143 143  80 80 80  96 96 96  95 95 95  83 83 83  157 157 157  207 207 207  191 191 191  193 193 193  192 192 192  179 179 179  188 188 188  209 209 209  207 207 207  206 206 206  206 206 206  206 206 206  206 206 206  206 206 206  206 206 206  206 206 206  206 206 206  206 206 206  206 206 206  206 206 206  206 206 206  206 206 206  206 206 206  206 206 206  206 206 206  206 206 206  206 206 206  206 206 206  218 218 218  165 165 165  125 125 125  139 139 139  129 129 129  146 146 146  192 192 192  184 184 184  168 168 168  185 185 185  210 210 210  192 192 192  192 192 192  207 207 207  188 188 188  182 182 182  189 189 189  200 200 200  178 178 178  119 119 119  141 141 141  194 194 194  191 191 191  195 195 195  192 192 192  191 191 191  149 149 149  130 130 130  139 139 139  126 126 126  170 170 170  213 213 213  215 215 215  
209 209 209  204 204 204  206 206 206  206 206 206  206 206 206  206 206 206  207 207 207  205 205 205  186 186 186  185 185 185  137 137 137  112 112 112  119 119 119  123 123 123  108 108 108  92 92 92  96 96 96  96 96 96  93 93 93  111 111 111  123 123 123  119 119 119  110 110 110  146 146 146  190 190 190  184 184 184  204 204 204  208 208 208  206 206 206  206 206 206  206 206 206  206 206 206  206 206 206  206 206 206  206 206 206  206 206 206  206 206 206  206 206 206  206 206 206  206 206 206  206 206 206  206 206 206  206 206 206  206 206 206  206 206 206  206 206 206  208 208 208  213 213 213  154 154 154  128 128 128  135 135 135  141 141 141  188 188 188  161 161 161  126 126 126  125 125 125  133 133 133  175 175 175  210 210 210  191 191 191  192 192 192  211 211 211  217 217 217  215 215 215  168 168 168  116 116 116  142 142 142  210 210 210  200 200 200  190 190 190  187 187 187  190 190 190  203 203 203  190 190 190  139 139 139  136 136 136  127 127 127  160 160 160  213 213 213  209 209 209  
206 206 206  206 206 206  206 206 206  206 206 206  206 206 206  206 206 206  209 209 209  202 202 202  189 189 189  178 178 178  91 91 91  75 75 75  83 83 83  81 81 81  90 90 90  98 98 98  96 96 96  96 96 96  98 98 98  88 88 88  81 81 81  83 83 83  69 69 69  105 105 105  190 190 190  184 184 184  201 201 201  209 209 209  206 206 206  206 206 206  206 206 206  205 205 205  205 205 205  220 220 220  228 228 228  209 209 209  204 204 204  206 206 206  206 206 206  206 206 206  205 205 205  207 207 207  224 224 224  224 224 224  206 206 206  205 205 205  209 209 209  208 208 208  148 148 148  130 130 130  128 128 128  182 182 182  170 170 170  120 120 120  133 133 133  135 135 135  125 125 125  135 135 135  189 189 189  199 199 199  193 193 193  204 204 204  189 189 189  139 139 139  114 114 114  154 154 154  218 218 218  196 196 196  186 186 186  187 187 187  187 187 187  187 187 187  189 189 189  195 195 195  178 178 178  130 130 130  129 129 129  153 153 153  210 210 210  208 208 208  
205 205 205  206 206 206  206 206 206  206 206 206  206 206 206  206 206 206  209 209 209  200 200 200  188 188 188  178 178 178  101 101 101  89 89 89  96 96 96  96 96 96  96 96 96  96 96 96  96 96 96  96 96 96  96 96 96  96 96 96  96 96 96  96 96 96  84 84 84  113 113 113  188 188 188  184 184 184  200 200 200  209 209 209  206 206 206  206 206 206  205 205 205  209 209 209  229 229 229  186 186 186  161 161 161  206 206 206  209 209 209  206 206 206  206 206 206  204 204 204  214 214 214  226 226 226  170 170 170  171 171 171  213 213 213  206 206 206  210 210 210  206 206 206  146 146 146  131 131 131  131 131 131  181 181 181  154 154 154  126 126 126  135 135 135  135 135 135  135 135 135  127 127 127  170 170 170  217 217 217  204 204 204  178 178 178  126 126 126  120 120 120  169 169 169  203 203 203  227 227 227  185 185 185  187 187 187  187 187 187  187 187 187  187 187 187  187 187 187  197 197 197  185 185 185  130 130 130  129 129 129  151 151 151  210 210 210  208 208 208  
207 207 207  206 206 206  206 206 206  206 206 206  206 206 206  206 206 206  209 209 209  202 202 202  189 189 189  176 176 176  94 94 94  84 84 84  91 91 91  90 90 90  94 94 94  97 97 97  96 96 96  96 96 96  97 97 97  93 93 93  90 90 90  91 91 91  78 78 78  107 107 107  188 188 188  185 185 185  201 201 201  209 209 209  206 206 206  204 204 204  216 216 216  232 232 232  167 167 167  76 76 76  37 37 37  152 152 152  229 229 229  206 206 206  204 204 204  223 223 223  225 225 225  142 142 142  60 60 60  55 55 55  183 183 183  222 222 222  210 210 210  207 207 207  148 148 148  130 130 130  129 129 129  185 185 185  161 161 161  122 122 122  136 136 136  136 136 136  131 131 131  128 128 128  185 185 185  215 215 215  164 164 164  118 118 118  130 130 130  182 182 182  204 204 204  195 195 195  215 215 215  186 186 186  187 187 187  187 187 187  187 187 187  187 187 187  188 188 188  196 196 196  182 182 182  130 130 130  129 129 129  153 153 153  210 210 210  209 209 209  
208 208 208  205 205 205  206 206 206  206 206 206  206 206 206  206 206 206  207 207 207  206 206 206  189 189 189  183 183 183  113 113 113  86 86 86  95 95 95  95 95 95  96 96 96  96 96 96  96 96 96  96 96 96  96 96 96  96 96 96  95 95 95  95 95 95  83 83 83  126 126 126  191 191 191  185 185 185  205 205 205  208 208 208  203 203 203  218 218 218  222 222 222  137 137 137  64 64 64  52 52 52  70 70 70  177 177 177  222 222 222  203 203 203  225 225 225  210 210 210  113 113 113  57 57 57  51 51 51  91 91 91  199 199 199  216 216 216  208 208 208  212 212 212  154 154 154  128 128 128  132 132 132  156 156 156  184 184 184  139 139 139  122 122 122  124 124 124  121 121 121  168 168 168  212 212 212  150 150 150  113 113 113  158 158 158  221 221 221  230 230 230  203 203 203  189 189 189  195 195 195  209 209 209  186 186 186  187 187 187  187 187 187  186 186 186  199 199 199  189 189 189  145 145 145  135 135 135  128 128 128  159 159 159  213 213 213  209 209 209  
213 213 213  203 203 203  206 206 206  206 206 206  206 206 206  206 206 206  206 206 206  210 210 210  190 190 190  182 182 182  181 181 181  169 169 169  171 171 171  184 184 184  133 133 133  83 83 83  96 96 96  95 95 95  86 86 86  144 144 144  183 183 183  171 171 171  170 170 170  183 183 183  182 182 182  188 188 188  209 209 209  206 206 206  214 214 214  204 204 204  111 111 111  56 56 56  53 53 53  94 94 94  194 194 194  223 223 223  205 205 205  218 218 218  187 187 187  88 88 88  53 53 53  57 57 57  116 116 116  211 211 211  219 219 219  204 204 204  206 206 206  217 217 217  164 164 164  125 125 125  139 139 139  128 128 128  168 168 168  185 185 185  164 164 164  159 159 159  177 177 177  193 193 193  145 145 145  116 116 116  176 176 176  197 197 197  207 207 207  196 196 196  192 192 192  211 211 211  187 187 187  202 202 202  206 206 206  186 186 186  187 187 187  198 198 198  194 194 194  157 157 157  128 128 128  139 139 139  126 126 126  169 169 169  214 214 214  213 213 213  
218 218 218  201 201 201  206 206 206  206 206 206  206 206 206  206 206 206  206 206 206  210 210 210  200 200 200  178 178 178  188 188 188  193 193 193  192 192 192  209 209 209  143 143 143  79 79 79  96 96 96  95 95 95  83 83 83  158 158 158  207 207 207  192 192 192  193 193 193  186 186 186  177 177 177  199 199 199  210 210 210  206 206 206  227 227 227  169 169 169  39 39 39  54 54 54  121 121 121  215 215 215  228 228 228  205 205 205  205 205 205  232 232 232  133 133 133  25 25 25  67 67 67  146 146 146  227 227 227  221 221 221  203 203 203  206 206 206  206 206 206  218 218 218  180 180 180  126 126 126  138 138 138  137 137 137  128 128 128  155 155 155  186 186 186  186 186 186  178 178 178  136 136 136  119 119 119  174 174 174  204 204 204  219 219 219  216 216 216  217 217 217  209 209 209  188 188 188  208 208 208  189 189 189  196 196 196  221 221 221  230 230 230  207 207 207  144 144 144  126 126 126  139 139 139  137 137 137  129 129 129  185 185 185  212 212 212  218 218 218  
229 229 229  201 201 201  205 205 205  206 206 206  206 206 206  206 206 206  206 206 206  206 206 206  210 210 210  190 190 190  177 177 177  183 183 183  183 183 183  198 198 198  137 137 137  81 81 81  96 96 96  95 95 95  83 83 83  151 151 151  197 197 197  183 183 183  183 183 183  178 178 178  189 189 189  209 209 209  207 207 207  206 206 206  210 210 210  205 205 205  139 139 139  147 147 147  224 224 224  221 221 221  203 203 203  206 206 206  206 206 206  214 214 214  193 193 193  127 127 127  168 168 168  231 231 231  213 213 213  204 204 204  206 206 206  206 206 206  206 206 206  213 213 213  200 200 200  137 137 137  133 133 133  138 138 138  139 139 139  132 132 132  128 128 128  129 129 129  129 129 129  134 134 134  141 141 141  185 185 185  221 221 221  215 215 215  211 211 211  211 211 211  218 218 218  205 205 205  210 210 210  194 194 194  198 198 198  202 202 202  167 167 167  129 129 129  131 131 131  139 139 139  138 138 138  132 132 132  141 141 141  204 204 204  206 206 206  230 230 230  
255 255 255  213 213 213  199 199 199  206 206 206  206 206 206  206 206 206  206 206 206  206 206 206  208 208 208  207 207 207  185 185 185  178 178 178  183 183 183  200 200 200  136 136 136  65 65 65  80 80 80  79 79 79  69 69 69  151 151 151  199 199 199  183 183 183  178 178 178  184 184 184  206 206 206  209 209 209  206 206 206  206 206 206  204 204 204  209 209 209  226 226 226  226 226 226  210 210 210  204 204 204  206 206 206  206 206 206  206 206 206  203 203 203  213 213 213  229 229 229  222 222 222  206 206 206  205 205 205  206 206 206  206 206 206  206 206 206  206 206 206  206 206 206  217 217 217  160 160 160  124 124 124  139 139 139  138 138 138  138 138 138  138 138 138  138 138 138  138 138 138  135 135 135  158 158 158  186 186 186  219 219 219  212 212 212  211 211 211  211 211 211  214 214 214  209 209 209  188 188 188  211 211 211  196 196 196  153 153 153  127 127 127  134 134 134  139 139 139  138 138 138  139 139 139  123 123 123  165 165 165  213 213 213  213 213 213  255 255 255  
172 172 172  196 196 196  212 212 212  206 206 206  206 206 206  206 206 206  206 206 206  206 206 206  206 206 206  209 209 209  206 206 206  187 187 187  177 177 177  187 187 187  171 171 171  131 131 131  131 131 131  130 130 130  136 136 136  178 178 178  185 185 185  177 177 177  185 185 185  206 206 206  210 210 210  205 205 205  206 206 206  206 206 206  206 206 206  206 206 206  207 207 207  207 207 207  206 206 206  206 206 206  206 206 206  206 206 206  206 206 206  206 206 206  206 206 206  207 207 207  206 206 206  206 206 206  206 206 206  206 206 206  206 206 206  206 206 206  206 206 206  205 205 205  216 216 216  193 193 193  130 130 130  134 134 134  138 138 138  138 138 138  138 138 138  138 138 138  138 138 138  136 136 136  143 143 143  181 181 181  220 220 220  215 215 215  211 211 211  211 211 211  216 216 216  207 207 207  219 219 219  191 191 191  141 141 141  127 127 127  137 137 137  139 139 139  138 138 138  139 139 139  133 133 133  132 132 132  199 199 199  221 221 221  196 196 196  172 172 172  
170 170 170  210 210 210  216 216 216  204 204 204  206 206 206  206 206 206  206 206 206  206 206 206  206 206 206  206 206 206  209 209 209  209 209 209  195 195 195  181 181 181  185 185 185  195 195 195  194 194 194  194 194 194  195 195 195  183 183 183  182 182 182  194 194 194  208 208 208  210 210 210  205 205 205  206 206 206  206 206 206  206 206 206  206 206 206  206 206 206  206 206 206  206 206 206  206 206 206  206 206 206  206 206 206  206 206 206  206 206 206  206 206 206  206 206 206  206 206 206  206 206 206  206 206 206  206 206 206  206 206 206  206 206 206  206 206 206  206 206 206  206 206 206  206 206 206  219 219 219  164 164 164  122 122 122  139 139 139  138 138 138  138 138 138  138 138 138  138 138 138  138 138 138  128 128 128  179 179 179  208 208 208  221 221 221  216 216 216  217 217 217  218 218 218  202 202 202  195 195 195  132 132 132  129 129 129  139 139 139  138 138 138  138 138 138  138 138 138  138 138 138  121 121 121  172 172 172  218 218 218  215 215 215  209 209 209  170 170 170  
230 230 230  220 220 220  208 208 208  203 203 203  206 206 206  206 206 206  206 206 206  206 206 206  206 206 206  206 206 206  206 206 206  207 207 207  211 211 211  206 206 206  198 198 198  194 194 194  191 191 191  191 191 191  193 193 193  197 197 197  205 205 205  211 211 211  208 208 208  205 205 205  206 206 206  206 206 206  206 206 206  206 206 206  206 206 206  206 206 206  206 206 206  206 206 206  206 206 206  206 206 206  206 206 206  206 206 206  206 206 206  206 206 206  206 206 206  206 206 206  206 206 206  206 206 206  206 206 206  206 206 206  206 206 206  206 206 206  206 206 206  206 206 206  205 205 205  213 213 213  211 211 211  142 142 142  125 125 125  139 139 139  138 138 138  138 138 138  138 138 138  138 138 138  136 136 136  132 132 132  183 183 183  197 197 197  212 212 212  211 211 211  192 192 192  183 183 183  126 126 126  132 132 132  139 139 139  138 138 138  138 138 138  138 138 138  139 139 139  124 124 124  149 149 149  214 214 214  207 207 207  208 208 208  220 220 220  230 230 230  
223 223 223  224 224 224  226 226 226  213 213 213  202 202 202  206 206 206  206 206 206  206 206 206  206 206 206  206 206 206  206 206 206  206 206 206  206 206 206  208 208 208  210 210 210  210 210 210  209 209 209  209 209 209  210 210 210  210 210 210  208 208 208  206 206 206  206 206 206  206 206 206  206 206 206  206 206 206  206 206 206  206 206 206  206 206 206  206 206 206  206 206 206  206 206 206  206 206 206  206 206 206  206 206 206  206 206 206  206 206 206  206 206 206  206 206 206  206 206 206  206 206 206  206 206 206  206 206 206  206 206 206  206 206 206  206 206 206  206 206 206  206 206 206  206 206 206  205 205 205  217 217 217  202 202 202  134 134 134  126 126 126  139 139 139  138 138 138  138 138 138  138 138 138  139 139 139  135 135 135  130 130 130  166 166 166  187 187 187  187 187 187  159 159 159  127 127 127  135 135 135  139 139 139  138 138 138  138 138 138  138 138 138  139 139 139  125 125 125  139 139 139  206 206 206  212 212 212  212 212 212  226 226 226  223 223 223  223 223 223  
255 255 255  255 255 255  255 255 255  236 236 236  202 202 202  202 202 202  206 206 206  206 206 206  206 206 206  206 206 206  206 206 206  206 206 206  206 206 206  206 206 206  206 206 206  206 206 206  206 206 206  206 206 206  206 206 206  206 206 206  206 206 206  206 206 206  206 206 206  206 206 206  206 206 206  206 206 206  206 206 206  206 206 206  206 206 206  206 206 206  206 206 206  206 206 206  206 206 206  206 206 206  206 206 206  206 206 206  206 206 206  206 206 206  206 206 206  206 206 206  206 206 206  206 206 206  206 206 206  206 206 206  206 206 206  206 206 206  206 206 206  206 206 206  206 206 206  206 206 206  204 204 204  219 219 219  200 200 200  136 136 136  123 123 123  137 137 137  139 139 139  138 138 138  138 138 138  138 138 138  138 138 138  132 132 132  129 129 129  129 129 129  132 132 132  138 138 138  138 138 138  138 138 138  138 138 138  139 139 139  137 137 137  122 122 122  141 141 141  205 205 205  214 214 214  201 201 201  237 237 237  255 255 255  255 255 255  255 255 255  
255 255 255  255 255 255  255 255 255  240 240 240  215 215 215  208 208 208  204 204 204  206 206 206  206 206 206  206 206 206  206 206 206  206 206 206  206 206 206  206 206 206  206 206 206  206 206 206  206 206 206  206 206 206  206 206 206  206 206 206  206 206 206  206 206 206  206 206 206  206 206 206  206 206 206  206 206 206  205 205 205  203 203 203  204 204 204  204 204 204  204 204 204  204 204 204  204 204 204  204 204 204  204 204 204  204 204 204  204 204 204  204 204 204  204 204 204  204 204 204  204 204 204  204 204 204  204 204 204  204 204 204  204 204 204  204 204 204  204 204 204  204 204 204  204 204 204  204 204 204  204 204 204  203 203 203  216 216 216  205 205 205  152 152 152  123 123 123  129 129 129  138 138 138  138 138 138  138 138 138  138 138 138  138 138 138  138 138 138  138 138 138  138 138 138  138 138 138  138 138 138  139 139 139  138 138 138  128 128 128  124 124 124  156 156 156  209 209 209  215 215 215  206 206 206  213 213 213  237 237 237  255 255 255  255 255 255  255 255 255  
255 255 255  255 255 255  255 255 255  237 237 237  217 217 217  221 221 221  209 209 209  203 203 203  205 205 205  206 206 206  206 206 206  206 206 206  206 206 206  206 206 206  206 206 206  206 206 206  206 206 206  206 206 206  206 206 206  206 206 206  206 206 206  206 206 206  206 206 206  206 206 206  206 206 206  204 204 204  207 207 207  216 216 216  219 219 219  218 218 218  218 218 218  218 218 218  218 218 218  218 218 218  218 218 218  218 218 218  218 218 218  218 218 218  218 218 218  218 218 218  218 218 218  218 218 218  218 218 218  218 218 218  218 218 218  218 218 218  218 218 218  218 218 218  218 218 218  218 218 218  218 218 218  219 219 219  215 215 215  224 224 224  213 213 213  179 179 179  142 142 142  125 125 125  126 126 126  133 133 133  136 136 136  138 138 138  138 138 138  138 138 138  137 137 137  136 136 136  132 132 132  126 126 126  126 126 126  145 145 145  182 182 182  216 216 216  211 211 211  208 208 208  219 219 219  213 213 213  235 235 235  255 255 255  255 255 255  255 255 255  
255 255 255  255 255 255  255 255 255  237 237 237  215 215 215  220 220 220  213 213 213  212 212 212  212 212 212  215 215 215  204 204 204  206 206 206  206 206 206  206 206 206  206 206 206  206 206 206  206 206 206  206 206 206  206 206 206  206 206 206  206 206 206  206 206 206  204 204 204  210 210 210  216 216 216  210 210 210  206 206 206  219 219 219  230 230 230  226 226 226  226 226 226  226 226 226  226 226 226  226 226 226  226 226 226  226 226 226  226 226 226  226 226 226  226 226 226  226 226 226  226 226 226  226 226 226  226 226 226  226 226 226  226 226 226  226 226 226  226 226 226  226 226 226  226 226 226  226 226 226  226 226 226  227 227 227  218 218 218  196 196 196  210 210 210  215 215 215  207 207 207  179 179 179  156 156 156  140 140 140  131 131 131  128 128 128  127 127 127  127 127 127  128 128 128  132 132 132  141 141 141  158 158 158  182 182 182  207 207 207  228 228 228  214 214 214  211 211 211  215 215 215  218 218 218  212 212 212  235 235 235  255 255 255  255 255 255  255 255 255  
255 255 255  255 255 255  255 255 255  237 237 237  215 215 215  218 218 218  212 212 212  231 231 231  206 206 206  191 191 191  217 217 217  214 214 214  206 206 206  205 205 205  205 205 205  206 206 206  206 206 206  206 206 206  206 206 206  204 204 204  206 206 206  215 215 215  209 209 209  208 208 208  203 203 203  219 219 219  198 198 198  212 212 212  229 229 229  223 223 223  223 223 223  223 223 223  223 223 223  223 223 223  223 223 223  223 223 223  223 223 223  223 223 223  223 223 223  223 223 223  223 223 223  223 223 223  223 223 223  223 223 223  223 223 223  223 223 223  223 223 223  223 223 223  223 223 223  223 223 223  223 223 223  226 226 226  203 203 203  159 159 159  231 231 231  217 217 217  205 205 205  217 217 217  224 224 224  204 204 204  187 187 187  181 181 181  177 177 177  177 177 177  182 182 182  190 190 190  201 201 201  216 216 216  212 212 212  210 210 210  194 194 194  206 206 206  231 231 231  213 213 213  215 215 215  212 212 212  235 235 235  255 255 255  255 255 255  255 255 255  
255 255 255  255 255 255  255 255 255  237 237 237  215 215 215  218 218 218  212 212 212  245 245 245  178 178 178  121 121 121  200 200 200  198 198 198  217 217 217  219 219 219  203 203 203  210 210 210  198 198 198  198 198 198  201 201 201  204 204 204  210 210 210  202 202 202  228 228 228  121 121 121  107 107 107  231 231 231  201 201 201  214 214 214  228 228 228  223 223 223  223 223 223  223 223 223  223 223 223  223 223 223  223 223 223  223 223 223  223 223 223  223 223 223  223 223 223  223 223 223  223 223 223  223 223 223  223 223 223  223 223 223  223 223 223  223 223 223  223 223 223  223 223 223  223 223 223  223 223 223  223 223 223  226 226 226  205 205 205  161 161 161  244 244 244  229 229 229  216 216 216  221 221 221  205 205 205  211 211 211  215 215 215  212 212 212  210 210 210  210 210 210  222 222 222  214 214 214  207 207 207  209 209 209  229 229 229  232 232 232  114 114 114  179 179 179  246 246 246  213 213 213  216 216 216  212 212 212  235 235 235  255 255 255  255 255 255  255 255 255  
255 255 255  255 255 255  255 255 255  237 237 237  215 215 215  218 218 218  212 212 212  243 243 243  182 182 182  128 128 128  174 174 174  156 156 156  154 154 154  169 169 169  230 230 230  199 199 199  231 231 231  230 230 230  223 223 223  247 247 247  180 180 180  87 87 87  232 232 232  106 106 106  98 98 98  236 236 236  201 201 201  214 214 214  228 228 228  223 223 223  223 223 223  223 223 223  223 223 223  223 223 223  223 223 223  223 223 223  223 223 223  223 223 223  223 223 223  223 223 223  223 223 223  223 223 223  223 223 223  223 223 223  223 223 223  223 223 223  223 223 223  223 223 223  223 223 223  223 223 223  223 223 223  226 226 226  205 205 205  162 162 162  240 240 240  220 220 220  234 234 234  229 229 229  57 57 57  164 164 164  248 248 248  220 220 220  230 230 230  231 231 231  198 198 198  223 223 223  243 243 243  187 187 187  250 250 250  247 247 247  108 108 108  182 182 182  244 244 244  213 213 213  216 216 216  212 212 212  235 235 235  255 255 255  255 255 255  255 255 255  
255 255 255  255 255 255  255 255 255  255 255 255  255 255 255  255 255 255  255 255 255  255 255 255  255 255 255  255 255 255  255 255 255  255 255 255  255 255 255  255 255 255  255 255 255  255 255 255  255 255 255  255 255 255  255 255 255  255 255 255  255 255 255  255 255 255  255 255 255  255 255 255  255 255 255  255 255 255  255 255 255  255 255 255  255 255 255  255 255 255  255 255 255  255 255 255  255 255 255  255 255 255  255 255 255  255 255 255  255 255 255  255 255 255  255 255 255  255 255 255  255 255 255  255 255 255  255 255 255  255 255 255  255 255 255  255 255 255  255 255 255  255 255 255  255 255 255  255 255 255  255 255 255  255 255 255  255 255 255  255 255 255  255 255 255  255 255 255  255 255 255  255 255 255  255 255 255  255 255 255  255 255 255  255 255 255  255 255 255  255 255 255  255 255 255  255 255 255  255 255 255  255 255 255  255 255 255  255 255 255  255 255 255  255 255 255  255 255 255  255 255 255  255 255 255  255 255 255  255 255 255  255 255 255  255 255 255  255 255 255  
255 255 255  255 255 255  255 255 255  255 255 255  255 255 255  255 255 255  255 255 255  255 255 255  255 255 255  255 255 255  255 255 255  255 255 255  255 255 255  255 255 255  255 255 255  255 255 255  255 255 255  255 255 255  255 255 255  255 255 255  255 255 255  255 255 255  255 255 255  255 255 255  255 255 255  255 255 255  255 255 255  255 255 255  255 255 255  255 255 255  255 255 255  255 255 255  255 255 255  255 255 255  255 255 255  255 255 255  255 255 255  255 255 255  255 255 255  255 255 255  255 255 255  255 255 255  255 255 255  255 255 255  255 255 255  255 255 255  255 255 255  255 255 255  255 255 255  255 255 255  255 255 255  255 255 255  255 255 255  255 255 255  255 255 255  255 255 255  255 255 255  255 255 255  255 255 255  255 255 255  255 255 255  255 255 255  255 255 255  255 255 255  255 255 255  255 255 255  255 255 255  255 255 255  255 255 255  255 255 255  255 255 255  255 255 255  255 255 255  255 255 255  255 255 255  255 255 255  255 255 255  255 255 255  255 255 255  255 255 255  
