P3
# Created by PPMWriter
80 40
255
255 255 255  255 255 255  255 255 255  255 255 255  255 255 255  255 255 255  255 255 255  255 255 255  255 255 255  255 255 255  255 255 255  255 255 255  255 255 255  255 255 255  255 255 255  255 255 255  255 255 255  255 255 255  255 255 255  255 255 255  255 255 255  255 255 255  255 255 255  255 255 255  255 255 255  255 255 255  255 255 255  255 255 255  255 255 255  255 255 255  255 255 255  255 255 255  255 255 255  255 255 255  255 255 255  255 255 255  255 255 255  255 255 255  255 255 255  255 255 255  255 255 255  255 255 255  255 255 255  255 255 255  255 255 255  255 255 255  255 255 255  255 255 255  255 255 255  255 255 255  255 255 255  255 255 255  255 255 255  255 255 255  255 255 255  255 255 255  255 255 255  255 255 255  255 255 255  255 255 255  255 255 255  255 255 255  255 255 255  255 255 255  255 255 255  255 255 255  255 255 255  255 255 255  255 255 255  255 255 255  255 255 255  255 255 255  255 255 255  255 255 255  255 255 255  255 255 255  255 255 255  255 255 255  255 255 255  255 255 255  
255 255 255  255 255 255  255 255 255  255 255 255  255 255 255  255 255 255  255 255 255  255 255 255  255 255 255  255 255 255  255 255 255  255 255 255  255 255 255  255 255 255  255 255 255  255 255 255  255 255 255  255 255 255  255 255 255  255 255 255  255 255 255  255 255 255  255 255 255  255 255 255  255 255 255  255 255 255  255 255 255  255 255 255  255 255 255  255 255 255  255 255 255  255 255 255  255 255 255  255 255 255  255 255 255  255 255 255  255 255 255  255 255 255  255 255 255  255 255 255  255 255 255  255 255 255  255 255 255  255 255 255  255 255 255  255 255 255  255 255 255  255 255 255  255 255 255  255 255 255  255 255 255  255 255 255  255 255 255  255 255 255  255 255 255  255 255 255  255 255 255  255 255 255  255 255 255  255 255 255  255 255 255  255 255 255  255 255 255  255 255 255  255 255 255  255 255 255  255 255 255  255 255 255  255 255 255  255 255 255  255 255 255  255 255 255  255 255 255  255 255 255  255 255 255  255 255 255  255 255 255  255 255 255  255 255 255  255 255 255  
10 10 10  10 10 10  10 10 10  10 10 10  184 186 181  255 255 255  161 160 255  126 126 255  152 152 219  147 147 127  90 90 91  120 120 119  251 251 254  129 129 132  113 113 117  168 168 175  198 198 204  174 174 179  196 196 200  170 169 176  178 178 185  179 178 186  206 206 212  211 211 216  211 210 216  175 175 180  185 185 189  242 242 248  237 237 244  236 236 243  223 223 228  224 224 225  255 255 255  255 255 255  255 255 255  238 238 242  233 233 240  236 236 242  236 236 242  236 236 242  236 236 242  236 236 242  236 236 242  233 233 240  238 238 242  255 255 255  255 255 255  255 255 255  224 224 225  223 223 228  236 236 243  236 236 242  246 245 251  200 201 205  176 176 181  210 210 215  211 211 216  191 191 196  164 165 171  184 184 192  169 170 176  197 197 201  180 180 184  139 139 143  162 162 168  171 171 178  167 167 173  97 97 97  105 105 104  155 155 157  182 182 188  70 70 72  10 10 10  10 10 10  29 29 29  137 137 137  16 16 16  10 10 10  10 10 10  10 10 10  
10 10 10  10 10 10  10 10 10  10 10 10  185 186 181  255 255 255  150 149 255  115 114 255  145 145 220  148 148 124  140 140 145  167 167 174  185 185 191  198 199 205  211 212 219  201 202 208  186 186 192  195 196 202  186 186 193  199 199 205  197 197 202  196 197 202  184 184 191  182 182 189  181 182 188  192 193 199  221 222 227  226 226 231  222 222 227  221 221 226  226 227 231  231 232 236  221 222 226  222 223 227  222 223 227  222 223 227  222 222 228  222 223 228  222 223 228  222 223 228  222 223 228  222 223 228  222 223 228  222 222 228  222 223 227  222 223 227  222 223 227  221 222 226  232 233 237  226 227 231  221 221 226  222 223 228  225 225 230  221 223 228  194 194 201  181 181 188  182 182 189  191 191 198  203 203 209  194 194 200  199 199 205  185 186 193  193 194 200  213 213 220  203 204 210  190 191 197  190 190 197  183 183 189  158 158 163  164 164 168  183 183 188  52 52 54  10 10 10  10 10 10  10 10 10  129 129 129  17 17 17  10 10 10  10 10 10  10 10 10  
10 10 10  10 10 10  10 10 10  10 10 10  183 185 181  255 255 255  178 178 255  135 135 252  160 160 217  179 180 168  203 203 210  209 209 215  203 204 209  215 216 219  217 219 222  217 218 222  217 218 221  217 218 222  217 218 222  217 218 222  217 218 221  217 218 221  217 218 221  217 218 221  217 218 221  218 219 223  211 213 216  206 207 211  207 209 212  208 209 213  207 208 212  205 206 210  205 206 210  205 206 210  205 206 210  207 208 212  208 209 212  207 209 212  207 209 212  207 209 212  207 209 212  207 209 212  207 209 212  208 209 212  207 208 212  205 206 210  205 206 210  205 206 210  205 206 210  207 208 212  208 209 213  207 209 212  206 207 211  210 211 215  217 219 222  217 218 222  217 218 221  216 218 221  217 218 222  221 222 225  225 226 229  228 228 232  228 229 232  228 229 232  228 228 232  225 226 229  219 220 223  214 215 220  208 209 215  196 196 202  183 183 191  131 131 136  119 118 118  130 130 130  140 140 140  158 158 158  13 13 13  10 10 10  10 10 10  10 10 10  
10 10 10  10 10 10  10 10 10  10 10 10  180 183 183  255 255 255  243 247 240  230 234 227  209 210 210  202 203 210  216 217 220  217 219 222  213 215 218  211 212 216  211 212 216  211 212 216  211 212 216  211 212 216  211 212 216  211 212 216  211 212 216  211 212 216  211 212 216  211 212 216  211 212 216  211 212 216  211 212 216  211 212 216  211 212 216  211 212 216  211 212 216  211 212 216  211 212 216  211 212 216  211 212 216  211 212 216  211 212 216  211 212 216  211 212 216  211 212 216  211 212 216  211 212 216  211 212 216  211 212 216  211 212 216  211 212 216  211 212 216  211 212 216  211 212 216  211 212 216  211 212 216  211 212 216  211 212 216  211 212 216  211 212 216  210 211 215  214 215 219  223 224 228  222 223 227  212 212 216  199 201 205  191 193 197  187 189 193  187 189 193  192 193 197  201 202 206  213 214 218  225 226 229  229 230 233  219 220 223  197 198 203  215 216 222  255 255 255  255 255 255  255 255 255  191 191 191  10 10 10  10 10 10  10 10 10  10 10 10  
10 10 10  10 10 10  10 10 10  10 10 10  180 183 183  255 255 255  239 241 241  217 220 219  216 217 219  215 215 220  211 212 216  211 212 216  211 212 216  211 212 216  211 212 216  211 212 216  211 212 216  211 212 216  211 212 216  211 212 216  211 212 216  211 212 216  211 212 216  211 212 216  211 212 216  211 212 216  211 212 216  211 212 216  211 212 216  211 212 216  211 212 216  211 212 216  211 212 216  211 212 216  211 212 216  211 212 216  211 212 216  211 212 216  211 212 216  211 212 216  211 212 216  211 212 216  211 212 216  211 212 216  211 212 216  211 212 216  211 212 216  211 212 216  211 212 216  211 212 216  211 212 216  211 212 216  211 212 216  210 211 215  212 213 217  225 225 229  218 218 222  189 192 196  164 168 172  147 151 155  137 142 146  132 137 141  130 135 139  130 135 139  132 137 141  138 142 146  148 152 156  166 169 173  192 194 198  220 220 224  228 228 232  217 218 222  212 214 219  231 232 237  255 255 255  183 183 183  10 10 10  10 10 10  10 10 10  10 10 10  
10 10 10  10 10 10  10 10 10  10 10 10  180 183 182  255 255 255  215 214 219  207 207 212  211 212 216  211 212 216  211 212 216  211 212 216  211 212 216  211 212 216  211 212 216  211 212 216  211 212 216  211 212 216  211 212 216  211 212 216  211 212 216  211 212 216  211 212 216  211 212 216  211 212 216  211 212 216  211 212 216  211 212 216  211 212 216  211 212 216  211 212 216  211 212 216  211 212 216  211 212 216  211 212 216  211 212 216  211 212 216  211 212 216  211 212 216  211 212 216  211 212 216  211 212 216  211 212 216  211 212 216  211 212 216  211 212 216  211 212 216  211 212 216  211 212 216  211 212 216  211 212 216  211 212 216  210 211 215  219 219 223  224 224 228  189 191 195  149 153 158  128 133 138  125 131 135  131 137 141  136 141 145  138 143 147  138 143 147  138 143 147  137 143 147  135 141 145  131 136 140  125 131 135  129 134 138  152 156 160  193 196 199  225 225 229  213 213 218  212 214 217  255 255 255  183 182 181  10 10 10  10 10 10  10 10 10  10 10 10  
113 113 113  113 113 113  109 109 108  74 74 73  183 184 186  237 239 244  206 207 211  212 213 217  211 212 216  211 212 216  211 212 216  211 212 216  211 212 216  211 212 216  211 212 216  211 212 216  211 212 216  211 212 216  211 212 216  211 212 216  211 212 216  211 212 216  211 212 216  211 212 216  211 212 216  211 212 216  211 212 216  211 212 216  211 212 216  211 212 216  211 212 216  211 212 216  211 212 216  211 212 216  211 212 216  211 212 216  211 212 216  211 212 216  211 212 216  211 212 216  211 212 216  211 212 216  211 212 216  211 212 216  211 212 216  211 212 216  211 212 216  211 212 216  211 212 216  211 212 216  211 212 216  210 211 215  222 223 227  215 216 220  162 165 169  125 130 134  127 133 137  138 143 147  139 144 148  139 144 148  139 144 148  139 144 148  139 144 148  139 144 148  139 144 148  139 144 148  139 144 148  140 145 149  138 143 147  126 132 136  126 131 135  166 170 174  219 220 223  217 217 221  236 237 242  185 186 189  75 74 73  109 109 108  113 113 113  113 113 113  
182 182 182  182 182 182  175 174 176  255 255 255  221 221 225  204 205 209  211 212 216  211 212 216  211 212 216  211 212 216  211 212 216  211 212 216  211 212 216  211 212 216  211 212 216  211 212 216  211 212 216  211 212 216  211 212 216  211 212 216  211 212 216  211 212 216  211 212 216  211 212 216  211 212 216  211 212 216  211 212 216  211 212 216  211 212 216  211 212 216  211 212 216  211 212 216  211 212 216  211 212 216  211 212 216  211 212 216  211 212 216  211 212 216  211 212 216  211 212 216  211 212 216  211 212 216  211 212 216  211 212 216  211 212 216  211 212 216  211 212 216  211 212 216  211 212 216  211 212 216  209 211 215  223 224 228  210 211 215  144 148 152  122 128 132  137 142 146  140 145 149  139 144 148  139 144 148  139 144 148  139 144 148  136 141 145  132 137 141  132 138 142  137 142 146  140 145 149  139 144 148  139 144 148  139 144 148  140 145 149  136 141 145  121 127 131  149 153 157  214 215 219  214 214 218  220 221 225  255 255 255  174 174 176  182 182 182  182 182 182  
10 10 10  10 10 10  21 20 23  234 235 242  220 221 224  211 212 216  211 212 216  211 212 216  211 212 216  211 212 216  211 212 216  211 212 216  211 212 216  213 214 218  216 217 220  215 216 220  213 214 218  213 214 218  215 216 219  216 217 220  213 214 218  211 212 216  211 212 216  211 212 216  211 212 216  211 212 216  211 212 216  211 212 216  211 212 216  211 212 216  211 212 216  211 212 216  211 212 216  211 212 216  211 212 216  211 212 216  211 212 216  211 212 216  211 212 216  211 212 216  211 212 216  211 212 216  211 212 216  211 212 216  211 212 216  211 212 216  211 212 216  211 212 216  211 212 216  209 211 215  221 222 226  211 212 216  140 145 149  125 130 134  140 145 149  139 144 148  139 144 148  139 144 148  140 145 149  138 143 147  127 133 139  147 148 147  180 173 162  176 170 159  140 143 143  129 135 141  140 145 149  139 144 148  139 144 148  139 144 148  139 144 148  139 144 148  123 129 133  146 150 154  215 216 219  228 229 232  232 233 240  22 22 24  10 10 10  10 10 10  
145 145 145  148 148 147  195 196 198  229 231 235  209 210 214  211 212 216  211 212 216  211 212 216  211 212 216  211 212 216  211 212 216  213 214 218  216 217 221  210 211 215  201 202 206  196 197 201  193 194 199  193 194 199  195 196 201  201 202 206  209 210 214  216 217 221  213 214 218  211 212 216  211 212 216  211 212 216  211 212 216  211 212 216  211 212 216  211 212 216  211 212 216  211 212 216  211 212 216  211 212 216  211 212 216  211 212 216  211 212 216  211 212 216  211 212 216  211 212 216  211 212 216  211 212 216  211 212 216  211 212 216  211 212 216  211 212 216  211 212 216  211 212 216  210 211 215  216 217 221  219 219 224  149 153 158  124 130 134  140 145 149  139 144 148  139 144 148  139 144 148  140 145 149  135 140 144  123 131 136  178 174 166  194 195 198  145 166 202  149 168 202  196 194 192  163 161 154  127 133 140  140 145 149  139 144 148  139 144 148  139 144 148  139 144 148  140 145 149  123 129 133  156 160 164  220 220 224  235 236 241  189 190 192  143 143 143  145 145 145  
255 255 255  255 255 255  224 225 230  201 202 206  211 212 216  211 212 216  211 212 216  211 212 216  211 212 216  211 212 216  214 215 219  213 214 218  197 198 204  185 186 191  185 186 191  195 196 202  196 198 203  197 198 203  194 195 200  183 184 190  185 186 191  197 198 203  212 213 217  215 216 219  211 212 216  211 212 216  211 212 216  211 212 216  211 212 216  211 212 216  211 212 216  211 212 216  211 212 216  211 212 216  211 212 216  211 212 216  211 212 216  211 212 216  211 212 216  211 212 216  211 212 216  211 212 216  211 212 216  211 212 216  211 212 216  211 212 216  211 212 216  211 212 216  211 212 216  225 226 230  172 175 179  122 128 132  139 144 148  139 144 148  139 144 148  139 144 148  140 145 149  131 137 141  128 134 140  190 185 178  189 196 211  52 108 199  10 76 189  10 76 190  71 123 205  191 194 201  157 155 150  133 139 143  139 144 148  139 144 148  139 144 148  139 144 148  139 144 148  138 143 147  122 128 132  180 182 186  217 218 221  220 221 226  255 255 255  255 255 255  
245 245 245  221 222 225  204 205 210  212 213 217  211 212 216  211 212 216  211 212 216  211 212 216  211 212 216  215 216 220  210 211 215  189 190 195  181 182 187  187 188 193  186 188 192  166 167 172  163 164 169  162 163 168  170 170 176  189 190 195  186 187 192  181 182 188  188 189 194  209 210 214  215 216 220  210 211 215  211 212 216  211 212 216  211 212 216  211 212 216  211 212 216  211 212 216  211 212 216  211 212 216  211 212 216  211 212 216  211 212 216  211 212 216  211 212 216  211 212 216  211 212 216  211 212 216  211 212 216  211 212 216  211 212 216  211 212 216  211 212 216  211 212 216  220 221 225  202 203 207  133 138 142  134 139 143  139 144 148  139 144 148  139 144 148  139 144 148  128 134 138  137 142 146  189 189 190  224 218 215  57 111 194  10 66 186  30 94 190  28 93 190  10 65 186  90 135 206  194 187 180  132 137 139  139 144 148  139 144 148  139 144 148  139 144 148  139 144 148  140 145 149  132 137 141  136 141 145  208 209 213  213 213 218  221 222 225  245 245 244  
244 244 244  205 206 211  209 211 215  211 212 216  211 212 216  211 212 216  211 212 216  211 212 216  214 215 219  211 212 216  187 188 194  182 183 188  187 188 193  202 203 208  150 151 156  81 82 87  91 92 97  89 90 95  86 88 92  163 165 169  200 201 206  187 188 193  182 183 189  186 187 192  211 212 215  214 215 219  211 212 216  211 212 216  211 212 216  211 212 216  211 212 216  211 212 216  211 212 216  211 212 216  211 212 216  211 212 216  211 212 216  211 212 216  211 212 216  211 212 216  211 212 216  211 212 216  211 212 216  211 212 216  211 212 216  211 212 216  211 212 216  211 212 216  223 224 228  165 169 173  124 130 134  140 145 149  139 144 148  140 145 149  137 142 146  126 132 136  147 152 156  194 196 201  226 219 214  172 182 200  16 85 188  21 90 189  30 94 190  30 94 190  13 84 189  44 105 199  176 180 189  145 146 143  138 143 147  139 144 148  139 144 148  139 144 148  139 144 148  139 144 148  140 145 149  123 129 133  171 174 178  224 224 229  205 207 211  243 244 243  
221 221 225  210 212 216  211 211 215  211 212 216  211 212 216  211 212 216  211 212 216  212 213 217  215 216 219  193 194 199  182 183 188  187 188 193  187 188 193  203 204 209  139 140 145  81 82 87  98 99 104  98 99 104  83 84 89  152 154 158  202 203 208  187 188 193  188 189 194  182 183 188  192 193 198  214 215 219  212 213 217  211 212 216  211 212 216  211 212 216  211 212 216  211 212 216  211 212 216  211 212 216  211 212 216  211 212 216  211 212 216  211 212 216  211 212 216  211 212 216  211 212 216  211 212 216  211 212 216  211 212 216  211 212 216  211 212 216  211 212 216  217 218 222  207 208 212  139 144 148  133 138 142  139 144 148  140 145 149  134 139 143  127 133 136  160 164 168  203 204 209  204 205 210  207 204 202  191 194 201  28 92 190  10 80 188  32 95 190  32 96 190  10 74 187  61 117 202  188 187 185  138 141 141  138 143 147  132 138 142  129 135 139  132 138 141  138 143 147  140 145 149  139 144 148  131 137 141  144 149 153  211 212 216  215 217 221  221 222 226  
199 205 209  218 217 221  211 212 216  211 212 216  211 212 216  211 212 216  211 212 216  215 216 220  204 205 209  183 183 189  188 188 193  189 190 195  189 190 195  204 205 210  144 145 150  85 86 91  100 101 106  99 100 105  88 89 94  157 158 163  203 204 209  189 190 195  189 190 195  188 189 194  182 183 188  203 204 208  215 216 220  211 212 216  211 212 216  211 212 216  211 212 216  211 212 216  211 212 216  211 212 216  211 212 216  211 212 216  211 212 216  211 212 216  211 212 216  211 212 216  211 212 216  211 212 216  211 212 216  211 212 216  211 212 216  211 212 216  211 212 216  224 224 228  185 188 192  127 132 136  139 144 148  140 145 149  129 136 139  137 139 144  198 184 196  236 217 231  215 206 216  193 195 200  195 197 201  222 213 204  127 154 197  10 70 187  10 74 188  10 72 187  10 80 192  159 177 209  180 174 165  125 129 133  131 138 142  149 174 177  158 191 194  150 179 182  132 142 146  133 136 140  140 145 149  138 143 147  130 135 139  190 192 196  229 227 231  201 206 211  
217 220 223  208 208 212  211 212 216  211 212 216  211 212 216  211 212 216  211 212 216  215 216 220  193 194 199  184 185 190  197 198 203  196 197 202  195 196 201  212 213 218  147 148 153  84 85 90  100 101 106  99 100 105  87 88 93  161 162 167  211 212 217  195 196 201  197 198 203  196 197 202  183 184 189  193 194 198  214 215 219  212 213 217  211 212 216  211 212 216  211 212 216  211 212 216  211 212 216  211 212 216  211 212 216  211 212 216  211 212 216  211 212 216  211 212 216  211 212 216  211 212 216  211 212 216  211 212 216  211 212 216  211 212 216  211 212 216  211 212 216  223 224 228  167 171 175  125 131 135  140 145 149  128 137 139  153 148 156  201 193 202  163 194 185  138 178 164  185 193 195  220 204 217  195 196 202  200 199 202  217 210 203  141 163 198  71 118 192  83 128 199  167 183 210  188 182 174  121 125 129  135 147 151  177 201 204  201 164 172  205 124 136  202 150 159  180 197 201  138 156 159  133 135 140  140 145 149  126 132 136  173 176 180  219 218 223  220 223 225  
214 215 219  209 211 214  211 212 216  211 212 216  211 212 216  211 212 216  213 214 217  210 211 215  191 191 196  189 190 195  141 143 147  115 117 122  123 124 129  127 128 133  112 113 118  96 97 102  100 101 106  100 101 106  97 98 103  115 116 121  127 128 133  123 124 129  114 115 120  150 151 156  194 195 200  188 189 194  209 210 214  213 214 218  211 212 216  211 212 216  211 212 216  211 212 216  211 212 216  211 212 216  211 212 216  211 212 216  211 212 216  211 212 216  211 212 216  211 212 216  211 212 216  211 212 216  211 212 216  211 212 216  211 212 216  211 212 216  213 214 218  218 219 223  156 160 164  128 134 138  136 141 145  146 144 151  195 192 198  89 171 141  10 136 83  10 135 81  26 143 96  156 185 178  220 204 217  192 195 201  199 198 202  221 212 203  227 220 213  225 217 209  178 173 164  115 122 126  141 148 152  193 217 220  210 131 143  200 10 31  197 10 22  200 10 25  213 102 115  182 197 200  133 146 149  137 142 146  127 133 137  161 166 170  219 219 223  215 215 219  
212 213 216  211 212 216  211 212 216  211 212 216  211 212 216  211 212 216  214 215 219  207 208 212  193 194 199  182 183 188  95 96 101  79 80 85  87 88 93  85 86 91  94 95 100  102 103 108  100 101 106  100 101 106  102 103 108  92 93 98  85 86 91  87 88 93  73 74 79  109 110 115  194 195 200  188 189 194  206 207 211  214 215 219  211 212 216  211 212 216  211 212 216  210 211 215  209 210 215  225 226 230  233 234 238  214 215 219  209 210 214  211 212 216  211 212 216  211 212 216  210 211 215  212 213 217  230 230 234  229 230 234  211 212 216  210 211 215  214 215 219  213 214 218  150 154 158  131 136 140  130 134 138  192 175 188  117 180 158  10 130 71  24 143 97  29 145 101  10 135 81  31 145 100  192 195 199  208 200 209  197 198 203  208 209 214  196 196 199  142 146 149  114 121 124  156 160 164  202 225 228  206 170 178  196 10 26  197 20 39  197 37 55  197 29 47  199 10 17  205 135 145  155 186 188  131 137 140  129 135 139  155 159 163  216 216 220  214 214 218  
211 212 215  211 212 216  211 212 216  211 212 216  211 212 216  211 212 216  214 215 219  205 206 210  192 193 198  182 183 188  105 106 111  93 94 99  100 101 106  100 101 106  100 101 106  100 101 106  100 101 106  100 101 106  100 101 106  100 101 106  100 101 106  100 101 106  88 89 94  117 118 123  192 193 198  188 189 194  205 206 210  214 215 219  211 212 216  211 212 216  210 211 215  214 215 219  234 235 239  191 192 196  165 166 171  211 212 216  213 215 219  211 212 216  211 212 216  209 210 214  219 220 224  231 232 236  175 176 180  175 177 181  218 219 223  211 212 216  215 216 220  211 212 216  147 152 156  132 137 141  133 136 141  190 181 191  67 164 127  10 136 83  31 145 101  30 145 100  28 145 99  10 137 84  144 180 170  227 209 222  209 209 214  181 183 188  127 132 136  120 126 130  172 174 179  207 207 213  202 235 237  195 116 128  197 10 21  197 38 55  197 35 53  197 37 55  197 10 23  207 95 109  165 193 195  129 136 140  129 135 139  153 157 161  215 216 220  214 214 218  
211 213 217  211 212 216  211 212 216  211 212 216  211 212 216  211 212 216  214 215 219  207 208 212  193 194 199  180 181 186  98 99 104  88 89 94  95 96 101  94 95 100  98 99 104  101 102 107  100 101 106  100 101 106  101 102 107  97 98 103  94 95 100  95 96 101  83 83 88  111 112 117  191 193 198  189 190 195  206 207 211  214 215 219  211 212 216  209 210 214  221 222 226  237 238 242  172 173 177  80 81 86  41 42 47  157 158 162  235 235 239  211 212 216  209 210 214  228 229 233  230 231 235  147 148 152  64 65 70  58 60 65  188 189 193  228 229 232  215 216 220  213 213 217  149 154 158  131 136 140  130 134 139  195 180 193  88 171 140  10 132 75  33 146 102  31 146 101  17 141 92  11 138 88  176 195 192  225 212 224  166 170 174  117 124 128  131 136 140  185 187 192  209 209 214  199 199 205  195 222 225  196 149 158  197 10 23  197 28 46  197 37 55  197 34 52  198 10 16  206 123 135  158 189 192  130 136 140  129 135 139  155 159 163  216 216 220  214 215 219  
214 215 218  210 211 215  211 212 216  211 212 216  211 212 216  211 212 216  213 214 217  211 212 216  193 194 199  187 188 193  117 118 123  90 91 96  99 100 105  99 100 105  100 101 106  100 101 106  100 101 106  100 101 106  100 101 106  100 101 106  99 100 105  99 100 105  87 88 93  129 131 136  195 196 201  189 190 195  209 210 215  213 214 218  208 209 213  223 224 228  227 228 232  142 143 147  67 69 74  55 56 62  74 75 80  182 183 187  227 228 232  208 209 213  230 231 235  215 216 220  116 118 123  61 62 67  55 56 61  95 97 101  204 205 209  222 223 226  213 214 218  218 218 222  155 160 164  128 134 138  133 138 142  165 156 166  178 194 192  28 149 100  10 132 74  10 134 80  10 131 73  115 178 155  222 207 219  154 156 160  114 121 123  142 151 168  191 200 231  203 210 240  194 198 213  196 196 199  196 201 205  196 215 219  196 94 108  197 10 15  197 10 21  196 10 13  209 73 90  189 195 199  136 152 155  136 141 145  128 133 138  161 165 169  218 218 223  216 216 219  
216 217 223  209 210 213  211 212 216  211 212 216  211 212 216  211 212 216  211 212 216  215 216 220  194 195 200  186 187 192  185 186 191  173 174 179  175 176 181  188 189 194  137 138 143  87 88 93  100 101 106  99 100 105  90 91 96  148 149 154  187 188 193  175 176 181  174 175 180  187 188 193  185 186 192  193 194 198  214 215 219  211 212 216  219 220 224  208 210 214  115 116 121  60 61 66  57 58 63  98 99 104  198 200 204  228 229 233  209 210 215  223 224 228  192 193 197  91 93 98  57 58 63  61 62 67  120 121 126  216 217 221  224 225 229  209 210 214  211 212 216  223 224 227  166 170 174  125 131 135  140 145 149  127 135 138  178 166 177  179 195 194  99 174 146  86 169 136  141 187 172  203 193 203  151 149 155  116 123 126  154 163 186  207 203 196  217 198 139  206 190 137  195 197 202  193 199 221  197 194 197  196 208 212  196 212 216  196 133 142  197 97 105  208 129 140  194 199 204  142 164 167  132 134 138  140 145 149  126 132 136  172 175 179  222 221 224  215 217 223  
221 222 228  207 208 211  211 212 216  211 212 216  211 212 216  211 212 216  211 212 216  215 216 220  205 206 210  182 183 188  192 193 198  197 198 203  196 197 202  213 214 219  147 148 153  83 84 89  100 101 106  99 100 105  87 88 93  162 163 168  211 212 217  196 197 202  197 198 203  191 192 196  181 182 187  204 205 209  215 216 220  211 212 216  232 233 237  173 174 179  42 43 49  58 58 64  125 126 131  220 221 225  233 234 238  210 211 215  210 211 215  237 238 242  138 139 143  28 30 35  71 73 77  150 151 156  232 233 237  227 228 231  208 209 213  211 212 216  211 212 216  224 225 228  183 185 190  126 132 136  139 144 148  138 144 147  128 135 138  164 155 165  196 180 193  196 183 195  188 173 186  139 141 146  119 127 129  151 160 184  214 205 180  229 187 52  226 179 25  227 180 26  219 184 67  198 196 191  193 198 218  196 194 199  195 202 206  199 228 231  208 236 240  182 214 217  135 151 154  130 132 136  140 145 149  138 143 147  129 135 139  189 191 195  219 219 222  220 221 228  
233 234 239  206 207 211  210 211 215  211 212 216  211 212 216  211 212 216  211 212 216  211 212 216  215 216 220  195 196 200  181 182 187  187 188 193  187 188 193  202 203 208  142 142 147  85 86 91  100 101 106  99 100 105  87 88 93  155 155 161  201 202 207  187 188 193  187 188 193  182 183 188  193 194 199  215 216 219  211 212 217  211 212 216  215 216 220  210 211 215  143 144 149  151 152 157  229 230 234  226 227 231  208 209 213  211 212 216  211 212 216  219 220 224  198 198 203  131 132 137  172 173 178  236 237 241  218 219 223  209 210 214  211 212 216  211 212 216  211 212 216  218 219 223  205 206 210  138 143 147  134 139 143  139 144 148  140 145 149  133 138 142  129 134 138  130 135 139  129 135 139  135 140 144  132 140 151  184 187 195  231 194 76  225 180 30  221 183 61  221 183 60  228 180 22  215 186 95  193 199 220  194 196 204  202 203 208  206 206 212  169 173 177  129 135 139  131 137 141  140 145 149  139 144 148  132 138 142  142 147 151  209 210 214  211 212 216  234 234 240  
255 255 255  217 218 223  204 205 209  211 212 216  211 212 216  211 212 216  211 212 216  211 212 216  213 215 218  212 213 217  189 190 195  182 183 188  187 188 193  204 205 210  140 141 146  69 70 75  84 85 90  83 84 89  73 74 79  155 156 161  203 204 209  187 188 193  182 183 188  187 188 194  212 213 216  214 215 219  211 212 216  211 212 216  209 210 214  214 215 219  231 232 236  231 232 236  215 216 220  209 210 214  211 212 216  211 212 216  211 212 216  208 209 213  218 219 223  234 235 239  227 228 232  211 212 216  210 211 215  211 212 216  211 212 216  211 212 216  211 212 216  211 212 216  223 223 227  162 166 170  124 130 134  140 145 149  139 144 148  139 144 148  139 144 148  139 144 148  139 144 148  135 141 145  137 147 168  196 190 169  229 186 48  222 182 56  221 183 59  221 183 59  224 182 44  219 184 67  196 196 198  205 208 221  201 201 206  155 159 163  127 133 137  135 141 144  140 145 149  139 144 148  140 145 149  123 129 133  168 171 175  218 219 223  217 218 223  255 255 255  
182 182 179  206 206 206  216 217 222  211 212 216  211 212 216  211 212 216  211 212 216  211 212 216  210 211 216  215 216 219  211 212 216  191 192 197  181 182 187  191 192 197  175 176 181  135 136 141  135 136 141  133 135 140  140 141 146  182 183 188  189 190 195  181 182 187  190 191 195  211 212 216  215 216 220  210 211 215  211 212 216  211 212 216  211 212 216  211 212 216  212 213 217  212 213 217  211 212 216  211 212 216  211 212 216  211 212 216  211 212 216  211 212 216  211 212 216  212 213 217  211 212 216  211 212 216  211 212 216  211 212 216  211 212 216  211 212 216  211 212 216  210 211 215  222 222 226  198 199 203  130 135 140  135 141 144  139 144 148  139 144 148  139 144 148  139 144 148  139 144 148  137 142 146  132 140 153  186 188 191  230 192 68  225 180 36  221 183 61  221 183 61  226 179 26  217 186 87  206 210 229  190 193 201  143 147 151  127 133 137  138 143 147  140 145 149  139 144 148  140 145 149  133 139 143  133 138 142  204 205 209  226 226 231  205 206 206  182 182 179  
177 176 180  214 215 220  220 222 226  209 210 214  211 212 216  211 212 216  211 212 216  211 212 216  211 212 216  210 211 216  214 215 219  214 215 219  199 200 205  185 186 191  189 190 195  199 200 205  197 198 204  198 199 204  198 199 205  187 188 193  185 186 192  198 199 204  213 214 218  215 216 220  210 211 215  211 212 216  211 212 216  211 212 216  211 212 216  211 212 216  211 212 216  211 212 216  211 212 216  211 212 216  211 212 216  211 212 216  211 212 216  211 212 216  211 212 216  211 212 216  211 212 216  211 212 216  211 212 216  211 212 216  211 212 216  211 212 216  211 212 216  211 212 216  211 212 216  225 225 229  167 170 174  122 128 132  140 145 149  139 144 148  139 144 148  139 144 148  139 144 148  139 144 148  129 135 138  155 165 189  218 205 167  231 185 38  226 180 28  227 180 25  228 187 55  212 206 190  176 183 205  134 139 142  129 135 139  140 145 149  139 144 148  139 144 148  139 144 148  139 144 148  121 127 131  175 178 182  224 225 228  220 221 225  214 214 219  176 176 180  
231 231 240  221 221 230  211 212 218  207 209 213  211 212 216  211 212 216  211 212 216  211 212 216  211 212 216  211 212 216  211 212 216  212 213 217  216 217 221  211 211 216  203 204 208  198 199 204  195 196 201  195 196 201  197 198 203  202 203 207  210 211 215  216 217 221  213 214 218  210 211 215  211 212 216  211 212 216  211 212 216  211 212 216  211 212 216  211 212 216  211 212 216  211 212 216  211 212 216  211 212 216  211 212 216  211 212 216  211 212 216  211 212 216  211 212 216  211 212 216  211 212 216  211 212 216  211 212 216  211 212 216  211 212 216  211 212 216  211 212 216  211 212 216  210 211 215  218 219 223  216 217 221  144 148 152  125 131 135  141 145 149  139 144 148  139 144 148  139 144 148  139 144 148  138 143 146  130 137 142  162 170 193  207 199 176  222 198 122  221 198 128  202 199 191  161 170 193  129 134 136  133 138 142  140 145 149  139 144 148  139 144 148  139 144 148  140 145 149  124 130 134  151 155 159  220 220 224  212 213 217  210 212 218  221 221 230  231 231 240  
212 212 233  211 211 234  214 215 236  217 219 223  207 209 212  211 212 216  211 212 216  211 212 216  211 212 216  211 212 216  211 212 216  211 212 216  211 212 216  213 214 218  215 216 220  215 216 220  214 215 219  214 215 219  215 216 220  215 216 220  213 214 218  211 212 216  211 212 216  211 212 216  211 212 216  211 212 216  211 212 216  211 212 216  211 212 216  211 212 216  211 212 216  211 212 216  211 212 216  211 212 216  211 212 216  211 212 216  211 212 216  211 212 216  211 212 216  211 212 216  211 212 216  211 212 216  211 212 216  211 212 216  211 212 216  211 212 216  211 212 216  211 212 216  211 212 216  210 211 215  223 223 227  207 208 212  134 140 144  126 132 136  140 145 149  139 144 148  139 144 148  139 144 148  140 145 149  137 142 145  130 136 140  145 154 176  160 170 197  159 170 197  143 151 169  129 135 137  136 141 145  140 145 149  139 144 148  139 144 148  139 144 148  140 145 149  124 131 135  140 145 149  212 212 216  218 219 222  216 217 222  214 215 236  211 211 233  212 212 233  
255 255 255  255 255 255  255 255 255  246 246 246  207 208 212  207 208 212  211 212 216  211 212 216  211 212 216  211 212 216  211 212 216  211 212 216  211 212 216  211 212 216  211 212 216  211 212 216  211 212 216  211 212 216  211 212 216  211 212 216  211 212 216  211 212 216  211 212 216  211 212 216  211 212 216  211 212 216  211 212 216  211 212 216  211 212 216  211 212 216  211 212 216  211 212 216  211 212 216  211 212 216  211 212 216  211 212 216  211 212 216  211 212 216  211 212 216  211 212 216  211 212 216  211 212 216  211 212 216  211 212 216  211 212 216  211 212 216  211 212 216  211 212 216  211 212 216  211 212 216  209 210 214  224 225 229  204 206 210  138 142 146  124 129 133  139 143 147  140 145 149  139 144 148  139 144 148  140 144 148  139 144 148  132 138 142  129 135 139  129 135 139  133 139 142  139 144 148  139 144 148  139 144 148  139 144 148  140 145 149  138 143 147  122 128 132  142 147 151  210 211 215  219 220 224  206 207 211  246 246 247  255 255 255  255 255 255  255 255 255  
255 255 255  255 255 255  255 255 255  250 250 249  222 223 225  212 214 218  209 210 214  211 212 216  211 212 216  211 212 216  211 212 216  211 212 216  211 212 216  211 212 216  211 212 216  211 212 216  211 212 216  211 212 216  211 212 216  211 212 216  211 212 216  211 212 216  211 212 216  211 212 216  211 212 216  211 212 216  210 211 215  208 209 213  209 210 214  209 210 214  209 210 214  209 210 214  209 210 214  209 210 214  209 210 214  209 210 214  209 210 214  209 210 214  209 210 214  209 210 214  209 210 214  209 210 214  209 210 214  209 210 214  209 210 214  209 210 214  209 210 214  209 210 214  209 210 214  209 210 214  209 210 214  208 209 213  222 222 226  210 211 215  154 158 162  123 129 133  130 135 139  139 144 148  139 144 148  139 144 148  139 144 148  139 144 148  139 144 148  139 144 148  139 144 148  139 144 148  139 144 148  140 145 149  139 144 148  129 134 138  124 130 134  158 162 166  215 215 219  220 220 225  211 213 216  218 218 223  247 247 247  255 255 255  255 255 255  255 255 255  
255 255 255  255 255 255  255 255 255  247 246 246  224 226 227  226 228 231  213 213 219  208 209 213  210 211 215  211 212 216  211 212 216  211 212 216  211 212 216  211 212 216  211 212 216  211 212 216  211 212 216  211 212 216  211 212 216  211 212 216  211 212 216  211 212 216  211 212 216  211 212 216  211 212 216  209 210 214  212 213 217  222 222 226  223 225 229  222 224 228  222 224 228  222 224 228  222 224 228  222 224 228  222 224 228  222 224 228  222 224 228  222 224 228  222 224 228  222 224 228  222 224 228  222 224 228  222 224 228  222 224 228  222 224 228  222 224 228  222 224 228  222 224 228  222 224 228  222 224 228  222 224 228  223 224 229  220 222 225  228 229 234  218 218 223  182 185 189  144 148 152  126 131 135  126 132 136  133 139 143  137 142 146  138 144 148  139 144 148  139 144 148  138 143 147  137 142 146  133 138 142  126 131 136  126 132 136  147 151 155  186 188 192  222 222 226  218 218 221  213 214 218  226 227 229  220 220 223  243 243 245  255 255 255  255 255 255  255 255 255  
255 255 255  255 255 255  255 255 255  247 246 246  223 224 225  223 225 230  218 219 223  217 218 222  216 217 222  220 222 225  209 210 214  211 211 216  211 212 216  211 212 216  211 212 216  211 212 216  211 212 216  211 212 216  211 212 216  211 212 216  211 212 216  211 212 216  209 210 214  215 216 220  220 221 226  214 215 220  211 212 216  228 228 229  232 234 240  228 230 236  228 230 236  228 230 236  228 230 236  228 230 236  228 230 236  228 230 236  228 230 236  228 230 236  228 230 236  228 230 236  228 230 236  228 230 236  228 230 236  228 230 236  228 230 236  228 230 236  228 230 236  228 230 236  228 230 236  228 230 236  228 230 236  229 231 237  227 227 228  203 204 206  213 215 220  219 220 225  212 213 217  183 185 189  158 162 166  142 146 150  132 137 141  129 134 138  128 133 137  128 133 137  129 134 138  133 138 142  142 147 151  160 164 168  185 188 192  213 213 217  234 234 238  218 219 224  212 213 221  221 221 225  226 226 228  218 218 222  244 244 245  255 255 255  255 255 255  255 255 255  
255 255 255  255 255 255  255 255 255  247 246 246  223 224 225  222 223 228  217 217 222  236 236 241  213 213 216  196 197 201  221 222 227  218 220 224  211 212 216  210 211 215  210 211 215  211 212 216  211 212 216  211 212 216  211 212 216  209 210 214  211 212 216  220 221 225  213 214 219  212 213 218  209 211 213  226 227 229  203 202 208  222 222 222  232 232 239  226 228 233  226 228 233  226 228 233  226 228 233  226 228 233  226 228 233  226 228 233  226 228 233  226 228 233  226 228 233  226 228 233  226 228 233  226 228 233  226 228 233  226 228 233  226 228 233  226 228 233  226 228 233  226 228 233  226 228 233  226 228 233  226 228 233  228 230 236  212 212 213  169 169 167  241 241 241  224 224 227  210 211 215  224 225 227  229 230 234  209 210 214  191 193 197  185 187 191  181 183 187  181 183 187  186 188 192  194 196 200  206 208 211  221 221 226  217 217 222  214 215 220  200 201 204  214 215 216  227 226 241  217 217 223  225 225 225  218 218 222  244 244 245  255 255 255  255 255 255  255 255 255  
255 255 255  255 255 255  255 255 255  247 246 246  223 224 225  222 223 228  217 217 222  250 251 255  188 188 188  128 128 131  207 207 210  204 205 208  222 223 227  223 224 229  208 209 213  215 215 220  202 203 208  202 203 208  205 206 211  209 210 214  214 216 220  206 208 212  235 236 238  128 128 131  117 117 116  240 240 241  204 204 211  223 223 224  231 232 238  226 228 233  226 228 233  226 228 233  226 228 233  226 228 233  226 228 233  226 228 233  226 228 233  226 228 233  226 228 233  226 228 233  226 228 233  226 228 233  226 228 233  226 228 233  226 228 233  226 228 233  226 228 233  226 228 233  226 228 233  226 228 233  226 228 233  228 230 236  214 214 215  171 171 170  254 254 253  239 238 238  222 222 226  222 222 231  210 210 215  216 216 221  219 220 225  217 218 222  214 215 220  215 215 220  226 227 232  220 220 224  211 212 217  214 214 219  235 237 239  234 235 242  121 121 124  189 189 188  242 242 255  217 217 223  225 225 226  218 218 222  244 244 245  255 255 255  255 255 255  255 255 255  
255 255 255  255 255 255  255 255 255  247 246 246  223 224 225  222 223 228  217 217 222  248 249 253  191 191 192  134 134 138  182 182 184  166 166 165  163 163 164  177 177 179  237 238 240  205 206 209  239 239 241  237 238 240  228 229 233  255 255 255  184 185 190  93 93 97  241 242 241  114 114 116  108 107 107  244 244 246  205 205 211  223 223 224  231 232 238  226 228 233  226 228 233  226 228 233  226 228 233  226 228 233  226 228 233  226 228 233  226 228 233  226 228 233  226 228 233  226 228 233  226 228 233  226 228 233  226 228 233  226 228 233  226 228 233  226 228 233  226 228 233  226 228 233  226 228 233  226 228 233  226 228 233  228 230 236  214 214 215  172 172 171  250 250 250  230 230 230  239 239 244  225 225 239  67 67 67  174 174 174  255 255 255  226 227 230  237 237 240  239 239 241  205 206 208  226 227 233  251 251 253  197 197 197  255 255 255  249 249 255  114 114 118  192 192 192  240 240 254  217 217 223  225 225 226  218 218 222  244 244 245  255 255 255  255 255 255  255 255 255  
255 255 255  255 255 255  255 255 255  255 255 255  255 255 255  255 255 255  255 255 255  255 255 255  255 255 255  255 255 255  255 255 255  255 255 255  255 255 255  255 255 255  255 255 255  255 255 255  255 255 255  255 255 255  255 255 255  255 255 255  255 255 255  255 255 255  255 255 255  255 255 255  255 255 255  255 255 255  255 255 255  255 255 255  255 255 255  255 255 255  255 255 255  255 255 255  255 255 255  255 255 255  255 255 255  255 255 255  255 255 255  255 255 255  255 255 255  255 255 255  255 255 255  255 255 255  255 255 255  255 255 255  255 255 255  255 255 255  255 255 255  255 255 255  255 255 255  255 255 255  255 255 255  255 255 255  255 255 255  255 255 255  255 255 255  255 255 255  255 255 255  255 255 255  255 255 255  255 255 255  255 255 255  255 255 255  255 255 255  255 255 255  255 255 255  255 255 255  255 255 255  255 255 255  255 255 255  255 255 255  255 255 255  255 255 255  255 255 255  255 255 255  255 255 255  255 255 255  255 255 255  255 255 255  255 255 255  255 255 255  
255 255 255  255 255 255  255 255 255  255 255 255  255 255 255  255 255 255  255 255 255  255 255 255  255 255 255  255 255 255  255 255 255  255 255 255  255 255 255  255 255 255  255 255 255  255 255 255  255 255 255  255 255 255  255 255 255  255 255 255  255 255 255  255 255 255  255 255 255  255 255 255  255 255 255  255 255 255  255 255 255  255 255 255  255 255 255  255 255 255  255 255 255  255 255 255  255 255 255  255 255 255  255 255 255  255 255 255  255 255 255  255 255 255  255 255 255  255 255 255  255 255 255  255 255 255  255 255 255  255 255 255  255 255 255  255 255 255  255 255 255  255 255 255  255 255 255  255 255 255  255 255 255  255 255 255  255 255 255  255 255 255  255 255 255  255 255 255  255 255 255  255 255 255  255 255 255  255 255 255  255 255 255  255 255 255  255 255 255  255 255 255  255 255 255  255 255 255  255 255 255  255 255 255  255 255 255  255 255 255  255 255 255  255 255 255  255 255 255  255 255 255  255 255 255  255 255 255  255 255 255  255 255 255  255 255 255  255 255 255  
