P3
# Created by PPMWriter
80 40
255
255 255 255  255 255 255  255 255 255  255 255 255  255 255 255  255 255 255  255 255 255  255 255 255  255 255 255  255 255 255  255 255 255  255 255 255  255 255 255  255 255 255  255 255 255  255 255 255  255 255 255  255 255 255  255 255 255  255 255 255  255 255 255  255 255 255  255 255 255  255 255 255  255 255 255  255 255 255  255 255 255  255 255 255  255 255 255  255 255 255  255 255 255  255 255 255  255 255 255  255 255 255  255 255 255  255 255 255  255 255 255  255 255 255  255 255 255  255 255 255  255 255 255  255 255 255  255 255 255  255 255 255  255 255 255  255 255 255  255 255 255  255 255 255  255 255 255  255 255 255  255 255 255  255 255 255  255 255 255  255 255 255  255 255 255  255 255 255  255 255 255  255 255 255  255 255 255  255 255 255  255 255 255  255 255 255  255 255 255  255 255 255  255 255 255  255 255 255  255 255 255  255 255 255  255 255 255  255 255 255  255 255 255  255 255 255  255 255 255  255 255 255  255 255 255  255 255 255  255 255 255  255 255 255  255 255 255  255 255 255  
255 255 255  255 255 255  255 255 255  255 255 255  255 255 255  255 255 255  255 255 255  255 255 255  255 255 255  255 255 255  255 255 255  255 255 255  255 255 255  255 255 255  255 255 255  255 255 255  255 255 255  255 255 255  255 255 255  255 255 255  255 255 255  255 255 255  255 255 255  255 255 255  255 255 255  255 255 255  255 255 255  255 255 255  255 255 255  255 255 255  255 255 255  255 255 255  255 255 255  255 255 255  255 255 255  255 255 255  255 255 255  255 255 255  255 255 255  255 255 255  255 255 255  255 255 255  255 255 255  255 255 255  255 255 255  255 255 255  255 255 255  255 255 255  255 255 255  255 255 255  255 255 255  255 255 255  255 255 255  255 255 255  255 255 255  255 255 255  255 255 255  255 255 255  255 255 255  255 255 255  255 255 255  255 255 255  255 255 255  255 255 255  255 255 255  255 255 255  255 255 255  255 255 255  255 255 255  255 255 255  255 255 255  255 255 255  255 255 255  255 255 255  255 255 255  255 255 255  255 255 255  255 255 255  255 255 255  255 255 255  
255 255 255  255 255 255  255 255 255  237 236 236  213 214 215  212 213 218  207 207 212  238 239 243  181 181 182  124 124 128  172 172 174  156 156 155  153 153 154  167 167 169  227 228 230  195 196 199  229 229 231  227 228 230  218 219 223  245 246 247  174 175 180  83 83 87  231 232 231  104 104 106  98 97 97  234 234 236  195 195 201  213 213 214  221 222 228  216 218 223  216 218 223  216 218 223  216 218 223  216 218 223  216 218 223  216 218 223  216 218 223  216 218 223  216 218 223  216 218 223  216 218 223  216 218 223  216 218 223  216 218 223  216 218 223  216 218 223  216 218 223  216 218 223  216 218 223  216 218 223  216 218 223  218 220 226  204 204 205  162 162 161  240 240 240  220 220 220  229 229 234  215 215 229  57 57 57  164 164 164  246 246 248  216 217 220  227 227 230  229 229 231  195 196 198  216 217 223  241 241 243  187 187 187  249 249 250  239 239 247  104 104 108  182 182 182  230 230 244  207 207 213  215 215 216  208 208 212  234 234 235  255 255 255  255 255 255  255 255 255  
255 255 255  255 255 255  255 255 255  237 236 236  213 214 215  212 213 218  207 207 212  240 241 245  178 178 178  118 118 121  197 197 200  194 195 198  212 213 217  213 214 219  198 199 203  205 205 210  192 193 198  192 193 198  195 196 201  199 200 204  204 206 210  196 198 202  225 226 228  118 118 121  107 107 106  230 230 231  194 194 201  213 213 214  221 222 228  216 218 223  216 218 223  216 218 223  216 218 223  216 218 223  216 218 223  216 218 223  216 218 223  216 218 223  216 218 223  216 218 223  216 218 223  216 218 223  216 218 223  216 218 223  216 218 223  216 218 223  216 218 223  216 218 223  216 218 223  216 218 223  216 218 223  218 220 226  204 204 205  161 161 160  244 244 243  229 228 228  212 212 216  212 212 221  200 200 205  206 206 211  209 210 215  207 208 212  204 205 210  205 205 210  216 217 222  210 210 214  201 202 207  204 204 209  225 227 229  224 225 232  111 111 114  179 179 178  232 232 246  207 207 213  215 215 216  208 208 212  234 234 235  255 255 255  255 255 255  255 255 255  
255 255 255  255 255 255  255 255 255  237 236 236  213 214 215  212 213 218  207 207 212  226 226 231  203 203 206  186 187 191  211 212 217  208 210 214  201 202 206  200 201 205  200 201 205  201 202 206  201 202 206  201 202 206  201 202 206  199 200 204  201 202 206  210 211 215  203 204 209  202 203 208  199 201 203  216 217 219  193 192 198  212 212 212  222 222 229  216 218 223  216 218 223  216 218 223  216 218 223  216 218 223  216 218 223  216 218 223  216 218 223  216 218 223  216 218 223  216 218 223  216 218 223  216 218 223  216 218 223  216 218 223  216 218 223  216 218 223  216 218 223  216 218 223  216 218 223  216 218 223  216 218 223  218 220 226  202 202 203  159 159 157  231 231 231  214 214 217  200 201 205  214 215 217  219 220 224  199 200 204  181 183 187  175 177 181  171 173 177  171 173 177  176 178 182  184 186 190  196 198 201  211 211 216  207 207 212  204 205 210  190 191 194  204 205 206  217 216 231  207 207 213  215 215 215  208 208 212  234 234 235  255 255 255  255 255 255  255 255 255  
255 255 255  255 255 255  255 255 255  237 236 236  213 214 215  213 215 220  208 209 213  207 208 212  206 207 212  210 212 215  199 200 204  201 201 206  201 202 206  201 202 206  201 202 206  201 202 206  201 202 206  201 202 206  201 202 206  201 202 206  201 202 206  201 202 206  199 200 204  205 206 210  210 211 216  204 205 210  201 202 206  218 218 219  222 224 230  218 220 226  218 220 226  218 220 226  218 220 226  218 220 226  218 220 226  218 220 226  218 220 226  218 220 226  218 220 226  218 220 226  218 220 226  218 220 226  218 220 226  218 220 226  218 220 226  218 220 226  218 220 226  218 220 226  218 220 226  218 220 226  218 220 226  219 221 227  217 217 218  193 194 196  203 205 210  209 210 215  202 203 207  173 175 179  148 152 156  132 136 140  122 127 131  119 124 128  118 123 127  118 123 127  119 124 128  123 128 132  132 137 141  150 154 158  175 178 182  203 203 207  224 224 228  208 209 214  202 203 211  211 211 215  216 216 218  208 208 212  234 234 235  255 255 255  255 255 255  255 255 255  
255 255 255  255 255 255  255 255 255  237 236 236  214 216 217  216 218 221  203 203 209  198 199 203  200 201 205  201 202 206  201 202 206  201 202 206  201 202 206  201 202 206  201 202 206  201 202 206  201 202 206  201 202 206  201 202 206  201 202 206  201 202 206  201 202 206  201 202 206  201 202 206  201 202 206  199 200 204  202 203 207  212 212 216  213 215 219  212 214 218  212 214 218  212 214 218  212 214 218  212 214 218  212 214 218  212 214 218  212 214 218  212 214 218  212 214 218  212 214 218  212 214 218  212 214 218  212 214 218  212 214 218  212 214 218  212 214 218  212 214 218  212 214 218  212 214 218  212 214 218  212 214 218  213 214 219  210 212 215  218 219 224  208 208 213  172 175 179  134 138 142  116 121 125  116 122 126  123 129 133  127 132 136  128 134 138  129 134 138  129 134 138  128 133 137  127 132 136  123 128 132  116 121 126  116 122 126  137 141 145  176 178 182  212 212 216  208 208 211  203 204 208  216 217 219  210 210 213  233 233 235  255 255 255  255 255 255  255 255 255  
255 255 255  255 255 255  255 255 255  240 240 239  212 213 215  202 204 208  199 200 204  201 202 206  201 202 206  201 202 206  201 202 206  201 202 206  201 202 206  201 202 206  201 202 206  201 202 206  201 202 206  201 202 206  201 202 206  201 202 206  201 202 206  201 202 206  201 202 206  201 202 206  201 202 206  201 202 206  200 201 205  198 199 203  199 200 204  199 200 204  199 200 204  199 200 204  199 200 204  199 200 204  199 200 204  199 200 204  199 200 204  199 200 204  199 200 204  199 200 204  199 200 204  199 200 204  199 200 204  199 200 204  199 200 204  199 200 204  199 200 204  199 200 204  199 200 204  199 200 204  199 200 204  198 199 203  212 212 216  200 201 205  144 148 152  113 119 123  120 125 129  129 134 138  129 134 138  129 134 138  129 134 138  129 134 138  129 134 138  129 134 138  129 134 138  129 134 138  129 134 138  130 135 139  129 134 138  119 124 128  114 120 124  148 152 156  205 205 209  210 210 215  201 203 206  208 208 213  237 237 237  255 255 255  255 255 255  255 255 255  
252 252 255  252 252 255  253 253 255  236 236 236  197 198 202  197 198 202  201 202 206  201 202 206  201 202 206  201 202 206  201 202 206  201 202 206  201 202 206  201 202 206  201 202 206  201 202 206  201 202 206  201 202 206  201 202 206  201 202 206  201 202 206  201 202 206  201 202 206  201 202 206  201 202 206  201 202 206  201 202 206  201 202 206  201 202 206  201 202 206  201 202 206  201 202 206  201 202 206  201 202 206  201 202 206  201 202 206  201 202 206  201 202 206  201 202 206  201 202 206  201 202 206  201 202 206  201 202 206  201 202 206  201 202 206  201 202 206  201 202 206  201 202 206  201 202 206  201 202 206  199 200 204  214 215 219  194 196 200  128 132 136  114 119 123  129 133 137  130 135 139  129 134 138  129 134 138  130 134 138  129 134 138  122 128 132  119 125 129  119 125 129  123 129 132  129 134 138  129 134 138  129 134 138  129 134 138  130 135 139  128 133 137  112 118 122  132 137 141  200 201 205  209 210 214  196 197 201  236 236 237  253 253 255  252 252 255  252 252 255  
202 202 223  201 201 224  204 205 226  207 209 213  197 199 202  201 202 206  201 202 206  201 202 206  201 202 206  201 202 206  201 202 206  201 202 206  201 202 206  203 204 208  205 206 210  205 206 210  204 205 209  204 205 209  205 206 210  205 206 210  203 204 208  201 202 206  201 202 206  201 202 206  201 202 206  201 202 206  201 202 206  201 202 206  201 202 206  201 202 206  201 202 206  201 202 206  201 202 206  201 202 206  201 202 206  201 202 206  201 202 206  201 202 206  201 202 206  201 202 206  201 202 206  201 202 206  201 202 206  201 202 206  201 202 206  201 202 206  201 202 206  201 202 206  201 202 206  200 201 205  213 213 217  197 198 202  124 130 134  116 122 126  130 135 139  129 134 138  129 134 138  129 134 138  130 135 139  127 132 135  120 126 130  135 144 166  150 160 187  149 160 187  133 141 159  119 125 127  126 131 135  130 135 139  129 134 138  129 134 138  129 134 138  130 135 139  114 121 125  130 135 139  202 202 206  208 209 212  206 207 212  204 205 226  201 201 223  202 202 223  
221 221 230  211 211 220  201 202 208  197 199 203  201 202 206  201 202 206  201 202 206  201 202 206  201 202 206  201 202 206  201 202 206  202 203 207  206 207 211  201 201 206  193 194 198  188 189 194  185 186 191  185 186 191  187 188 193  192 193 197  200 201 205  206 207 211  203 204 208  200 201 205  201 202 206  201 202 206  201 202 206  201 202 206  201 202 206  201 202 206  201 202 206  201 202 206  201 202 206  201 202 206  201 202 206  201 202 206  201 202 206  201 202 206  201 202 206  201 202 206  201 202 206  201 202 206  201 202 206  201 202 206  201 202 206  201 202 206  201 202 206  201 202 206  200 201 205  208 209 213  206 207 211  134 138 142  115 121 125  131 135 139  129 134 138  129 134 138  129 134 138  129 134 138  128 133 136  120 127 132  152 160 183  197 189 166  212 188 112  211 188 118  192 189 181  151 160 183  119 124 126  123 128 132  130 135 139  129 134 138  129 134 138  129 134 138  130 135 139  114 120 124  141 145 149  210 210 214  202 203 207  200 202 208  211 211 220  221 221 230  
167 166 170  204 205 210  210 212 216  199 200 204  201 202 206  201 202 206  201 202 206  201 202 206  201 202 206  200 201 206  204 205 209  204 205 209  189 190 195  175 176 181  179 180 185  189 190 195  187 188 194  188 189 194  188 189 195  177 178 183  175 176 182  188 189 194  203 204 208  205 206 210  200 201 205  201 202 206  201 202 206  201 202 206  201 202 206  201 202 206  201 202 206  201 202 206  201 202 206  201 202 206  201 202 206  201 202 206  201 202 206  201 202 206  201 202 206  201 202 206  201 202 206  201 202 206  201 202 206  201 202 206  201 202 206  201 202 206  201 202 206  201 202 206  201 202 206  215 215 219  157 160 164  112 118 122  130 135 139  129 134 138  129 134 138  129 134 138  129 134 138  129 134 138  119 125 128  145 155 179  208 195 157  221 175 28  216 170 18  217 170 15  218 177 45  202 196 180  166 173 195  124 129 132  119 125 129  130 135 139  129 134 138  129 134 138  129 134 138  129 134 138  111 117 121  165 168 172  214 215 218  210 211 215  204 204 209  166 166 170  
172 172 169  196 196 196  206 207 212  201 202 206  201 202 206  201 202 206  201 202 206  201 202 206  200 201 206  205 206 209  201 202 206  181 182 187  171 172 177  181 182 187  165 166 171  125 126 131  125 126 131  123 125 130  130 131 136  172 173 178  179 180 185  171 172 177  180 181 185  201 202 206  205 206 210  200 201 205  201 202 206  201 202 206  201 202 206  201 202 206  202 203 207  202 203 207  201 202 206  201 202 206  201 202 206  201 202 206  201 202 206  201 202 206  201 202 206  202 203 207  201 202 206  201 202 206  201 202 206  201 202 206  201 202 206  201 202 206  201 202 206  200 201 205  212 212 216  188 189 193  120 125 130  125 131 134  129 134 138  129 134 138  129 134 138  129 134 138  129 134 138  127 132 136  122 130 143  176 178 181  220 182 58  215 170 26  211 173 51  211 173 51  216 169 16  207 176 77  196 200 219  180 183 191  133 137 141  117 123 127  128 133 137  130 135 139  129 134 138  130 135 139  123 129 133  123 128 132  194 195 199  216 216 221  195 196 196  172 172 169  
255 255 255  207 208 213  194 195 199  201 202 206  201 202 206  201 202 206  201 202 206  201 202 206  203 205 208  202 203 207  179 180 185  172 173 178  177 178 183  194 195 200  130 131 136  59 60 65  74 75 80  73 74 79  63 64 69  145 146 151  193 194 199  177 178 183  172 173 178  177 178 184  202 203 206  204 205 209  201 202 206  201 202 206  199 200 204  204 205 209  221 222 226  221 222 226  205 206 210  199 200 204  201 202 206  201 202 206  201 202 206  198 199 203  208 209 213  224 225 229  217 218 222  201 202 206  200 201 205  201 202 206  201 202 206  201 202 206  201 202 206  201 202 206  213 213 217  152 156 160  114 120 124  130 135 139  129 134 138  129 134 138  129 134 138  129 134 138  129 134 138  125 131 135  127 137 158  186 180 159  219 176 38  212 172 46  211 173 49  211 173 49  214 172 34  209 174 57  186 186 188  195 198 211  191 191 196  145 149 153  117 123 127  125 131 134  130 135 139  129 134 138  130 135 139  113 119 123  158 161 165  208 209 213  207 208 213  255 255 255  
223 224 229  196 197 201  200 201 205  201 202 206  201 202 206  201 202 206  201 202 206  201 202 206  205 206 210  185 186 190  171 172 177  177 178 183  177 178 183  192 193 198  132 132 137  75 76 81  90 91 96  89 90 95  77 78 83  145 145 151  191 192 197  177 178 183  177 178 183  172 173 178  183 184 189  205 206 209  201 202 207  201 202 206  205 206 210  200 201 205  133 134 139  141 142 147  219 220 224  216 217 221  198 199 203  201 202 206  201 202 206  209 210 214  188 188 193  121 122 127  162 163 168  226 227 231  208 209 213  199 200 204  201 202 206  201 202 206  201 202 206  208 209 213  195 196 200  128 133 137  124 129 133  129 134 138  130 135 139  123 128 132  119 124 128  120 125 129  119 125 129  125 130 134  122 130 141  174 177 185  221 184 66  215 170 20  211 173 51  211 173 50  218 170 12  205 176 85  183 189 210  184 186 194  192 193 198  196 196 202  159 163 167  119 125 129  121 127 131  130 135 139  129 134 138  122 128 132  132 137 141  199 200 204  201 202 206  224 224 230  
211 212 218  197 198 201  201 202 206  201 202 206  201 202 206  201 202 206  201 202 206  205 206 210  195 196 200  172 173 178  182 183 188  187 188 193  186 187 192  203 204 209  137 138 143  73 74 79  90 91 96  89 90 95  77 78 83  152 153 158  201 202 207  186 187 192  187 188 193  181 182 186  171 172 177  194 195 199  205 206 210  201 202 206  222 223 227  163 164 169  32 33 39  48 48 54  115 116 121  210 211 215  223 224 228  200 201 205  200 201 205  227 228 232  128 129 133  18 20 25  61 63 67  140 141 146  222 223 227  217 218 221  198 199 203  201 202 206  201 202 206  214 215 218  173 175 180  116 122 126  129 134 138  128 134 137  118 125 128  154 145 155  186 170 183  186 173 185  178 163 176  129 131 136  109 117 119  141 150 174  204 195 170  219 177 42  216 169 15  217 170 16  209 174 57  188 186 181  183 188 208  186 184 189  185 192 196  189 218 221  198 226 230  172 204 207  125 141 144  120 122 126  130 135 139  128 133 137  119 125 129  179 181 185  209 209 212  210 211 218  
206 207 213  199 200 203  201 202 206  201 202 206  201 202 206  201 202 206  201 202 206  205 206 210  184 185 190  176 177 182  175 176 181  163 164 169  165 166 171  178 179 184  127 128 133  77 78 83  90 91 96  89 90 95  80 81 86  138 139 144  177 178 183  165 166 171  164 165 170  177 178 183  175 176 182  183 184 188  204 205 209  201 202 206  209 210 214  198 200 204  105 106 111  50 51 56  47 48 53  88 89 94  188 190 194  218 219 223  199 200 205  213 214 218  182 183 187  81 83 88  47 48 53  51 52 57  110 111 116  206 207 211  214 215 219  199 200 204  201 202 206  213 214 217  156 160 164  115 121 125  130 135 139  117 125 128  168 156 167  169 185 184  89 164 136  76 159 126  131 177 162  193 183 193  141 139 145  106 113 116  144 153 176  197 193 186  207 188 129  196 180 127  185 187 192  183 189 211  187 184 187  186 198 202  186 202 206  186 123 132  187 87 95  198 119 130  184 189 194  132 154 157  122 124 128  130 135 139  116 122 126  162 165 169  212 211 214  205 207 213  
204 205 208  200 201 205  201 202 206  201 202 206  201 202 206  201 202 206  203 204 207  201 202 206  183 184 189  177 178 183  107 108 113  80 81 86  89 90 95  89 90 95  90 91 96  90 91 96  90 91 96  90 91 96  90 91 96  90 91 96  89 90 95  89 90 95  77 78 83  119 121 126  185 186 191  179 180 185  199 200 205  203 204 208  198 199 203  213 214 218  217 218 222  132 133 137  57 59 64  45 46 52  64 65 70  172 173 177  217 218 222  198 199 203  220 221 225  205 206 210  106 108 113  51 52 57  45 46 51  85 87 91  194 195 199  212 213 216  203 204 208  208 208 212  145 150 154  118 124 128  123 128 132  155 146 156  168 184 182  18 139 90  0 122 64  0 124 70  0 121 63  105 168 145  212 197 209  144 146 150  104 111 113  132 141 158  181 190 221  193 200 230  184 188 203  186 186 189  186 191 195  186 205 209  186 84 98  187 0 5  187 0 11  186 0 3  199 63 80  179 185 189  126 142 145  126 131 135  118 123 128  151 155 159  208 208 213  206 206 209  
201 203 207  201 202 206  201 202 206  201 202 206  201 202 206  201 202 206  204 205 209  197 198 202  183 184 189  170 171 176  88 89 94  78 79 84  85 86 91  84 85 90  88 89 94  91 92 97  90 91 96  90 91 96  91 92 97  87 88 93  84 85 90  85 86 91  73 73 78  101 102 107  181 183 188  179 180 185  196 197 201  204 205 209  201 202 206  199 200 204  211 212 216  227 228 232  162 163 167  70 71 76  31 32 37  147 148 152  225 225 229  201 202 206  199 200 204  218 219 223  220 221 225  137 138 142  54 55 60  48 50 55  178 179 183  218 219 222  205 206 210  203 203 207  139 144 148  121 126 130  120 124 129  185 170 183  78 161 130  0 122 65  23 136 92  21 136 91  7 131 82  1 128 78  166 185 182  215 202 214  156 160 164  107 114 118  121 126 130  175 177 182  199 199 204  189 189 195  185 212 215  186 139 148  187 0 13  187 18 36  187 27 45  187 24 42  188 0 6  196 113 125  148 179 182  120 126 130  119 125 129  145 149 153  206 206 210  204 205 209  
201 202 205  201 202 206  201 202 206  201 202 206  201 202 206  201 202 206  204 205 209  195 196 200  182 183 188  172 173 178  95 96 101  83 84 89  90 91 96  90 91 96  90 91 96  90 91 96  90 91 96  90 91 96  90 91 96  90 91 96  90 91 96  90 91 96  78 79 84  107 108 113  182 183 188  178 179 184  195 196 200  204 205 209  201 202 206  201 202 206  200 201 205  204 205 209  224 225 229  181 182 186  155 156 161  201 202 206  203 205 209  201 202 206  201 202 206  199 200 204  209 210 214  221 222 226  165 166 170  165 167 171  208 209 213  201 202 206  205 206 210  201 202 206  137 142 146  122 127 131  123 126 131  180 171 181  57 154 117  0 126 73  21 135 91  20 135 90  18 135 89  0 127 74  134 170 160  217 199 212  199 199 204  171 173 178  117 122 126  110 116 120  162 164 169  197 197 203  192 225 227  185 106 118  187 0 11  187 28 45  187 25 43  187 27 45  187 0 13  197 85 99  155 183 185  119 126 130  119 125 129  143 147 151  205 206 210  204 204 208  
202 203 206  201 202 206  201 202 206  201 202 206  201 202 206  201 202 206  204 205 209  197 198 202  183 184 189  172 173 178  85 86 91  69 70 75  77 78 83  75 76 81  84 85 90  92 93 98  90 91 96  90 91 96  92 93 98  82 83 88  75 76 81  77 78 83  63 64 69  99 100 105  184 185 190  178 179 184  196 197 201  204 205 209  201 202 206  201 202 206  201 202 206  200 201 205  199 200 205  215 216 220  223 224 228  204 205 209  199 200 204  201 202 206  201 202 206  201 202 206  200 201 205  202 203 207  220 220 224  219 220 224  201 202 206  200 201 205  204 205 209  203 204 208  140 144 148  121 126 130  120 124 128  182 165 178  107 170 148  0 120 61  14 133 87  19 135 91  0 125 71  21 135 90  182 185 189  198 190 199  187 188 193  198 199 204  186 186 189  132 136 139  104 111 114  146 150 154  192 215 218  196 160 168  186 0 16  187 10 29  187 27 45  187 19 37  189 0 7  195 125 135  145 176 178  121 127 130  119 125 129  145 149 153  206 206 210  204 204 208  
204 205 209  199 201 204  201 202 206  201 202 206  201 202 206  201 202 206  203 204 207  200 201 205  181 181 186  179 180 185  131 133 137  105 107 112  113 114 119  117 118 123  102 103 108  86 87 92  90 91 96  90 91 96  87 88 93  105 106 111  117 118 123  113 114 119  104 105 110  140 141 146  184 185 190  178 179 184  199 200 204  203 204 208  201 202 206  201 202 206  201 202 206  201 202 206  201 202 206  201 202 206  201 202 206  201 202 206  201 202 206  201 202 206  201 202 206  201 202 206  201 202 206  201 202 206  201 202 206  201 202 206  201 202 206  201 202 206  203 204 208  208 209 213  146 150 154  118 124 128  126 131 135  136 134 141  185 182 188  79 161 131  0 126 73  0 125 71  16 133 86  146 175 168  210 194 207  182 185 191  189 188 192  211 202 193  217 210 203  215 207 199  168 163 154  105 112 116  131 138 142  183 207 210  200 121 133  190 0 21  187 0 12  190 0 15  203 92 105  172 187 190  123 136 139  127 132 136  117 123 127  151 156 160  209 209 213  205 205 209  
207 210 213  198 198 202  201 202 206  201 202 206  201 202 206  201 202 206  201 202 206  205 206 210  183 184 189  174 175 180  187 188 193  186 187 192  185 186 191  202 203 208  137 138 143  74 75 80  90 91 96  89 90 95  77 78 83  151 152 157  201 202 207  185 186 191  187 188 193  186 187 192  173 174 179  183 184 188  204 205 209  202 203 207  201 202 206  201 202 206  201 202 206  201 202 206  201 202 206  201 202 206  201 202 206  201 202 206  201 202 206  201 202 206  201 202 206  201 202 206  201 202 206  201 202 206  201 202 206  201 202 206  201 202 206  201 202 206  201 202 206  213 214 218  157 161 165  115 121 125  130 135 139  118 127 129  143 138 146  191 183 192  153 184 175  128 168 154  175 183 185  210 194 207  185 186 192  190 189 192  207 200 193  131 153 188  61 108 182  73 118 189  157 173 200  178 172 164  111 115 119  125 137 141  167 191 194  191 154 162  195 114 126  192 140 149  170 187 191  128 146 149  123 125 130  130 135 139  116 122 126  163 166 170  209 208 213  210 213 215  
189 195 199  208 207 211  201 202 206  201 202 206  201 202 206  201 202 206  201 202 206  205 206 210  194 195 199  173 173 179  178 178 183  179 180 185  179 180 185  194 195 200  134 135 140  75 76 81  90 91 96  89 90 95  78 79 84  147 148 153  193 194 199  179 180 185  179 180 185  178 179 184  172 173 178  193 194 198  205 206 210  201 202 206  201 202 206  201 202 206  201 202 206  201 202 206  201 202 206  201 202 206  201 202 206  201 202 206  201 202 206  201 202 206  201 202 206  201 202 206  201 202 206  201 202 206  201 202 206  201 202 206  201 202 206  201 202 206  201 202 206  214 214 218  175 178 182  117 122 126  129 134 138  130 135 139  119 126 129  127 129 134  188 174 186  226 207 221  205 196 206  183 185 190  185 187 191  212 203 194  117 144 187  0 60 177  0 64 178  0 62 177  0 70 182  149 167 199  170 164 155  115 119 123  121 128 132  139 164 167  148 181 184  140 169 172  122 132 136  123 126 130  130 135 139  128 133 137  120 125 129  180 182 186  219 217 221  191 196 201  
211 211 215  200 202 206  201 201 205  201 202 206  201 202 206  201 202 206  201 202 206  202 203 207  205 206 209  183 184 189  172 173 178  177 178 183  177 178 183  193 194 199  129 130 135  71 72 77  88 89 94  88 89 94  73 74 79  142 144 148  192 193 198  177 178 183  178 179 184  172 173 178  182 183 188  204 205 209  202 203 207  201 202 206  201 202 206  201 202 206  201 202 206  201 202 206  201 202 206  201 202 206  201 202 206  201 202 206  201 202 206  201 202 206  201 202 206  201 202 206  201 202 206  201 202 206  201 202 206  201 202 206  201 202 206  201 202 206  201 202 206  207 208 212  197 198 202  129 134 138  123 128 132  129 134 138  130 135 139  124 129 133  117 123 126  150 154 158  193 194 199  194 195 200  197 194 192  181 184 191  18 82 180  0 70 178  22 85 180  22 86 180  0 64 177  51 107 192  178 177 175  128 131 131  128 133 137  122 128 132  119 125 129  122 128 131  128 133 137  130 135 139  129 134 138  121 127 131  134 139 143  201 202 206  205 207 211  211 212 216  
234 234 234  195 196 201  199 201 205  201 202 206  201 202 206  201 202 206  201 202 206  201 202 206  204 205 209  201 202 206  177 178 184  172 173 178  177 178 183  192 193 198  140 141 146  71 72 77  81 82 87  79 80 85  76 78 82  153 155 159  190 191 196  177 178 183  172 173 179  176 177 182  201 202 205  204 205 209  201 202 206  201 202 206  201 202 206  201 202 206  201 202 206  201 202 206  201 202 206  201 202 206  201 202 206  201 202 206  201 202 206  201 202 206  201 202 206  201 202 206  201 202 206  201 202 206  201 202 206  201 202 206  201 202 206  201 202 206  201 202 206  201 202 206  213 214 218  155 159 163  114 120 124  130 135 139  129 134 138  130 135 139  127 132 136  116 122 126  137 142 146  184 186 191  216 209 204  162 172 190  6 75 178  11 80 179  20 84 180  20 84 180  3 74 179  34 95 189  166 170 179  135 136 133  128 133 137  129 134 138  129 134 138  129 134 138  129 134 138  129 134 138  130 135 139  113 119 123  161 164 168  214 214 219  195 197 201  233 234 233  
235 235 235  211 212 215  194 195 200  202 203 207  201 202 206  201 202 206  201 202 206  201 202 206  201 202 206  205 206 210  200 201 205  179 180 185  171 172 177  177 178 183  176 178 182  156 157 162  153 154 159  152 153 158  160 160 166  179 180 185  176 177 182  171 172 178  178 179 184  199 200 204  205 206 210  200 201 205  201 202 206  201 202 206  201 202 206  201 202 206  201 202 206  201 202 206  201 202 206  201 202 206  201 202 206  201 202 206  201 202 206  201 202 206  201 202 206  201 202 206  201 202 206  201 202 206  201 202 206  201 202 206  201 202 206  201 202 206  201 202 206  201 202 206  210 211 215  192 193 197  123 128 132  124 129 133  129 134 138  129 134 138  129 134 138  129 134 138  118 124 128  127 132 136  179 179 180  214 208 205  47 101 184  0 56 176  20 84 180  18 83 180  0 55 176  80 125 196  184 177 170  122 127 129  129 134 138  129 134 138  129 134 138  129 134 138  129 134 138  130 135 139  122 127 131  126 131 135  198 199 203  203 203 208  211 212 215  235 235 234  
255 255 255  255 255 255  214 215 220  191 192 196  201 202 206  201 202 206  201 202 206  201 202 206  201 202 206  201 202 206  204 205 209  203 204 208  187 188 194  175 176 181  175 176 181  185 186 192  186 188 193  187 188 193  184 185 190  173 174 180  175 176 181  187 188 193  202 203 207  205 206 209  201 202 206  201 202 206  201 202 206  201 202 206  201 202 206  201 202 206  201 202 206  201 202 206  201 202 206  201 202 206  201 202 206  201 202 206  201 202 206  201 202 206  201 202 206  201 202 206  201 202 206  201 202 206  201 202 206  201 202 206  201 202 206  201 202 206  201 202 206  201 202 206  201 202 206  215 216 220  162 165 169  112 118 122  129 134 138  129 134 138  129 134 138  129 134 138  130 135 139  121 127 131  118 124 130  180 175 168  179 186 201  42 98 189  0 66 179  0 66 180  61 113 195  181 184 191  147 145 140  123 129 133  129 134 138  129 134 138  129 134 138  129 134 138  129 134 138  128 133 137  112 118 122  170 172 176  207 208 211  210 211 216  255 255 255  255 255 255  
135 135 135  138 138 137  185 186 188  219 221 225  199 200 204  201 202 206  201 202 206  201 202 206  201 202 206  201 202 206  201 202 206  203 204 208  206 207 211  200 201 205  191 192 196  186 187 191  183 184 189  183 184 189  185 186 191  191 192 196  199 200 204  206 207 211  203 204 208  201 202 206  201 202 206  201 202 206  201 202 206  201 202 206  201 202 206  201 202 206  201 202 206  201 202 206  201 202 206  201 202 206  201 202 206  201 202 206  201 202 206  201 202 206  201 202 206  201 202 206  201 202 206  201 202 206  201 202 206  201 202 206  201 202 206  201 202 206  201 202 206  201 202 206  200 201 205  206 207 211  209 209 214  139 143 148  114 120 124  130 135 139  129 134 138  129 134 138  129 134 138  130 135 139  125 130 134  113 121 126  168 164 156  184 185 188  135 156 192  139 158 192  186 184 182  153 151 144  117 123 130  130 135 139  129 134 138  129 134 138  129 134 138  129 134 138  130 135 139  113 119 123  146 150 154  210 210 214  225 226 231  179 180 182  133 133 133  135 135 135  
0 0 0  0 0 0  11 10 13  224 225 232  210 211 214  201 202 206  201 202 206  201 202 206  201 202 206  201 202 206  201 202 206  201 202 206  201 202 206  203 204 208  206 207 210  205 206 210  203 204 208  203 204 208  205 206 209  206 207 210  203 204 208  201 202 206  201 202 206  201 202 206  201 202 206  201 202 206  201 202 206  201 202 206  201 202 206  201 202 206  201 202 206  201 202 206  201 202 206  201 202 206  201 202 206  201 202 206  201 202 206  201 202 206  201 202 206  201 202 206  201 202 206  201 202 206  201 202 206  201 202 206  201 202 206  201 202 206  201 202 206  201 202 206  201 202 206  199 201 205  211 212 216  201 202 206  130 135 139  115 120 124  130 135 139  129 134 138  129 134 138  129 134 138  130 135 139  128 133 137  117 123 129  137 138 137  170 163 152  166 160 149  130 133 133  119 125 131  130 135 139  129 134 138  129 134 138  129 134 138  129 134 138  129 134 138  113 119 123  136 140 144  205 206 209  218 219 222  222 223 230  12 12 14  0 0 0  0 0 0  
172 172 172  172 172 172  165 164 166  248 249 252  211 211 215  194 195 199  201 202 206  201 202 206  201 202 206  201 202 206  201 202 206  201 202 206  201 202 206  201 202 206  201 202 206  201 202 206  201 202 206  201 202 206  201 202 206  201 202 206  201 202 206  201 202 206  201 202 206  201 202 206  201 202 206  201 202 206  201 202 206  201 202 206  201 202 206  201 202 206  201 202 206  201 202 206  201 202 206  201 202 206  201 202 206  201 202 206  201 202 206  201 202 206  201 202 206  201 202 206  201 202 206  201 202 206  201 202 206  201 202 206  201 202 206  201 202 206  201 202 206  201 202 206  201 202 206  201 202 206  199 201 205  213 214 218  200 201 205  134 138 142  112 118 122  127 132 136  130 135 139  129 134 138  129 134 138  129 134 138  129 134 138  126 131 135  122 127 131  122 128 132  127 132 136  130 135 139  129 134 138  129 134 138  129 134 138  130 135 139  126 131 135  111 117 121  139 143 147  204 205 209  204 204 208  210 211 215  249 249 253  164 164 166  172 172 172  172 172 172  
103 103 103  103 103 103  99 99 98  64 64 63  173 174 176  227 229 234  196 197 201  202 203 207  201 202 206  201 202 206  201 202 206  201 202 206  201 202 206  201 202 206  201 202 206  201 202 206  201 202 206  201 202 206  201 202 206  201 202 206  201 202 206  201 202 206  201 202 206  201 202 206  201 202 206  201 202 206  201 202 206  201 202 206  201 202 206  201 202 206  201 202 206  201 202 206  201 202 206  201 202 206  201 202 206  201 202 206  201 202 206  201 202 206  201 202 206  201 202 206  201 202 206  201 202 206  201 202 206  201 202 206  201 202 206  201 202 206  201 202 206  201 202 206  201 202 206  201 202 206  201 202 206  200 201 205  212 213 217  205 206 210  152 155 159  115 120 124  117 123 127  128 133 137  129 134 138  129 134 138  129 134 138  129 134 138  129 134 138  129 134 138  129 134 138  129 134 138  129 134 138  130 135 139  128 133 137  116 122 126  116 121 125  156 160 164  209 210 213  207 207 211  226 227 232  175 176 179  65 64 63  99 99 98  103 103 103  103 103 103  
0 0 0  0 0 0  0 0 0  0 0 0  170 173 172  255 255 255  205 204 209  197 197 202  201 202 206  201 202 206  201 202 206  201 202 206  201 202 206  201 202 206  201 202 206  201 202 206  201 202 206  201 202 206  201 202 206  201 202 206  201 202 206  201 202 206  201 202 206  201 202 206  201 202 206  201 202 206  201 202 206  201 202 206  201 202 206  201 202 206  201 202 206  201 202 206  201 202 206  201 202 206  201 202 206  201 202 206  201 202 206  201 202 206  201 202 206  201 202 206  201 202 206  201 202 206  201 202 206  201 202 206  201 202 206  201 202 206  201 202 206  201 202 206  201 202 206  201 202 206  201 202 206  201 202 206  200 201 205  209 209 213  214 214 218  179 181 185  139 143 148  118 123 128  115 121 125  121 127 131  126 131 135  128 133 137  128 133 137  128 133 137  127 133 137  125 131 135  121 126 130  115 121 125  119 124 128  142 146 150  183 186 189  215 215 219  203 203 208  202 204 207  255 255 255  173 172 171  0 0 0  0 0 0  0 0 0  0 0 0  
0 0 0  0 0 0  0 0 0  0 0 0  170 173 173  255 255 255  229 231 231  207 210 209  206 207 209  205 205 210  201 202 206  201 202 206  201 202 206  201 202 206  201 202 206  201 202 206  201 202 206  201 202 206  201 202 206  201 202 206  201 202 206  201 202 206  201 202 206  201 202 206  201 202 206  201 202 206  201 202 206  201 202 206  201 202 206  201 202 206  201 202 206  201 202 206  201 202 206  201 202 206  201 202 206  201 202 206  201 202 206  201 202 206  201 202 206  201 202 206  201 202 206  201 202 206  201 202 206  201 202 206  201 202 206  201 202 206  201 202 206  201 202 206  201 202 206  201 202 206  201 202 206  201 202 206  201 202 206  200 201 205  202 203 207  215 215 219  208 208 212  179 182 186  154 158 162  137 141 145  127 132 136  122 127 131  120 125 129  120 125 129  122 127 131  128 132 136  138 142 146  156 159 163  182 184 188  210 210 214  218 218 222  207 208 212  202 204 209  221 222 227  255 255 255  173 173 173  0 0 0  0 0 0  0 0 0  0 0 0  
0 0 0  0 0 0  0 0 0  0 0 0  170 173 173  255 255 255  233 237 230  220 224 217  199 200 200  192 193 200  206 207 210  207 209 212  203 205 208  201 202 206  201 202 206  201 202 206  201 202 206  201 202 206  201 202 206  201 202 206  201 202 206  201 202 206  201 202 206  201 202 206  201 202 206  201 202 206  201 202 206  201 202 206  201 202 206  201 202 206  201 202 206  201 202 206  201 202 206  201 202 206  201 202 206  201 202 206  201 202 206  201 202 206  201 202 206  201 202 206  201 202 206  201 202 206  201 202 206  201 202 206  201 202 206  201 202 206  201 202 206  201 202 206  201 202 206  201 202 206  201 202 206  201 202 206  201 202 206  201 202 206  201 202 206  200 201 205  204 205 209  213 214 218  212 213 217  202 202 206  189 191 195  181 183 187  177 179 183  177 179 183  182 183 187  191 192 196  203 204 208  215 216 219  219 220 223  209 210 213  187 188 193  205 206 212  246 248 250  255 255 255  255 255 255  181 181 181  0 0 0  0 0 0  0 0 0  0 0 0  
0 0 0  0 0 0  0 0 0  0 0 0  173 175 171  255 255 255  168 168 250  125 125 242  150 150 207  169 170 158  193 193 200  199 199 205  193 194 199  205 206 209  207 209 212  207 208 212  207 208 211  207 208 212  207 208 212  207 208 212  207 208 211  207 208 211  207 208 211  207 208 211  207 208 211  208 209 213  201 203 206  196 197 201  197 199 202  198 199 203  197 198 202  195 196 200  195 196 200  195 196 200  195 196 200  197 198 202  198 199 202  197 199 202  197 199 202  197 199 202  197 199 202  197 199 202  197 199 202  198 199 202  197 198 202  195 196 200  195 196 200  195 196 200  195 196 200  197 198 202  198 199 203  197 199 202  196 197 201  200 201 205  207 209 212  207 208 212  207 208 211  206 208 211  207 208 212  211 212 215  215 216 219  218 218 222  218 219 222  218 219 222  218 218 222  215 216 219  209 210 213  204 205 210  198 199 205  186 186 192  173 173 181  121 121 126  109 108 108  120 120 120  130 130 130  148 148 148  3 3 3  0 0 0  0 0 0  0 0 0  
0 0 0  0 0 0  0 0 0  0 0 0  175 176 171  255 255 255  140 139 255  105 104 255  135 135 210  138 138 114  130 130 135  157 157 164  175 175 181  188 189 195  201 202 209  191 192 198  176 176 182  185 186 192  176 176 183  189 189 195  187 187 192  186 187 192  174 174 181  172 172 179  171 172 178  182 183 189  211 212 217  216 216 221  212 212 217  211 211 216  216 217 221  221 222 226  211 212 216  212 213 217  212 213 217  212 213 217  212 212 218  212 213 218  212 213 218  212 213 218  212 213 218  212 213 218  212 213 218  212 212 218  212 213 217  212 213 217  212 213 217  211 212 216  222 223 227  216 217 221  211 211 216  212 213 218  215 215 220  211 213 218  184 184 191  171 171 178  172 172 179  181 181 188  193 193 199  184 184 190  189 189 195  175 176 183  183 184 190  203 203 210  193 194 200  180 181 187  180 180 187  173 173 179  148 148 153  154 154 158  173 173 178  42 42 44  0 0 0  0 0 0  0 0 0  119 119 119  7 7 7  0 0 0  0 0 0  0 0 0  
0 0 0  0 0 0  0 0 0  0 0 0  174 176 171  255 255 255  151 150 255  116 116 255  142 142 209  137 137 117  80 80 81  110 110 109  241 241 244  119 119 122  103 103 107  158 158 165  188 188 194  164 164 169  186 186 190  160 159 166  168 168 175  169 168 176  196 196 202  201 201 206  201 200 206  165 165 170  175 175 179  232 232 238  227 227 234  226 226 233  213 213 218  214 214 215  255 255 255  255 255 255  254 254 254  228 228 232  223 223 230  226 226 232  226 226 232  226 226 232  226 226 232  226 226 232  226 226 232  223 223 230  228 228 232  254 254 254  255 255 255  255 255 255  214 214 215  213 213 218  226 226 233  226 226 232  236 235 241  190 191 195  166 166 171  200 200 205  201 201 206  181 181 186  154 155 161  174 174 182  159 160 166  187 187 191  170 170 174  129 129 133  152 152 158  161 161 168  157 157 163  87 87 87  95 95 94  145 145 147  172 172 178  60 60 62  0 0 0  0 0 0  19 19 19  127 127 127  6 6 6  0 0 0  0 0 0  0 0 0  
255 255 255  255 255 255  255 255 255  255 255 255  255 255 255  255 255 255  255 255 255  255 255 255  255 255 255  255 255 255  255 255 255  255 255 255  255 255 255  255 255 255  255 255 255  255 255 255  255 255 255  255 255 255  255 255 255  255 255 255  255 255 255  255 255 255  255 255 255  255 255 255  255 255 255  255 255 255  255 255 255  255 255 255  255 255 255  255 255 255  255 255 255  255 255 255  255 255 255  255 255 255  255 255 255  255 255 255  255 255 255  255 255 255  255 255 255  255 255 255  255 255 255  255 255 255  255 255 255  255 255 255  255 255 255  255 255 255  255 255 255  255 255 255  255 255 255  255 255 255  255 255 255  255 255 255  255 255 255  255 255 255  255 255 255  255 255 255  255 255 255  255 255 255  255 255 255  255 255 255  255 255 255  255 255 255  255 255 255  255 255 255  255 255 255  255 255 255  255 255 255  255 255 255  255 255 255  255 255 255  255 255 255  255 255 255  255 255 255  255 255 255  255 255 255  255 255 255  255 255 255  255 255 255  255 255 255  255 255 255  
255 255 255  255 255 255  255 255 255  255 255 255  255 255 255  255 255 255  255 255 255  255 255 255  255 255 255  255 255 255  255 255 255  255 255 255  255 255 255  255 255 255  255 255 255  255 255 255  255 255 255  255 255 255  255 255 255  255 255 255  255 255 255  255 255 255  255 255 255  255 255 255  255 255 255  255 255 255  255 255 255  255 255 255  255 255 255  255 255 255  255 255 255  255 255 255  255 255 255  255 255 255  255 255 255  255 255 255  255 255 255  255 255 255  255 255 255  255 255 255  255 255 255  255 255 255  255 255 255  255 255 255  255 255 255  255 255 255  255 255 255  255 255 255  255 255 255  255 255 255  255 255 255  255 255 255  255 255 255  255 255 255  255 255 255  255 255 255  255 255 255  255 255 255  255 255 255  255 255 255  255 255 255  255 255 255  255 255 255  255 255 255  255 255 255  255 255 255  255 255 255  255 255 255  255 255 255  255 255 255  255 255 255  255 255 255  255 255 255  255 255 255  255 255 255  255 255 255  255 255 255  255 255 255  255 255 255  255 255 255  
