P3
# Created by PPMWriter
80 40
255
254 254 254  254 254 254  254 254 254  254 254 254  254 254 254  254 254 254  254 254 254  254 254 254  254 254 254  254 254 254  254 254 254  254 254 254  254 254 254  254 254 254  254 254 254  254 254 254  254 254 254  254 254 254  254 254 254  254 254 254  254 254 254  254 254 254  254 254 254  254 254 254  254 254 254  254 254 254  254 254 254  254 254 254  254 254 254  254 254 254  254 254 254  254 254 254  254 254 254  254 254 254  254 254 254  254 254 254  254 254 254  254 254 254  254 254 254  254 254 254  254 254 254  254 254 254  254 254 254  254 254 254  254 254 254  254 254 254  254 254 254  254 254 254  254 254 254  254 254 254  254 254 254  254 254 254  254 254 254  254 254 254  254 254 254  254 254 254  254 254 254  254 254 254  254 254 254  254 254 254  254 254 254  254 254 254  254 254 254  254 254 254  254 254 254  254 254 254  254 254 254  254 254 254  254 254 254  254 254 254  254 254 254  254 254 254  254 254 254  254 254 254  254 254 254  254 254 254  254 254 254  254 254 254  254 254 254  254 254 254  
254 254 254  254 254 254  254 254 254  254 254 254  254 254 254  254 254 254  254 254 254  254 254 254  254 254 254  254 254 254  254 254 254  254 254 254  254 254 254  254 254 254  254 254 254  254 254 254  254 254 254  254 254 254  254 254 254  254 254 254  254 254 254  254 254 254  254 254 254  254 254 254  254 254 254  254 254 254  254 254 254  254 254 254  254 254 254  254 254 254  254 254 254  254 254 254  254 254 254  254 254 254  254 254 254  254 254 254  254 254 254  254 254 254  254 254 254  254 254 254  254 254 254  254 254 254  254 254 254  254 254 254  254 254 254  254 254 254  254 254 254  254 254 254  254 254 254  254 254 254  254 254 254  254 254 254  254 254 254  254 254 254  254 254 254  254 254 254  254 254 254  254 254 254  254 254 254  254 254 254  254 254 254  254 254 254  254 254 254  254 254 254  254 254 254  254 254 254  254 254 254  254 254 254  254 254 254  254 254 254  254 254 254  254 254 254  254 254 254  254 254 254  254 254 254  254 254 254  254 254 254  254 254 254  254 254 254  254 254 254  
0 0 0  0 0 0  0 0 0  0 0 0  175 175 175  254 254 254  157 157 157  126 126 126  146 146 146  135 135 135  80 80 80  109 109 109  241 241 241  119 119 119  103 103 103  158 158 158  188 188 188  164 164 164  186 186 186  159 159 159  168 168 168  168 168 168  196 196 196  201 201 201  200 200 200  165 165 165  175 175 175  232 232 232  227 227 227  226 226 226  213 213 213  214 214 214  254 254 254  254 254 254  254 254 254  228 228 228  223 223 223  226 226 226  226 226 226  226 226 226  226 226 226  226 226 226  226 226 226  223 223 223  228 228 228  254 254 254  254 254 254  254 254 254  214 214 214  213 213 213  226 226 226  226 226 226  235 235 235  191 191 191  166 166 166  200 200 200  201 201 201  181 181 181  155 155 155  174 174 174  160 160 160  187 187 187  170 170 170  129 129 129  152 152 152  161 161 161  157 157 157  87 87 87  94 94 94  145 145 145  172 172 172  60 60 60  0 0 0  0 0 0  19 19 19  127 127 127  6 6 6  0 0 0  0 0 0  0 0 0  
0 0 0  0 0 0  0 0 0  0 0 0  175 175 175  254 254 254  147 147 147  115 115 115  140 140 140  136 136 136  130 130 130  157 157 157  175 175 175  189 189 189  202 202 202  192 192 192  176 176 176  186 186 186  176 176 176  189 189 189  187 187 187  187 187 187  174 174 174  172 172 172  172 172 172  183 183 183  212 212 212  216 216 216  212 212 212  211 211 211  217 217 217  222 222 222  212 212 212  213 213 213  213 213 213  213 213 213  212 212 212  213 213 213  213 213 213  213 213 213  213 213 213  213 213 213  213 213 213  212 212 212  213 213 213  213 213 213  213 213 213  212 212 212  223 223 223  217 217 217  211 211 211  213 213 213  215 215 215  212 212 212  184 184 184  171 171 171  172 172 172  181 181 181  193 193 193  184 184 184  189 189 189  176 176 176  184 184 184  203 203 203  194 194 194  181 181 181  180 180 180  173 173 173  148 148 148  154 154 154  173 173 173  42 42 42  0 0 0  0 0 0  0 0 0  119 119 119  6 6 6  0 0 0  0 0 0  0 0 0  
0 0 0  0 0 0  0 0 0  0 0 0  174 174 174  254 254 254  173 173 173  133 133 133  154 154 154  168 168 168  193 193 193  199 199 199  194 194 194  206 206 206  208 208 208  208 208 208  208 208 208  208 208 208  208 208 208  208 208 208  208 208 208  208 208 208  208 208 208  208 208 208  208 208 208  209 209 209  202 202 202  197 197 197  198 198 198  199 199 199  198 198 198  196 196 196  196 196 196  196 196 196  196 196 196  198 198 198  199 199 199  198 198 198  198 198 198  198 198 198  198 198 198  198 198 198  198 198 198  199 199 199  198 198 198  196 196 196  196 196 196  196 196 196  196 196 196  198 198 198  199 199 199  198 198 198  197 197 197  201 201 201  208 208 208  208 208 208  208 208 208  207 207 207  208 208 208  212 212 212  216 216 216  218 218 218  219 219 219  219 219 219  218 218 218  216 216 216  210 210 210  205 205 205  199 199 199  186 186 186  173 173 173  121 121 121  108 108 108  120 120 120  130 130 130  148 148 148  3 3 3  0 0 0  0 0 0  0 0 0  
0 0 0  0 0 0  0 0 0  0 0 0  172 172 172  254 254 254  235 235 235  222 222 222  199 199 199  193 193 193  207 207 207  208 208 208  204 204 204  202 202 202  202 202 202  202 202 202  202 202 202  202 202 202  202 202 202  202 202 202  202 202 202  202 202 202  202 202 202  202 202 202  202 202 202  202 202 202  202 202 202  202 202 202  202 202 202  202 202 202  202 202 202  202 202 202  202 202 202  202 202 202  202 202 202  202 202 202  202 202 202  202 202 202  202 202 202  202 202 202  202 202 202  202 202 202  202 202 202  202 202 202  202 202 202  202 202 202  202 202 202  202 202 202  202 202 202  202 202 202  202 202 202  202 202 202  202 202 202  202 202 202  202 202 202  201 201 201  205 205 205  214 214 214  213 213 213  202 202 202  190 190 190  182 182 182  178 178 178  178 178 178  183 183 183  192 192 192  204 204 204  216 216 216  220 220 220  210 210 210  188 188 188  206 206 206  247 247 247  254 254 254  254 254 254  181 181 181  0 0 0  0 0 0  0 0 0  0 0 0  
0 0 0  0 0 0  0 0 0  0 0 0  172 172 172  254 254 254  230 230 230  209 209 209  206 206 206  205 205 205  202 202 202  202 202 202  202 202 202  202 202 202  202 202 202  202 202 202  202 202 202  202 202 202  202 202 202  202 202 202  202 202 202  202 202 202  202 202 202  202 202 202  202 202 202  202 202 202  202 202 202  202 202 202  202 202 202  202 202 202  202 202 202  202 202 202  202 202 202  202 202 202  202 202 202  202 202 202  202 202 202  202 202 202  202 202 202  202 202 202  202 202 202  202 202 202  202 202 202  202 202 202  202 202 202  202 202 202  202 202 202  202 202 202  202 202 202  202 202 202  202 202 202  202 202 202  202 202 202  201 201 201  203 203 203  215 215 215  208 208 208  181 181 181  157 157 157  140 140 140  131 131 131  126 126 126  124 124 124  124 124 124  126 126 126  131 131 131  141 141 141  158 158 158  183 183 183  210 210 210  218 218 218  208 208 208  203 203 203  222 222 222  254 254 254  173 173 173  0 0 0  0 0 0  0 0 0  0 0 0  
0 0 0  0 0 0  0 0 0  0 0 0  172 172 172  254 254 254  204 204 204  197 197 197  202 202 202  202 202 202  202 202 202  202 202 202  202 202 202  202 202 202  202 202 202  202 202 202  202 202 202  202 202 202  202 202 202  202 202 202  202 202 202  202 202 202  202 202 202  202 202 202  202 202 202  202 202 202  202 202 202  202 202 202  202 202 202  202 202 202  202 202 202  202 202 202  202 202 202  202 202 202  202 202 202  202 202 202  202 202 202  202 202 202  202 202 202  202 202 202  202 202 202  202 202 202  202 202 202  202 202 202  202 202 202  202 202 202  202 202 202  202 202 202  202 202 202  202 202 202  202 202 202  202 202 202  201 201 201  209 209 209  214 214 214  180 180 180  142 142 142  122 122 122  120 120 120  126 126 126  130 130 130  132 132 132  132 132 132  132 132 132  132 132 132  130 130 130  125 125 125  120 120 120  123 123 123  145 145 145  185 185 185  215 215 215  203 203 203  203 203 203  254 254 254  172 172 172  0 0 0  0 0 0  0 0 0  0 0 0  
103 103 103  103 103 103  98 98 98  63 63 63  173 173 173  228 228 228  197 197 197  203 203 203  202 202 202  202 202 202  202 202 202  202 202 202  202 202 202  202 202 202  202 202 202  202 202 202  202 202 202  202 202 202  202 202 202  202 202 202  202 202 202  202 202 202  202 202 202  202 202 202  202 202 202  202 202 202  202 202 202  202 202 202  202 202 202  202 202 202  202 202 202  202 202 202  202 202 202  202 202 202  202 202 202  202 202 202  202 202 202  202 202 202  202 202 202  202 202 202  202 202 202  202 202 202  202 202 202  202 202 202  202 202 202  202 202 202  202 202 202  202 202 202  202 202 202  202 202 202  202 202 202  201 201 201  213 213 213  206 206 206  154 154 154  119 119 119  122 122 122  132 132 132  133 133 133  133 133 133  133 133 133  133 133 133  133 133 133  133 133 133  133 133 133  133 133 133  133 133 133  134 134 134  132 132 132  121 121 121  120 120 120  159 159 159  210 210 210  207 207 207  227 227 227  176 176 176  64 64 64  98 98 98  103 103 103  103 103 103  
171 171 171  171 171 171  164 164 164  249 249 249  211 211 211  195 195 195  202 202 202  202 202 202  202 202 202  202 202 202  202 202 202  202 202 202  202 202 202  202 202 202  202 202 202  202 202 202  202 202 202  202 202 202  202 202 202  202 202 202  202 202 202  202 202 202  202 202 202  202 202 202  202 202 202  202 202 202  202 202 202  202 202 202  202 202 202  202 202 202  202 202 202  202 202 202  202 202 202  202 202 202  202 202 202  202 202 202  202 202 202  202 202 202  202 202 202  202 202 202  202 202 202  202 202 202  202 202 202  202 202 202  202 202 202  202 202 202  202 202 202  202 202 202  202 202 202  202 202 202  200 200 200  214 214 214  201 201 201  137 137 137  117 117 117  131 131 131  134 134 134  133 133 133  133 133 133  133 133 133  133 133 133  130 130 130  126 126 126  127 127 127  131 131 131  134 134 134  133 133 133  133 133 133  133 133 133  134 134 134  130 130 130  116 116 116  142 142 142  205 205 205  204 204 204  211 211 211  249 249 249  164 164 164  171 171 171  171 171 171  
0 0 0  0 0 0  10 10 10  225 225 225  211 211 211  202 202 202  202 202 202  202 202 202  202 202 202  202 202 202  202 202 202  202 202 202  202 202 202  204 204 204  207 207 207  206 206 206  204 204 204  204 204 204  206 206 206  207 207 207  204 204 204  202 202 202  202 202 202  202 202 202  202 202 202  202 202 202  202 202 202  202 202 202  202 202 202  202 202 202  202 202 202  202 202 202  202 202 202  202 202 202  202 202 202  202 202 202  202 202 202  202 202 202  202 202 202  202 202 202  202 202 202  202 202 202  202 202 202  202 202 202  202 202 202  202 202 202  202 202 202  202 202 202  202 202 202  200 200 200  212 212 212  202 202 202  134 134 134  119 119 119  134 134 134  133 133 133  133 133 133  133 133 133  134 134 134  132 132 132  122 122 122  137 137 137  163 163 163  160 160 160  132 132 132  124 124 124  134 134 134  133 133 133  133 133 133  133 133 133  133 133 133  133 133 133  118 118 118  139 139 139  206 206 206  219 219 219  223 223 223  12 12 12  0 0 0  0 0 0  
135 135 135  137 137 137  185 185 185  220 220 220  200 200 200  202 202 202  202 202 202  202 202 202  202 202 202  202 202 202  202 202 202  204 204 204  207 207 207  201 201 201  192 192 192  187 187 187  184 184 184  184 184 184  186 186 186  192 192 192  200 200 200  207 207 207  204 204 204  202 202 202  202 202 202  202 202 202  202 202 202  202 202 202  202 202 202  202 202 202  202 202 202  202 202 202  202 202 202  202 202 202  202 202 202  202 202 202  202 202 202  202 202 202  202 202 202  202 202 202  202 202 202  202 202 202  202 202 202  202 202 202  202 202 202  202 202 202  202 202 202  202 202 202  201 201 201  207 207 207  209 209 209  142 142 142  119 119 119  134 134 134  133 133 133  133 133 133  133 133 133  134 134 134  129 129 129  119 119 119  164 164 164  185 185 185  154 154 154  156 156 156  184 184 184  150 150 150  122 122 122  134 134 134  133 133 133  133 133 133  133 133 133  133 133 133  134 134 134  118 118 118  149 149 149  210 210 210  226 226 226  179 179 179  133 133 133  135 135 135  
254 254 254  254 254 254  215 215 215  192 192 192  202 202 202  202 202 202  202 202 202  202 202 202  202 202 202  202 202 202  205 205 205  204 204 204  188 188 188  176 176 176  176 176 176  186 186 186  187 187 187  188 188 188  185 185 185  174 174 174  176 176 176  188 188 188  203 203 203  206 206 206  202 202 202  202 202 202  202 202 202  202 202 202  202 202 202  202 202 202  202 202 202  202 202 202  202 202 202  202 202 202  202 202 202  202 202 202  202 202 202  202 202 202  202 202 202  202 202 202  202 202 202  202 202 202  202 202 202  202 202 202  202 202 202  202 202 202  202 202 202  202 202 202  202 202 202  216 216 216  164 164 164  117 117 117  133 133 133  133 133 133  133 133 133  133 133 133  134 134 134  126 126 126  123 123 123  175 175 175  185 185 185  92 92 92  60 60 60  60 60 60  107 107 107  183 183 183  145 145 145  128 128 128  133 133 133  133 133 133  133 133 133  133 133 133  133 133 133  132 132 132  117 117 117  171 171 171  208 208 208  211 211 211  254 254 254  254 254 254  
235 235 235  212 212 212  195 195 195  203 203 203  202 202 202  202 202 202  202 202 202  202 202 202  202 202 202  206 206 206  201 201 201  180 180 180  172 172 172  178 178 178  177 177 177  157 157 157  154 154 154  153 153 153  160 160 160  180 180 180  177 177 177  172 172 172  179 179 179  200 200 200  206 206 206  201 201 201  202 202 202  202 202 202  202 202 202  202 202 202  202 202 202  202 202 202  202 202 202  202 202 202  202 202 202  202 202 202  202 202 202  202 202 202  202 202 202  202 202 202  202 202 202  202 202 202  202 202 202  202 202 202  202 202 202  202 202 202  202 202 202  202 202 202  211 211 211  193 193 193  127 127 127  128 128 128  133 133 133  133 133 133  133 133 133  133 133 133  123 123 123  131 131 131  179 179 179  209 209 209  95 95 95  52 52 52  77 77 77  76 76 76  52 52 52  120 120 120  177 177 177  126 126 126  133 133 133  133 133 133  133 133 133  133 133 133  133 133 133  134 134 134  126 126 126  130 130 130  199 199 199  203 203 203  212 212 212  234 234 234  
234 234 234  196 196 196  200 200 200  202 202 202  202 202 202  202 202 202  202 202 202  202 202 202  205 205 205  202 202 202  178 178 178  173 173 173  178 178 178  193 193 193  141 141 141  72 72 72  82 82 82  80 80 80  77 77 77  154 154 154  191 191 191  178 178 178  173 173 173  177 177 177  202 202 202  205 205 205  202 202 202  202 202 202  202 202 202  202 202 202  202 202 202  202 202 202  202 202 202  202 202 202  202 202 202  202 202 202  202 202 202  202 202 202  202 202 202  202 202 202  202 202 202  202 202 202  202 202 202  202 202 202  202 202 202  202 202 202  202 202 202  202 202 202  214 214 214  158 158 158  119 119 119  134 134 134  133 133 133  134 134 134  131 131 131  121 121 121  141 141 141  185 185 185  210 210 210  171 171 171  67 67 67  72 72 72  77 77 77  77 77 77  66 66 66  88 88 88  169 169 169  135 135 135  132 132 132  133 133 133  133 133 133  133 133 133  133 133 133  133 133 133  134 134 134  118 118 118  163 163 163  214 214 214  196 196 196  233 233 233  
211 211 211  201 201 201  201 201 201  202 202 202  202 202 202  202 202 202  202 202 202  203 203 203  206 206 206  184 184 184  173 173 173  178 178 178  178 178 178  194 194 194  130 130 130  72 72 72  89 89 89  89 89 89  74 74 74  143 143 143  193 193 193  178 178 178  179 179 179  173 173 173  183 183 183  205 205 205  203 203 203  202 202 202  202 202 202  202 202 202  202 202 202  202 202 202  202 202 202  202 202 202  202 202 202  202 202 202  202 202 202  202 202 202  202 202 202  202 202 202  202 202 202  202 202 202  202 202 202  202 202 202  202 202 202  202 202 202  202 202 202  208 208 208  198 198 198  133 133 133  127 127 127  133 133 133  134 134 134  128 128 128  121 121 121  153 153 153  194 194 194  195 195 195  194 194 194  183 183 183  75 75 75  62 62 62  78 78 78  79 79 79  58 58 58  101 101 101  177 177 177  130 130 130  132 132 132  127 127 127  124 124 124  126 126 126  132 132 132  134 134 134  133 133 133  126 126 126  138 138 138  202 202 202  206 206 206  212 212 212  
194 194 194  207 207 207  202 202 202  202 202 202  202 202 202  202 202 202  202 202 202  206 206 206  195 195 195  173 173 173  178 178 178  180 180 180  180 180 180  195 195 195  135 135 135  76 76 76  91 91 91  90 90 90  79 79 79  148 148 148  194 194 194  180 180 180  180 180 180  179 179 179  173 173 173  194 194 194  206 206 206  202 202 202  202 202 202  202 202 202  202 202 202  202 202 202  202 202 202  202 202 202  202 202 202  202 202 202  202 202 202  202 202 202  202 202 202  202 202 202  202 202 202  202 202 202  202 202 202  202 202 202  202 202 202  202 202 202  202 202 202  214 214 214  177 177 177  121 121 121  133 133 133  134 134 134  124 124 124  128 128 128  177 177 177  212 212 212  198 198 198  184 184 184  186 186 186  204 204 204  141 141 141  55 55 55  58 58 58  57 57 57  63 63 63  165 165 165  164 164 164  118 118 118  126 126 126  158 158 158  174 174 174  163 163 163  130 130 130  125 125 125  134 134 134  132 132 132  124 124 124  181 181 181  217 217 217  195 195 195  
209 209 209  198 198 198  202 202 202  202 202 202  202 202 202  202 202 202  202 202 202  206 206 206  184 184 184  175 175 175  188 188 188  187 187 187  186 186 186  203 203 203  138 138 138  75 75 75  91 91 91  90 90 90  78 78 78  152 152 152  202 202 202  186 186 186  188 188 188  187 187 187  174 174 174  184 184 184  205 205 205  203 203 203  202 202 202  202 202 202  202 202 202  202 202 202  202 202 202  202 202 202  202 202 202  202 202 202  202 202 202  202 202 202  202 202 202  202 202 202  202 202 202  202 202 202  202 202 202  202 202 202  202 202 202  202 202 202  202 202 202  214 214 214  160 160 160  120 120 120  134 134 134  125 125 125  139 139 139  185 185 185  176 176 176  158 158 158  181 181 181  198 198 198  186 186 186  189 189 189  200 200 200  150 150 150  103 103 103  113 113 113  171 171 171  172 172 172  114 114 114  134 134 134  186 186 186  162 162 162  132 132 132  151 151 151  183 183 183  142 142 142  124 124 124  134 134 134  121 121 121  165 165 165  208 208 208  212 212 212  
205 205 205  200 200 200  202 202 202  202 202 202  202 202 202  202 202 202  204 204 204  201 201 201  181 181 181  180 180 180  132 132 132  106 106 106  114 114 114  118 118 118  103 103 103  87 87 87  91 91 91  91 91 91  88 88 88  106 106 106  118 118 118  114 114 114  105 105 105  141 141 141  185 185 185  179 179 179  200 200 200  204 204 204  202 202 202  202 202 202  202 202 202  202 202 202  202 202 202  202 202 202  202 202 202  202 202 202  202 202 202  202 202 202  202 202 202  202 202 202  202 202 202  202 202 202  202 202 202  202 202 202  202 202 202  202 202 202  204 204 204  209 209 209  149 149 149  123 123 123  130 130 130  134 134 134  183 183 183  141 141 141  95 95 95  94 94 94  104 104 104  168 168 168  198 198 198  184 184 184  188 188 188  203 203 203  210 210 210  208 208 208  163 163 163  110 110 110  136 136 136  202 202 202  138 138 138  41 41 41  40 40 40  41 41 41  116 116 116  184 184 184  133 133 133  131 131 131  122 122 122  155 155 155  209 209 209  205 205 205  
203 203 203  202 202 202  202 202 202  202 202 202  202 202 202  202 202 202  205 205 205  198 198 198  184 184 184  173 173 173  86 86 86  70 70 70  78 78 78  76 76 76  85 85 85  93 93 93  91 91 91  91 91 91  93 93 93  83 83 83  76 76 76  78 78 78  64 64 64  100 100 100  185 185 185  179 179 179  197 197 197  205 205 205  202 202 202  202 202 202  202 202 202  201 201 201  200 200 200  216 216 216  224 224 224  205 205 205  200 200 200  202 202 202  202 202 202  202 202 202  201 201 201  203 203 203  220 220 220  220 220 220  202 202 202  201 201 201  205 205 205  204 204 204  143 143 143  125 125 125  123 123 123  169 169 169  155 155 155  90 90 90  104 104 104  107 107 107  94 94 94  107 107 107  184 184 184  192 192 192  188 188 188  199 199 199  186 186 186  135 135 135  109 109 109  149 149 149  210 210 210  168 168 168  40 40 40  49 49 49  62 62 62  56 56 56  40 40 40  140 140 140  169 169 169  125 125 125  124 124 124  148 148 148  206 206 206  204 204 204  
202 202 202  202 202 202  202 202 202  202 202 202  202 202 202  202 202 202  205 205 205  196 196 196  183 183 183  173 173 173  96 96 96  84 84 84  91 91 91  91 91 91  91 91 91  91 91 91  91 91 91  91 91 91  91 91 91  91 91 91  91 91 91  91 91 91  79 79 79  108 108 108  183 183 183  179 179 179  196 196 196  205 205 205  202 202 202  202 202 202  201 201 201  205 205 205  225 225 225  182 182 182  156 156 156  202 202 202  204 204 204  202 202 202  202 202 202  200 200 200  210 210 210  222 222 222  166 166 166  166 166 166  209 209 209  202 202 202  206 206 206  202 202 202  141 141 141  126 126 126  125 125 125  173 173 173  130 130 130  95 95 95  107 107 107  107 107 107  106 106 106  96 96 96  161 161 161  203 203 203  199 199 199  172 172 172  121 121 121  115 115 115  163 163 163  197 197 197  218 218 218  123 123 123  40 40 40  63 63 63  60 60 60  62 62 62  40 40 40  109 109 109  177 177 177  124 124 124  124 124 124  146 146 146  206 206 206  204 204 204  
202 202 202  202 202 202  202 202 202  202 202 202  202 202 202  202 202 202  205 205 205  198 198 198  184 184 184  171 171 171  89 89 89  79 79 79  86 86 86  85 85 85  89 89 89  92 92 92  91 91 91  91 91 91  92 92 92  88 88 88  85 85 85  86 86 86  73 73 73  102 102 102  182 182 182  180 180 180  197 197 197  205 205 205  202 202 202  200 200 200  212 212 212  228 228 228  163 163 163  71 71 71  32 32 32  148 148 148  225 225 225  202 202 202  200 200 200  219 219 219  221 221 221  138 138 138  55 55 55  49 49 49  179 179 179  219 219 219  206 206 206  203 203 203  143 143 143  125 125 125  123 123 123  174 174 174  141 141 141  91 91 91  108 108 108  108 108 108  101 101 101  97 97 97  180 180 180  205 205 205  159 159 159  112 112 112  125 125 125  176 176 176  199 199 199  189 189 189  206 206 206  149 149 149  40 40 40  55 55 55  62 62 62  59 59 59  40 40 40  131 131 131  172 172 172  125 125 125  124 124 124  148 148 148  206 206 206  205 205 205  
205 205 205  201 201 201  202 202 202  202 202 202  202 202 202  202 202 202  204 204 204  202 202 202  184 184 184  178 178 178  108 108 108  81 81 81  90 90 90  90 90 90  91 91 91  91 91 91  91 91 91  91 91 91  91 91 91  91 91 91  90 90 90  90 90 90  78 78 78  120 120 120  186 186 186  180 180 180  200 200 200  204 204 204  199 199 199  214 214 214  218 218 218  133 133 133  58 58 58  46 46 46  65 65 65  173 173 173  218 218 218  199 199 199  221 221 221  206 206 206  107 107 107  52 52 52  46 46 46  86 86 86  195 195 195  213 213 213  204 204 204  208 208 208  149 149 149  123 123 123  127 127 127  148 148 148  180 180 180  109 109 109  91 91 91  93 93 93  91 91 91  152 152 152  201 201 201  145 145 145  109 109 109  140 140 140  190 190 190  200 200 200  188 188 188  186 186 186  190 190 190  201 201 201  106 106 106  40 40 40  40 40 40  39 39 39  93 93 93  184 184 184  138 138 138  130 130 130  122 122 122  154 154 154  208 208 208  206 206 206  
207 207 207  200 200 200  202 202 202  202 202 202  202 202 202  202 202 202  202 202 202  206 206 206  185 185 185  177 177 177  176 176 176  164 164 164  166 166 166  179 179 179  128 128 128  78 78 78  91 91 91  90 90 90  81 81 81  139 139 139  178 178 178  166 166 166  165 165 165  178 178 178  176 176 176  184 184 184  205 205 205  202 202 202  210 210 210  199 199 199  106 106 106  51 51 51  48 48 48  89 89 89  189 189 189  219 219 219  200 200 200  214 214 214  183 183 183  82 82 82  48 48 48  52 52 52  111 111 111  207 207 207  215 215 215  200 200 200  202 202 202  214 214 214  159 159 159  120 120 120  134 134 134  123 123 123  159 159 159  181 181 181  146 146 146  138 138 138  166 166 166  185 185 185  139 139 139  111 111 111  152 152 152  193 193 193  187 187 187  179 179 179  186 186 186  189 189 189  184 184 184  195 195 195  198 198 198  137 137 137  108 108 108  136 136 136  188 188 188  149 149 149  123 123 123  134 134 134  121 121 121  164 164 164  211 211 211  207 207 207  
212 212 212  198 198 198  202 202 202  202 202 202  202 202 202  202 202 202  202 202 202  206 206 206  196 196 196  173 173 173  183 183 183  188 188 188  187 187 187  204 204 204  138 138 138  74 74 74  91 91 91  90 90 90  78 78 78  153 153 153  202 202 202  187 187 187  188 188 188  182 182 182  172 172 172  195 195 195  206 206 206  202 202 202  223 223 223  164 164 164  33 33 33  48 48 48  116 116 116  211 211 211  224 224 224  201 201 201  201 201 201  228 228 228  129 129 129  19 19 19  62 62 62  141 141 141  223 223 223  218 218 218  199 199 199  202 202 202  202 202 202  215 215 215  174 174 174  121 121 121  133 133 133  132 132 132  123 123 123  147 147 147  174 174 174  176 176 176  167 167 167  130 130 130  115 115 115  149 149 149  195 195 195  176 176 176  167 167 167  168 168 168  172 172 172  186 186 186  188 188 188  184 184 184  190 190 190  212 212 212  220 220 220  197 197 197  137 137 137  121 121 121  134 134 134  132 132 132  124 124 124  180 180 180  209 209 209  211 211 211  
224 224 224  197 197 197  201 201 201  202 202 202  202 202 202  202 202 202  202 202 202  202 202 202  206 206 206  186 186 186  172 172 172  178 178 178  178 178 178  193 193 193  132 132 132  76 76 76  91 91 91  90 90 90  78 78 78  145 145 145  192 192 192  178 178 178  178 178 178  173 173 173  184 184 184  206 206 206  202 202 202  202 202 202  206 206 206  201 201 201  134 134 134  142 142 142  220 220 220  217 217 217  199 199 199  202 202 202  202 202 202  210 210 210  188 188 188  122 122 122  163 163 163  227 227 227  209 209 209  200 200 200  202 202 202  202 202 202  202 202 202  209 209 209  196 196 196  132 132 132  128 128 128  133 133 133  134 134 134  127 127 127  123 123 123  124 124 124  124 124 124  129 129 129  129 129 129  176 176 176  183 183 183  168 168 168  172 172 172  172 172 172  168 168 168  175 175 175  189 189 189  186 186 186  193 193 193  196 196 196  162 162 162  124 124 124  126 126 126  134 134 134  133 133 133  127 127 127  136 136 136  200 200 200  202 202 202  224 224 224  
254 254 254  208 208 208  195 195 195  202 202 202  202 202 202  202 202 202  202 202 202  202 202 202  204 204 204  203 203 203  180 180 180  173 173 173  178 178 178  195 195 195  131 131 131  60 60 60  75 75 75  74 74 74  64 64 64  146 146 146  194 194 194  178 178 178  173 173 173  178 178 178  203 203 203  205 205 205  202 202 202  202 202 202  200 200 200  205 205 205  222 222 222  222 222 222  206 206 206  200 200 200  202 202 202  202 202 202  202 202 202  199 199 199  209 209 209  225 225 225  218 218 218  202 202 202  201 201 201  202 202 202  202 202 202  202 202 202  202 202 202  202 202 202  213 213 213  155 155 155  119 119 119  134 134 134  133 133 133  133 133 133  133 133 133  133 133 133  133 133 133  130 130 130  136 136 136  179 179 179  175 175 175  171 171 171  172 172 172  172 172 172  170 170 170  172 172 172  186 186 186  198 198 198  191 191 191  148 148 148  122 122 122  129 129 129  134 134 134  133 133 133  134 134 134  118 118 118  160 160 160  209 209 209  208 208 208  254 254 254  
171 171 171  195 195 195  207 207 207  202 202 202  202 202 202  202 202 202  202 202 202  202 202 202  201 201 201  206 206 206  202 202 202  182 182 182  172 172 172  182 182 182  166 166 166  126 126 126  126 126 126  124 124 124  131 131 131  173 173 173  180 180 180  172 172 172  181 181 181  202 202 202  206 206 206  201 201 201  202 202 202  202 202 202  202 202 202  202 202 202  203 203 203  203 203 203  202 202 202  202 202 202  202 202 202  202 202 202  202 202 202  202 202 202  202 202 202  203 203 203  202 202 202  202 202 202  202 202 202  202 202 202  202 202 202  202 202 202  202 202 202  201 201 201  212 212 212  189 189 189  124 124 124  129 129 129  133 133 133  133 133 133  133 133 133  133 133 133  133 133 133  131 131 131  129 129 129  177 177 177  181 181 181  169 169 169  172 172 172  172 172 172  167 167 167  175 175 175  200 200 200  182 182 182  136 136 136  122 122 122  132 132 132  134 134 134  133 133 133  134 134 134  128 128 128  127 127 127  195 195 195  216 216 216  195 195 195  171 171 171  
166 166 166  205 205 205  211 211 211  200 200 200  202 202 202  202 202 202  202 202 202  202 202 202  202 202 202  201 201 201  205 205 205  205 205 205  190 190 190  176 176 176  180 180 180  190 190 190  188 188 188  189 189 189  189 189 189  178 178 178  176 176 176  189 189 189  204 204 204  206 206 206  201 201 201  202 202 202  202 202 202  202 202 202  202 202 202  202 202 202  202 202 202  202 202 202  202 202 202  202 202 202  202 202 202  202 202 202  202 202 202  202 202 202  202 202 202  202 202 202  202 202 202  202 202 202  202 202 202  202 202 202  202 202 202  202 202 202  202 202 202  202 202 202  202 202 202  215 215 215  159 159 159  117 117 117  134 134 134  133 133 133  133 133 133  133 133 133  133 133 133  133 133 133  123 123 123  154 154 154  195 195 195  174 174 174  168 168 168  168 168 168  176 176 176  196 196 196  173 173 173  128 128 128  124 124 124  134 134 134  133 133 133  133 133 133  133 133 133  133 133 133  116 116 116  167 167 167  215 215 215  211 211 211  204 204 204  166 166 166  
221 221 221  211 211 211  202 202 202  198 198 198  202 202 202  202 202 202  202 202 202  202 202 202  202 202 202  202 202 202  202 202 202  203 203 203  207 207 207  201 201 201  194 194 194  189 189 189  186 186 186  186 186 186  188 188 188  193 193 193  201 201 201  207 207 207  204 204 204  201 201 201  202 202 202  202 202 202  202 202 202  202 202 202  202 202 202  202 202 202  202 202 202  202 202 202  202 202 202  202 202 202  202 202 202  202 202 202  202 202 202  202 202 202  202 202 202  202 202 202  202 202 202  202 202 202  202 202 202  202 202 202  202 202 202  202 202 202  202 202 202  202 202 202  201 201 201  209 209 209  207 207 207  137 137 137  120 120 120  134 134 134  133 133 133  133 133 133  133 133 133  133 133 133  132 132 132  125 125 125  159 159 159  189 189 189  187 187 187  187 187 187  189 189 189  159 159 159  123 123 123  127 127 127  134 134 134  133 133 133  133 133 133  133 133 133  134 134 134  119 119 119  144 144 144  210 210 210  203 203 203  202 202 202  211 211 211  221 221 221  
203 203 203  202 202 202  206 206 206  208 208 208  198 198 198  202 202 202  202 202 202  202 202 202  202 202 202  202 202 202  202 202 202  202 202 202  202 202 202  204 204 204  206 206 206  206 206 206  205 205 205  205 205 205  206 206 206  206 206 206  204 204 204  202 202 202  202 202 202  202 202 202  202 202 202  202 202 202  202 202 202  202 202 202  202 202 202  202 202 202  202 202 202  202 202 202  202 202 202  202 202 202  202 202 202  202 202 202  202 202 202  202 202 202  202 202 202  202 202 202  202 202 202  202 202 202  202 202 202  202 202 202  202 202 202  202 202 202  202 202 202  202 202 202  202 202 202  201 201 201  213 213 213  198 198 198  129 129 129  121 121 121  134 134 134  133 133 133  133 133 133  133 133 133  134 134 134  131 131 131  125 125 125  143 143 143  159 159 159  159 159 159  140 140 140  123 123 123  130 130 130  134 134 134  133 133 133  133 133 133  133 133 133  134 134 134  119 119 119  134 134 134  202 202 202  209 209 209  207 207 207  206 206 206  202 202 202  203 203 203  
252 252 252  252 252 252  253 253 253  235 235 235  198 198 198  198 198 198  202 202 202  202 202 202  202 202 202  202 202 202  202 202 202  202 202 202  202 202 202  202 202 202  202 202 202  202 202 202  202 202 202  202 202 202  202 202 202  202 202 202  202 202 202  202 202 202  202 202 202  202 202 202  202 202 202  202 202 202  202 202 202  202 202 202  202 202 202  202 202 202  202 202 202  202 202 202  202 202 202  202 202 202  202 202 202  202 202 202  202 202 202  202 202 202  202 202 202  202 202 202  202 202 202  202 202 202  202 202 202  202 202 202  202 202 202  202 202 202  202 202 202  202 202 202  202 202 202  202 202 202  200 200 200  215 215 215  195 195 195  131 131 131  118 118 118  132 132 132  134 134 134  133 133 133  133 133 133  133 133 133  133 133 133  127 127 127  124 124 124  124 124 124  127 127 127  133 133 133  133 133 133  133 133 133  133 133 133  134 134 134  132 132 132  117 117 117  136 136 136  201 201 201  210 210 210  197 197 197  236 236 236  253 253 253  252 252 252  252 252 252  
254 254 254  254 254 254  254 254 254  239 239 239  212 212 212  203 203 203  200 200 200  202 202 202  202 202 202  202 202 202  202 202 202  202 202 202  202 202 202  202 202 202  202 202 202  202 202 202  202 202 202  202 202 202  202 202 202  202 202 202  202 202 202  202 202 202  202 202 202  202 202 202  202 202 202  202 202 202  201 201 201  199 199 199  200 200 200  200 200 200  200 200 200  200 200 200  200 200 200  200 200 200  200 200 200  200 200 200  200 200 200  200 200 200  200 200 200  200 200 200  200 200 200  200 200 200  200 200 200  200 200 200  200 200 200  200 200 200  200 200 200  200 200 200  200 200 200  200 200 200  200 200 200  199 199 199  212 212 212  201 201 201  147 147 147  118 118 118  124 124 124  133 133 133  133 133 133  133 133 133  133 133 133  133 133 133  133 133 133  133 133 133  133 133 133  133 133 133  133 133 133  134 134 134  133 133 133  123 123 123  119 119 119  151 151 151  205 205 205  210 210 210  202 202 202  208 208 208  237 237 237  254 254 254  254 254 254  254 254 254  
254 254 254  254 254 254  254 254 254  236 236 236  215 215 215  217 217 217  203 203 203  199 199 199  201 201 201  202 202 202  202 202 202  202 202 202  202 202 202  202 202 202  202 202 202  202 202 202  202 202 202  202 202 202  202 202 202  202 202 202  202 202 202  202 202 202  202 202 202  202 202 202  202 202 202  200 200 200  203 203 203  212 212 212  214 214 214  213 213 213  213 213 213  213 213 213  213 213 213  213 213 213  213 213 213  213 213 213  213 213 213  213 213 213  213 213 213  213 213 213  213 213 213  213 213 213  213 213 213  213 213 213  213 213 213  213 213 213  213 213 213  213 213 213  213 213 213  213 213 213  213 213 213  214 214 214  211 211 211  219 219 219  208 208 208  174 174 174  137 137 137  120 120 120  121 121 121  128 128 128  131 131 131  133 133 133  133 133 133  133 133 133  132 132 132  131 131 131  127 127 127  120 120 120  121 121 121  140 140 140  177 177 177  212 212 212  208 208 208  204 204 204  216 216 216  210 210 210  233 233 233  254 254 254  254 254 254  254 254 254  
254 254 254  254 254 254  254 254 254  236 236 236  213 213 213  214 214 214  209 209 209  208 208 208  207 207 207  211 211 211  200 200 200  201 201 201  202 202 202  202 202 202  202 202 202  202 202 202  202 202 202  202 202 202  202 202 202  202 202 202  202 202 202  202 202 202  200 200 200  206 206 206  211 211 211  205 205 205  202 202 202  218 218 218  224 224 224  220 220 220  220 220 220  220 220 220  220 220 220  220 220 220  220 220 220  220 220 220  220 220 220  220 220 220  220 220 220  220 220 220  220 220 220  220 220 220  220 220 220  220 220 220  220 220 220  220 220 220  220 220 220  220 220 220  220 220 220  220 220 220  220 220 220  221 221 221  217 217 217  193 193 193  204 204 204  210 210 210  203 203 203  174 174 174  151 151 151  135 135 135  126 126 126  123 123 123  122 122 122  122 122 122  123 123 123  127 127 127  136 136 136  153 153 153  177 177 177  203 203 203  224 224 224  209 209 209  203 203 203  211 211 211  216 216 216  208 208 208  234 234 234  254 254 254  254 254 254  254 254 254  
254 254 254  254 254 254  254 254 254  236 236 236  213 213 213  213 213 213  207 207 207  226 226 226  203 203 203  187 187 187  212 212 212  209 209 209  202 202 202  201 201 201  201 201 201  202 202 202  202 202 202  202 202 202  202 202 202  200 200 200  202 202 202  211 211 211  204 204 204  203 203 203  200 200 200  216 216 216  192 192 192  212 212 212  222 222 222  217 217 217  217 217 217  217 217 217  217 217 217  217 217 217  217 217 217  217 217 217  217 217 217  217 217 217  217 217 217  217 217 217  217 217 217  217 217 217  217 217 217  217 217 217  217 217 217  217 217 217  217 217 217  217 217 217  217 217 217  217 217 217  217 217 217  220 220 220  202 202 202  158 158 158  231 231 231  214 214 214  201 201 201  214 214 214  220 220 220  200 200 200  182 182 182  176 176 176  172 172 172  172 172 172  177 177 177  185 185 185  197 197 197  211 211 211  207 207 207  205 205 205  191 191 191  204 204 204  217 217 217  207 207 207  215 215 215  208 208 208  234 234 234  254 254 254  254 254 254  254 254 254  
254 254 254  254 254 254  254 254 254  236 236 236  213 213 213  213 213 213  207 207 207  241 241 241  177 177 177  118 118 118  197 197 197  195 195 195  213 213 213  214 214 214  199 199 199  205 205 205  193 193 193  193 193 193  196 196 196  200 200 200  205 205 205  197 197 197  225 225 225  118 118 118  106 106 106  230 230 230  194 194 194  213 213 213  222 222 222  217 217 217  217 217 217  217 217 217  217 217 217  217 217 217  217 217 217  217 217 217  217 217 217  217 217 217  217 217 217  217 217 217  217 217 217  217 217 217  217 217 217  217 217 217  217 217 217  217 217 217  217 217 217  217 217 217  217 217 217  217 217 217  217 217 217  220 220 220  204 204 204  160 160 160  243 243 243  228 228 228  212 212 212  212 212 212  200 200 200  206 206 206  210 210 210  208 208 208  205 205 205  205 205 205  217 217 217  210 210 210  202 202 202  204 204 204  226 226 226  225 225 225  111 111 111  178 178 178  233 233 233  207 207 207  215 215 215  208 208 208  234 234 234  254 254 254  254 254 254  254 254 254  
254 254 254  254 254 254  254 254 254  236 236 236  213 213 213  213 213 213  207 207 207  239 239 239  181 181 181  124 124 124  172 172 172  155 155 155  153 153 153  167 167 167  227 227 227  196 196 196  229 229 229  227 227 227  219 219 219  245 245 245  175 175 175  83 83 83  231 231 231  104 104 104  97 97 97  234 234 234  195 195 195  213 213 213  222 222 222  217 217 217  217 217 217  217 217 217  217 217 217  217 217 217  217 217 217  217 217 217  217 217 217  217 217 217  217 217 217  217 217 217  217 217 217  217 217 217  217 217 217  217 217 217  217 217 217  217 217 217  217 217 217  217 217 217  217 217 217  217 217 217  217 217 217  220 220 220  204 204 204  161 161 161  240 240 240  220 220 220  229 229 229  216 216 216  57 57 57  164 164 164  246 246 246  217 217 217  227 227 227  229 229 229  195 195 195  217 217 217  241 241 241  187 187 187  249 249 249  239 239 239  104 104 104  182 182 182  231 231 231  207 207 207  215 215 215  208 208 208  234 234 234  254 254 254  254 254 254  254 254 254  
254 254 254  254 254 254  254 254 254  254 254 254  254 254 254  254 254 254  254 254 254  254 254 254  254 254 254  254 254 254  254 254 254  254 254 254  254 254 254  254 254 254  254 254 254  254 254 254  254 254 254  254 254 254  254 254 254  254 254 254  254 254 254  254 254 254  254 254 254  254 254 254  254 254 254  254 254 254  254 254 254  254 254 254  254 254 254  254 254 254  254 254 254  254 254 254  254 254 254  254 254 254  254 254 254  254 254 254  254 254 254  254 254 254  254 254 254  254 254 254  254 254 254  254 254 254  254 254 254  254 254 254  254 254 254  254 254 254  254 254 254  254 254 254  254 254 254  254 254 254  254 254 254  254 254 254  254 254 254  254 254 254  254 254 254  254 254 254  254 254 254  254 254 254  254 254 254  254 254 254  254 254 254  254 254 254  254 254 254  254 254 254  254 254 254  254 254 254  254 254 254  254 254 254  254 254 254  254 254 254  254 254 254  254 254 254  254 254 254  254 254 254  254 254 254  254 254 254  254 254 254  254 254 254  254 254 254  254 254 254  
254 254 254  254 254 254  254 254 254  254 254 254  254 254 254  254 254 254  254 254 254  254 254 254  254 254 254  254 254 254  254 254 254  254 254 254  254 254 254  254 254 254  254 254 254  254 254 254  254 254 254  254 254 254  254 254 254  254 254 254  254 254 254  254 254 254  254 254 254  254 254 254  254 254 254  254 254 254  254 254 254  254 254 254  254 254 254  254 254 254  254 254 254  254 254 254  254 254 254  254 254 254  254 254 254  254 254 254  254 254 254  254 254 254  254 254 254  254 254 254  254 254 254  254 254 254  254 254 254  254 254 254  254 254 254  254 254 254  254 254 254  254 254 254  254 254 254  254 254 254  254 254 254  254 254 254  254 254 254  254 254 254  254 254 254  254 254 254  254 254 254  254 254 254  254 254 254  254 254 254  254 254 254  254 254 254  254 254 254  254 254 254  254 254 254  254 254 254  254 254 254  254 254 254  254 254 254  254 254 254  254 254 254  254 254 254  254 254 254  254 254 254  254 254 254  254 254 254  254 254 254  254 254 254  254 254 254  254 254 254  
