P3
# Created by PPMWriter
80 40
255
255 255 255  255 255 255  255 255 255  255 255 255  255 255 255  255 255 255  255 255 255  255 255 255  255 255 255  255 255 255  255 255 255  255 255 255  255 255 255  255 255 255  255 255 255  255 255 255  255 255 255  255 255 255  255 255 255  255 255 255  255 255 255  255 255 255  255 255 255  255 255 255  255 255 255  255 255 255  255 255 255  255 255 255  255 255 255  255 255 255  255 255 255  255 255 255  255 255 255  255 255 255  255 255 255  255 255 255  255 255 255  255 255 255  255 255 255  255 255 255  255 255 255  255 255 255  255 255 255  255 255 255  255 255 255  255 255 255  255 255 255  255 255 255  255 255 255  255 255 255  255 255 255  255 255 255  255 255 255  255 255 255  255 255 255  255 255 255  255 255 255  255 255 255  255 255 255  255 255 255  255 255 255  255 255 255  255 255 255  255 255 255  255 255 255  255 255 255  255 255 255  255 255 255  255 255 255  255 255 255  255 255 255  255 255 255  255 255 255  255 255 255  255 255 255  255 255 255  255 255 255  255 255 255  255 255 255  255 255 255  
255 255 255  255 255 255  255 255 255  255 255 255  255 255 255  255 255 255  255 255 255  255 255 255  255 255 255  255 255 255  255 255 255  255 255 255  255 255 255  255 255 255  255 255 255  255 255 255  255 255 255  255 255 255  255 255 255  255 255 255  255 255 255  255 255 255  255 255 255  255 255 255  255 255 255  255 255 255  255 255 255  255 255 255  255 255 255  255 255 255  255 255 255  255 255 255  255 255 255  255 255 255  255 255 255  255 255 255  255 255 255  255 255 255  255 255 255  255 255 255  255 255 255  255 255 255  255 255 255  255 255 255  255 255 255  255 255 255  255 255 255  255 255 255  255 255 255  255 255 255  255 255 255  255 255 255  255 255 255  255 255 255  255 255 255  255 255 255  255 255 255  255 255 255  255 255 255  255 255 255  255 255 255  255 255 255  255 255 255  255 255 255  255 255 255  255 255 255  255 255 255  255 255 255  255 255 255  255 255 255  255 255 255  255 255 255  255 255 255  255 255 255  255 255 255  255 255 255  255 255 255  255 255 255  255 255 255  255 255 255  
0 0 0  0 0 0  0 0 0  0 0 0  173 173 173  255 255 255  185 185 185  162 162 162  164 164 164  130 130 130  80 80 80  109 109 109  242 242 242  120 120 120  104 104 104  160 160 160  190 190 190  165 165 165  187 187 187  161 161 161  170 170 170  171 171 171  198 198 198  202 202 202  202 202 202  166 166 166  176 176 176  234 234 234  229 229 229  228 228 228  214 214 214  214 214 214  255 255 255  255 255 255  254 254 254  229 229 229  225 225 225  228 228 228  228 228 228  228 228 228  228 228 228  228 228 228  228 228 228  225 225 225  229 229 229  254 254 254  255 255 255  255 255 255  214 214 214  214 214 214  228 228 228  228 228 228  237 237 237  192 192 192  167 167 167  201 201 201  202 202 202  182 182 182  156 156 156  176 176 176  161 161 161  188 188 188  171 171 171  130 130 130  154 154 154  163 163 163  159 159 159  87 87 87  94 94 94  145 145 145  174 174 174  60 60 60  0 0 0  0 0 0  19 19 19  127 127 127  6 6 6  0 0 0  0 0 0  0 0 0  
0 0 0  0 0 0  0 0 0  0 0 0  174 174 174  255 255 255  178 178 178  154 154 154  160 160 160  130 130 130  131 131 131  159 159 159  177 177 177  190 190 190  204 204 204  193 193 193  178 178 178  187 187 187  178 178 178  191 191 191  188 188 188  188 188 188  176 176 176  174 174 174  173 173 173  184 184 184  213 213 213  217 217 217  213 213 213  212 212 212  218 218 218  223 223 223  213 213 213  214 214 214  214 214 214  214 214 214  214 214 214  214 214 214  214 214 214  214 214 214  214 214 214  214 214 214  214 214 214  214 214 214  214 214 214  214 214 214  214 214 214  213 213 213  224 224 224  218 218 218  212 212 212  214 214 214  216 216 216  214 214 214  186 186 186  173 173 173  174 174 174  183 183 183  195 195 195  186 186 186  191 191 191  178 178 178  185 185 185  205 205 205  195 195 195  182 182 182  182 182 182  175 175 175  149 149 149  155 155 155  174 174 174  42 42 42  0 0 0  0 0 0  0 0 0  119 119 119  7 7 7  0 0 0  0 0 0  0 0 0  
0 0 0  0 0 0  0 0 0  0 0 0  173 173 173  255 255 255  195 195 195  164 164 164  169 169 169  165 165 165  195 195 195  201 201 201  195 195 195  206 206 206  209 209 209  209 209 209  208 208 208  209 209 209  209 209 209  209 209 209  208 208 208  208 208 208  208 208 208  208 208 208  208 208 208  210 210 210  203 203 203  198 198 198  199 199 199  200 200 200  199 199 199  197 197 197  197 197 197  197 197 197  197 197 197  199 199 199  199 199 199  199 199 199  199 199 199  199 199 199  199 199 199  199 199 199  199 199 199  199 199 199  199 199 199  197 197 197  197 197 197  197 197 197  197 197 197  199 199 199  200 200 200  199 199 199  198 198 198  202 202 202  209 209 209  209 209 209  208 208 208  208 208 208  209 209 209  212 212 212  216 216 216  219 219 219  219 219 219  219 219 219  219 219 219  216 216 216  210 210 210  206 206 206  200 200 200  188 188 188  175 175 175  122 122 122  108 108 108  120 120 120  130 130 130  148 148 148  3 3 3  0 0 0  0 0 0  0 0 0  
0 0 0  0 0 0  0 0 0  0 0 0  172 172 172  255 255 255  233 233 233  220 220 220  199 199 199  195 195 195  207 207 207  209 209 209  205 205 205  203 203 203  203 203 203  203 203 203  203 203 203  203 203 203  203 203 203  203 203 203  203 203 203  203 203 203  203 203 203  203 203 203  203 203 203  203 203 203  203 203 203  203 203 203  203 203 203  203 203 203  203 203 203  203 203 203  203 203 203  203 203 203  203 203 203  203 203 203  203 203 203  203 203 203  203 203 203  203 203 203  203 203 203  203 203 203  203 203 203  203 203 203  203 203 203  203 203 203  203 203 203  203 203 203  203 203 203  203 203 203  203 203 203  203 203 203  203 203 203  203 203 203  203 203 203  202 202 202  206 206 206  215 215 215  214 214 214  203 203 203  191 191 191  183 183 183  179 179 179  179 179 179  184 184 184  193 193 193  205 205 205  216 216 216  220 220 220  210 210 210  189 189 189  207 207 207  248 248 248  255 255 255  255 255 255  181 181 181  0 0 0  0 0 0  0 0 0  0 0 0  
0 0 0  0 0 0  0 0 0  0 0 0  172 172 172  255 255 255  230 230 230  208 208 208  207 207 207  206 206 206  203 203 203  203 203 203  203 203 203  203 203 203  203 203 203  203 203 203  203 203 203  203 203 203  203 203 203  203 203 203  203 203 203  203 203 203  203 203 203  203 203 203  203 203 203  203 203 203  203 203 203  203 203 203  203 203 203  203 203 203  203 203 203  203 203 203  203 203 203  203 203 203  203 203 203  203 203 203  203 203 203  203 203 203  203 203 203  203 203 203  203 203 203  203 203 203  203 203 203  203 203 203  203 203 203  203 203 203  203 203 203  203 203 203  203 203 203  203 203 203  203 203 203  203 203 203  203 203 203  202 202 202  204 204 204  216 216 216  209 209 209  182 182 182  158 158 158  141 141 141  131 131 131  126 126 126  124 124 124  124 124 124  126 126 126  132 132 132  142 142 142  159 159 159  184 184 184  211 211 211  219 219 219  209 209 209  205 205 205  223 223 223  255 255 255  173 173 173  0 0 0  0 0 0  0 0 0  0 0 0  
0 0 0  0 0 0  0 0 0  0 0 0  171 171 171  255 255 255  206 206 206  198 198 198  203 203 203  203 203 203  203 203 203  203 203 203  203 203 203  203 203 203  203 203 203  203 203 203  203 203 203  203 203 203  203 203 203  203 203 203  203 203 203  203 203 203  203 203 203  203 203 203  203 203 203  203 203 203  203 203 203  203 203 203  203 203 203  203 203 203  203 203 203  203 203 203  203 203 203  203 203 203  203 203 203  203 203 203  203 203 203  203 203 203  203 203 203  203 203 203  203 203 203  203 203 203  203 203 203  203 203 203  203 203 203  203 203 203  203 203 203  203 203 203  203 203 203  203 203 203  203 203 203  203 203 203  202 202 202  210 210 210  215 215 215  181 181 181  143 143 143  123 123 123  120 120 120  126 126 126  130 130 130  132 132 132  132 132 132  132 132 132  132 132 132  130 130 130  125 125 125  120 120 120  123 123 123  146 146 146  186 186 186  216 216 216  204 204 204  204 204 204  255 255 255  172 172 172  0 0 0  0 0 0  0 0 0  0 0 0  
103 103 103  103 103 103  98 98 98  63 63 63  174 174 174  230 230 230  198 198 198  204 204 204  203 203 203  203 203 203  203 203 203  203 203 203  203 203 203  203 203 203  203 203 203  203 203 203  203 203 203  203 203 203  203 203 203  203 203 203  203 203 203  203 203 203  203 203 203  203 203 203  203 203 203  203 203 203  203 203 203  203 203 203  203 203 203  203 203 203  203 203 203  203 203 203  203 203 203  203 203 203  203 203 203  203 203 203  203 203 203  203 203 203  203 203 203  203 203 203  203 203 203  203 203 203  203 203 203  203 203 203  203 203 203  203 203 203  203 203 203  203 203 203  203 203 203  203 203 203  203 203 203  202 202 202  214 214 214  207 207 207  155 155 155  119 119 119  122 122 122  132 132 132  133 133 133  133 133 133  133 133 133  133 133 133  133 133 133  133 133 133  133 133 133  133 133 133  133 133 133  134 134 134  132 132 132  121 121 121  120 120 120  160 160 160  210 210 210  208 208 208  228 228 228  176 176 176  64 64 64  98 98 98  103 103 103  103 103 103  
172 172 172  172 172 172  165 165 165  249 249 249  212 212 212  196 196 196  203 203 203  203 203 203  203 203 203  203 203 203  203 203 203  203 203 203  203 203 203  203 203 203  203 203 203  203 203 203  203 203 203  203 203 203  203 203 203  203 203 203  203 203 203  203 203 203  203 203 203  203 203 203  203 203 203  203 203 203  203 203 203  203 203 203  203 203 203  203 203 203  203 203 203  203 203 203  203 203 203  203 203 203  203 203 203  203 203 203  203 203 203  203 203 203  203 203 203  203 203 203  203 203 203  203 203 203  203 203 203  203 203 203  203 203 203  203 203 203  203 203 203  203 203 203  203 203 203  203 203 203  201 201 201  215 215 215  202 202 202  138 138 138  117 117 117  131 131 131  134 134 134  133 133 133  133 133 133  133 133 133  133 133 133  130 130 130  126 126 126  127 127 127  131 131 131  134 134 134  133 133 133  133 133 133  133 133 133  134 134 134  130 130 130  116 116 116  143 143 143  206 206 206  205 205 205  212 212 212  250 250 250  164 164 164  172 172 172  172 172 172  
0 0 0  0 0 0  11 11 11  227 227 227  211 211 211  203 203 203  203 203 203  203 203 203  203 203 203  203 203 203  203 203 203  203 203 203  203 203 203  205 205 205  207 207 207  207 207 207  205 205 205  205 205 205  206 206 206  207 207 207  205 205 205  203 203 203  203 203 203  203 203 203  203 203 203  203 203 203  203 203 203  203 203 203  203 203 203  203 203 203  203 203 203  203 203 203  203 203 203  203 203 203  203 203 203  203 203 203  203 203 203  203 203 203  203 203 203  203 203 203  203 203 203  203 203 203  203 203 203  203 203 203  203 203 203  203 203 203  203 203 203  203 203 203  203 203 203  201 201 201  213 213 213  203 203 203  134 134 134  119 119 119  134 134 134  133 133 133  133 133 133  133 133 133  134 134 134  132 132 132  123 123 123  137 137 137  161 161 161  158 158 158  132 132 132  125 125 125  134 134 134  133 133 133  133 133 133  133 133 133  133 133 133  133 133 133  118 118 118  140 140 140  206 206 206  219 219 219  225 225 225  12 12 12  0 0 0  0 0 0  
135 135 135  137 137 137  186 186 186  221 221 221  201 201 201  203 203 203  203 203 203  203 203 203  203 203 203  203 203 203  203 203 203  205 205 205  208 208 208  202 202 202  193 193 193  188 188 188  185 185 185  185 185 185  187 187 187  193 193 193  201 201 201  208 208 208  205 205 205  203 203 203  203 203 203  203 203 203  203 203 203  203 203 203  203 203 203  203 203 203  203 203 203  203 203 203  203 203 203  203 203 203  203 203 203  203 203 203  203 203 203  203 203 203  203 203 203  203 203 203  203 203 203  203 203 203  203 203 203  203 203 203  203 203 203  203 203 203  203 203 203  203 203 203  202 202 202  208 208 208  210 210 210  143 143 143  119 119 119  134 134 134  133 133 133  133 133 133  133 133 133  134 134 134  129 129 129  120 120 120  162 162 162  185 185 185  161 161 161  163 163 163  184 184 184  149 149 149  123 123 123  134 134 134  133 133 133  133 133 133  133 133 133  133 133 133  134 134 134  118 118 118  150 150 150  211 211 211  227 227 227  180 180 180  133 133 133  135 135 135  
255 255 255  255 255 255  216 216 216  193 193 193  203 203 203  203 203 203  203 203 203  203 203 203  203 203 203  203 203 203  206 206 206  205 205 205  189 189 189  177 177 177  177 177 177  187 187 187  189 189 189  189 189 189  186 186 186  175 175 175  177 177 177  189 189 189  204 204 204  206 206 206  203 203 203  203 203 203  203 203 203  203 203 203  203 203 203  203 203 203  203 203 203  203 203 203  203 203 203  203 203 203  203 203 203  203 203 203  203 203 203  203 203 203  203 203 203  203 203 203  203 203 203  203 203 203  203 203 203  203 203 203  203 203 203  203 203 203  203 203 203  203 203 203  203 203 203  217 217 217  165 165 165  117 117 117  133 133 133  133 133 133  133 133 133  133 133 133  134 134 134  126 126 126  124 124 124  174 174 174  188 188 188  109 109 109  81 81 81  82 82 82  123 123 123  185 185 185  144 144 144  128 128 128  133 133 133  133 133 133  133 133 133  133 133 133  133 133 133  132 132 132  117 117 117  172 172 172  208 208 208  212 212 212  255 255 255  255 255 255  
235 235 235  212 212 212  196 196 196  204 204 204  203 203 203  203 203 203  203 203 203  203 203 203  203 203 203  207 207 207  202 202 202  181 181 181  173 173 173  179 179 179  178 178 178  158 158 158  155 155 155  154 154 154  162 162 162  181 181 181  178 178 178  173 173 173  180 180 180  201 201 201  207 207 207  202 202 202  203 203 203  203 203 203  203 203 203  203 203 203  203 203 203  203 203 203  203 203 203  203 203 203  203 203 203  203 203 203  203 203 203  203 203 203  203 203 203  203 203 203  203 203 203  203 203 203  203 203 203  203 203 203  203 203 203  203 203 203  203 203 203  203 203 203  212 212 212  194 194 194  127 127 127  128 128 128  133 133 133  133 133 133  133 133 133  133 133 133  123 123 123  131 131 131  179 179 179  209 209 209  110 110 110  77 77 77  94 94 94  93 93 93  77 77 77  133 133 133  177 177 177  126 126 126  133 133 133  133 133 133  133 133 133  133 133 133  133 133 133  134 134 134  126 126 126  130 130 130  200 200 200  204 204 204  212 212 212  234 234 234  
234 234 234  197 197 197  201 201 201  203 203 203  203 203 203  203 203 203  203 203 203  203 203 203  206 206 206  203 203 203  179 179 179  174 174 174  179 179 179  194 194 194  142 142 142  73 73 73  83 83 83  81 81 81  78 78 78  155 155 155  192 192 192  179 179 179  174 174 174  178 178 178  202 202 202  206 206 206  203 203 203  203 203 203  203 203 203  203 203 203  203 203 203  203 203 203  203 203 203  203 203 203  203 203 203  203 203 203  203 203 203  203 203 203  203 203 203  203 203 203  203 203 203  203 203 203  203 203 203  203 203 203  203 203 203  203 203 203  203 203 203  203 203 203  215 215 215  159 159 159  119 119 119  134 134 134  133 133 133  134 134 134  131 131 131  121 121 121  141 141 141  187 187 187  209 209 209  174 174 174  86 86 86  90 90 90  94 94 94  94 94 94  85 85 85  106 106 106  171 171 171  134 134 134  132 132 132  133 133 133  133 133 133  133 133 133  133 133 133  133 133 133  134 134 134  118 118 118  164 164 164  215 215 215  197 197 197  233 233 233  
212 212 212  202 202 202  202 202 202  203 203 203  203 203 203  203 203 203  203 203 203  204 204 204  206 206 206  185 185 185  174 174 174  179 179 179  179 179 179  195 195 195  131 131 131  73 73 73  90 90 90  90 90 90  75 75 75  144 144 144  194 194 194  179 179 179  180 180 180  174 174 174  184 184 184  206 206 206  204 204 204  203 203 203  203 203 203  203 203 203  203 203 203  203 203 203  203 203 203  203 203 203  203 203 203  203 203 203  203 203 203  203 203 203  203 203 203  203 203 203  203 203 203  203 203 203  203 203 203  203 203 203  203 203 203  203 203 203  203 203 203  209 209 209  199 199 199  133 133 133  127 127 127  133 133 133  134 134 134  128 128 128  122 122 122  154 154 154  195 195 195  196 196 196  194 194 194  185 185 185  93 93 93  82 82 82  95 95 95  96 96 96  80 80 80  116 116 116  176 176 176  130 130 130  132 132 132  127 127 127  124 124 124  127 127 127  132 132 132  134 134 134  133 133 133  126 126 126  138 138 138  203 203 203  207 207 207  213 213 213  
194 194 194  208 208 208  203 203 203  203 203 203  203 203 203  203 203 203  203 203 203  207 207 207  196 196 196  175 175 175  179 179 179  181 181 181  181 181 181  196 196 196  136 136 136  77 77 77  92 92 92  91 91 91  80 80 80  149 149 149  195 195 195  181 181 181  181 181 181  180 180 180  174 174 174  195 195 195  207 207 207  203 203 203  203 203 203  203 203 203  203 203 203  203 203 203  203 203 203  203 203 203  203 203 203  203 203 203  203 203 203  203 203 203  203 203 203  203 203 203  203 203 203  203 203 203  203 203 203  203 203 203  203 203 203  203 203 203  203 203 203  215 215 215  178 178 178  121 121 121  133 133 133  134 134 134  124 124 124  130 130 130  182 182 182  218 218 218  202 202 202  186 186 186  187 187 187  203 203 203  149 149 149  79 79 79  80 80 80  79 79 79  84 84 84  171 171 171  163 163 163  119 119 119  127 127 127  156 156 156  171 171 171  160 160 160  130 130 130  126 126 126  134 134 134  132 132 132  124 124 124  182 182 182  219 219 219  196 196 196  
210 210 210  199 199 199  203 203 203  203 203 203  203 203 203  203 203 203  203 203 203  207 207 207  185 185 185  176 176 176  189 189 189  188 188 188  187 187 187  204 204 204  139 139 139  76 76 76  92 92 92  91 91 91  79 79 79  153 153 153  203 203 203  187 187 187  189 189 189  188 188 188  175 175 175  185 185 185  206 206 206  204 204 204  203 203 203  203 203 203  203 203 203  203 203 203  203 203 203  203 203 203  203 203 203  203 203 203  203 203 203  203 203 203  203 203 203  203 203 203  203 203 203  203 203 203  203 203 203  203 203 203  203 203 203  203 203 203  203 203 203  215 215 215  161 161 161  120 120 120  134 134 134  124 124 124  142 142 142  188 188 188  170 170 170  150 150 150  181 181 181  203 203 203  187 187 187  190 190 190  200 200 200  157 157 157  117 117 117  126 126 126  176 176 176  171 171 171  115 115 115  134 134 134  184 184 184  169 169 169  145 145 145  160 160 160  182 182 182  141 141 141  126 126 126  134 134 134  121 121 121  166 166 166  210 210 210  212 212 212  
206 206 206  201 201 201  203 203 203  203 203 203  203 203 203  203 203 203  204 204 204  202 202 202  182 182 182  181 181 181  133 133 133  108 108 108  115 115 115  119 119 119  104 104 104  88 88 88  92 92 92  92 92 92  89 89 89  107 107 107  119 119 119  115 115 115  106 106 106  142 142 142  186 186 186  180 180 180  201 201 201  205 205 205  203 203 203  203 203 203  203 203 203  203 203 203  203 203 203  203 203 203  203 203 203  203 203 203  203 203 203  203 203 203  203 203 203  203 203 203  203 203 203  203 203 203  203 203 203  203 203 203  203 203 203  203 203 203  205 205 205  210 210 210  150 150 150  123 123 123  130 130 130  137 137 137  185 185 185  123 123 123  66 66 66  65 65 65  78 78 78  163 163 163  203 203 203  186 186 186  189 189 189  202 202 202  210 210 210  207 207 207  161 161 161  111 111 111  137 137 137  200 200 200  151 151 151  70 70 70  66 66 66  68 68 68  133 133 133  183 183 183  132 132 132  131 131 131  122 122 122  155 155 155  210 210 210  206 206 206  
203 203 203  203 203 203  203 203 203  203 203 203  203 203 203  203 203 203  206 206 206  199 199 199  185 185 185  174 174 174  87 87 87  71 71 71  79 79 79  77 77 77  86 86 86  94 94 94  92 92 92  92 92 92  94 94 94  84 84 84  77 77 77  79 79 79  65 65 65  101 101 101  186 186 186  180 180 180  198 198 198  206 206 206  203 203 203  203 203 203  203 203 203  202 202 202  201 201 201  217 217 217  225 225 225  206 206 206  201 201 201  203 203 203  203 203 203  203 203 203  202 202 202  204 204 204  221 221 221  221 221 221  203 203 203  202 202 202  206 206 206  205 205 205  144 144 144  125 125 125  124 124 124  175 175 175  141 141 141  60 60 60  78 78 78  81 81 81  65 65 65  82 82 82  185 185 185  195 195 195  189 189 189  200 200 200  187 187 187  135 135 135  109 109 109  150 150 150  208 208 208  174 174 174  67 67 67  75 75 75  86 86 86  81 81 81  65 65 65  151 151 151  166 166 166  126 126 126  124 124 124  149 149 149  207 207 207  205 205 205  
202 202 202  203 203 203  203 203 203  203 203 203  203 203 203  203 203 203  206 206 206  197 197 197  184 184 184  174 174 174  97 97 97  85 85 85  92 92 92  92 92 92  92 92 92  92 92 92  92 92 92  92 92 92  92 92 92  92 92 92  92 92 92  92 92 92  80 80 80  109 109 109  184 184 184  180 180 180  197 197 197  206 206 206  203 203 203  203 203 203  202 202 202  206 206 206  226 226 226  183 183 183  157 157 157  203 203 203  205 205 205  203 203 203  203 203 203  201 201 201  211 211 211  223 223 223  167 167 167  167 167 167  210 210 210  203 203 203  207 207 207  203 203 203  141 141 141  126 126 126  126 126 126  177 177 177  109 109 109  66 66 66  82 82 82  81 81 81  80 80 80  67 67 67  154 154 154  209 209 209  200 200 200  174 174 174  121 121 121  115 115 115  165 165 165  199 199 199  214 214 214  136 136 136  66 66 66  86 86 86  85 85 85  86 86 86  66 66 66  127 127 127  174 174 174  125 125 125  124 124 124  147 147 147  207 207 207  205 205 205  
203 203 203  203 203 203  203 203 203  203 203 203  203 203 203  203 203 203  206 206 206  199 199 199  185 185 185  172 172 172  90 90 90  80 80 80  87 87 87  86 86 86  90 90 90  93 93 93  92 92 92  92 92 92  93 93 93  89 89 89  86 86 86  87 87 87  74 74 74  103 103 103  184 184 184  181 181 181  198 198 198  206 206 206  203 203 203  201 201 201  213 213 213  229 229 229  164 164 164  72 72 72  33 33 33  149 149 149  226 226 226  203 203 203  201 201 201  220 220 220  222 222 222  139 139 139  56 56 56  51 51 51  180 180 180  219 219 219  207 207 207  204 204 204  143 143 143  125 125 125  124 124 124  179 179 179  123 123 123  62 62 62  83 83 83  82 82 82  73 73 73  69 69 69  177 177 177  210 210 210  160 160 160  113 113 113  125 125 125  178 178 178  200 200 200  191 191 191  204 204 204  157 157 157  66 66 66  80 80 80  86 86 86  84 84 84  64 64 64  144 144 144  169 169 169  125 125 125  124 124 124  149 149 149  207 207 207  206 206 206  
205 205 205  202 202 202  203 203 203  203 203 203  203 203 203  203 203 203  204 204 204  203 203 203  185 185 185  179 179 179  109 109 109  82 82 82  91 91 91  91 91 91  92 92 92  92 92 92  92 92 92  92 92 92  92 92 92  92 92 92  91 91 91  91 91 91  79 79 79  122 122 122  187 187 187  181 181 181  201 201 201  205 205 205  200 200 200  215 215 215  219 219 219  134 134 134  60 60 60  47 47 47  66 66 66  174 174 174  219 219 219  200 200 200  222 222 222  207 207 207  109 109 109  53 53 53  47 47 47  87 87 87  196 196 196  213 213 213  205 205 205  209 209 209  149 149 149  123 123 123  127 127 127  152 152 152  178 178 178  82 82 82  62 62 62  64 64 64  61 61 61  139 139 139  206 206 206  146 146 146  109 109 109  143 143 143  197 197 197  207 207 207  191 191 191  187 187 187  190 190 190  200 200 200  122 122 122  64 64 64  66 66 66  63 63 63  114 114 114  184 184 184  137 137 137  130 130 130  123 123 123  155 155 155  209 209 209  207 207 207  
208 208 208  200 200 200  203 203 203  203 203 203  203 203 203  203 203 203  203 203 203  207 207 207  186 186 186  178 178 178  177 177 177  165 165 165  167 167 167  180 180 180  129 129 129  79 79 79  92 92 92  91 91 91  82 82 82  140 140 140  179 179 179  167 167 167  166 166 166  179 179 179  177 177 177  185 185 185  206 206 206  203 203 203  211 211 211  200 200 200  107 107 107  52 52 52  49 49 49  90 90 90  190 190 190  220 220 220  201 201 201  215 215 215  184 184 184  84 84 84  49 49 49  53 53 53  112 112 112  208 208 208  216 216 216  201 201 201  203 203 203  214 214 214  160 160 160  120 120 120  134 134 134  123 123 123  163 163 163  179 179 179  129 129 129  120 120 120  156 156 156  189 189 189  141 141 141  111 111 111  157 157 157  192 192 192  174 174 174  167 167 167  188 188 188  194 194 194  186 186 186  195 195 195  198 198 198  147 147 147  123 123 123  149 149 149  189 189 189  147 147 147  124 124 124  134 134 134  121 121 121  165 165 165  212 212 212  208 208 208  
213 213 213  198 198 198  203 203 203  203 203 203  203 203 203  203 203 203  203 203 203  207 207 207  197 197 197  174 174 174  184 184 184  189 189 189  188 188 188  205 205 205  139 139 139  75 75 75  92 92 92  91 91 91  79 79 79  154 154 154  203 203 203  188 188 188  189 189 189  183 183 183  173 173 173  196 196 196  207 207 207  203 203 203  224 224 224  165 165 165  34 34 34  50 50 50  117 117 117  212 212 212  225 225 225  202 202 202  202 202 202  229 229 229  130 130 130  21 21 21  63 63 63  142 142 142  224 224 224  218 218 218  200 200 200  203 203 203  203 203 203  215 215 215  176 176 176  121 121 121  133 133 133  133 133 133  123 123 123  151 151 151  179 179 179  181 181 181  172 172 172  132 132 132  115 115 115  155 155 155  189 189 189  146 146 146  133 133 133  134 134 134  146 146 146  185 185 185  193 193 193  186 186 186  191 191 191  209 209 209  218 218 218  194 194 194  136 136 136  122 122 122  134 134 134  132 132 132  124 124 124  181 181 181  210 210 210  213 213 213  
225 225 225  198 198 198  202 202 202  203 203 203  203 203 203  203 203 203  203 203 203  203 203 203  207 207 207  187 187 187  173 173 173  179 179 179  179 179 179  194 194 194  133 133 133  77 77 77  92 92 92  91 91 91  79 79 79  147 147 147  193 193 193  179 179 179  179 179 179  174 174 174  185 185 185  206 206 206  203 203 203  203 203 203  207 207 207  202 202 202  135 135 135  143 143 143  221 221 221  218 218 218  200 200 200  203 203 203  203 203 203  211 211 211  189 189 189  123 123 123  164 164 164  228 228 228  210 210 210  201 201 201  203 203 203  203 203 203  203 203 203  210 210 210  197 197 197  132 132 132  128 128 128  133 133 133  134 134 134  127 127 127  123 123 123  124 124 124  124 124 124  129 129 129  131 131 131  178 178 178  157 157 157  135 135 135  145 145 145  144 144 144  133 133 133  155 155 155  194 194 194  188 188 188  194 194 194  198 198 198  163 163 163  124 124 124  126 126 126  134 134 134  133 133 133  127 127 127  136 136 136  201 201 201  203 203 203  226 226 226  
255 255 255  209 209 209  196 196 196  203 203 203  203 203 203  203 203 203  203 203 203  203 203 203  205 205 205  204 204 204  181 181 181  174 174 174  179 179 179  196 196 196  132 132 132  61 61 61  76 76 76  75 75 75  65 65 65  147 147 147  195 195 195  179 179 179  174 174 174  179 179 179  203 203 203  206 206 206  203 203 203  203 203 203  201 201 201  206 206 206  223 223 223  223 223 223  207 207 207  201 201 201  203 203 203  203 203 203  203 203 203  200 200 200  210 210 210  226 226 226  219 219 219  203 203 203  202 202 202  203 203 203  203 203 203  203 203 203  203 203 203  203 203 203  214 214 214  156 156 156  119 119 119  134 134 134  133 133 133  133 133 133  133 133 133  133 133 133  133 133 133  130 130 130  140 140 140  175 175 175  144 144 144  143 143 143  144 144 144  144 144 144  140 140 140  146 146 146  186 186 186  201 201 201  192 192 192  149 149 149  122 122 122  130 130 130  134 134 134  133 133 133  134 134 134  118 118 118  161 161 161  210 210 210  209 209 209  255 255 255  
171 171 171  196 196 196  208 208 208  203 203 203  203 203 203  203 203 203  203 203 203  203 203 203  202 202 202  206 206 206  203 203 203  183 183 183  173 173 173  183 183 183  167 167 167  127 127 127  127 127 127  126 126 126  132 132 132  174 174 174  181 181 181  173 173 173  182 182 182  203 203 203  207 207 207  202 202 202  203 203 203  203 203 203  203 203 203  203 203 203  204 204 204  204 204 204  203 203 203  203 203 203  203 203 203  203 203 203  203 203 203  203 203 203  203 203 203  204 204 204  203 203 203  203 203 203  203 203 203  203 203 203  203 203 203  203 203 203  203 203 203  202 202 202  213 213 213  190 190 190  125 125 125  130 130 130  133 133 133  133 133 133  133 133 133  133 133 133  133 133 133  131 131 131  131 131 131  178 178 178  153 153 153  137 137 137  145 145 145  145 145 145  133 133 133  153 153 153  205 205 205  184 184 184  137 137 137  122 122 122  132 132 132  134 134 134  133 133 133  134 134 134  128 128 128  127 127 127  196 196 196  217 217 217  195 195 195  171 171 171  
167 167 167  206 206 206  212 212 212  201 201 201  203 203 203  203 203 203  203 203 203  203 203 203  203 203 203  202 202 202  206 206 206  206 206 206  191 191 191  177 177 177  181 181 181  191 191 191  189 189 189  190 190 190  190 190 190  179 179 179  177 177 177  190 190 190  205 205 205  207 207 207  202 202 202  203 203 203  203 203 203  203 203 203  203 203 203  203 203 203  203 203 203  203 203 203  203 203 203  203 203 203  203 203 203  203 203 203  203 203 203  203 203 203  203 203 203  203 203 203  203 203 203  203 203 203  203 203 203  203 203 203  203 203 203  203 203 203  203 203 203  203 203 203  203 203 203  216 216 216  160 160 160  117 117 117  134 134 134  133 133 133  133 133 133  133 133 133  133 133 133  133 133 133  124 124 124  159 159 159  186 186 186  141 141 141  134 134 134  134 134 134  146 146 146  192 192 192  178 178 178  128 128 128  124 124 124  134 134 134  133 133 133  133 133 133  133 133 133  133 133 133  116 116 116  168 168 168  215 215 215  212 212 212  205 205 205  167 167 167  
224 224 224  214 214 214  203 203 203  199 199 199  203 203 203  203 203 203  203 203 203  203 203 203  203 203 203  203 203 203  203 203 203  204 204 204  208 208 208  202 202 202  195 195 195  190 190 190  187 187 187  187 187 187  189 189 189  194 194 194  202 202 202  208 208 208  205 205 205  202 202 202  203 203 203  203 203 203  203 203 203  203 203 203  203 203 203  203 203 203  203 203 203  203 203 203  203 203 203  203 203 203  203 203 203  203 203 203  203 203 203  203 203 203  203 203 203  203 203 203  203 203 203  203 203 203  203 203 203  203 203 203  203 203 203  203 203 203  203 203 203  203 203 203  202 202 202  210 210 210  208 208 208  138 138 138  120 120 120  135 135 135  133 133 133  133 133 133  133 133 133  133 133 133  132 132 132  126 126 126  165 165 165  184 184 184  170 170 170  172 172 172  187 187 187  164 164 164  123 123 123  127 127 127  134 134 134  133 133 133  133 133 133  133 133 133  134 134 134  119 119 119  145 145 145  211 211 211  204 204 204  203 203 203  214 214 214  224 224 224  
209 209 209  208 208 208  211 211 211  209 209 209  199 199 199  203 203 203  203 203 203  203 203 203  203 203 203  203 203 203  203 203 203  203 203 203  203 203 203  205 205 205  207 207 207  207 207 207  206 206 206  206 206 206  207 207 207  207 207 207  205 205 205  203 203 203  203 203 203  203 203 203  203 203 203  203 203 203  203 203 203  203 203 203  203 203 203  203 203 203  203 203 203  203 203 203  203 203 203  203 203 203  203 203 203  203 203 203  203 203 203  203 203 203  203 203 203  203 203 203  203 203 203  203 203 203  203 203 203  203 203 203  203 203 203  203 203 203  203 203 203  203 203 203  203 203 203  202 202 202  214 214 214  199 199 199  129 129 129  121 121 121  134 134 134  133 133 133  133 133 133  133 133 133  134 134 134  131 131 131  125 125 125  148 148 148  165 165 165  165 165 165  144 144 144  123 123 123  130 130 130  134 134 134  133 133 133  133 133 133  133 133 133  134 134 134  120 120 120  134 134 134  203 203 203  209 209 209  208 208 208  211 211 211  208 208 208  209 209 209  
253 253 253  253 253 253  253 253 253  236 236 236  199 199 199  199 199 199  203 203 203  203 203 203  203 203 203  203 203 203  203 203 203  203 203 203  203 203 203  203 203 203  203 203 203  203 203 203  203 203 203  203 203 203  203 203 203  203 203 203  203 203 203  203 203 203  203 203 203  203 203 203  203 203 203  203 203 203  203 203 203  203 203 203  203 203 203  203 203 203  203 203 203  203 203 203  203 203 203  203 203 203  203 203 203  203 203 203  203 203 203  203 203 203  203 203 203  203 203 203  203 203 203  203 203 203  203 203 203  203 203 203  203 203 203  203 203 203  203 203 203  203 203 203  203 203 203  203 203 203  201 201 201  216 216 216  196 196 196  132 132 132  118 118 118  133 133 133  134 134 134  133 133 133  133 133 133  134 134 134  133 133 133  127 127 127  124 124 124  124 124 124  128 128 128  133 133 133  133 133 133  133 133 133  133 133 133  134 134 134  132 132 132  117 117 117  136 136 136  202 202 202  211 211 211  198 198 198  236 236 236  253 253 253  253 253 253  253 253 253  
255 255 255  255 255 255  255 255 255  239 239 239  213 213 213  204 204 204  201 201 201  203 203 203  203 203 203  203 203 203  203 203 203  203 203 203  203 203 203  203 203 203  203 203 203  203 203 203  203 203 203  203 203 203  203 203 203  203 203 203  203 203 203  203 203 203  203 203 203  203 203 203  203 203 203  203 203 203  202 202 202  200 200 200  201 201 201  201 201 201  201 201 201  201 201 201  201 201 201  201 201 201  201 201 201  201 201 201  201 201 201  201 201 201  201 201 201  201 201 201  201 201 201  201 201 201  201 201 201  201 201 201  201 201 201  201 201 201  201 201 201  201 201 201  201 201 201  201 201 201  201 201 201  200 200 200  213 213 213  202 202 202  148 148 148  118 118 118  124 124 124  133 133 133  133 133 133  133 133 133  133 133 133  133 133 133  133 133 133  133 133 133  133 133 133  133 133 133  133 133 133  134 134 134  133 133 133  123 123 123  119 119 119  152 152 152  206 206 206  211 211 211  203 203 203  209 209 209  237 237 237  255 255 255  255 255 255  255 255 255  
255 255 255  255 255 255  255 255 255  236 236 236  215 215 215  218 218 218  205 205 205  200 200 200  202 202 202  203 203 203  203 203 203  203 203 203  203 203 203  203 203 203  203 203 203  203 203 203  203 203 203  203 203 203  203 203 203  203 203 203  203 203 203  203 203 203  203 203 203  203 203 203  203 203 203  201 201 201  204 204 204  213 213 213  215 215 215  214 214 214  214 214 214  214 214 214  214 214 214  214 214 214  214 214 214  214 214 214  214 214 214  214 214 214  214 214 214  214 214 214  214 214 214  214 214 214  214 214 214  214 214 214  214 214 214  214 214 214  214 214 214  214 214 214  214 214 214  214 214 214  214 214 214  215 215 215  212 212 212  220 220 220  209 209 209  175 175 175  138 138 138  120 120 120  121 121 121  128 128 128  131 131 131  133 133 133  133 133 133  133 133 133  132 132 132  131 131 131  127 127 127  121 121 121  121 121 121  141 141 141  178 178 178  213 213 213  209 209 209  205 205 205  217 217 217  211 211 211  233 233 233  255 255 255  255 255 255  255 255 255  
255 255 255  255 255 255  255 255 255  236 236 236  214 214 214  216 216 216  210 210 210  209 209 209  208 208 208  212 212 212  201 201 201  202 202 202  203 203 203  203 203 203  203 203 203  203 203 203  203 203 203  203 203 203  203 203 203  203 203 203  203 203 203  203 203 203  201 201 201  207 207 207  212 212 212  206 206 206  203 203 203  218 218 218  225 225 225  221 221 221  221 221 221  221 221 221  221 221 221  221 221 221  221 221 221  221 221 221  221 221 221  221 221 221  221 221 221  221 221 221  221 221 221  221 221 221  221 221 221  221 221 221  221 221 221  221 221 221  221 221 221  221 221 221  221 221 221  221 221 221  221 221 221  222 222 222  217 217 217  194 194 194  206 206 206  211 211 211  204 204 204  175 175 175  152 152 152  136 136 136  126 126 126  123 123 123  122 122 122  122 122 122  123 123 123  127 127 127  136 136 136  154 154 154  178 178 178  204 204 204  225 225 225  210 210 210  205 205 205  212 212 212  216 216 216  209 209 209  234 234 234  255 255 255  255 255 255  255 255 255  
255 255 255  255 255 255  255 255 255  236 236 236  214 214 214  214 214 214  208 208 208  227 227 227  204 204 204  188 188 188  213 213 213  210 210 210  203 203 203  202 202 202  202 202 202  203 203 203  203 203 203  203 203 203  203 203 203  201 201 201  203 203 203  212 212 212  205 205 205  204 204 204  201 201 201  217 217 217  194 194 194  212 212 212  224 224 224  219 219 219  219 219 219  219 219 219  219 219 219  219 219 219  219 219 219  219 219 219  219 219 219  219 219 219  219 219 219  219 219 219  219 219 219  219 219 219  219 219 219  219 219 219  219 219 219  219 219 219  219 219 219  219 219 219  219 219 219  219 219 219  219 219 219  221 221 221  202 202 202  158 158 158  231 231 231  215 215 215  202 202 202  215 215 215  221 221 221  201 201 201  183 183 183  177 177 177  173 173 173  173 173 173  178 178 178  186 186 186  198 198 198  212 212 212  208 208 208  206 206 206  191 191 191  205 205 205  221 221 221  209 209 209  215 215 215  209 209 209  234 234 234  255 255 255  255 255 255  255 255 255  
255 255 255  255 255 255  255 255 255  236 236 236  214 214 214  214 214 214  208 208 208  242 242 242  178 178 178  119 119 119  198 198 198  195 195 195  214 214 214  215 215 215  200 200 200  206 206 206  194 194 194  194 194 194  197 197 197  201 201 201  206 206 206  198 198 198  226 226 226  119 119 119  106 106 106  230 230 230  196 196 196  213 213 213  223 223 223  219 219 219  219 219 219  219 219 219  219 219 219  219 219 219  219 219 219  219 219 219  219 219 219  219 219 219  219 219 219  219 219 219  219 219 219  219 219 219  219 219 219  219 219 219  219 219 219  219 219 219  219 219 219  219 219 219  219 219 219  219 219 219  219 219 219  221 221 221  204 204 204  160 160 160  243 243 243  228 228 228  213 213 213  215 215 215  201 201 201  207 207 207  211 211 211  209 209 209  206 206 206  206 206 206  218 218 218  211 211 211  203 203 203  205 205 205  227 227 227  227 227 227  112 112 112  178 178 178  236 236 236  209 209 209  215 215 215  209 209 209  234 234 234  255 255 255  255 255 255  255 255 255  
255 255 255  255 255 255  255 255 255  236 236 236  214 214 214  214 214 214  208 208 208  240 240 240  181 181 181  125 125 125  172 172 172  155 155 155  153 153 153  167 167 167  228 228 228  196 196 196  229 229 229  228 228 228  220 220 220  246 246 246  176 176 176  84 84 84  231 231 231  104 104 104  97 97 97  234 234 234  197 197 197  213 213 213  223 223 223  219 219 219  219 219 219  219 219 219  219 219 219  219 219 219  219 219 219  219 219 219  219 219 219  219 219 219  219 219 219  219 219 219  219 219 219  219 219 219  219 219 219  219 219 219  219 219 219  219 219 219  219 219 219  219 219 219  219 219 219  219 219 219  219 219 219  221 221 221  204 204 204  161 161 161  240 240 240  220 220 220  230 230 230  219 219 219  57 57 57  164 164 164  246 246 246  217 217 217  228 228 228  229 229 229  196 196 196  218 218 218  241 241 241  187 187 187  249 249 249  241 241 241  105 105 105  182 182 182  234 234 234  209 209 209  215 215 215  209 209 209  234 234 234  255 255 255  255 255 255  255 255 255  
255 255 255  255 255 255  255 255 255  255 255 255  255 255 255  255 255 255  255 255 255  255 255 255  255 255 255  255 255 255  255 255 255  255 255 255  255 255 255  255 255 255  255 255 255  255 255 255  255 255 255  255 255 255  255 255 255  255 255 255  255 255 255  255 255 255  255 255 255  255 255 255  255 255 255  255 255 255  255 255 255  255 255 255  255 255 255  255 255 255  255 255 255  255 255 255  255 255 255  255 255 255  255 255 255  255 255 255  255 255 255  255 255 255  255 255 255  255 255 255  255 255 255  255 255 255  255 255 255  255 255 255  255 255 255  255 255 255  255 255 255  255 255 255  255 255 255  255 255 255  255 255 255  255 255 255  255 255 255  255 255 255  255 255 255  255 255 255  255 255 255  255 255 255  255 255 255  255 255 255  255 255 255  255 255 255  255 255 255  255 255 255  255 255 255  255 255 255  255 255 255  255 255 255  255 255 255  255 255 255  255 255 255  255 255 255  255 255 255  255 255 255  255 255 255  255 255 255  255 255 255  255 255 255  255 255 255  255 255 255  
255 255 255  255 255 255  255 255 255  255 255 255  255 255 255  255 255 255  255 255 255  255 255 255  255 255 255  255 255 255  255 255 255  255 255 255  255 255 255  255 255 255  255 255 255  255 255 255  255 255 255  255 255 255  255 255 255  255 255 255  255 255 255  255 255 255  255 255 255  255 255 255  255 255 255  255 255 255  255 255 255  255 255 255  255 255 255  255 255 255  255 255 255  255 255 255  255 255 255  255 255 255  255 255 255  255 255 255  255 255 255  255 255 255  255 255 255  255 255 255  255 255 255  255 255 255  255 255 255  255 255 255  255 255 255  255 255 255  255 255 255  255 255 255  255 255 255  255 255 255  255 255 255  255 255 255  255 255 255  255 255 255  255 255 255  255 255 255  255 255 255  255 255 255  255 255 255  255 255 255  255 255 255  255 255 255  255 255 255  255 255 255  255 255 255  255 255 255  255 255 255  255 255 255  255 255 255  255 255 255  255 255 255  255 255 255  255 255 255  255 255 255  255 255 255  255 255 255  255 255 255  255 255 255  255 255 255  255 255 255  
