P3
# Created by PPMWriter
80 40
255
255 255 255  255 255 255  255 255 255  255 255 255  255 255 255  255 255 255  255 255 255  255 255 255  255 255 255  255 255 255  255 255 255  255 255 255  255 255 255  255 255 255  255 255 255  255 255 255  255 255 255  255 255 255  255 255 255  255 255 255  255 255 255  255 255 255  255 255 255  255 255 255  255 255 255  255 255 255  255 255 255  255 255 255  255 255 255  255 255 255  255 255 255  255 255 255  255 255 255  255 255 255  255 255 255  255 255 255  255 255 255  255 255 255  255 255 255  255 255 255  255 255 255  255 255 255  255 255 255  255 255 255  255 255 255  255 255 255  255 255 255  255 255 255  255 255 255  255 255 255  255 255 255  255 255 255  255 255 255  255 255 255  255 255 255  255 255 255  255 255 255  255 255 255  255 255 255  255 255 255  255 255 255  255 255 255  255 255 255  255 255 255  255 255 255  255 255 255  255 255 255  255 255 255  255 255 255  255 255 255  255 255 255  255 255 255  255 255 255  255 255 255  255 255 255  255 255 255  255 255 255  255 255 255  255 255 255  255 255 255  
255 255 255  255 255 255  255 255 255  255 255 255  255 255 255  255 255 255  255 255 255  255 255 255  255 255 255  255 255 255  255 255 255  255 255 255  255 255 255  255 255 255  255 255 255  255 255 255  255 255 255  255 255 255  255 255 255  255 255 255  255 255 255  255 255 255  255 255 255  255 255 255  255 255 255  255 255 255  255 255 255  255 255 255  255 255 255  255 255 255  255 255 255  255 255 255  255 255 255  255 255 255  255 255 255  255 255 255  255 255 255  255 255 255  255 255 255  255 255 255  255 255 255  255 255 255  255 255 255  255 255 255  255 255 255  255 255 255  255 255 255  255 255 255  255 255 255  255 255 255  255 255 255  255 255 255  255 255 255  255 255 255  255 255 255  255 255 255  255 255 255  255 255 255  255 255 255  255 255 255  255 255 255  255 255 255  255 255 255  255 255 255  255 255 255  255 255 255  255 255 255  255 255 255  255 255 255  255 255 255  255 255 255  255 255 255  255 255 255  255 255 255  255 255 255  255 255 255  255 255 255  255 255 255  255 255 255  255 255 255  
0 0 0  0 0 0  0 0 0  0 0 0  174 174 174  255 255 255  151 151 151  116 116 116  142 142 142  137 137 137  80 80 80  110 110 110  241 241 241  119 119 119  103 103 103  158 158 158  188 188 188  164 164 164  186 186 186  160 160 160  168 168 168  169 169 169  196 196 196  201 201 201  201 201 201  165 165 165  175 175 175  232 232 232  227 227 227  226 226 226  213 213 213  214 214 214  255 255 255  255 255 255  254 254 254  228 228 228  223 223 223  226 226 226  226 226 226  226 226 226  226 226 226  226 226 226  226 226 226  223 223 223  228 228 228  254 254 254  255 255 255  255 255 255  214 214 214  213 213 213  226 226 226  226 226 226  236 236 236  190 190 190  166 166 166  200 200 200  201 201 201  181 181 181  154 154 154  174 174 174  159 159 159  187 187 187  170 170 170  129 129 129  152 152 152  161 161 161  157 157 157  87 87 87  95 95 95  145 145 145  172 172 172  60 60 60  0 0 0  0 0 0  19 19 19  127 127 127  6 6 6  0 0 0  0 0 0  0 0 0  
0 0 0  0 0 0  0 0 0  0 0 0  175 175 175  255 255 255  140 140 140  105 105 105  135 135 135  138 138 138  130 130 130  157 157 157  175 175 175  188 188 188  201 201 201  191 191 191  176 176 176  185 185 185  176 176 176  189 189 189  187 187 187  186 186 186  174 174 174  172 172 172  171 171 171  182 182 182  211 211 211  216 216 216  212 212 212  211 211 211  216 216 216  221 221 221  211 211 211  212 212 212  212 212 212  212 212 212  212 212 212  212 212 212  212 212 212  212 212 212  212 212 212  212 212 212  212 212 212  212 212 212  212 212 212  212 212 212  212 212 212  211 211 211  222 222 222  216 216 216  211 211 211  212 212 212  215 215 215  211 211 211  184 184 184  171 171 171  172 172 172  181 181 181  193 193 193  184 184 184  189 189 189  175 175 175  183 183 183  203 203 203  193 193 193  180 180 180  180 180 180  173 173 173  148 148 148  154 154 154  173 173 173  42 42 42  0 0 0  0 0 0  0 0 0  119 119 119  7 7 7  0 0 0  0 0 0  0 0 0  
0 0 0  0 0 0  0 0 0  0 0 0  173 173 173  255 255 255  168 168 168  125 125 125  150 150 150  169 169 169  193 193 193  199 199 199  193 193 193  205 205 205  207 207 207  207 207 207  207 207 207  207 207 207  207 207 207  207 207 207  207 207 207  207 207 207  207 207 207  207 207 207  207 207 207  208 208 208  201 201 201  196 196 196  197 197 197  198 198 198  197 197 197  195 195 195  195 195 195  195 195 195  195 195 195  197 197 197  198 198 198  197 197 197  197 197 197  197 197 197  197 197 197  197 197 197  197 197 197  198 198 198  197 197 197  195 195 195  195 195 195  195 195 195  195 195 195  197 197 197  198 198 198  197 197 197  196 196 196  200 200 200  207 207 207  207 207 207  207 207 207  206 206 206  207 207 207  211 211 211  215 215 215  218 218 218  218 218 218  218 218 218  218 218 218  215 215 215  209 209 209  204 204 204  198 198 198  186 186 186  173 173 173  121 121 121  109 109 109  120 120 120  130 130 130  148 148 148  3 3 3  0 0 0  0 0 0  0 0 0  
0 0 0  0 0 0  0 0 0  0 0 0  170 170 170  255 255 255  233 233 233  220 220 220  199 199 199  192 192 192  206 206 206  207 207 207  203 203 203  201 201 201  201 201 201  201 201 201  201 201 201  201 201 201  201 201 201  201 201 201  201 201 201  201 201 201  201 201 201  201 201 201  201 201 201  201 201 201  201 201 201  201 201 201  201 201 201  201 201 201  201 201 201  201 201 201  201 201 201  201 201 201  201 201 201  201 201 201  201 201 201  201 201 201  201 201 201  201 201 201  201 201 201  201 201 201  201 201 201  201 201 201  201 201 201  201 201 201  201 201 201  201 201 201  201 201 201  201 201 201  201 201 201  201 201 201  201 201 201  201 201 201  201 201 201  200 200 200  204 204 204  213 213 213  212 212 212  202 202 202  189 189 189  181 181 181  177 177 177  177 177 177  182 182 182  191 191 191  203 203 203  215 215 215  219 219 219  209 209 209  187 187 187  205 205 205  246 246 246  255 255 255  255 255 255  181 181 181  0 0 0  0 0 0  0 0 0  0 0 0  
0 0 0  0 0 0  0 0 0  0 0 0  170 170 170  255 255 255  229 229 229  207 207 207  206 206 206  205 205 205  201 201 201  201 201 201  201 201 201  201 201 201  201 201 201  201 201 201  201 201 201  201 201 201  201 201 201  201 201 201  201 201 201  201 201 201  201 201 201  201 201 201  201 201 201  201 201 201  201 201 201  201 201 201  201 201 201  201 201 201  201 201 201  201 201 201  201 201 201  201 201 201  201 201 201  201 201 201  201 201 201  201 201 201  201 201 201  201 201 201  201 201 201  201 201 201  201 201 201  201 201 201  201 201 201  201 201 201  201 201 201  201 201 201  201 201 201  201 201 201  201 201 201  201 201 201  201 201 201  200 200 200  202 202 202  215 215 215  208 208 208  179 179 179  154 154 154  137 137 137  127 127 127  122 122 122  120 120 120  120 120 120  122 122 122  128 128 128  138 138 138  156 156 156  182 182 182  210 210 210  218 218 218  207 207 207  202 202 202  221 221 221  255 255 255  173 173 173  0 0 0  0 0 0  0 0 0  0 0 0  
0 0 0  0 0 0  0 0 0  0 0 0  170 170 170  255 255 255  205 205 205  197 197 197  201 201 201  201 201 201  201 201 201  201 201 201  201 201 201  201 201 201  201 201 201  201 201 201  201 201 201  201 201 201  201 201 201  201 201 201  201 201 201  201 201 201  201 201 201  201 201 201  201 201 201  201 201 201  201 201 201  201 201 201  201 201 201  201 201 201  201 201 201  201 201 201  201 201 201  201 201 201  201 201 201  201 201 201  201 201 201  201 201 201  201 201 201  201 201 201  201 201 201  201 201 201  201 201 201  201 201 201  201 201 201  201 201 201  201 201 201  201 201 201  201 201 201  201 201 201  201 201 201  201 201 201  200 200 200  209 209 209  214 214 214  179 179 179  139 139 139  118 118 118  115 115 115  121 121 121  126 126 126  128 128 128  128 128 128  128 128 128  127 127 127  125 125 125  121 121 121  115 115 115  119 119 119  142 142 142  183 183 183  215 215 215  203 203 203  202 202 202  255 255 255  173 173 173  0 0 0  0 0 0  0 0 0  0 0 0  
103 103 103  103 103 103  99 99 99  64 64 64  173 173 173  227 227 227  196 196 196  202 202 202  201 201 201  201 201 201  201 201 201  201 201 201  201 201 201  201 201 201  201 201 201  201 201 201  201 201 201  201 201 201  201 201 201  201 201 201  201 201 201  201 201 201  201 201 201  201 201 201  201 201 201  201 201 201  201 201 201  201 201 201  201 201 201  201 201 201  201 201 201  201 201 201  201 201 201  201 201 201  201 201 201  201 201 201  201 201 201  201 201 201  201 201 201  201 201 201  201 201 201  201 201 201  201 201 201  201 201 201  201 201 201  201 201 201  201 201 201  201 201 201  201 201 201  201 201 201  201 201 201  200 200 200  212 212 212  205 205 205  152 152 152  115 115 115  117 117 117  128 128 128  129 129 129  129 129 129  129 129 129  129 129 129  129 129 129  129 129 129  129 129 129  129 129 129  129 129 129  130 130 130  128 128 128  116 116 116  116 116 116  156 156 156  209 209 209  207 207 207  226 226 226  175 175 175  65 65 65  99 99 99  103 103 103  103 103 103  
172 172 172  172 172 172  165 165 165  248 248 248  211 211 211  194 194 194  201 201 201  201 201 201  201 201 201  201 201 201  201 201 201  201 201 201  201 201 201  201 201 201  201 201 201  201 201 201  201 201 201  201 201 201  201 201 201  201 201 201  201 201 201  201 201 201  201 201 201  201 201 201  201 201 201  201 201 201  201 201 201  201 201 201  201 201 201  201 201 201  201 201 201  201 201 201  201 201 201  201 201 201  201 201 201  201 201 201  201 201 201  201 201 201  201 201 201  201 201 201  201 201 201  201 201 201  201 201 201  201 201 201  201 201 201  201 201 201  201 201 201  201 201 201  201 201 201  201 201 201  199 199 199  213 213 213  200 200 200  134 134 134  112 112 112  127 127 127  130 130 130  129 129 129  129 129 129  129 129 129  129 129 129  126 126 126  122 122 122  122 122 122  127 127 127  130 130 130  129 129 129  129 129 129  129 129 129  130 130 130  126 126 126  111 111 111  139 139 139  204 204 204  204 204 204  210 210 210  249 249 249  164 164 164  172 172 172  172 172 172  
0 0 0  0 0 0  11 11 11  224 224 224  210 210 210  201 201 201  201 201 201  201 201 201  201 201 201  201 201 201  201 201 201  201 201 201  201 201 201  203 203 203  206 206 206  205 205 205  203 203 203  203 203 203  205 205 205  206 206 206  203 203 203  201 201 201  201 201 201  201 201 201  201 201 201  201 201 201  201 201 201  201 201 201  201 201 201  201 201 201  201 201 201  201 201 201  201 201 201  201 201 201  201 201 201  201 201 201  201 201 201  201 201 201  201 201 201  201 201 201  201 201 201  201 201 201  201 201 201  201 201 201  201 201 201  201 201 201  201 201 201  201 201 201  201 201 201  199 199 199  211 211 211  201 201 201  130 130 130  115 115 115  130 130 130  129 129 129  129 129 129  129 129 129  130 130 130  128 128 128  117 117 117  137 137 137  170 170 170  166 166 166  130 130 130  119 119 119  130 130 130  129 129 129  129 129 129  129 129 129  129 129 129  129 129 129  113 113 113  136 136 136  205 205 205  218 218 218  222 222 222  12 12 12  0 0 0  0 0 0  
135 135 135  138 138 138  185 185 185  219 219 219  199 199 199  201 201 201  201 201 201  201 201 201  201 201 201  201 201 201  201 201 201  203 203 203  206 206 206  200 200 200  191 191 191  186 186 186  183 183 183  183 183 183  185 185 185  191 191 191  199 199 199  206 206 206  203 203 203  201 201 201  201 201 201  201 201 201  201 201 201  201 201 201  201 201 201  201 201 201  201 201 201  201 201 201  201 201 201  201 201 201  201 201 201  201 201 201  201 201 201  201 201 201  201 201 201  201 201 201  201 201 201  201 201 201  201 201 201  201 201 201  201 201 201  201 201 201  201 201 201  201 201 201  200 200 200  206 206 206  209 209 209  139 139 139  114 114 114  130 130 130  129 129 129  129 129 129  129 129 129  130 130 130  125 125 125  113 113 113  168 168 168  184 184 184  135 135 135  139 139 139  186 186 186  153 153 153  117 117 117  130 130 130  129 129 129  129 129 129  129 129 129  129 129 129  130 130 130  113 113 113  146 146 146  210 210 210  225 225 225  179 179 179  133 133 133  135 135 135  
255 255 255  255 255 255  214 214 214  191 191 191  201 201 201  201 201 201  201 201 201  201 201 201  201 201 201  201 201 201  204 204 204  203 203 203  187 187 187  175 175 175  175 175 175  185 185 185  186 186 186  187 187 187  184 184 184  173 173 173  175 175 175  187 187 187  202 202 202  205 205 205  201 201 201  201 201 201  201 201 201  201 201 201  201 201 201  201 201 201  201 201 201  201 201 201  201 201 201  201 201 201  201 201 201  201 201 201  201 201 201  201 201 201  201 201 201  201 201 201  201 201 201  201 201 201  201 201 201  201 201 201  201 201 201  201 201 201  201 201 201  201 201 201  201 201 201  215 215 215  162 162 162  112 112 112  129 129 129  129 129 129  129 129 129  129 129 129  130 130 130  121 121 121  118 118 118  180 180 180  179 179 179  42 42 42  0 0 0  0 0 0  61 61 61  181 181 181  147 147 147  123 123 123  129 129 129  129 129 129  129 129 129  129 129 129  129 129 129  128 128 128  112 112 112  170 170 170  207 207 207  210 210 210  255 255 255  255 255 255  
235 235 235  211 211 211  194 194 194  202 202 202  201 201 201  201 201 201  201 201 201  201 201 201  201 201 201  205 205 205  200 200 200  179 179 179  171 171 171  177 177 177  176 176 176  156 156 156  153 153 153  152 152 152  160 160 160  179 179 179  176 176 176  171 171 171  178 178 178  199 199 199  205 205 205  200 200 200  201 201 201  201 201 201  201 201 201  201 201 201  201 201 201  201 201 201  201 201 201  201 201 201  201 201 201  201 201 201  201 201 201  201 201 201  201 201 201  201 201 201  201 201 201  201 201 201  201 201 201  201 201 201  201 201 201  201 201 201  201 201 201  201 201 201  210 210 210  192 192 192  123 123 123  124 124 124  129 129 129  129 129 129  129 129 129  129 129 129  118 118 118  127 127 127  179 179 179  214 214 214  47 47 47  0 0 0  20 20 20  18 18 18  0 0 0  80 80 80  184 184 184  122 122 122  129 129 129  129 129 129  129 129 129  129 129 129  129 129 129  130 130 130  122 122 122  126 126 126  198 198 198  203 203 203  211 211 211  235 235 235  
234 234 234  195 195 195  199 199 199  201 201 201  201 201 201  201 201 201  201 201 201  201 201 201  204 204 204  201 201 201  177 177 177  172 172 172  177 177 177  192 192 192  140 140 140  71 71 71  81 81 81  79 79 79  76 76 76  153 153 153  190 190 190  177 177 177  172 172 172  176 176 176  201 201 201  204 204 204  201 201 201  201 201 201  201 201 201  201 201 201  201 201 201  201 201 201  201 201 201  201 201 201  201 201 201  201 201 201  201 201 201  201 201 201  201 201 201  201 201 201  201 201 201  201 201 201  201 201 201  201 201 201  201 201 201  201 201 201  201 201 201  201 201 201  213 213 213  155 155 155  114 114 114  130 130 130  129 129 129  130 130 130  127 127 127  116 116 116  137 137 137  184 184 184  216 216 216  162 162 162  6 6 6  11 11 11  20 20 20  20 20 20  3 3 3  34 34 34  166 166 166  135 135 135  128 128 128  129 129 129  129 129 129  129 129 129  129 129 129  129 129 129  130 130 130  113 113 113  161 161 161  214 214 214  195 195 195  233 233 233  
211 211 211  200 200 200  201 201 201  201 201 201  201 201 201  201 201 201  201 201 201  202 202 202  205 205 205  183 183 183  172 172 172  177 177 177  177 177 177  193 193 193  129 129 129  71 71 71  88 88 88  88 88 88  73 73 73  142 142 142  192 192 192  177 177 177  178 178 178  172 172 172  182 182 182  204 204 204  202 202 202  201 201 201  201 201 201  201 201 201  201 201 201  201 201 201  201 201 201  201 201 201  201 201 201  201 201 201  201 201 201  201 201 201  201 201 201  201 201 201  201 201 201  201 201 201  201 201 201  201 201 201  201 201 201  201 201 201  201 201 201  207 207 207  197 197 197  129 129 129  123 123 123  129 129 129  130 130 130  124 124 124  117 117 117  150 150 150  193 193 193  194 194 194  197 197 197  181 181 181  18 18 18  0 0 0  22 22 22  22 22 22  0 0 0  51 51 51  178 178 178  128 128 128  128 128 128  122 122 122  119 119 119  122 122 122  128 128 128  130 130 130  129 129 129  121 121 121  134 134 134  201 201 201  205 205 205  211 211 211  
189 189 189  208 208 208  201 201 201  201 201 201  201 201 201  201 201 201  201 201 201  205 205 205  194 194 194  173 173 173  178 178 178  179 179 179  179 179 179  194 194 194  134 134 134  75 75 75  90 90 90  89 89 89  78 78 78  147 147 147  193 193 193  179 179 179  179 179 179  178 178 178  172 172 172  193 193 193  205 205 205  201 201 201  201 201 201  201 201 201  201 201 201  201 201 201  201 201 201  201 201 201  201 201 201  201 201 201  201 201 201  201 201 201  201 201 201  201 201 201  201 201 201  201 201 201  201 201 201  201 201 201  201 201 201  201 201 201  201 201 201  214 214 214  175 175 175  117 117 117  129 129 129  130 130 130  119 119 119  127 127 127  188 188 188  226 226 226  205 205 205  183 183 183  185 185 185  212 212 212  117 117 117  0 0 0  0 0 0  0 0 0  0 0 0  149 149 149  170 170 170  115 115 115  121 121 121  139 139 139  148 148 148  140 140 140  122 122 122  123 123 123  130 130 130  128 128 128  120 120 120  180 180 180  219 219 219  191 191 191  
207 207 207  198 198 198  201 201 201  201 201 201  201 201 201  201 201 201  201 201 201  205 205 205  183 183 183  174 174 174  187 187 187  186 186 186  185 185 185  202 202 202  137 137 137  74 74 74  90 90 90  89 89 89  77 77 77  151 151 151  201 201 201  185 185 185  187 187 187  186 186 186  173 173 173  183 183 183  204 204 204  202 202 202  201 201 201  201 201 201  201 201 201  201 201 201  201 201 201  201 201 201  201 201 201  201 201 201  201 201 201  201 201 201  201 201 201  201 201 201  201 201 201  201 201 201  201 201 201  201 201 201  201 201 201  201 201 201  201 201 201  213 213 213  157 157 157  115 115 115  130 130 130  118 118 118  143 143 143  191 191 191  153 153 153  128 128 128  175 175 175  210 210 210  185 185 185  190 190 190  207 207 207  131 131 131  61 61 61  73 73 73  157 157 157  178 178 178  111 111 111  125 125 125  167 167 167  191 191 191  195 195 195  192 192 192  170 170 170  128 128 128  123 123 123  130 130 130  116 116 116  163 163 163  209 209 209  210 210 210  
204 204 204  199 199 199  201 201 201  201 201 201  201 201 201  201 201 201  203 203 203  200 200 200  181 181 181  179 179 179  131 131 131  105 105 105  113 113 113  117 117 117  102 102 102  86 86 86  90 90 90  90 90 90  87 87 87  105 105 105  117 117 117  113 113 113  104 104 104  140 140 140  184 184 184  178 178 178  199 199 199  203 203 203  201 201 201  201 201 201  201 201 201  201 201 201  201 201 201  201 201 201  201 201 201  201 201 201  201 201 201  201 201 201  201 201 201  201 201 201  201 201 201  201 201 201  201 201 201  201 201 201  201 201 201  201 201 201  203 203 203  208 208 208  146 146 146  118 118 118  126 126 126  136 136 136  185 185 185  79 79 79  0 0 0  0 0 0  16 16 16  146 146 146  210 210 210  182 182 182  189 189 189  211 211 211  217 217 217  215 215 215  168 168 168  105 105 105  131 131 131  183 183 183  200 200 200  190 190 190  187 187 187  190 190 190  203 203 203  172 172 172  123 123 123  127 127 127  117 117 117  151 151 151  209 209 209  205 205 205  
202 202 202  201 201 201  201 201 201  201 201 201  201 201 201  201 201 201  204 204 204  197 197 197  183 183 183  172 172 172  85 85 85  69 69 69  77 77 77  75 75 75  84 84 84  92 92 92  90 90 90  90 90 90  92 92 92  82 82 82  75 75 75  77 77 77  63 63 63  99 99 99  184 184 184  178 178 178  196 196 196  204 204 204  201 201 201  201 201 201  201 201 201  200 200 200  199 199 199  215 215 215  223 223 223  204 204 204  199 199 199  201 201 201  201 201 201  201 201 201  200 200 200  202 202 202  220 220 220  219 219 219  201 201 201  200 200 200  204 204 204  203 203 203  140 140 140  121 121 121  120 120 120  182 182 182  107 107 107  0 0 0  14 14 14  19 19 19  0 0 0  21 21 21  182 182 182  198 198 198  187 187 187  198 198 198  186 186 186  132 132 132  104 104 104  146 146 146  192 192 192  196 196 196  186 186 186  187 187 187  187 187 187  187 187 187  189 189 189  195 195 195  145 145 145  121 121 121  119 119 119  145 145 145  206 206 206  204 204 204  
201 201 201  201 201 201  201 201 201  201 201 201  201 201 201  201 201 201  204 204 204  195 195 195  182 182 182  172 172 172  95 95 95  83 83 83  90 90 90  90 90 90  90 90 90  90 90 90  90 90 90  90 90 90  90 90 90  90 90 90  90 90 90  90 90 90  78 78 78  107 107 107  182 182 182  178 178 178  195 195 195  204 204 204  201 201 201  201 201 201  200 200 200  204 204 204  224 224 224  181 181 181  155 155 155  201 201 201  203 203 203  201 201 201  201 201 201  199 199 199  209 209 209  221 221 221  165 165 165  165 165 165  208 208 208  201 201 201  205 205 205  201 201 201  137 137 137  122 122 122  123 123 123  180 180 180  57 57 57  0 0 0  21 21 21  20 20 20  18 18 18  0 0 0  134 134 134  217 217 217  199 199 199  171 171 171  117 117 117  110 110 110  162 162 162  197 197 197  192 192 192  185 185 185  187 187 187  187 187 187  187 187 187  187 187 187  187 187 187  197 197 197  155 155 155  119 119 119  119 119 119  143 143 143  205 205 205  204 204 204  
201 201 201  201 201 201  201 201 201  201 201 201  201 201 201  201 201 201  204 204 204  197 197 197  183 183 183  170 170 170  88 88 88  78 78 78  85 85 85  84 84 84  88 88 88  91 91 91  90 90 90  90 90 90  91 91 91  87 87 87  84 84 84  85 85 85  73 73 73  101 101 101  181 181 181  179 179 179  196 196 196  204 204 204  201 201 201  199 199 199  211 211 211  227 227 227  162 162 162  70 70 70  31 31 31  147 147 147  225 225 225  201 201 201  199 199 199  218 218 218  220 220 220  137 137 137  54 54 54  48 48 48  178 178 178  218 218 218  205 205 205  203 203 203  139 139 139  121 121 121  120 120 120  185 185 185  78 78 78  0 0 0  23 23 23  21 21 21  7 7 7  1 1 1  166 166 166  215 215 215  156 156 156  107 107 107  121 121 121  175 175 175  199 199 199  189 189 189  185 185 185  186 186 186  187 187 187  187 187 187  187 187 187  187 187 187  188 188 188  196 196 196  148 148 148  120 120 120  119 119 119  145 145 145  206 206 206  204 204 204  
204 204 204  200 200 200  201 201 201  201 201 201  201 201 201  201 201 201  203 203 203  201 201 201  183 183 183  177 177 177  107 107 107  80 80 80  89 89 89  89 89 89  90 90 90  90 90 90  90 90 90  90 90 90  90 90 90  90 90 90  89 89 89  89 89 89  77 77 77  119 119 119  185 185 185  179 179 179  199 199 199  203 203 203  198 198 198  213 213 213  217 217 217  132 132 132  57 57 57  45 45 45  64 64 64  172 172 172  217 217 217  198 198 198  220 220 220  205 205 205  106 106 106  51 51 51  45 45 45  85 85 85  194 194 194  212 212 212  203 203 203  208 208 208  145 145 145  118 118 118  123 123 123  155 155 155  168 168 168  18 18 18  0 0 0  0 0 0  0 0 0  105 105 105  212 212 212  144 144 144  104 104 104  132 132 132  181 181 181  193 193 193  184 184 184  186 186 186  186 186 186  186 186 186  186 186 186  187 187 187  187 187 187  186 186 186  199 199 199  179 179 179  126 126 126  126 126 126  118 118 118  151 151 151  208 208 208  206 206 206  
206 206 206  199 199 199  201 201 201  201 201 201  201 201 201  201 201 201  201 201 201  205 205 205  184 184 184  176 176 176  175 175 175  163 163 163  165 165 165  178 178 178  127 127 127  77 77 77  90 90 90  89 89 89  80 80 80  138 138 138  177 177 177  165 165 165  164 164 164  177 177 177  175 175 175  183 183 183  204 204 204  201 201 201  209 209 209  198 198 198  105 105 105  50 50 50  47 47 47  88 88 88  188 188 188  218 218 218  199 199 199  213 213 213  182 182 182  81 81 81  47 47 47  51 51 51  110 110 110  206 206 206  214 214 214  199 199 199  201 201 201  213 213 213  156 156 156  115 115 115  130 130 130  117 117 117  168 168 168  169 169 169  89 89 89  76 76 76  131 131 131  193 193 193  141 141 141  106 106 106  144 144 144  197 197 197  207 207 207  196 196 196  185 185 185  183 183 183  187 187 187  186 186 186  186 186 186  186 186 186  187 187 187  198 198 198  184 184 184  132 132 132  122 122 122  130 130 130  116 116 116  162 162 162  212 212 212  205 205 205  
211 211 211  197 197 197  201 201 201  201 201 201  201 201 201  201 201 201  201 201 201  205 205 205  195 195 195  172 172 172  182 182 182  187 187 187  186 186 186  203 203 203  137 137 137  73 73 73  90 90 90  89 89 89  77 77 77  152 152 152  201 201 201  186 186 186  187 187 187  181 181 181  171 171 171  194 194 194  205 205 205  201 201 201  222 222 222  163 163 163  32 32 32  48 48 48  115 115 115  210 210 210  223 223 223  200 200 200  200 200 200  227 227 227  128 128 128  18 18 18  61 61 61  140 140 140  222 222 222  217 217 217  198 198 198  201 201 201  201 201 201  214 214 214  173 173 173  116 116 116  129 129 129  128 128 128  118 118 118  154 154 154  186 186 186  186 186 186  178 178 178  129 129 129  109 109 109  141 141 141  204 204 204  219 219 219  216 216 216  217 217 217  209 209 209  188 188 188  183 183 183  186 186 186  185 185 185  189 189 189  198 198 198  172 172 172  125 125 125  120 120 120  130 130 130  128 128 128  119 119 119  179 179 179  209 209 209  210 210 210  
223 223 223  196 196 196  200 200 200  201 201 201  201 201 201  201 201 201  201 201 201  201 201 201  205 205 205  185 185 185  171 171 171  177 177 177  177 177 177  192 192 192  132 132 132  75 75 75  90 90 90  89 89 89  77 77 77  145 145 145  191 191 191  177 177 177  177 177 177  172 172 172  183 183 183  205 205 205  201 201 201  201 201 201  205 205 205  200 200 200  133 133 133  141 141 141  219 219 219  216 216 216  198 198 198  201 201 201  201 201 201  209 209 209  188 188 188  121 121 121  162 162 162  226 226 226  208 208 208  199 199 199  201 201 201  201 201 201  201 201 201  208 208 208  195 195 195  128 128 128  124 124 124  129 129 129  130 130 130  123 123 123  119 119 119  120 120 120  119 119 119  125 125 125  122 122 122  174 174 174  221 221 221  215 215 215  211 211 211  211 211 211  218 218 218  205 205 205  183 183 183  184 184 184  192 192 192  196 196 196  159 159 159  119 119 119  121 121 121  130 130 130  129 129 129  122 122 122  132 132 132  199 199 199  201 201 201  224 224 224  
255 255 255  207 207 207  194 194 194  201 201 201  201 201 201  201 201 201  201 201 201  201 201 201  203 203 203  202 202 202  179 179 179  172 172 172  177 177 177  194 194 194  130 130 130  59 59 59  74 74 74  73 73 73  63 63 63  145 145 145  193 193 193  177 177 177  172 172 172  177 177 177  202 202 202  204 204 204  201 201 201  201 201 201  199 199 199  204 204 204  221 221 221  221 221 221  205 205 205  199 199 199  201 201 201  201 201 201  201 201 201  198 198 198  208 208 208  224 224 224  217 217 217  201 201 201  200 200 200  201 201 201  201 201 201  201 201 201  201 201 201  201 201 201  213 213 213  152 152 152  114 114 114  130 130 130  129 129 129  129 129 129  129 129 129  129 129 129  129 129 129  125 125 125  127 127 127  186 186 186  219 219 219  212 212 212  211 211 211  211 211 211  214 214 214  209 209 209  186 186 186  195 195 195  191 191 191  145 145 145  117 117 117  125 125 125  130 130 130  129 129 129  130 130 130  113 113 113  158 158 158  208 208 208  207 207 207  255 255 255  
172 172 172  196 196 196  206 206 206  201 201 201  201 201 201  201 201 201  201 201 201  201 201 201  200 200 200  205 205 205  201 201 201  181 181 181  171 171 171  181 181 181  165 165 165  125 125 125  125 125 125  123 123 123  130 130 130  172 172 172  179 179 179  171 171 171  180 180 180  201 201 201  205 205 205  200 200 200  201 201 201  201 201 201  201 201 201  201 201 201  202 202 202  202 202 202  201 201 201  201 201 201  201 201 201  201 201 201  201 201 201  201 201 201  201 201 201  202 202 202  201 201 201  201 201 201  201 201 201  201 201 201  201 201 201  201 201 201  201 201 201  200 200 200  212 212 212  188 188 188  120 120 120  125 125 125  129 129 129  129 129 129  129 129 129  129 129 129  129 129 129  127 127 127  122 122 122  176 176 176  220 220 220  215 215 215  211 211 211  211 211 211  216 216 216  207 207 207  196 196 196  180 180 180  133 133 133  117 117 117  128 128 128  130 130 130  129 129 129  130 130 130  123 123 123  123 123 123  194 194 194  216 216 216  195 195 195  172 172 172  
167 167 167  204 204 204  210 210 210  199 199 199  201 201 201  201 201 201  201 201 201  201 201 201  201 201 201  200 200 200  204 204 204  204 204 204  189 189 189  175 175 175  179 179 179  189 189 189  187 187 187  188 188 188  188 188 188  177 177 177  175 175 175  188 188 188  203 203 203  205 205 205  200 200 200  201 201 201  201 201 201  201 201 201  201 201 201  201 201 201  201 201 201  201 201 201  201 201 201  201 201 201  201 201 201  201 201 201  201 201 201  201 201 201  201 201 201  201 201 201  201 201 201  201 201 201  201 201 201  201 201 201  201 201 201  201 201 201  201 201 201  201 201 201  201 201 201  215 215 215  157 157 157  112 112 112  130 130 130  129 129 129  129 129 129  129 129 129  129 129 129  129 129 129  119 119 119  145 145 145  208 208 208  221 221 221  216 216 216  217 217 217  218 218 218  202 202 202  166 166 166  124 124 124  119 119 119  130 130 130  129 129 129  129 129 129  129 129 129  129 129 129  111 111 111  165 165 165  214 214 214  210 210 210  204 204 204  166 166 166  
221 221 221  211 211 211  201 201 201  197 197 197  201 201 201  201 201 201  201 201 201  201 201 201  201 201 201  201 201 201  201 201 201  202 202 202  206 206 206  201 201 201  193 193 193  188 188 188  185 185 185  185 185 185  187 187 187  192 192 192  200 200 200  206 206 206  203 203 203  200 200 200  201 201 201  201 201 201  201 201 201  201 201 201  201 201 201  201 201 201  201 201 201  201 201 201  201 201 201  201 201 201  201 201 201  201 201 201  201 201 201  201 201 201  201 201 201  201 201 201  201 201 201  201 201 201  201 201 201  201 201 201  201 201 201  201 201 201  201 201 201  201 201 201  200 200 200  208 208 208  206 206 206  134 134 134  115 115 115  131 131 131  129 129 129  129 129 129  129 129 129  129 129 129  128 128 128  120 120 120  152 152 152  197 197 197  212 212 212  211 211 211  192 192 192  151 151 151  119 119 119  123 123 123  130 130 130  129 129 129  129 129 129  129 129 129  130 130 130  114 114 114  141 141 141  210 210 210  202 202 202  200 200 200  211 211 211  221 221 221  
202 202 202  201 201 201  204 204 204  207 207 207  197 197 197  201 201 201  201 201 201  201 201 201  201 201 201  201 201 201  201 201 201  201 201 201  201 201 201  203 203 203  205 205 205  205 205 205  204 204 204  204 204 204  205 205 205  205 205 205  203 203 203  201 201 201  201 201 201  201 201 201  201 201 201  201 201 201  201 201 201  201 201 201  201 201 201  201 201 201  201 201 201  201 201 201  201 201 201  201 201 201  201 201 201  201 201 201  201 201 201  201 201 201  201 201 201  201 201 201  201 201 201  201 201 201  201 201 201  201 201 201  201 201 201  201 201 201  201 201 201  201 201 201  201 201 201  200 200 200  213 213 213  197 197 197  124 124 124  116 116 116  130 130 130  129 129 129  129 129 129  129 129 129  130 130 130  127 127 127  120 120 120  135 135 135  150 150 150  149 149 149  133 133 133  119 119 119  126 126 126  130 130 130  129 129 129  129 129 129  129 129 129  130 130 130  114 114 114  130 130 130  202 202 202  208 208 208  206 206 206  204 204 204  201 201 201  202 202 202  
252 252 252  252 252 252  253 253 253  236 236 236  197 197 197  197 197 197  201 201 201  201 201 201  201 201 201  201 201 201  201 201 201  201 201 201  201 201 201  201 201 201  201 201 201  201 201 201  201 201 201  201 201 201  201 201 201  201 201 201  201 201 201  201 201 201  201 201 201  201 201 201  201 201 201  201 201 201  201 201 201  201 201 201  201 201 201  201 201 201  201 201 201  201 201 201  201 201 201  201 201 201  201 201 201  201 201 201  201 201 201  201 201 201  201 201 201  201 201 201  201 201 201  201 201 201  201 201 201  201 201 201  201 201 201  201 201 201  201 201 201  201 201 201  201 201 201  201 201 201  199 199 199  214 214 214  194 194 194  128 128 128  114 114 114  129 129 129  130 130 130  129 129 129  129 129 129  130 130 130  129 129 129  122 122 122  119 119 119  119 119 119  123 123 123  129 129 129  129 129 129  129 129 129  129 129 129  130 130 130  128 128 128  112 112 112  132 132 132  200 200 200  209 209 209  196 196 196  236 236 236  253 253 253  252 252 252  252 252 252  
255 255 255  255 255 255  255 255 255  240 240 240  212 212 212  202 202 202  199 199 199  201 201 201  201 201 201  201 201 201  201 201 201  201 201 201  201 201 201  201 201 201  201 201 201  201 201 201  201 201 201  201 201 201  201 201 201  201 201 201  201 201 201  201 201 201  201 201 201  201 201 201  201 201 201  201 201 201  200 200 200  198 198 198  199 199 199  199 199 199  199 199 199  199 199 199  199 199 199  199 199 199  199 199 199  199 199 199  199 199 199  199 199 199  199 199 199  199 199 199  199 199 199  199 199 199  199 199 199  199 199 199  199 199 199  199 199 199  199 199 199  199 199 199  199 199 199  199 199 199  199 199 199  198 198 198  212 212 212  200 200 200  144 144 144  113 113 113  120 120 120  129 129 129  129 129 129  129 129 129  129 129 129  129 129 129  129 129 129  129 129 129  129 129 129  129 129 129  129 129 129  130 130 130  129 129 129  119 119 119  114 114 114  148 148 148  205 205 205  210 210 210  201 201 201  208 208 208  237 237 237  255 255 255  255 255 255  255 255 255  
255 255 255  255 255 255  255 255 255  237 237 237  214 214 214  216 216 216  203 203 203  198 198 198  200 200 200  201 201 201  201 201 201  201 201 201  201 201 201  201 201 201  201 201 201  201 201 201  201 201 201  201 201 201  201 201 201  201 201 201  201 201 201  201 201 201  201 201 201  201 201 201  201 201 201  199 199 199  202 202 202  212 212 212  213 213 213  212 212 212  212 212 212  212 212 212  212 212 212  212 212 212  212 212 212  212 212 212  212 212 212  212 212 212  212 212 212  212 212 212  212 212 212  212 212 212  212 212 212  212 212 212  212 212 212  212 212 212  212 212 212  212 212 212  212 212 212  212 212 212  212 212 212  213 213 213  210 210 210  218 218 218  208 208 208  172 172 172  134 134 134  116 116 116  116 116 116  123 123 123  127 127 127  128 128 128  129 129 129  129 129 129  128 128 128  127 127 127  123 123 123  116 116 116  116 116 116  137 137 137  176 176 176  212 212 212  208 208 208  203 203 203  216 216 216  210 210 210  233 233 233  255 255 255  255 255 255  255 255 255  
255 255 255  255 255 255  255 255 255  237 237 237  213 213 213  213 213 213  208 208 208  207 207 207  206 206 206  210 210 210  199 199 199  201 201 201  201 201 201  201 201 201  201 201 201  201 201 201  201 201 201  201 201 201  201 201 201  201 201 201  201 201 201  201 201 201  199 199 199  205 205 205  210 210 210  204 204 204  201 201 201  218 218 218  222 222 222  218 218 218  218 218 218  218 218 218  218 218 218  218 218 218  218 218 218  218 218 218  218 218 218  218 218 218  218 218 218  218 218 218  218 218 218  218 218 218  218 218 218  218 218 218  218 218 218  218 218 218  218 218 218  218 218 218  218 218 218  218 218 218  218 218 218  219 219 219  217 217 217  193 193 193  203 203 203  209 209 209  202 202 202  173 173 173  148 148 148  132 132 132  122 122 122  119 119 119  118 118 118  118 118 118  119 119 119  123 123 123  132 132 132  150 150 150  175 175 175  203 203 203  224 224 224  208 208 208  202 202 202  211 211 211  216 216 216  208 208 208  234 234 234  255 255 255  255 255 255  255 255 255  
255 255 255  255 255 255  255 255 255  237 237 237  213 213 213  212 212 212  207 207 207  226 226 226  203 203 203  186 186 186  211 211 211  208 208 208  201 201 201  200 200 200  200 200 200  201 201 201  201 201 201  201 201 201  201 201 201  199 199 199  201 201 201  210 210 210  203 203 203  202 202 202  199 199 199  216 216 216  193 193 193  212 212 212  222 222 222  216 216 216  216 216 216  216 216 216  216 216 216  216 216 216  216 216 216  216 216 216  216 216 216  216 216 216  216 216 216  216 216 216  216 216 216  216 216 216  216 216 216  216 216 216  216 216 216  216 216 216  216 216 216  216 216 216  216 216 216  216 216 216  216 216 216  218 218 218  202 202 202  159 159 159  231 231 231  214 214 214  200 200 200  214 214 214  219 219 219  199 199 199  181 181 181  175 175 175  171 171 171  171 171 171  176 176 176  184 184 184  196 196 196  211 211 211  207 207 207  204 204 204  190 190 190  204 204 204  217 217 217  207 207 207  215 215 215  208 208 208  234 234 234  255 255 255  255 255 255  255 255 255  
255 255 255  255 255 255  255 255 255  237 237 237  213 213 213  212 212 212  207 207 207  240 240 240  178 178 178  118 118 118  197 197 197  194 194 194  212 212 212  213 213 213  198 198 198  205 205 205  192 192 192  192 192 192  195 195 195  199 199 199  204 204 204  196 196 196  225 225 225  118 118 118  107 107 107  230 230 230  194 194 194  213 213 213  221 221 221  216 216 216  216 216 216  216 216 216  216 216 216  216 216 216  216 216 216  216 216 216  216 216 216  216 216 216  216 216 216  216 216 216  216 216 216  216 216 216  216 216 216  216 216 216  216 216 216  216 216 216  216 216 216  216 216 216  216 216 216  216 216 216  216 216 216  218 218 218  204 204 204  161 161 161  244 244 244  229 229 229  212 212 212  212 212 212  200 200 200  206 206 206  209 209 209  207 207 207  204 204 204  205 205 205  216 216 216  210 210 210  201 201 201  204 204 204  225 225 225  224 224 224  111 111 111  179 179 179  232 232 232  207 207 207  215 215 215  208 208 208  234 234 234  255 255 255  255 255 255  255 255 255  
255 255 255  255 255 255  255 255 255  237 237 237  213 213 213  212 212 212  207 207 207  238 238 238  181 181 181  124 124 124  172 172 172  156 156 156  153 153 153  167 167 167  227 227 227  195 195 195  229 229 229  227 227 227  218 218 218  245 245 245  174 174 174  83 83 83  231 231 231  104 104 104  98 98 98  234 234 234  195 195 195  213 213 213  221 221 221  216 216 216  216 216 216  216 216 216  216 216 216  216 216 216  216 216 216  216 216 216  216 216 216  216 216 216  216 216 216  216 216 216  216 216 216  216 216 216  216 216 216  216 216 216  216 216 216  216 216 216  216 216 216  216 216 216  216 216 216  216 216 216  216 216 216  218 218 218  204 204 204  162 162 162  240 240 240  220 220 220  229 229 229  215 215 215  57 57 57  164 164 164  246 246 246  216 216 216  227 227 227  229 229 229  195 195 195  216 216 216  241 241 241  187 187 187  249 249 249  239 239 239  104 104 104  182 182 182  230 230 230  207 207 207  215 215 215  208 208 208  234 234 234  255 255 255  255 255 255  255 255 255  
255 255 255  255 255 255  255 255 255  255 255 255  255 255 255  255 255 255  255 255 255  255 255 255  255 255 255  255 255 255  255 255 255  255 255 255  255 255 255  255 255 255  255 255 255  255 255 255  255 255 255  255 255 255  255 255 255  255 255 255  255 255 255  255 255 255  255 255 255  255 255 255  255 255 255  255 255 255  255 255 255  255 255 255  255 255 255  255 255 255  255 255 255  255 255 255  255 255 255  255 255 255  255 255 255  255 255 255  255 255 255  255 255 255  255 255 255  255 255 255  255 255 255  255 255 255  255 255 255  255 255 255  255 255 255  255 255 255  255 255 255  255 255 255  255 255 255  255 255 255  255 255 255  255 255 255  255 255 255  255 255 255  255 255 255  255 255 255  255 255 255  255 255 255  255 255 255  255 255 255  255 255 255  255 255 255  255 255 255  255 255 255  255 255 255  255 255 255  255 255 255  255 255 255  255 255 255  255 255 255  255 255 255  255 255 255  255 255 255  255 255 255  255 255 255  255 255 255  255 255 255  255 255 255  255 255 255  255 255 255  
255 255 255  255 255 255  255 255 255  255 255 255  255 255 255  255 255 255  255 255 255  255 255 255  255 255 255  255 255 255  255 255 255  255 255 255  255 255 255  255 255 255  255 255 255  255 255 255  255 255 255  255 255 255  255 255 255  255 255 255  255 255 255  255 255 255  255 255 255  255 255 255  255 255 255  255 255 255  255 255 255  255 255 255  255 255 255  255 255 255  255 255 255  255 255 255  255 255 255  255 255 255  255 255 255  255 255 255  255 255 255  255 255 255  255 255 255  255 255 255  255 255 255  255 255 255  255 255 255  255 255 255  255 255 255  255 255 255  255 255 255  255 255 255  255 255 255  255 255 255  255 255 255  255 255 255  255 255 255  255 255 255  255 255 255  255 255 255  255 255 255  255 255 255  255 255 255  255 255 255  255 255 255  255 255 255  255 255 255  255 255 255  255 255 255  255 255 255  255 255 255  255 255 255  255 255 255  255 255 255  255 255 255  255 255 255  255 255 255  255 255 255  255 255 255  255 255 255  255 255 255  255 255 255  255 255 255  255 255 255  
