P3
# Created by PPMWriter
80 40
255
255 255 255  255 255 255  255 255 255  255 255 255  255 255 255  255 255 255  255 255 255  255 255 255  255 255 255  255 255 255  255 255 255  255 255 255  255 255 255  255 255 255  255 255 255  255 255 255  255 255 255  255 255 255  255 255 255  255 255 255  255 255 255  255 255 255  255 255 255  255 255 255  255 255 255  255 255 255  255 255 255  255 255 255  255 255 255  255 255 255  255 255 255  255 255 255  255 255 255  255 255 255  255 255 255  255 255 255  255 255 255  255 255 255  255 255 255  255 255 255  255 255 255  255 255 255  255 255 255  255 255 255  255 255 255  255 255 255  255 255 255  255 255 255  255 255 255  255 255 255  255 255 255  255 255 255  255 255 255  255 255 255  255 255 255  255 255 255  255 255 255  255 255 255  255 255 255  255 255 255  255 255 255  255 255 255  255 255 255  255 255 255  255 255 255  255 255 255  255 255 255  255 255 255  255 255 255  255 255 255  255 255 255  255 255 255  255 255 255  255 255 255  255 255 255  255 255 255  255 255 255  255 255 255  255 255 255  255 255 255  
255 255 255  255 255 255  255 255 255  255 255 255  255 255 255  255 255 255  255 255 255  255 255 255  255 255 255  255 255 255  255 255 255  255 255 255  255 255 255  255 255 255  255 255 255  255 255 255  255 255 255  255 255 255  255 255 255  255 255 255  255 255 255  255 255 255  255 255 255  255 255 255  255 255 255  255 255 255  255 255 255  255 255 255  255 255 255  255 255 255  255 255 255  255 255 255  255 255 255  255 255 255  255 255 255  255 255 255  255 255 255  255 255 255  255 255 255  255 255 255  255 255 255  255 255 255  255 255 255  255 255 255  255 255 255  255 255 255  255 255 255  255 255 255  255 255 255  255 255 255  255 255 255  255 255 255  255 255 255  255 255 255  255 255 255  255 255 255  255 255 255  255 255 255  255 255 255  255 255 255  255 255 255  255 255 255  255 255 255  255 255 255  255 255 255  255 255 255  255 255 255  255 255 255  255 255 255  255 255 255  255 255 255  255 255 255  255 255 255  255 255 255  255 255 255  255 255 255  255 255 255  255 255 255  255 255 255  255 255 255  
50 0 0  50 0 0  50 0 0  50 0 0  224 176 171  255 255 255  201 150 255  166 116 255  192 142 209  187 137 117  130 80 81  160 110 109  255 241 244  169 119 122  153 103 107  208 158 165  238 188 194  214 164 169  236 186 190  210 159 166  218 168 175  219 168 176  246 196 202  251 201 206  251 200 206  215 165 170  225 175 179  255 232 238  255 227 234  255 226 233  255 213 218  255 214 215  255 255 255  255 255 255  255 254 254  255 228 232  255 223 230  255 226 232  255 226 232  255 226 232  255 226 232  255 226 232  255 226 232  255 223 230  255 228 232  255 254 254  255 255 255  255 255 255  255 214 215  255 213 218  255 226 233  255 226 232  255 235 241  240 191 195  216 166 171  250 200 205  251 201 206  231 181 186  204 155 161  224 174 182  209 160 166  237 187 191  220 170 174  179 129 133  202 152 158  211 161 168  207 157 163  137 87 87  145 95 94  195 145 147  222 172 178  110 60 62  50 0 0  50 0 0  69 19 19  177 127 127  56 6 6  50 0 0  50 0 0  50 0 0  
50 0 0  50 0 0  50 0 0  50 0 0  225 176 171  255 255 255  190 139 255  155 104 255  185 135 210  188 138 114  180 130 135  207 157 164  225 175 181  238 189 195  251 202 209  241 192 198  226 176 182  235 186 192  226 176 183  239 189 195  237 187 192  236 187 192  224 174 181  222 172 179  221 172 178  232 183 189  255 212 217  255 216 221  255 212 217  255 211 216  255 217 221  255 222 226  255 212 216  255 213 217  255 213 217  255 213 217  255 212 218  255 213 218  255 213 218  255 213 218  255 213 218  255 213 218  255 213 218  255 212 218  255 213 217  255 213 217  255 213 217  255 212 216  255 223 227  255 217 221  255 211 216  255 213 218  255 215 220  255 213 218  234 184 191  221 171 178  222 172 179  231 181 188  243 193 199  234 184 190  239 189 195  225 176 183  233 184 190  253 203 210  243 194 200  230 181 187  230 180 187  223 173 179  198 148 153  204 154 158  223 173 178  92 42 44  50 0 0  50 0 0  50 0 0  169 119 119  57 7 7  50 0 0  50 0 0  50 0 0  
50 0 0  50 0 0  50 0 0  50 0 0  223 175 171  255 255 255  218 168 250  175 125 242  200 150 207  219 170 158  243 193 200  249 199 205  243 194 199  255 206 209  255 209 212  255 208 212  255 208 211  255 208 212  255 208 212  255 208 212  255 208 211  255 208 211  255 208 211  255 208 211  255 208 211  255 209 213  251 203 206  246 197 201  247 199 202  248 199 203  247 198 202  245 196 200  245 196 200  245 196 200  245 196 200  247 198 202  248 199 202  247 199 202  247 199 202  247 199 202  247 199 202  247 199 202  247 199 202  248 199 202  247 198 202  245 196 200  245 196 200  245 196 200  245 196 200  247 198 202  248 199 203  247 199 202  246 197 201  250 201 205  255 209 212  255 208 212  255 208 211  255 208 211  255 208 212  255 212 215  255 216 219  255 218 222  255 219 222  255 219 222  255 218 222  255 216 219  255 210 213  254 205 210  248 199 205  236 186 192  223 173 181  171 121 126  159 108 108  170 120 120  180 130 130  198 148 148  53 3 3  50 0 0  50 0 0  50 0 0  
50 0 0  50 0 0  50 0 0  50 0 0  220 173 173  255 255 255  255 237 230  255 224 217  249 200 200  242 193 200  255 207 210  255 209 212  253 205 208  251 202 206  251 202 206  251 202 206  251 202 206  251 202 206  251 202 206  251 202 206  251 202 206  251 202 206  251 202 206  251 202 206  251 202 206  251 202 206  251 202 206  251 202 206  251 202 206  251 202 206  251 202 206  251 202 206  251 202 206  251 202 206  251 202 206  251 202 206  251 202 206  251 202 206  251 202 206  251 202 206  251 202 206  251 202 206  251 202 206  251 202 206  251 202 206  251 202 206  251 202 206  251 202 206  251 202 206  251 202 206  251 202 206  251 202 206  251 202 206  251 202 206  251 202 206  250 201 205  254 205 209  255 214 218  255 213 217  252 202 206  239 191 195  231 183 187  227 179 183  227 179 183  232 183 187  241 192 196  253 204 208  255 216 219  255 220 223  255 210 213  237 188 193  255 206 212  255 248 250  255 255 255  255 255 255  231 181 181  50 0 0  50 0 0  50 0 0  50 0 0  
50 0 0  50 0 0  50 0 0  50 0 0  220 173 173  255 255 255  255 231 231  255 210 209  255 207 209  255 205 210  251 202 206  251 202 206  251 202 206  251 202 206  251 202 206  251 202 206  251 202 206  251 202 206  251 202 206  251 202 206  251 202 206  251 202 206  251 202 206  251 202 206  251 202 206  251 202 206  251 202 206  251 202 206  251 202 206  251 202 206  251 202 206  251 202 206  251 202 206  251 202 206  251 202 206  251 202 206  251 202 206  251 202 206  251 202 206  251 202 206  251 202 206  251 202 206  251 202 206  251 202 206  251 202 206  251 202 206  251 202 206  251 202 206  251 202 206  251 202 206  251 202 206  251 202 206  251 202 206  250 201 205  252 203 207  255 215 219  255 208 212  229 182 186  204 158 162  187 141 145  177 132 136  172 127 131  170 125 129  170 125 129  172 127 131  178 132 136  188 142 146  206 159 163  232 184 188  255 210 214  255 218 222  255 208 212  252 204 209  255 222 227  255 255 255  223 173 173  50 0 0  50 0 0  50 0 0  50 0 0  
50 0 0  50 0 0  50 0 0  50 0 0  220 173 172  255 255 255  255 204 209  247 197 202  251 202 206  251 202 206  251 202 206  251 202 206  251 202 206  251 202 206  251 202 206  251 202 206  251 202 206  251 202 206  251 202 206  251 202 206  251 202 206  251 202 206  251 202 206  251 202 206  251 202 206  251 202 206  251 202 206  251 202 206  251 202 206  251 202 206  251 202 206  251 202 206  251 202 206  251 202 206  251 202 206  251 202 206  251 202 206  251 202 206  251 202 206  251 202 206  251 202 206  251 202 206  251 202 206  251 202 206  251 202 206  251 202 206  251 202 206  251 202 206  251 202 206  251 202 206  251 202 206  251 202 206  250 201 205  255 209 213  255 214 218  229 181 185  189 143 148  168 123 128  165 121 125  171 127 131  176 131 135  178 133 137  178 133 137  178 133 137  177 133 137  175 131 135  171 126 130  165 121 125  169 124 128  192 146 150  233 186 189  255 215 219  253 203 208  252 204 207  255 255 255  223 172 171  50 0 0  50 0 0  50 0 0  50 0 0  
153 103 103  153 103 103  149 99 98  114 64 63  223 174 176  255 229 234  246 197 201  252 203 207  251 202 206  251 202 206  251 202 206  251 202 206  251 202 206  251 202 206  251 202 206  251 202 206  251 202 206  251 202 206  251 202 206  251 202 206  251 202 206  251 202 206  251 202 206  251 202 206  251 202 206  251 202 206  251 202 206  251 202 206  251 202 206  251 202 206  251 202 206  251 202 206  251 202 206  251 202 206  251 202 206  251 202 206  251 202 206  251 202 206  251 202 206  251 202 206  251 202 206  251 202 206  251 202 206  251 202 206  251 202 206  251 202 206  251 202 206  251 202 206  251 202 206  251 202 206  251 202 206  250 201 205  255 213 217  255 206 210  202 155 159  165 120 124  167 123 127  178 133 137  179 134 138  179 134 138  179 134 138  179 134 138  179 134 138  179 134 138  179 134 138  179 134 138  179 134 138  180 135 139  178 133 137  166 122 126  166 121 125  206 160 164  255 210 213  255 207 211  255 227 232  225 176 179  115 64 63  149 99 98  153 103 103  153 103 103  
222 172 172  222 172 172  215 164 166  255 249 252  255 211 215  244 195 199  251 202 206  251 202 206  251 202 206  251 202 206  251 202 206  251 202 206  251 202 206  251 202 206  251 202 206  251 202 206  251 202 206  251 202 206  251 202 206  251 202 206  251 202 206  251 202 206  251 202 206  251 202 206  251 202 206  251 202 206  251 202 206  251 202 206  251 202 206  251 202 206  251 202 206  251 202 206  251 202 206  251 202 206  251 202 206  251 202 206  251 202 206  251 202 206  251 202 206  251 202 206  251 202 206  251 202 206  251 202 206  251 202 206  251 202 206  251 202 206  251 202 206  251 202 206  251 202 206  251 202 206  249 201 205  255 214 218  250 201 205  184 138 142  162 118 122  177 132 136  180 135 139  179 134 138  179 134 138  179 134 138  179 134 138  176 131 135  172 127 131  172 128 132  177 132 136  180 135 139  179 134 138  179 134 138  179 134 138  180 135 139  176 131 135  161 117 121  189 143 147  254 205 209  254 204 208  255 211 215  255 249 253  214 164 166  222 172 172  222 172 172  
50 0 0  50 0 0  61 10 13  255 225 232  255 211 214  251 202 206  251 202 206  251 202 206  251 202 206  251 202 206  251 202 206  251 202 206  251 202 206  253 204 208  255 207 210  255 206 210  253 204 208  253 204 208  255 206 209  255 207 210  253 204 208  251 202 206  251 202 206  251 202 206  251 202 206  251 202 206  251 202 206  251 202 206  251 202 206  251 202 206  251 202 206  251 202 206  251 202 206  251 202 206  251 202 206  251 202 206  251 202 206  251 202 206  251 202 206  251 202 206  251 202 206  251 202 206  251 202 206  251 202 206  251 202 206  251 202 206  251 202 206  251 202 206  251 202 206  249 201 205  255 212 216  251 202 206  180 135 139  165 120 124  180 135 139  179 134 138  179 134 138  179 134 138  180 135 139  178 133 137  167 123 129  187 138 137  220 163 152  216 160 149  180 133 133  169 125 131  180 135 139  179 134 138  179 134 138  179 134 138  179 134 138  179 134 138  163 119 123  186 140 144  255 206 209  255 219 222  255 223 230  62 12 14  50 0 0  50 0 0  
185 135 135  188 138 137  235 186 188  255 221 225  249 200 204  251 202 206  251 202 206  251 202 206  251 202 206  251 202 206  251 202 206  253 204 208  255 207 211  250 201 205  241 192 196  236 187 191  233 184 189  233 184 189  235 186 191  241 192 196  249 200 204  255 207 211  253 204 208  251 202 206  251 202 206  251 202 206  251 202 206  251 202 206  251 202 206  251 202 206  251 202 206  251 202 206  251 202 206  251 202 206  251 202 206  251 202 206  251 202 206  251 202 206  251 202 206  251 202 206  251 202 206  251 202 206  251 202 206  251 202 206  251 202 206  251 202 206  251 202 206  251 202 206  250 201 205  255 207 211  255 209 214  189 143 148  164 120 124  180 135 139  179 134 138  179 134 138  179 134 138  180 135 139  175 130 134  163 121 126  218 164 156  234 185 188  185 156 192  189 158 192  236 184 182  203 151 144  167 123 130  180 135 139  179 134 138  179 134 138  179 134 138  179 134 138  180 135 139  163 119 123  196 150 154  255 210 214  255 226 231  229 180 182  183 133 133  185 135 135  
255 255 255  255 255 255  255 215 220  241 192 196  251 202 206  251 202 206  251 202 206  251 202 206  251 202 206  251 202 206  254 205 209  253 204 208  237 188 194  225 176 181  225 176 181  235 186 192  236 188 193  237 188 193  234 185 190  223 174 180  225 176 181  237 188 193  252 203 207  255 206 209  251 202 206  251 202 206  251 202 206  251 202 206  251 202 206  251 202 206  251 202 206  251 202 206  251 202 206  251 202 206  251 202 206  251 202 206  251 202 206  251 202 206  251 202 206  251 202 206  251 202 206  251 202 206  251 202 206  251 202 206  251 202 206  251 202 206  251 202 206  251 202 206  251 202 206  255 216 220  212 165 169  162 118 122  179 134 138  179 134 138  179 134 138  179 134 138  180 135 139  171 127 131  168 124 130  230 175 168  229 186 201  92 98 189  50 66 179  50 66 180  111 113 195  231 184 191  197 145 140  173 129 133  179 134 138  179 134 138  179 134 138  179 134 138  179 134 138  178 133 137  162 118 122  220 172 176  255 208 211  255 211 216  255 255 255  255 255 255  
255 235 235  255 212 215  244 195 200  252 203 207  251 202 206  251 202 206  251 202 206  251 202 206  251 202 206  255 206 210  250 201 205  229 180 185  221 172 177  227 178 183  226 178 182  206 157 162  203 154 159  202 153 158  210 160 166  229 180 185  226 177 182  221 172 178  228 179 184  249 200 204  255 206 210  250 201 205  251 202 206  251 202 206  251 202 206  251 202 206  251 202 206  251 202 206  251 202 206  251 202 206  251 202 206  251 202 206  251 202 206  251 202 206  251 202 206  251 202 206  251 202 206  251 202 206  251 202 206  251 202 206  251 202 206  251 202 206  251 202 206  251 202 206  255 211 215  242 193 197  173 128 132  174 129 133  179 134 138  179 134 138  179 134 138  179 134 138  168 124 128  177 132 136  229 179 180  255 208 205  97 101 184  50 56 176  70 84 180  68 83 180  50 55 176  130 125 196  234 177 170  172 127 129  179 134 138  179 134 138  179 134 138  179 134 138  179 134 138  180 135 139  172 127 131  176 131 135  248 199 203  253 203 208  255 212 215  255 235 234  
255 234 234  245 196 201  249 201 205  251 202 206  251 202 206  251 202 206  251 202 206  251 202 206  254 205 209  251 202 206  227 178 184  222 173 178  227 178 183  242 193 198  190 141 146  121 72 77  131 82 87  129 80 85  126 78 82  203 155 159  240 191 196  227 178 183  222 173 179  226 177 182  251 202 205  254 205 209  251 202 206  251 202 206  251 202 206  251 202 206  251 202 206  251 202 206  251 202 206  251 202 206  251 202 206  251 202 206  251 202 206  251 202 206  251 202 206  251 202 206  251 202 206  251 202 206  251 202 206  251 202 206  251 202 206  251 202 206  251 202 206  251 202 206  255 214 218  205 159 163  164 120 124  180 135 139  179 134 138  180 135 139  177 132 136  166 122 126  187 142 146  234 186 191  255 209 204  212 172 190  56 75 178  61 80 179  70 84 180  70 84 180  53 74 179  84 95 189  216 170 179  185 136 133  178 133 137  179 134 138  179 134 138  179 134 138  179 134 138  179 134 138  180 135 139  163 119 123  211 164 168  255 214 219  245 197 201  255 234 233  
255 211 215  250 202 206  251 201 205  251 202 206  251 202 206  251 202 206  251 202 206  252 203 207  255 206 209  233 184 189  222 173 178  227 178 183  227 178 183  243 194 199  179 130 135  121 72 77  138 89 94  138 89 94  123 74 79  192 144 148  242 193 198  227 178 183  228 179 184  222 173 178  232 183 188  254 205 209  252 203 207  251 202 206  251 202 206  251 202 206  251 202 206  251 202 206  251 202 206  251 202 206  251 202 206  251 202 206  251 202 206  251 202 206  251 202 206  251 202 206  251 202 206  251 202 206  251 202 206  251 202 206  251 202 206  251 202 206  251 202 206  255 208 212  247 198 202  179 134 138  173 128 132  179 134 138  180 135 139  174 129 133  167 123 126  200 154 158  243 194 199  244 195 200  247 194 192  231 184 191  68 82 180  50 70 178  72 85 180  72 86 180  50 64 177  101 107 192  228 177 175  178 131 131  178 133 137  172 128 132  169 125 129  172 128 131  178 133 137  180 135 139  179 134 138  171 127 131  184 139 143  251 202 206  255 207 211  255 212 216  
239 195 199  255 207 211  251 202 206  251 202 206  251 202 206  251 202 206  251 202 206  255 206 210  244 195 199  223 173 179  228 178 183  229 180 185  229 180 185  244 195 200  184 135 140  125 76 81  140 91 96  139 90 95  128 79 84  197 148 153  243 194 199  229 180 185  229 180 185  228 179 184  222 173 178  243 194 198  255 206 210  251 202 206  251 202 206  251 202 206  251 202 206  251 202 206  251 202 206  251 202 206  251 202 206  251 202 206  251 202 206  251 202 206  251 202 206  251 202 206  251 202 206  251 202 206  251 202 206  251 202 206  251 202 206  251 202 206  251 202 206  255 214 218  225 178 182  167 122 126  179 134 138  180 135 139  169 126 129  177 129 134  238 174 186  255 207 221  255 196 206  233 185 190  235 187 191  255 203 194  167 144 187  50 60 177  50 64 178  50 62 177  50 70 182  199 167 199  220 164 155  165 119 123  171 128 132  189 164 167  198 181 184  190 169 172  172 132 136  173 126 130  180 135 139  178 133 137  170 125 129  230 182 186  255 217 221  241 196 201  
255 210 213  248 198 202  251 202 206  251 202 206  251 202 206  251 202 206  251 202 206  255 206 210  233 184 189  224 175 180  237 188 193  236 187 192  235 186 191  252 203 208  187 138 143  124 75 80  140 91 96  139 90 95  127 78 83  201 152 157  251 202 207  235 186 191  237 188 193  236 187 192  223 174 179  233 184 188  254 205 209  252 203 207  251 202 206  251 202 206  251 202 206  251 202 206  251 202 206  251 202 206  251 202 206  251 202 206  251 202 206  251 202 206  251 202 206  251 202 206  251 202 206  251 202 206  251 202 206  251 202 206  251 202 206  251 202 206  251 202 206  255 214 218  207 161 165  165 121 125  180 135 139  168 127 129  193 138 146  241 183 192  203 184 175  178 168 154  225 183 185  255 194 207  235 186 192  240 189 192  255 200 193  181 153 188  111 108 182  123 118 189  207 173 200  228 172 164  161 115 119  175 137 141  217 191 194  241 154 162  245 114 126  242 140 149  220 187 191  178 146 149  173 125 130  180 135 139  166 122 126  213 166 170  255 208 213  255 213 215  
254 205 209  249 201 204  251 202 206  251 202 206  251 202 206  251 202 206  253 204 207  250 201 205  231 181 186  229 180 185  181 133 137  155 107 112  163 114 119  167 118 123  152 103 108  136 87 92  140 91 96  140 91 96  137 88 93  155 106 111  167 118 123  163 114 119  154 105 110  190 141 146  234 185 190  228 179 184  249 200 204  253 204 208  251 202 206  251 202 206  251 202 206  251 202 206  251 202 206  251 202 206  251 202 206  251 202 206  251 202 206  251 202 206  251 202 206  251 202 206  251 202 206  251 202 206  251 202 206  251 202 206  251 202 206  251 202 206  253 204 208  255 209 213  196 150 154  168 124 128  176 131 135  186 134 141  235 182 188  129 161 131  50 126 73  50 125 71  66 133 86  196 175 168  255 194 207  232 185 191  239 188 192  255 202 193  255 210 203  255 207 199  218 163 154  155 112 116  181 138 142  233 207 210  250 121 133  240 0 21  237 0 12  240 0 15  253 92 105  222 187 190  173 136 139  177 132 136  167 123 127  201 156 160  255 209 213  255 205 209  
252 203 206  251 202 206  251 202 206  251 202 206  251 202 206  251 202 206  254 205 209  247 198 202  233 184 189  222 173 178  135 86 91  119 70 75  127 78 83  125 76 81  134 85 90  142 93 98  140 91 96  140 91 96  142 93 98  132 83 88  125 76 81  127 78 83  113 64 69  149 100 105  234 185 190  228 179 184  246 197 201  254 205 209  251 202 206  251 202 206  251 202 206  250 201 205  249 200 205  255 216 220  255 224 228  254 205 209  249 200 204  251 202 206  251 202 206  251 202 206  250 201 205  252 203 207  255 220 224  255 220 224  251 202 206  250 201 205  254 205 209  253 204 208  190 144 148  171 126 130  170 124 128  232 165 178  157 170 148  50 120 61  64 133 87  69 135 91  50 125 71  71 135 90  232 185 189  248 190 199  237 188 193  248 199 204  236 186 189  182 136 139  154 111 114  196 150 154  242 215 218  246 160 168  236 0 16  237 10 29  237 27 45  237 19 37  239 0 7  245 125 135  195 176 178  171 127 130  169 125 129  195 149 153  255 206 210  254 204 208  
251 202 205  251 202 206  251 202 206  251 202 206  251 202 206  251 202 206  254 205 209  245 196 200  232 183 188  222 173 178  145 96 101  133 84 89  140 91 96  140 91 96  140 91 96  140 91 96  140 91 96  140 91 96  140 91 96  140 91 96  140 91 96  140 91 96  128 79 84  157 108 113  232 183 188  228 179 184  245 196 200  254 205 209  251 202 206  251 202 206  250 201 205  254 205 209  255 225 229  231 182 186  205 156 161  251 202 206  253 205 209  251 202 206  251 202 206  249 200 204  255 210 214  255 222 226  215 166 170  215 167 171  255 209 213  251 202 206  255 206 210  251 202 206  187 142 146  172 127 131  173 126 131  230 171 181  107 154 117  50 126 73  71 135 91  70 135 90  68 135 89  50 127 74  184 170 160  255 199 212  249 199 204  221 173 178  167 122 126  160 116 120  212 164 169  247 197 203  242 225 227  235 106 118  237 0 11  237 28 45  237 25 43  237 27 45  237 0 13  247 85 99  205 183 185  169 126 130  169 125 129  193 147 151  255 206 210  254 204 208  
251 203 207  251 202 206  251 202 206  251 202 206  251 202 206  251 202 206  254 205 209  247 198 202  233 184 189  220 171 176  138 89 94  128 79 84  135 86 91  134 85 90  138 89 94  141 92 97  140 91 96  140 91 96  141 92 97  137 88 93  134 85 90  135 86 91  123 73 78  151 102 107  231 183 188  229 180 185  246 197 201  254 205 209  251 202 206  249 200 204  255 212 216  255 228 232  212 163 167  120 71 76  81 32 37  197 148 152  255 225 229  251 202 206  249 200 204  255 219 223  255 221 225  187 138 142  104 55 60  98 50 55  228 179 183  255 219 222  255 206 210  253 203 207  189 144 148  171 126 130  170 124 129  235 170 183  128 161 130  50 122 65  73 136 92  71 136 91  57 131 82  51 128 78  216 185 182  255 202 214  206 160 164  157 114 118  171 126 130  225 177 182  249 199 204  239 189 195  235 212 215  236 139 148  237 0 13  237 18 36  237 27 45  237 24 42  238 0 6  246 113 125  198 179 182  170 126 130  169 125 129  195 149 153  255 206 210  254 205 209  
254 205 208  250 201 205  251 202 206  251 202 206  251 202 206  251 202 206  253 204 207  251 202 206  233 184 189  227 178 183  157 108 113  130 81 86  139 90 95  139 90 95  140 91 96  140 91 96  140 91 96  140 91 96  140 91 96  140 91 96  139 90 95  139 90 95  127 78 83  169 121 126  235 186 191  229 180 185  249 200 205  253 204 208  248 199 203  255 214 218  255 218 222  182 133 137  107 59 64  95 46 52  114 65 70  222 173 177  255 218 222  248 199 203  255 221 225  255 206 210  156 108 113  101 52 57  95 46 51  135 87 91  244 195 199  255 213 216  253 204 208  255 208 212  195 150 154  168 124 128  173 128 132  205 146 156  218 184 182  68 139 90  50 122 64  50 124 70  50 121 63  155 168 145  255 197 209  194 146 150  154 111 113  182 141 158  231 190 221  243 200 230  234 188 203  236 186 189  236 191 195  236 205 209  236 84 98  237 0 5  237 0 11  236 0 3  249 63 80  229 185 189  176 142 145  176 131 135  168 123 128  201 155 159  255 208 213  255 206 209  
255 207 213  249 200 203  251 202 206  251 202 206  251 202 206  251 202 206  251 202 206  255 206 210  234 185 190  226 177 182  225 176 181  213 164 169  215 166 171  228 179 184  177 128 133  127 78 83  140 91 96  139 90 95  130 81 86  188 139 144  227 178 183  215 166 171  214 165 170  227 178 183  225 176 182  233 184 188  254 205 209  251 202 206  255 210 214  248 200 204  155 106 111  100 51 56  97 48 53  138 89 94  238 190 194  255 219 223  249 200 205  255 214 218  232 183 187  131 83 88  97 48 53  101 52 57  160 111 116  255 207 211  255 215 219  249 200 204  251 202 206  255 214 217  206 160 164  165 121 125  180 135 139  167 125 128  218 156 167  219 185 184  139 164 136  126 159 126  181 177 162  243 183 193  191 139 145  156 113 116  194 153 176  247 193 186  255 188 129  246 180 127  235 187 192  233 189 211  237 184 187  236 198 202  236 202 206  236 123 132  237 87 95  248 119 130  234 189 194  182 154 157  172 124 128  180 135 139  166 122 126  212 165 169  255 211 214  255 207 213  
255 212 218  247 198 201  251 202 206  251 202 206  251 202 206  251 202 206  251 202 206  255 206 210  245 196 200  222 173 178  232 183 188  237 188 193  236 187 192  253 204 209  187 138 143  123 74 79  140 91 96  139 90 95  127 78 83  202 153 158  251 202 207  236 187 192  237 188 193  231 182 186  221 172 177  244 195 199  255 206 210  251 202 206  255 223 227  213 164 169  82 33 39  98 48 54  165 116 121  255 211 215  255 224 228  250 201 205  250 201 205  255 228 232  178 129 133  68 20 25  111 63 67  190 141 146  255 223 227  255 218 221  248 199 203  251 202 206  251 202 206  255 215 218  223 175 180  166 122 126  179 134 138  178 134 137  168 125 128  204 145 155  236 170 183  236 173 185  228 163 176  179 131 136  159 117 119  191 150 174  254 195 170  255 177 42  255 169 15  255 170 16  255 174 57  238 186 181  233 188 208  236 184 189  235 192 196  239 218 221  248 226 230  222 204 207  175 141 144  170 122 126  180 135 139  178 133 137  169 125 129  229 181 185  255 209 212  255 211 218  
255 224 229  246 197 201  250 201 205  251 202 206  251 202 206  251 202 206  251 202 206  251 202 206  255 206 210  235 186 190  221 172 177  227 178 183  227 178 183  242 193 198  182 132 137  125 76 81  140 91 96  139 90 95  127 78 83  195 145 151  241 192 197  227 178 183  227 178 183  222 173 178  233 184 189  255 206 209  251 202 207  251 202 206  255 206 210  250 201 205  183 134 139  191 142 147  255 220 224  255 217 221  248 199 203  251 202 206  251 202 206  255 210 214  238 188 193  171 122 127  212 163 168  255 227 231  255 209 213  249 200 204  251 202 206  251 202 206  251 202 206  255 209 213  245 196 200  178 133 137  174 129 133  179 134 138  180 135 139  173 128 132  169 124 128  170 125 129  169 125 129  175 130 134  172 130 141  224 177 185  255 184 66  255 170 20  255 173 51  255 173 50  255 170 12  255 176 85  233 189 210  234 186 194  242 193 198  246 196 202  209 163 167  169 125 129  171 127 131  180 135 139  179 134 138  172 128 132  182 137 141  249 200 204  251 202 206  255 224 230  
255 255 255  255 208 213  244 195 199  251 202 206  251 202 206  251 202 206  251 202 206  251 202 206  253 205 208  252 203 207  229 180 185  222 173 178  227 178 183  244 195 200  180 131 136  109 60 65  124 75 80  123 74 79  113 64 69  195 146 151  243 194 199  227 178 183  222 173 178  227 178 184  252 203 206  254 205 209  251 202 206  251 202 206  249 200 204  254 205 209  255 222 226  255 222 226  255 206 210  249 200 204  251 202 206  251 202 206  251 202 206  248 199 203  255 209 213  255 225 229  255 218 222  251 202 206  250 201 205  251 202 206  251 202 206  251 202 206  251 202 206  251 202 206  255 213 217  202 156 160  164 120 124  180 135 139  179 134 138  179 134 138  179 134 138  179 134 138  179 134 138  175 131 135  177 137 158  236 180 159  255 176 38  255 172 46  255 173 49  255 173 49  255 172 34  255 174 57  236 186 188  245 198 211  241 191 196  195 149 153  167 123 127  175 131 134  180 135 139  179 134 138  180 135 139  163 119 123  208 161 165  255 209 213  255 208 213  255 255 255  
222 172 169  246 196 196  255 207 212  251 202 206  251 202 206  251 202 206  251 202 206  251 202 206  250 201 206  255 206 209  251 202 206  231 182 187  221 172 177  231 182 187  215 166 171  175 126 131  175 126 131  173 125 130  180 131 136  222 173 178  229 180 185  221 172 177  230 181 185  251 202 206  255 206 210  250 201 205  251 202 206  251 202 206  251 202 206  251 202 206  252 203 207  252 203 207  251 202 206  251 202 206  251 202 206  251 202 206  251 202 206  251 202 206  251 202 206  252 203 207  251 202 206  251 202 206  251 202 206  251 202 206  251 202 206  251 202 206  251 202 206  250 201 205  255 212 216  238 189 193  170 125 130  175 131 134  179 134 138  179 134 138  179 134 138  179 134 138  179 134 138  177 132 136  172 130 143  226 178 181  255 182 58  255 170 26  255 173 51  255 173 51  255 169 16  255 176 77  246 200 219  230 183 191  183 137 141  167 123 127  178 133 137  180 135 139  179 134 138  180 135 139  173 129 133  173 128 132  244 195 199  255 216 221  245 196 196  222 172 169  
217 166 170  254 205 210  255 212 216  249 200 204  251 202 206  251 202 206  251 202 206  251 202 206  251 202 206  250 201 206  254 205 209  254 205 209  239 190 195  225 176 181  229 180 185  239 190 195  237 188 194  238 189 194  238 189 195  227 178 183  225 176 182  238 189 194  253 204 208  255 206 210  250 201 205  251 202 206  251 202 206  251 202 206  251 202 206  251 202 206  251 202 206  251 202 206  251 202 206  251 202 206  251 202 206  251 202 206  251 202 206  251 202 206  251 202 206  251 202 206  251 202 206  251 202 206  251 202 206  251 202 206  251 202 206  251 202 206  251 202 206  251 202 206  251 202 206  255 215 219  207 160 164  162 118 122  180 135 139  179 134 138  179 134 138  179 134 138  179 134 138  179 134 138  169 125 128  195 155 179  255 195 157  255 175 28  255 170 18  255 170 15  255 177 45  252 196 180  216 173 195  174 129 132  169 125 129  180 135 139  179 134 138  179 134 138  179 134 138  179 134 138  161 117 121  215 168 172  255 215 218  255 211 215  254 204 209  216 166 170  
255 221 230  255 211 220  251 202 208  247 199 203  251 202 206  251 202 206  251 202 206  251 202 206  251 202 206  251 202 206  251 202 206  252 203 207  255 207 211  251 201 206  243 194 198  238 189 194  235 186 191  235 186 191  237 188 193  242 193 197  250 201 205  255 207 211  253 204 208  250 201 205  251 202 206  251 202 206  251 202 206  251 202 206  251 202 206  251 202 206  251 202 206  251 202 206  251 202 206  251 202 206  251 202 206  251 202 206  251 202 206  251 202 206  251 202 206  251 202 206  251 202 206  251 202 206  251 202 206  251 202 206  251 202 206  251 202 206  251 202 206  251 202 206  250 201 205  255 209 213  255 207 211  184 138 142  165 121 125  181 135 139  179 134 138  179 134 138  179 134 138  179 134 138  178 133 136  170 127 132  202 160 183  247 189 166  255 188 112  255 188 118  242 189 181  201 160 183  169 124 126  173 128 132  180 135 139  179 134 138  179 134 138  179 134 138  180 135 139  164 120 124  191 145 149  255 210 214  252 203 207  250 202 208  255 211 220  255 221 230  
252 202 223  251 201 224  254 205 226  255 209 213  247 199 202  251 202 206  251 202 206  251 202 206  251 202 206  251 202 206  251 202 206  251 202 206  251 202 206  253 204 208  255 206 210  255 206 210  254 205 209  254 205 209  255 206 210  255 206 210  253 204 208  251 202 206  251 202 206  251 202 206  251 202 206  251 202 206  251 202 206  251 202 206  251 202 206  251 202 206  251 202 206  251 202 206  251 202 206  251 202 206  251 202 206  251 202 206  251 202 206  251 202 206  251 202 206  251 202 206  251 202 206  251 202 206  251 202 206  251 202 206  251 202 206  251 202 206  251 202 206  251 202 206  251 202 206  250 201 205  255 213 217  247 198 202  174 130 134  166 122 126  180 135 139  179 134 138  179 134 138  179 134 138  180 135 139  177 132 135  170 126 130  185 144 166  200 160 187  199 160 187  183 141 159  169 125 127  176 131 135  180 135 139  179 134 138  179 134 138  179 134 138  180 135 139  164 121 125  180 135 139  252 202 206  255 209 212  255 207 212  254 205 226  251 201 223  252 202 223  
255 252 255  255 252 255  255 253 255  255 236 236  247 198 202  247 198 202  251 202 206  251 202 206  251 202 206  251 202 206  251 202 206  251 202 206  251 202 206  251 202 206  251 202 206  251 202 206  251 202 206  251 202 206  251 202 206  251 202 206  251 202 206  251 202 206  251 202 206  251 202 206  251 202 206  251 202 206  251 202 206  251 202 206  251 202 206  251 202 206  251 202 206  251 202 206  251 202 206  251 202 206  251 202 206  251 202 206  251 202 206  251 202 206  251 202 206  251 202 206  251 202 206  251 202 206  251 202 206  251 202 206  251 202 206  251 202 206  251 202 206  251 202 206  251 202 206  251 202 206  249 200 204  255 215 219  244 196 200  178 132 136  164 119 123  179 133 137  180 135 139  179 134 138  179 134 138  180 134 138  179 134 138  172 128 132  169 125 129  169 125 129  173 129 132  179 134 138  179 134 138  179 134 138  179 134 138  180 135 139  178 133 137  162 118 122  182 137 141  250 201 205  255 210 214  246 197 201  255 236 237  255 253 255  255 252 255  255 252 255  
255 255 255  255 255 255  255 255 255  255 240 239  255 213 215  252 204 208  249 200 204  251 202 206  251 202 206  251 202 206  251 202 206  251 202 206  251 202 206  251 202 206  251 202 206  251 202 206  251 202 206  251 202 206  251 202 206  251 202 206  251 202 206  251 202 206  251 202 206  251 202 206  251 202 206  251 202 206  250 201 205  248 199 203  249 200 204  249 200 204  249 200 204  249 200 204  249 200 204  249 200 204  249 200 204  249 200 204  249 200 204  249 200 204  249 200 204  249 200 204  249 200 204  249 200 204  249 200 204  249 200 204  249 200 204  249 200 204  249 200 204  249 200 204  249 200 204  249 200 204  249 200 204  248 199 203  255 212 216  250 201 205  194 148 152  163 119 123  170 125 129  179 134 138  179 134 138  179 134 138  179 134 138  179 134 138  179 134 138  179 134 138  179 134 138  179 134 138  179 134 138  180 135 139  179 134 138  169 124 128  164 120 124  198 152 156  255 205 209  255 210 215  251 203 206  255 208 213  255 237 237  255 255 255  255 255 255  255 255 255  
255 255 255  255 255 255  255 255 255  255 236 236  255 216 217  255 218 221  253 203 209  248 199 203  250 201 205  251 202 206  251 202 206  251 202 206  251 202 206  251 202 206  251 202 206  251 202 206  251 202 206  251 202 206  251 202 206  251 202 206  251 202 206  251 202 206  251 202 206  251 202 206  251 202 206  249 200 204  252 203 207  255 212 216  255 215 219  255 214 218  255 214 218  255 214 218  255 214 218  255 214 218  255 214 218  255 214 218  255 214 218  255 214 218  255 214 218  255 214 218  255 214 218  255 214 218  255 214 218  255 214 218  255 214 218  255 214 218  255 214 218  255 214 218  255 214 218  255 214 218  255 214 218  255 214 219  255 212 215  255 219 224  255 208 213  222 175 179  184 138 142  166 121 125  166 122 126  173 129 133  177 132 136  178 134 138  179 134 138  179 134 138  178 133 137  177 132 136  173 128 132  166 121 126  166 122 126  187 141 145  226 178 182  255 212 216  255 208 211  253 204 208  255 217 219  255 210 213  255 233 235  255 255 255  255 255 255  255 255 255  
255 255 255  255 255 255  255 255 255  255 236 236  255 214 215  255 215 220  255 209 213  255 208 212  255 207 212  255 212 215  249 200 204  251 201 206  251 202 206  251 202 206  251 202 206  251 202 206  251 202 206  251 202 206  251 202 206  251 202 206  251 202 206  251 202 206  249 200 204  255 206 210  255 211 216  254 205 210  251 202 206  255 218 219  255 224 230  255 220 226  255 220 226  255 220 226  255 220 226  255 220 226  255 220 226  255 220 226  255 220 226  255 220 226  255 220 226  255 220 226  255 220 226  255 220 226  255 220 226  255 220 226  255 220 226  255 220 226  255 220 226  255 220 226  255 220 226  255 220 226  255 220 226  255 221 227  255 217 218  243 194 196  253 205 210  255 210 215  252 203 207  223 175 179  198 152 156  182 136 140  172 127 131  169 124 128  168 123 127  168 123 127  169 124 128  173 128 132  182 137 141  200 154 158  225 178 182  253 203 207  255 224 228  255 209 214  252 203 211  255 211 215  255 216 218  255 208 212  255 234 235  255 255 255  255 255 255  255 255 255  
255 255 255  255 255 255  255 255 255  255 236 236  255 214 215  255 213 218  255 207 212  255 226 231  253 203 206  236 187 191  255 212 217  255 210 214  251 202 206  250 201 205  250 201 205  251 202 206  251 202 206  251 202 206  251 202 206  249 200 204  251 202 206  255 211 215  253 204 209  252 203 208  249 201 203  255 217 219  243 192 198  255 212 212  255 222 229  255 218 223  255 218 223  255 218 223  255 218 223  255 218 223  255 218 223  255 218 223  255 218 223  255 218 223  255 218 223  255 218 223  255 218 223  255 218 223  255 218 223  255 218 223  255 218 223  255 218 223  255 218 223  255 218 223  255 218 223  255 218 223  255 218 223  255 220 226  252 202 203  209 159 157  255 231 231  255 214 217  250 201 205  255 215 217  255 220 224  249 200 204  231 183 187  225 177 181  221 173 177  221 173 177  226 178 182  234 186 190  246 198 201  255 211 216  255 207 212  254 205 210  240 191 194  254 205 206  255 216 231  255 207 213  255 215 215  255 208 212  255 234 235  255 255 255  255 255 255  255 255 255  
255 255 255  255 255 255  255 255 255  255 236 236  255 214 215  255 213 218  255 207 212  255 241 245  228 178 178  168 118 121  247 197 200  244 195 198  255 213 217  255 214 219  248 199 203  255 205 210  242 193 198  242 193 198  245 196 201  249 200 204  254 206 210  246 198 202  255 226 228  168 118 121  157 107 106  255 230 231  244 194 201  255 213 214  255 222 228  255 218 223  255 218 223  255 218 223  255 218 223  255 218 223  255 218 223  255 218 223  255 218 223  255 218 223  255 218 223  255 218 223  255 218 223  255 218 223  255 218 223  255 218 223  255 218 223  255 218 223  255 218 223  255 218 223  255 218 223  255 218 223  255 218 223  255 220 226  254 204 205  211 161 160  255 244 243  255 228 228  255 212 216  255 212 221  250 200 205  255 206 211  255 210 215  255 208 212  254 205 210  255 205 210  255 217 222  255 210 214  251 202 207  254 204 209  255 227 229  255 225 232  161 111 114  229 179 178  255 232 246  255 207 213  255 215 216  255 208 212  255 234 235  255 255 255  255 255 255  255 255 255  
255 255 255  255 255 255  255 255 255  255 236 236  255 214 215  255 213 218  255 207 212  255 239 243  231 181 182  174 124 128  222 172 174  206 156 155  203 153 154  217 167 169  255 228 230  245 196 199  255 229 231  255 228 230  255 219 223  255 246 247  224 175 180  133 83 87  255 232 231  154 104 106  148 97 97  255 234 236  245 195 201  255 213 214  255 222 228  255 218 223  255 218 223  255 218 223  255 218 223  255 218 223  255 218 223  255 218 223  255 218 223  255 218 223  255 218 223  255 218 223  255 218 223  255 218 223  255 218 223  255 218 223  255 218 223  255 218 223  255 218 223  255 218 223  255 218 223  255 218 223  255 218 223  255 220 226  254 204 205  212 162 161  255 240 240  255 220 220  255 229 234  255 215 229  107 57 57  214 164 164  255 246 248  255 217 220  255 227 230  255 229 231  245 196 198  255 217 223  255 241 243  237 187 187  255 249 250  255 239 247  154 104 108  232 182 182  255 230 244  255 207 213  255 215 216  255 208 212  255 234 235  255 255 255  255 255 255  255 255 255  
255 255 255  255 255 255  255 255 255  255 255 255  255 255 255  255 255 255  255 255 255  255 255 255  255 255 255  255 255 255  255 255 255  255 255 255  255 255 255  255 255 255  255 255 255  255 255 255  255 255 255  255 255 255  255 255 255  255 255 255  255 255 255  255 255 255  255 255 255  255 255 255  255 255 255  255 255 255  255 255 255  255 255 255  255 255 255  255 255 255  255 255 255  255 255 255  255 255 255  255 255 255  255 255 255  255 255 255  255 255 255  255 255 255  255 255 255  255 255 255  255 255 255  255 255 255  255 255 255  255 255 255  255 255 255  255 255 255  255 255 255  255 255 255  255 255 255  255 255 255  255 255 255  255 255 255  255 255 255  255 255 255  255 255 255  255 255 255  255 255 255  255 255 255  255 255 255  255 255 255  255 255 255  255 255 255  255 255 255  255 255 255  255 255 255  255 255 255  255 255 255  255 255 255  255 255 255  255 255 255  255 255 255  255 255 255  255 255 255  255 255 255  255 255 255  255 255 255  255 255 255  255 255 255  255 255 255  255 255 255  
255 255 255  255 255 255  255 255 255  255 255 255  255 255 255  255 255 255  255 255 255  255 255 255  255 255 255  255 255 255  255 255 255  255 255 255  255 255 255  255 255 255  255 255 255  255 255 255  255 255 255  255 255 255  255 255 255  255 255 255  255 255 255  255 255 255  255 255 255  255 255 255  255 255 255  255 255 255  255 255 255  255 255 255  255 255 255  255 255 255  255 255 255  255 255 255  255 255 255  255 255 255  255 255 255  255 255 255  255 255 255  255 255 255  255 255 255  255 255 255  255 255 255  255 255 255  255 255 255  255 255 255  255 255 255  255 255 255  255 255 255  255 255 255  255 255 255  255 255 255  255 255 255  255 255 255  255 255 255  255 255 255  255 255 255  255 255 255  255 255 255  255 255 255  255 255 255  255 255 255  255 255 255  255 255 255  255 255 255  255 255 255  255 255 255  255 255 255  255 255 255  255 255 255  255 255 255  255 255 255  255 255 255  255 255 255  255 255 255  255 255 255  255 255 255  255 255 255  255 255 255  255 255 255  255 255 255  255 255 255  
