P3
# Created by PPMWriter
80 40
255
255 255 255  255 255 255  255 255 255  255 255 255  255 255 255  255 255 255  255 255 255  255 255 255  255 255 255  255 255 255  255 255 255  255 255 255  255 255 255  255 255 255  255 255 255  255 255 255  255 255 255  255 255 255  255 255 255  255 255 255  255 255 255  255 255 255  255 255 255  255 255 255  255 255 255  255 255 255  255 255 255  255 255 255  255 255 255  255 255 255  255 255 255  255 255 255  255 255 255  255 255 255  255 255 255  255 255 255  255 255 255  255 255 255  255 255 255  255 255 255  255 255 255  255 255 255  255 255 255  255 255 255  255 255 255  255 255 255  255 255 255  255 255 255  255 255 255  255 255 255  255 255 255  255 255 255  255 255 255  255 255 255  255 255 255  255 255 255  255 255 255  255 255 255  255 255 255  255 255 255  255 255 255  255 255 255  255 255 255  255 255 255  255 255 255  255 255 255  255 255 255  255 255 255  255 255 255  255 255 255  255 255 255  255 255 255  255 255 255  255 255 255  255 255 255  255 255 255  255 255 255  255 255 255  255 255 255  255 255 255  
255 255 255  255 255 255  255 255 255  255 255 255  255 255 255  255 255 255  255 255 255  255 255 255  255 255 255  255 255 255  255 255 255  255 255 255  255 255 255  255 255 255  255 255 255  255 255 255  255 255 255  255 255 255  255 255 255  255 255 255  255 255 255  255 255 255  255 255 255  255 255 255  255 255 255  255 255 255  255 255 255  255 255 255  255 255 255  255 255 255  255 255 255  255 255 255  255 255 255  255 255 255  255 255 255  255 255 255  255 255 255  255 255 255  255 255 255  255 255 255  255 255 255  255 255 255  255 255 255  255 255 255  255 255 255  255 255 255  255 255 255  255 255 255  255 255 255  255 255 255  255 255 255  255 255 255  255 255 255  255 255 255  255 255 255  255 255 255  255 255 255  255 255 255  255 255 255  255 255 255  255 255 255  255 255 255  255 255 255  255 255 255  255 255 255  255 255 255  255 255 255  255 255 255  255 255 255  255 255 255  255 255 255  255 255 255  255 255 255  255 255 255  255 255 255  255 255 255  255 255 255  255 255 255  255 255 255  255 255 255  
60 60 60  60 60 60  60 60 60  60 60 60  234 236 231  255 255 255  211 210 255  176 176 255  202 202 255  197 197 177  140 140 141  170 170 169  255 255 255  179 179 182  163 163 167  218 218 225  248 248 254  224 224 229  246 246 250  220 219 226  228 228 235  229 228 236  255 255 255  255 255 255  255 255 255  225 225 230  235 235 239  255 255 255  255 255 255  255 255 255  255 255 255  255 255 255  255 255 255  255 255 255  255 255 255  255 255 255  255 255 255  255 255 255  255 255 255  255 255 255  255 255 255  255 255 255  255 255 255  255 255 255  255 255 255  255 255 255  255 255 255  255 255 255  255 255 255  255 255 255  255 255 255  255 255 255  255 255 255  250 251 255  226 226 231  255 255 255  255 255 255  241 241 246  214 215 221  234 234 242  219 220 226  247 247 251  230 230 234  189 189 193  212 212 218  221 221 228  217 217 223  147 147 147  155 155 154  205 205 207  232 232 238  120 120 122  60 60 60  60 60 60  79 79 79  187 187 187  66 66 66  60 60 60  60 60 60  60 60 60  
60 60 60  60 60 60  60 60 60  60 60 60  235 236 231  255 255 255  200 199 255  165 164 255  195 195 255  198 198 174  190 190 195  217 217 224  235 235 241  248 249 255  255 255 255  251 252 255  236 236 242  245 246 252  236 236 243  249 249 255  247 247 252  246 247 252  234 234 241  232 232 239  231 232 238  242 243 249  255 255 255  255 255 255  255 255 255  255 255 255  255 255 255  255 255 255  255 255 255  255 255 255  255 255 255  255 255 255  255 255 255  255 255 255  255 255 255  255 255 255  255 255 255  255 255 255  255 255 255  255 255 255  255 255 255  255 255 255  255 255 255  255 255 255  255 255 255  255 255 255  255 255 255  255 255 255  255 255 255  255 255 255  244 244 251  231 231 238  232 232 239  241 241 248  253 253 255  244 244 250  249 249 255  235 236 243  243 244 250  255 255 255  253 254 255  240 241 247  240 240 247  233 233 239  208 208 213  214 214 218  233 233 238  102 102 104  60 60 60  60 60 60  60 60 60  179 179 179  67 67 67  60 60 60  60 60 60  60 60 60  
60 60 60  60 60 60  60 60 60  60 60 60  233 235 231  255 255 255  228 228 255  185 185 255  210 210 255  229 230 218  253 253 255  255 255 255  253 254 255  255 255 255  255 255 255  255 255 255  255 255 255  255 255 255  255 255 255  255 255 255  255 255 255  255 255 255  255 255 255  255 255 255  255 255 255  255 255 255  255 255 255  255 255 255  255 255 255  255 255 255  255 255 255  255 255 255  255 255 255  255 255 255  255 255 255  255 255 255  255 255 255  255 255 255  255 255 255  255 255 255  255 255 255  255 255 255  255 255 255  255 255 255  255 255 255  255 255 255  255 255 255  255 255 255  255 255 255  255 255 255  255 255 255  255 255 255  255 255 255  255 255 255  255 255 255  255 255 255  255 255 255  255 255 255  255 255 255  255 255 255  255 255 255  255 255 255  255 255 255  255 255 255  255 255 255  255 255 255  255 255 255  255 255 255  255 255 255  246 246 252  233 233 241  181 181 186  169 168 168  180 180 180  190 190 190  208 208 208  63 63 63  60 60 60  60 60 60  60 60 60  
60 60 60  60 60 60  60 60 60  60 60 60  230 233 233  255 255 255  255 255 255  255 255 255  255 255 255  252 253 255  255 255 255  255 255 255  255 255 255  255 255 255  255 255 255  255 255 255  255 255 255  255 255 255  255 255 255  255 255 255  255 255 255  255 255 255  255 255 255  255 255 255  255 255 255  255 255 255  255 255 255  255 255 255  255 255 255  255 255 255  255 255 255  255 255 255  255 255 255  255 255 255  255 255 255  255 255 255  255 255 255  255 255 255  255 255 255  255 255 255  255 255 255  255 255 255  255 255 255  255 255 255  255 255 255  255 255 255  255 255 255  255 255 255  255 255 255  255 255 255  255 255 255  255 255 255  255 255 255  255 255 255  255 255 255  255 255 255  255 255 255  255 255 255  255 255 255  255 255 255  249 251 255  241 243 247  237 239 243  237 239 243  242 243 247  251 252 255  255 255 255  255 255 255  255 255 255  255 255 255  247 248 253  255 255 255  255 255 255  255 255 255  255 255 255  241 241 241  60 60 60  60 60 60  60 60 60  60 60 60  
60 60 60  60 60 60  60 60 60  60 60 60  230 233 233  255 255 255  255 255 255  255 255 255  255 255 255  255 255 255  255 255 255  255 255 255  255 255 255  255 255 255  255 255 255  255 255 255  255 255 255  255 255 255  255 255 255  255 255 255  255 255 255  255 255 255  255 255 255  255 255 255  255 255 255  255 255 255  255 255 255  255 255 255  255 255 255  255 255 255  255 255 255  255 255 255  255 255 255  255 255 255  255 255 255  255 255 255  255 255 255  255 255 255  255 255 255  255 255 255  255 255 255  255 255 255  255 255 255  255 255 255  255 255 255  255 255 255  255 255 255  255 255 255  255 255 255  255 255 255  255 255 255  255 255 255  255 255 255  255 255 255  255 255 255  255 255 255  255 255 255  239 242 246  214 218 222  197 201 205  187 192 196  182 187 191  180 185 189  180 185 189  182 187 191  188 192 196  198 202 206  216 219 223  242 244 248  255 255 255  255 255 255  255 255 255  255 255 255  255 255 255  255 255 255  233 233 233  60 60 60  60 60 60  60 60 60  60 60 60  
60 60 60  60 60 60  60 60 60  60 60 60  230 233 232  255 255 255  255 255 255  255 255 255  255 255 255  255 255 255  255 255 255  255 255 255  255 255 255  255 255 255  255 255 255  255 255 255  255 255 255  255 255 255  255 255 255  255 255 255  255 255 255  255 255 255  255 255 255  255 255 255  255 255 255  255 255 255  255 255 255  255 255 255  255 255 255  255 255 255  255 255 255  255 255 255  255 255 255  255 255 255  255 255 255  255 255 255  255 255 255  255 255 255  255 255 255  255 255 255  255 255 255  255 255 255  255 255 255  255 255 255  255 255 255  255 255 255  255 255 255  255 255 255  255 255 255  255 255 255  255 255 255  255 255 255  255 255 255  255 255 255  255 255 255  239 241 245  199 203 208  178 183 188  175 181 185  181 187 191  186 191 195  188 193 197  188 193 197  188 193 197  187 193 197  185 191 195  181 186 190  175 181 185  179 184 188  202 206 210  243 246 249  255 255 255  255 255 255  255 255 255  255 255 255  233 232 231  60 60 60  60 60 60  60 60 60  60 60 60  
163 163 163  163 163 163  159 159 158  124 124 123  233 234 236  255 255 255  255 255 255  255 255 255  255 255 255  255 255 255  255 255 255  255 255 255  255 255 255  255 255 255  255 255 255  255 255 255  255 255 255  255 255 255  255 255 255  255 255 255  255 255 255  255 255 255  255 255 255  255 255 255  255 255 255  255 255 255  255 255 255  255 255 255  255 255 255  255 255 255  255 255 255  255 255 255  255 255 255  255 255 255  255 255 255  255 255 255  255 255 255  255 255 255  255 255 255  255 255 255  255 255 255  255 255 255  255 255 255  255 255 255  255 255 255  255 255 255  255 255 255  255 255 255  255 255 255  255 255 255  255 255 255  255 255 255  255 255 255  255 255 255  212 215 219  175 180 184  177 183 187  188 193 197  189 194 198  189 194 198  189 194 198  189 194 198  189 194 198  189 194 198  189 194 198  189 194 198  189 194 198  190 195 199  188 193 197  176 182 186  176 181 185  216 220 224  255 255 255  255 255 255  255 255 255  235 236 239  125 124 123  159 159 158  163 163 163  163 163 163  
232 232 232  232 232 232  225 224 226  255 255 255  255 255 255  254 255 255  255 255 255  255 255 255  255 255 255  255 255 255  255 255 255  255 255 255  255 255 255  255 255 255  255 255 255  255 255 255  255 255 255  255 255 255  255 255 255  255 255 255  255 255 255  255 255 255  255 255 255  255 255 255  255 255 255  255 255 255  255 255 255  255 255 255  255 255 255  255 255 255  255 255 255  255 255 255  255 255 255  255 255 255  255 255 255  255 255 255  255 255 255  255 255 255  255 255 255  255 255 255  255 255 255  255 255 255  255 255 255  255 255 255  255 255 255  255 255 255  255 255 255  255 255 255  255 255 255  255 255 255  255 255 255  255 255 255  255 255 255  194 198 202  172 178 182  187 192 196  190 195 199  189 194 198  189 194 198  189 194 198  189 194 198  186 191 195  182 187 191  182 188 192  187 192 196  190 195 199  189 194 198  189 194 198  189 194 198  190 195 199  186 191 195  171 177 181  199 203 207  255 255 255  255 255 255  255 255 255  255 255 255  224 224 226  232 232 232  232 232 232  
60 60 60  60 60 60  71 70 73  255 255 255  255 255 255  255 255 255  255 255 255  255 255 255  255 255 255  255 255 255  255 255 255  255 255 255  255 255 255  255 255 255  255 255 255  255 255 255  255 255 255  255 255 255  255 255 255  255 255 255  255 255 255  255 255 255  255 255 255  255 255 255  255 255 255  255 255 255  255 255 255  255 255 255  255 255 255  255 255 255  255 255 255  255 255 255  255 255 255  255 255 255  255 255 255  255 255 255  255 255 255  255 255 255  255 255 255  255 255 255  255 255 255  255 255 255  255 255 255  255 255 255  255 255 255  255 255 255  255 255 255  255 255 255  255 255 255  255 255 255  255 255 255  255 255 255  190 195 199  175 180 184  190 195 199  189 194 198  189 194 198  189 194 198  190 195 199  188 193 197  177 183 189  197 198 197  230 223 212  226 220 209  190 193 193  179 185 191  190 195 199  189 194 198  189 194 198  189 194 198  189 194 198  189 194 198  173 179 183  196 200 204  255 255 255  255 255 255  255 255 255  72 72 74  60 60 60  60 60 60  
195 195 195  198 198 197  245 246 248  255 255 255  255 255 255  255 255 255  255 255 255  255 255 255  255 255 255  255 255 255  255 255 255  255 255 255  255 255 255  255 255 255  251 252 255  246 247 251  243 244 249  243 244 249  245 246 251  251 252 255  255 255 255  255 255 255  255 255 255  255 255 255  255 255 255  255 255 255  255 255 255  255 255 255  255 255 255  255 255 255  255 255 255  255 255 255  255 255 255  255 255 255  255 255 255  255 255 255  255 255 255  255 255 255  255 255 255  255 255 255  255 255 255  255 255 255  255 255 255  255 255 255  255 255 255  255 255 255  255 255 255  255 255 255  255 255 255  255 255 255  255 255 255  199 203 208  174 180 184  190 195 199  189 194 198  189 194 198  189 194 198  190 195 199  185 190 194  173 181 186  228 224 216  244 245 248  195 216 252  199 218 252  246 244 242  213 211 204  177 183 190  190 195 199  189 194 198  189 194 198  189 194 198  189 194 198  190 195 199  173 179 183  206 210 214  255 255 255  255 255 255  239 240 242  193 193 193  195 195 195  
255 255 255  255 255 255  255 255 255  251 252 255  255 255 255  255 255 255  255 255 255  255 255 255  255 255 255  255 255 255  255 255 255  255 255 255  247 248 254  235 236 241  235 236 241  245 246 252  246 248 253  247 248 253  244 245 250  233 234 240  235 236 241  247 248 253  255 255 255  255 255 255  255 255 255  255 255 255  255 255 255  255 255 255  255 255 255  255 255 255  255 255 255  255 255 255  255 255 255  255 255 255  255 255 255  255 255 255  255 255 255  255 255 255  255 255 255  255 255 255  255 255 255  255 255 255  255 255 255  255 255 255  255 255 255  255 255 255  255 255 255  255 255 255  255 255 255  255 255 255  222 225 229  172 178 182  189 194 198  189 194 198  189 194 198  189 194 198  190 195 199  181 187 191  178 184 190  240 235 228  239 246 255  102 158 249  60 126 239  60 126 240  121 173 255  241 244 251  207 205 200  183 189 193  189 194 198  189 194 198  189 194 198  189 194 198  189 194 198  188 193 197  172 178 182  230 232 236  255 255 255  255 255 255  255 255 255  255 255 255  
255 255 255  255 255 255  254 255 255  255 255 255  255 255 255  255 255 255  255 255 255  255 255 255  255 255 255  255 255 255  255 255 255  239 240 245  231 232 237  237 238 243  236 238 242  216 217 222  213 214 219  212 213 218  220 220 226  239 240 245  236 237 242  231 232 238  238 239 244  255 255 255  255 255 255  255 255 255  255 255 255  255 255 255  255 255 255  255 255 255  255 255 255  255 255 255  255 255 255  255 255 255  255 255 255  255 255 255  255 255 255  255 255 255  255 255 255  255 255 255  255 255 255  255 255 255  255 255 255  255 255 255  255 255 255  255 255 255  255 255 255  255 255 255  255 255 255  252 253 255  183 188 192  184 189 193  189 194 198  189 194 198  189 194 198  189 194 198  178 184 188  187 192 196  239 239 240  255 255 255  107 161 244  60 116 236  80 144 240  78 143 240  60 115 236  140 185 255  244 237 230  182 187 189  189 194 198  189 194 198  189 194 198  189 194 198  189 194 198  190 195 199  182 187 191  186 191 195  255 255 255  255 255 255  255 255 255  255 255 255  
255 255 255  255 255 255  255 255 255  255 255 255  255 255 255  255 255 255  255 255 255  255 255 255  255 255 255  255 255 255  237 238 244  232 233 238  237 238 243  252 253 255  200 201 206  131 132 137  141 142 147  139 140 145  136 138 142  213 215 219  250 251 255  237 238 243  232 233 239  236 237 242  255 255 255  255 255 255  255 255 255  255 255 255  255 255 255  255 255 255  255 255 255  255 255 255  255 255 255  255 255 255  255 255 255  255 255 255  255 255 255  255 255 255  255 255 255  255 255 255  255 255 255  255 255 255  255 255 255  255 255 255  255 255 255  255 255 255  255 255 255  255 255 255  255 255 255  215 219 223  174 180 184  190 195 199  189 194 198  190 195 199  187 192 196  176 182 186  197 202 206  244 246 251  255 255 255  222 232 250  66 135 238  71 140 239  80 144 240  80 144 240  63 134 239  94 155 249  226 230 239  195 196 193  188 193 197  189 194 198  189 194 198  189 194 198  189 194 198  189 194 198  190 195 199  173 179 183  221 224 228  255 255 255  255 255 255  255 255 255  
255 255 255  255 255 255  255 255 255  255 255 255  255 255 255  255 255 255  255 255 255  255 255 255  255 255 255  243 244 249  232 233 238  237 238 243  237 238 243  253 254 255  189 190 195  131 132 137  148 149 154  148 149 154  133 134 139  202 204 208  252 253 255  237 238 243  238 239 244  232 233 238  242 243 248  255 255 255  255 255 255  255 255 255  255 255 255  255 255 255  255 255 255  255 255 255  255 255 255  255 255 255  255 255 255  255 255 255  255 255 255  255 255 255  255 255 255  255 255 255  255 255 255  255 255 255  255 255 255  255 255 255  255 255 255  255 255 255  255 255 255  255 255 255  255 255 255  189 194 198  183 188 192  189 194 198  190 195 199  184 189 193  177 183 186  210 214 218  253 254 255  254 255 255  255 254 252  241 244 251  78 142 240  60 130 238  82 145 240  82 146 240  60 124 237  111 167 252  238 237 235  188 191 191  188 193 197  182 188 192  179 185 189  182 188 191  188 193 197  190 195 199  189 194 198  181 187 191  194 199 203  255 255 255  255 255 255  255 255 255  
249 255 255  255 255 255  255 255 255  255 255 255  255 255 255  255 255 255  255 255 255  255 255 255  254 255 255  233 233 239  238 238 243  239 240 245  239 240 245  254 255 255  194 195 200  135 136 141  150 151 156  149 150 155  138 139 144  207 208 213  253 254 255  239 240 245  239 240 245  238 239 244  232 233 238  253 254 255  255 255 255  255 255 255  255 255 255  255 255 255  255 255 255  255 255 255  255 255 255  255 255 255  255 255 255  255 255 255  255 255 255  255 255 255  255 255 255  255 255 255  255 255 255  255 255 255  255 255 255  255 255 255  255 255 255  255 255 255  255 255 255  255 255 255  235 238 242  177 182 186  189 194 198  190 195 199  179 186 189  187 189 194  248 234 246  255 255 255  255 255 255  243 245 250  245 247 251  255 255 254  177 204 247  60 120 237  60 124 238  60 122 237  60 130 242  209 227 255  230 224 215  175 179 183  181 188 192  199 224 227  208 241 244  200 229 232  182 192 196  183 186 190  190 195 199  188 193 197  180 185 189  240 242 246  255 255 255  251 255 255  
255 255 255  255 255 255  255 255 255  255 255 255  255 255 255  255 255 255  255 255 255  255 255 255  243 244 249  234 235 240  247 248 253  246 247 252  245 246 251  255 255 255  197 198 203  134 135 140  150 151 156  149 150 155  137 138 143  211 212 217  255 255 255  245 246 251  247 248 253  246 247 252  233 234 239  243 244 248  255 255 255  255 255 255  255 255 255  255 255 255  255 255 255  255 255 255  255 255 255  255 255 255  255 255 255  255 255 255  255 255 255  255 255 255  255 255 255  255 255 255  255 255 255  255 255 255  255 255 255  255 255 255  255 255 255  255 255 255  255 255 255  255 255 255  217 221 225  175 181 185  190 195 199  178 187 189  203 198 206  251 243 252  213 244 235  188 228 214  235 243 245  255 254 255  245 246 252  250 249 252  255 255 253  191 213 248  121 168 242  133 178 249  217 233 255  238 232 224  171 175 179  185 197 201  227 251 254  251 214 222  255 174 186  252 200 209  230 247 251  188 206 209  183 185 190  190 195 199  176 182 186  223 226 230  255 255 255  255 255 255  
255 255 255  255 255 255  255 255 255  255 255 255  255 255 255  255 255 255  255 255 255  255 255 255  241 241 246  239 240 245  191 193 197  165 167 172  173 174 179  177 178 183  162 163 168  146 147 152  150 151 156  150 151 156  147 148 153  165 166 171  177 178 183  173 174 179  164 165 170  200 201 206  244 245 250  238 239 244  255 255 255  255 255 255  255 255 255  255 255 255  255 255 255  255 255 255  255 255 255  255 255 255  255 255 255  255 255 255  255 255 255  255 255 255  255 255 255  255 255 255  255 255 255  255 255 255  255 255 255  255 255 255  255 255 255  255 255 255  255 255 255  255 255 255  206 210 214  178 184 188  186 191 195  196 194 201  245 242 248  139 221 191  60 186 133  60 185 131  76 193 146  206 235 228  255 254 255  242 245 251  249 248 252  255 255 253  255 255 255  255 255 255  228 223 214  165 172 176  191 198 202  243 255 255  255 181 193  250 60 81  247 60 72  250 60 75  255 152 165  232 247 250  183 196 199  187 192 196  177 183 187  211 216 220  255 255 255  255 255 255  
255 255 255  255 255 255  255 255 255  255 255 255  255 255 255  255 255 255  255 255 255  255 255 255  243 244 249  232 233 238  145 146 151  129 130 135  137 138 143  135 136 141  144 145 150  152 153 158  150 151 156  150 151 156  152 153 158  142 143 148  135 136 141  137 138 143  123 124 129  159 160 165  244 245 250  238 239 244  255 255 255  255 255 255  255 255 255  255 255 255  255 255 255  255 255 255  255 255 255  255 255 255  255 255 255  255 255 255  255 255 255  255 255 255  255 255 255  255 255 255  255 255 255  255 255 255  255 255 255  255 255 255  255 255 255  255 255 255  255 255 255  255 255 255  200 204 208  181 186 190  180 184 188  242 225 238  167 230 208  60 180 121  74 193 147  79 195 151  60 185 131  81 195 150  242 245 249  255 250 255  247 248 253  255 255 255  246 246 249  192 196 199  164 171 174  206 210 214  252 255 255  255 220 228  246 60 76  247 70 89  247 87 105  247 79 97  249 60 67  255 185 195  205 236 238  181 187 190  179 185 189  205 209 213  255 255 255  255 255 255  
255 255 255  255 255 255  255 255 255  255 255 255  255 255 255  255 255 255  255 255 255  255 255 255  242 243 248  232 233 238  155 156 161  143 144 149  150 151 156  150 151 156  150 151 156  150 151 156  150 151 156  150 151 156  150 151 156  150 151 156  150 151 156  150 151 156  138 139 144  167 168 173  242 243 248  238 239 244  255 255 255  255 255 255  255 255 255  255 255 255  255 255 255  255 255 255  255 255 255  241 242 246  215 216 221  255 255 255  255 255 255  255 255 255  255 255 255  255 255 255  255 255 255  255 255 255  225 226 230  225 227 231  255 255 255  255 255 255  255 255 255  255 255 255  197 202 206  182 187 191  183 186 191  240 231 241  117 214 177  60 186 133  81 195 151  80 195 150  78 195 149  60 187 134  194 230 220  255 255 255  255 255 255  231 233 238  177 182 186  170 176 180  222 224 229  255 255 255  252 255 255  245 166 178  247 60 71  247 88 105  247 85 103  247 87 105  247 60 73  255 145 159  215 243 245  179 186 190  179 185 189  203 207 211  255 255 255  255 255 255  
255 255 255  255 255 255  255 255 255  255 255 255  255 255 255  255 255 255  255 255 255  255 255 255  243 244 249  230 231 236  148 149 154  138 139 144  145 146 151  144 145 150  148 149 154  151 152 157  150 151 156  150 151 156  151 152 157  147 148 153  144 145 150  145 146 151  133 133 138  161 162 167  241 243 248  239 240 245  255 255 255  255 255 255  255 255 255  255 255 255  255 255 255  255 255 255  222 223 227  130 131 136  91 92 97  207 208 212  255 255 255  255 255 255  255 255 255  255 255 255  255 255 255  197 198 202  114 115 120  108 110 115  238 239 243  255 255 255  255 255 255  255 255 255  199 204 208  181 186 190  180 184 189  245 230 243  138 221 190  60 182 125  83 196 152  81 196 151  67 191 142  61 188 138  226 245 242  255 255 255  216 220 224  167 174 178  181 186 190  235 237 242  255 255 255  249 249 255  245 255 255  246 199 208  247 60 73  247 78 96  247 87 105  247 84 102  248 60 66  255 173 185  208 239 242  180 186 190  179 185 189  205 209 213  255 255 255  255 255 255  
255 255 255  255 255 255  255 255 255  255 255 255  255 255 255  255 255 255  255 255 255  255 255 255  243 244 249  237 238 243  167 168 173  140 141 146  149 150 155  149 150 155  150 151 156  150 151 156  150 151 156  150 151 156  150 151 156  150 151 156  149 150 155  149 150 155  137 138 143  179 181 186  245 246 251  239 240 245  255 255 255  255 255 255  255 255 255  255 255 255  255 255 255  192 193 197  117 119 124  105 106 112  124 125 130  232 233 237  255 255 255  255 255 255  255 255 255  255 255 255  166 168 173  111 112 117  105 106 111  145 147 151  254 255 255  255 255 255  255 255 255  255 255 255  205 210 214  178 184 188  183 188 192  215 206 216  228 244 242  78 199 150  60 182 124  60 184 130  60 181 123  165 228 205  255 255 255  204 206 210  164 171 173  192 201 218  241 250 255  253 255 255  244 248 255  246 246 249  246 251 255  246 255 255  246 144 158  247 60 65  247 60 71  246 60 63  255 123 140  239 245 249  186 202 205  186 191 195  178 183 188  211 215 219  255 255 255  255 255 255  
255 255 255  255 255 255  255 255 255  255 255 255  255 255 255  255 255 255  255 255 255  255 255 255  244 245 250  236 237 242  235 236 241  223 224 229  225 226 231  238 239 244  187 188 193  137 138 143  150 151 156  149 150 155  140 141 146  198 199 204  237 238 243  225 226 231  224 225 230  237 238 243  235 236 242  243 244 248  255 255 255  255 255 255  255 255 255  255 255 255  165 166 171  110 111 116  107 108 113  148 149 154  248 250 254  255 255 255  255 255 255  255 255 255  242 243 247  141 143 148  107 108 113  111 112 117  170 171 176  255 255 255  255 255 255  255 255 255  255 255 255  255 255 255  216 220 224  175 181 185  190 195 199  177 185 188  228 216 227  229 245 244  149 224 196  136 219 186  191 237 222  253 243 253  201 199 205  166 173 176  204 213 236  255 253 246  255 248 189  255 240 187  245 247 252  243 249 255  247 244 247  246 255 255  246 255 255  246 183 192  247 147 155  255 179 190  244 249 254  192 214 217  182 184 188  190 195 199  176 182 186  222 225 229  255 255 255  255 255 255  
255 255 255  255 255 255  255 255 255  255 255 255  255 255 255  255 255 255  255 255 255  255 255 255  255 255 255  232 233 238  242 243 248  247 248 253  246 247 252  255 255 255  197 198 203  133 134 139  150 151 156  149 150 155  137 138 143  212 213 218  255 255 255  246 247 252  247 248 253  241 242 246  231 232 237  254 255 255  255 255 255  255 255 255  255 255 255  223 224 229  92 93 99  108 108 114  175 176 181  255 255 255  255 255 255  255 255 255  255 255 255  255 255 255  188 189 193  78 80 85  121 123 127  200 201 206  255 255 255  255 255 255  255 255 255  255 255 255  255 255 255  255 255 255  233 235 240  176 182 186  189 194 198  188 194 197  178 185 188  214 205 215  246 230 243  246 233 245  238 223 236  189 191 196  169 177 179  201 210 234  255 255 230  255 237 102  255 229 75  255 230 76  255 234 117  248 246 241  243 248 255  246 244 249  245 252 255  249 255 255  255 255 255  232 255 255  185 201 204  180 182 186  190 195 199  188 193 197  179 185 189  239 241 245  255 255 255  255 255 255  
255 255 255  255 255 255  255 255 255  255 255 255  255 255 255  255 255 255  255 255 255  255 255 255  255 255 255  245 246 250  231 232 237  237 238 243  237 238 243  252 253 255  192 192 197  135 136 141  150 151 156  149 150 155  137 138 143  205 205 211  251 252 255  237 238 243  237 238 243  232 233 238  243 244 249  255 255 255  255 255 255  255 255 255  255 255 255  255 255 255  193 194 199  201 202 207  255 255 255  255 255 255  255 255 255  255 255 255  255 255 255  255 255 255  248 248 253  181 182 187  222 223 228  255 255 255  255 255 255  255 255 255  255 255 255  255 255 255  255 255 255  255 255 255  255 255 255  188 193 197  184 189 193  189 194 198  190 195 199  183 188 192  179 184 188  180 185 189  179 185 189  185 190 194  182 190 201  234 237 245  255 244 126  255 230 80  255 233 111  255 233 110  255 230 72  255 236 145  243 249 255  244 246 254  252 253 255  255 255 255  219 223 227  179 185 189  181 187 191  190 195 199  189 194 198  182 188 192  192 197 201  255 255 255  255 255 255  255 255 255  
255 255 255  255 255 255  254 255 255  255 255 255  255 255 255  255 255 255  255 255 255  255 255 255  255 255 255  255 255 255  239 240 245  232 233 238  237 238 243  254 255 255  190 191 196  119 120 125  134 135 140  133 134 139  123 124 129  205 206 211  253 254 255  237 238 243  232 233 238  237 238 244  255 255 255  255 255 255  255 255 255  255 255 255  255 255 255  255 255 255  255 255 255  255 255 255  255 255 255  255 255 255  255 255 255  255 255 255  255 255 255  255 255 255  255 255 255  255 255 255  255 255 255  255 255 255  255 255 255  255 255 255  255 255 255  255 255 255  255 255 255  255 255 255  255 255 255  212 216 220  174 180 184  190 195 199  189 194 198  189 194 198  189 194 198  189 194 198  189 194 198  185 191 195  187 197 218  246 240 219  255 236 98  255 232 106  255 233 109  255 233 109  255 232 94  255 234 117  246 246 248  255 255 255  251 251 255  205 209 213  177 183 187  185 191 194  190 195 199  189 194 198  190 195 199  173 179 183  218 221 225  255 255 255  255 255 255  255 255 255  
232 232 229  255 255 255  255 255 255  255 255 255  255 255 255  255 255 255  255 255 255  255 255 255  255 255 255  255 255 255  255 255 255  241 242 247  231 232 237  241 242 247  225 226 231  185 186 191  185 186 191  183 185 190  190 191 196  232 233 238  239 240 245  231 232 237  240 241 245  255 255 255  255 255 255  255 255 255  255 255 255  255 255 255  255 255 255  255 255 255  255 255 255  255 255 255  255 255 255  255 255 255  255 255 255  255 255 255  255 255 255  255 255 255  255 255 255  255 255 255  255 255 255  255 255 255  255 255 255  255 255 255  255 255 255  255 255 255  255 255 255  255 255 255  255 255 255  248 249 253  180 185 190  185 191 194  189 194 198  189 194 198  189 194 198  189 194 198  189 194 198  187 192 196  182 190 203  236 238 241  255 242 118  255 230 86  255 233 111  255 233 111  255 229 76  255 236 137  255 255 255  240 243 251  193 197 201  177 183 187  188 193 197  190 195 199  189 194 198  190 195 199  183 189 193  183 188 192  254 255 255  255 255 255  255 255 255  232 232 229  
227 226 230  255 255 255  255 255 255  255 255 255  255 255 255  255 255 255  255 255 255  255 255 255  255 255 255  255 255 255  255 255 255  255 255 255  249 250 255  235 236 241  239 240 245  249 250 255  247 248 254  248 249 254  248 249 255  237 238 243  235 236 242  248 249 254  255 255 255  255 255 255  255 255 255  255 255 255  255 255 255  255 255 255  255 255 255  255 255 255  255 255 255  255 255 255  255 255 255  255 255 255  255 255 255  255 255 255  255 255 255  255 255 255  255 255 255  255 255 255  255 255 255  255 255 255  255 255 255  255 255 255  255 255 255  255 255 255  255 255 255  255 255 255  255 255 255  255 255 255  217 220 224  172 178 182  190 195 199  189 194 198  189 194 198  189 194 198  189 194 198  189 194 198  179 185 188  205 215 239  255 255 217  255 235 88  255 230 78  255 230 75  255 237 105  255 255 240  226 233 255  184 189 192  179 185 189  190 195 199  189 194 198  189 194 198  189 194 198  189 194 198  171 177 181  225 228 232  255 255 255  255 255 255  255 255 255  226 226 230  
255 255 255  255 255 255  255 255 255  255 255 255  255 255 255  255 255 255  255 255 255  255 255 255  255 255 255  255 255 255  255 255 255  255 255 255  255 255 255  255 255 255  253 254 255  248 249 254  245 246 251  245 246 251  247 248 253  252 253 255  255 255 255  255 255 255  255 255 255  255 255 255  255 255 255  255 255 255  255 255 255  255 255 255  255 255 255  255 255 255  255 255 255  255 255 255  255 255 255  255 255 255  255 255 255  255 255 255  255 255 255  255 255 255  255 255 255  255 255 255  255 255 255  255 255 255  255 255 255  255 255 255  255 255 255  255 255 255  255 255 255  255 255 255  255 255 255  255 255 255  255 255 255  194 198 202  175 181 185  191 195 199  189 194 198  189 194 198  189 194 198  189 194 198  188 193 196  180 187 192  212 220 243  255 249 226  255 248 172  255 248 178  252 249 241  211 220 243  179 184 186  183 188 192  190 195 199  189 194 198  189 194 198  189 194 198  190 195 199  174 180 184  201 205 209  255 255 255  255 255 255  255 255 255  255 255 255  255 255 255  
255 255 255  255 255 255  255 255 255  255 255 255  255 255 255  255 255 255  255 255 255  255 255 255  255 255 255  255 255 255  255 255 255  255 255 255  255 255 255  255 255 255  255 255 255  255 255 255  255 255 255  255 255 255  255 255 255  255 255 255  255 255 255  255 255 255  255 255 255  255 255 255  255 255 255  255 255 255  255 255 255  255 255 255  255 255 255  255 255 255  255 255 255  255 255 255  255 255 255  255 255 255  255 255 255  255 255 255  255 255 255  255 255 255  255 255 255  255 255 255  255 255 255  255 255 255  255 255 255  255 255 255  255 255 255  255 255 255  255 255 255  255 255 255  255 255 255  255 255 255  255 255 255  255 255 255  184 190 194  176 182 186  190 195 199  189 194 198  189 194 198  189 194 198  190 195 199  187 192 195  180 186 190  195 204 226  210 220 247  209 220 247  193 201 219  179 185 187  186 191 195  190 195 199  189 194 198  189 194 198  189 194 198  190 195 199  174 181 185  190 195 199  255 255 255  255 255 255  255 255 255  255 255 255  255 255 255  255 255 255  
255 255 255  255 255 255  255 255 255  255 255 255  255 255 255  255 255 255  255 255 255  255 255 255  255 255 255  255 255 255  255 255 255  255 255 255  255 255 255  255 255 255  255 255 255  255 255 255  255 255 255  255 255 255  255 255 255  255 255 255  255 255 255  255 255 255  255 255 255  255 255 255  255 255 255  255 255 255  255 255 255  255 255 255  255 255 255  255 255 255  255 255 255  255 255 255  255 255 255  255 255 255  255 255 255  255 255 255  255 255 255  255 255 255  255 255 255  255 255 255  255 255 255  255 255 255  255 255 255  255 255 255  255 255 255  255 255 255  255 255 255  255 255 255  255 255 255  255 255 255  255 255 255  255 255 255  254 255 255  188 192 196  174 179 183  189 193 197  190 195 199  189 194 198  189 194 198  190 194 198  189 194 198  182 188 192  179 185 189  179 185 189  183 189 192  189 194 198  189 194 198  189 194 198  189 194 198  190 195 199  188 193 197  172 178 182  192 197 201  255 255 255  255 255 255  255 255 255  255 255 255  255 255 255  255 255 255  255 255 255  
255 255 255  255 255 255  255 255 255  255 255 255  255 255 255  255 255 255  255 255 255  255 255 255  255 255 255  255 255 255  255 255 255  255 255 255  255 255 255  255 255 255  255 255 255  255 255 255  255 255 255  255 255 255  255 255 255  255 255 255  255 255 255  255 255 255  255 255 255  255 255 255  255 255 255  255 255 255  255 255 255  255 255 255  255 255 255  255 255 255  255 255 255  255 255 255  255 255 255  255 255 255  255 255 255  255 255 255  255 255 255  255 255 255  255 255 255  255 255 255  255 255 255  255 255 255  255 255 255  255 255 255  255 255 255  255 255 255  255 255 255  255 255 255  255 255 255  255 255 255  255 255 255  255 255 255  255 255 255  255 255 255  204 208 212  173 179 183  180 185 189  189 194 198  189 194 198  189 194 198  189 194 198  189 194 198  189 194 198  189 194 198  189 194 198  189 194 198  189 194 198  190 195 199  189 194 198  179 184 188  174 180 184  208 212 216  255 255 255  255 255 255  255 255 255  255 255 255  255 255 255  255 255 255  255 255 255  255 255 255  
255 255 255  255 255 255  255 255 255  255 255 255  255 255 255  255 255 255  255 255 255  255 255 255  255 255 255  255 255 255  255 255 255  255 255 255  255 255 255  255 255 255  255 255 255  255 255 255  255 255 255  255 255 255  255 255 255  255 255 255  255 255 255  255 255 255  255 255 255  255 255 255  255 255 255  255 255 255  255 255 255  255 255 255  255 255 255  255 255 255  255 255 255  255 255 255  255 255 255  255 255 255  255 255 255  255 255 255  255 255 255  255 255 255  255 255 255  255 255 255  255 255 255  255 255 255  255 255 255  255 255 255  255 255 255  255 255 255  255 255 255  255 255 255  255 255 255  255 255 255  255 255 255  255 255 255  255 255 255  255 255 255  255 255 255  232 235 239  194 198 202  176 181 185  176 182 186  183 189 193  187 192 196  188 194 198  189 194 198  189 194 198  188 193 197  187 192 196  183 188 192  176 181 186  176 182 186  197 201 205  236 238 242  255 255 255  255 255 255  255 255 255  255 255 255  255 255 255  255 255 255  255 255 255  255 255 255  255 255 255  
255 255 255  255 255 255  255 255 255  255 255 255  255 255 255  255 255 255  255 255 255  255 255 255  255 255 255  255 255 255  255 255 255  255 255 255  255 255 255  255 255 255  255 255 255  255 255 255  255 255 255  255 255 255  255 255 255  255 255 255  255 255 255  255 255 255  255 255 255  255 255 255  255 255 255  255 255 255  255 255 255  255 255 255  255 255 255  255 255 255  255 255 255  255 255 255  255 255 255  255 255 255  255 255 255  255 255 255  255 255 255  255 255 255  255 255 255  255 255 255  255 255 255  255 255 255  255 255 255  255 255 255  255 255 255  255 255 255  255 255 255  255 255 255  255 255 255  255 255 255  255 255 255  255 255 255  255 255 255  253 254 255  255 255 255  255 255 255  255 255 255  233 235 239  208 212 216  192 196 200  182 187 191  179 184 188  178 183 187  178 183 187  179 184 188  183 188 192  192 197 201  210 214 218  235 238 242  255 255 255  255 255 255  255 255 255  255 255 255  255 255 255  255 255 255  255 255 255  255 255 255  255 255 255  255 255 255  255 255 255  
255 255 255  255 255 255  255 255 255  255 255 255  255 255 255  255 255 255  255 255 255  255 255 255  255 255 255  246 247 251  255 255 255  255 255 255  255 255 255  255 255 255  255 255 255  255 255 255  255 255 255  255 255 255  255 255 255  255 255 255  255 255 255  255 255 255  255 255 255  255 255 255  255 255 255  255 255 255  253 252 255  255 255 255  255 255 255  255 255 255  255 255 255  255 255 255  255 255 255  255 255 255  255 255 255  255 255 255  255 255 255  255 255 255  255 255 255  255 255 255  255 255 255  255 255 255  255 255 255  255 255 255  255 255 255  255 255 255  255 255 255  255 255 255  255 255 255  255 255 255  255 255 255  255 255 255  255 255 255  219 219 217  255 255 255  255 255 255  255 255 255  255 255 255  255 255 255  255 255 255  241 243 247  235 237 241  231 233 237  231 233 237  236 238 242  244 246 250  255 255 255  255 255 255  255 255 255  255 255 255  250 251 254  255 255 255  255 255 255  255 255 255  255 255 255  255 255 255  255 255 255  255 255 255  255 255 255  255 255 255  
255 255 255  255 255 255  255 255 255  255 255 255  255 255 255  255 255 255  255 255 255  255 255 255  238 238 238  178 178 181  255 255 255  254 255 255  255 255 255  255 255 255  255 255 255  255 255 255  252 253 255  252 253 255  255 255 255  255 255 255  255 255 255  255 255 255  255 255 255  178 178 181  167 167 166  255 255 255  254 254 255  255 255 255  255 255 255  255 255 255  255 255 255  255 255 255  255 255 255  255 255 255  255 255 255  255 255 255  255 255 255  255 255 255  255 255 255  255 255 255  255 255 255  255 255 255  255 255 255  255 255 255  255 255 255  255 255 255  255 255 255  255 255 255  255 255 255  255 255 255  255 255 255  255 255 255  255 255 255  221 221 220  255 255 255  255 255 255  255 255 255  255 255 255  255 255 255  255 255 255  255 255 255  255 255 255  255 255 255  255 255 255  255 255 255  255 255 255  255 255 255  255 255 255  255 255 255  255 255 255  171 171 174  239 239 238  255 255 255  255 255 255  255 255 255  255 255 255  255 255 255  255 255 255  255 255 255  255 255 255  
255 255 255  255 255 255  255 255 255  255 255 255  255 255 255  255 255 255  255 255 255  255 255 255  241 241 242  184 184 188  232 232 234  216 216 215  213 213 214  227 227 229  255 255 255  255 255 255  255 255 255  255 255 255  255 255 255  255 255 255  234 235 240  143 143 147  255 255 255  164 164 166  158 157 157  255 255 255  255 255 255  255 255 255  255 255 255  255 255 255  255 255 255  255 255 255  255 255 255  255 255 255  255 255 255  255 255 255  255 255 255  255 255 255  255 255 255  255 255 255  255 255 255  255 255 255  255 255 255  255 255 255  255 255 255  255 255 255  255 255 255  255 255 255  255 255 255  255 255 255  255 255 255  255 255 255  255 255 255  222 222 221  255 255 255  255 255 255  255 255 255  255 255 255  117 117 117  224 224 224  255 255 255  255 255 255  255 255 255  255 255 255  255 255 255  255 255 255  255 255 255  247 247 247  255 255 255  255 255 255  164 164 168  242 242 242  255 255 255  255 255 255  255 255 255  255 255 255  255 255 255  255 255 255  255 255 255  255 255 255  
255 255 255  255 255 255  255 255 255  255 255 255  255 255 255  255 255 255  255 255 255  255 255 255  255 255 255  255 255 255  255 255 255  255 255 255  255 255 255  255 255 255  255 255 255  255 255 255  255 255 255  255 255 255  255 255 255  255 255 255  255 255 255  255 255 255  255 255 255  255 255 255  255 255 255  255 255 255  255 255 255  255 255 255  255 255 255  255 255 255  255 255 255  255 255 255  255 255 255  255 255 255  255 255 255  255 255 255  255 255 255  255 255 255  255 255 255  255 255 255  255 255 255  255 255 255  255 255 255  255 255 255  255 255 255  255 255 255  255 255 255  255 255 255  255 255 255  255 255 255  255 255 255  255 255 255  255 255 255  255 255 255  255 255 255  255 255 255  255 255 255  255 255 255  255 255 255  255 255 255  255 255 255  255 255 255  255 255 255  255 255 255  255 255 255  255 255 255  255 255 255  255 255 255  255 255 255  255 255 255  255 255 255  255 255 255  255 255 255  255 255 255  255 255 255  255 255 255  255 255 255  255 255 255  255 255 255  255 255 255  
255 255 255  255 255 255  255 255 255  255 255 255  255 255 255  255 255 255  255 255 255  255 255 255  255 255 255  255 255 255  255 255 255  255 255 255  255 255 255  255 255 255  255 255 255  255 255 255  255 255 255  255 255 255  255 255 255  255 255 255  255 255 255  255 255 255  255 255 255  255 255 255  255 255 255  255 255 255  255 255 255  255 255 255  255 255 255  255 255 255  255 255 255  255 255 255  255 255 255  255 255 255  255 255 255  255 255 255  255 255 255  255 255 255  255 255 255  255 255 255  255 255 255  255 255 255  255 255 255  255 255 255  255 255 255  255 255 255  255 255 255  255 255 255  255 255 255  255 255 255  255 255 255  255 255 255  255 255 255  255 255 255  255 255 255  255 255 255  255 255 255  255 255 255  255 255 255  255 255 255  255 255 255  255 255 255  255 255 255  255 255 255  255 255 255  255 255 255  255 255 255  255 255 255  255 255 255  255 255 255  255 255 255  255 255 255  255 255 255  255 255 255  255 255 255  255 255 255  255 255 255  255 255 255  255 255 255  255 255 255  
